<?xml version="1.0" encoding="utf-8"?>
<!-- Generator: Adobe Illustrator 15.0.0, SVG Export Plug-In . SVG Version: 6.00 Build 0)  -->
<!DOCTYPE svg PUBLIC "-//W3C//DTD SVG 1.1//EN" "http://www.w3.org/Graphics/SVG/1.1/DTD/svg11.dtd">
<svg version="1.1" id="Layer_1" xmlns="http://www.w3.org/2000/svg" xmlns:xlink="http://www.w3.org/1999/xlink" x="0px" y="0px"
	 width="398.417px" height="639.46px" viewBox="0 0 398.417 639.46" enable-background="new 0 0 398.417 639.46"
	 xml:space="preserve">
<g id="Background">
	<polygon fill="#444444" points="68.558,464.742 28.888,464.908 28.888,272.03 98.1,272.03 147.402,320.289 147.402,452.796 
		81.233,452.796 68.558,464.742 	"/>
	<rect x="148.79" y="124.347" fill="#666666" width="21.88" height="60.053"/>
	<rect x="211.402" y="124.347" fill="#666666" width="21.881" height="60.053"/>
	<rect x="273.607" y="124.347" fill="#666666" width="21.879" height="60.053"/>
	<rect x="333.738" y="124.347" fill="#666666" width="21.879" height="60.053"/>
	<rect x="211.402" y="198.992" fill="#666666" width="21.881" height="60.052"/>
	<rect x="273.607" y="198.992" fill="#666666" width="21.879" height="60.052"/>
	<rect x="333.738" y="198.992" fill="#666666" width="21.879" height="60.052"/>
	<rect x="124.93" y="14.771" fill="#444444" width="257.19" height="82.459"/>
	<rect x="82.066" y="478.117" fill="#444444" width="87.286" height="139.807"/>
	<path fill="#F3F4F5" d="M68.558,464.742"/>
	<polygon fill="#444444" points="28.888,467.019 68.558,467.019 79.94,478.402 79.573,617.923 28.888,617.923 	"/>
	<g>
		<rect x="226.559" y="62.016" fill="none" width="43.378" height="11.404"/>
		<text transform="matrix(1 0 0 1 228.0952 72.2349)" fill="#FFFFFF" font-family="'GothamBook'" font-size="14">Stage</text>
	</g>
	<rect x="147.472" y="199.992" fill="#666666" width="21.88" height="60.053"/>
	<rect x="285.97" y="439.359" fill="#444444" width="95.943" height="71.514"/>
	<rect x="305.035" y="510.39" fill="#444444" width="77.086" height="107.533"/>
	<g>
		<rect x="306.632" y="485.8" fill="none" width="61.785" height="39.074"/>
		<text transform="matrix(1 0 0 1 315.2495 496.0181)" fill="#FFFFFF" font-family="'GothamBook'" font-size="14">Sound </text>
		<text transform="matrix(1 0 0 1 316.2866 512.8198)" fill="#FFFFFF" font-family="'GothamBook'" font-size="14">Booth</text>
	</g>
	<path fill="#666666" d="M50.822,262.979"/>
	<path fill="#666666" d="M72.701,262.979"/>
	<g>
		<rect x="88.562" y="488.025" fill="none" width="72.736" height="10.414"/>
		<text transform="matrix(1 0 0 1 94.3262 498.2437)" fill="#FFFFFF" font-family="'GothamBook'" font-size="14">Bar Area</text>
	</g>
	<g>
		<text transform="matrix(1 0 0 1 198.563 114.2437)" fill="#FFFFFF" font-family="'GothamBook'" font-size="14">Premier Seating</text>
	</g>
	<g>
		<rect x="8.333" y="444.435" fill="none" width="72.735" height="10.416"/>
		<text transform="matrix(1 0 0 1 32.7383 454.6558)" fill="#FFFFFF" font-family="'GothamBook'" font-size="14">VIP</text>
	</g>
	<line fill="none" x1="116.701" y1="156.57" x2="116.701" y2="166.985"/>
</g>
<g id="Background-Above">
	<rect x="50.821" y="281.931" fill="#020202" width="21.88" height="74.566"/>
	<rect x="51.159" y="362.718" fill="#020202" width="21.88" height="74.566"/>
	<rect x="106.91" y="418.351" fill="#020202" width="21.879" height="14.369"/>
	<polygon fill="#020202" points="127.068,375.167 105.188,375.167 105.188,300.599 127.068,321.826 	"/>
</g>
<g id="Sections">
	<g id="VIP">
		<circle fill="#FFE600" cx="41.836" cy="282.4" r="4.469"/>
		<circle fill="#FFE600" cx="41.836" cy="303.789" r="4.469"/>
		<circle fill="#FFE600" cx="41.836" cy="323.362" r="4.469"/>
		<circle fill="#FFE600" cx="41.836" cy="343.515" r="4.469"/>
		<circle fill="#FFE600" cx="79.829" cy="282.4" r="4.469"/>
		<circle fill="#FFE600" cx="79.829" cy="303.789" r="4.469"/>
		<circle fill="#FFE600" cx="79.829" cy="323.362" r="4.469"/>
		<circle fill="#FFE600" cx="79.829" cy="343.515" r="4.469"/>
		<circle fill="#FFE600" cx="42.174" cy="369.576" r="4.469"/>
		<circle fill="#FFE600" cx="42.174" cy="387.148" r="4.469"/>
		<circle fill="#FFE600" cx="42.174" cy="407.303" r="4.47"/>
		<circle fill="#FFE600" cx="80.167" cy="369.576" r="4.469"/>
		<circle fill="#FFE600" cx="80.167" cy="387.148" r="4.469"/>
		<circle fill="#FFE600" cx="80.167" cy="407.303" r="4.47"/>
		<circle fill="#FFE600" cx="42.174" cy="428.816" r="4.469"/>
		<circle fill="#FFE600" cx="80.167" cy="428.816" r="4.469"/>
		<circle fill="#FFE600" cx="97.923" cy="424.251" r="4.469"/>
		<circle fill="#FFE600" cx="135.916" cy="424.251" r="4.469"/>
		<circle fill="#FFE600" cx="96.203" cy="301.07" r="4.469"/>
		<circle fill="#FFE600" cx="96.203" cy="323.457" r="4.469"/>
		<circle fill="#FFE600" cx="96.203" cy="342.03" r="4.469"/>
		<circle fill="#FFE600" cx="96.203" cy="362.184" r="4.469"/>
		<circle fill="#FFE600" cx="134.196" cy="330.486" r="4.469"/>
		<circle fill="#FFE600" cx="134.196" cy="349.184" r="4.469"/>
		<circle fill="#FFE600" cx="134.196" cy="366.698" r="4.469"/>
	</g>
	<g id="Bar">
		<circle fill="#BBFF00" cx="95.131" cy="464.402" r="4.469"/>
		<circle fill="#BBFF00" cx="116.028" cy="464.402" r="4.469"/>
		<circle fill="#BBFF00" cx="136.924" cy="464.402" r="4.469"/>
		<circle fill="#BBFF00" cx="154.439" cy="464.402" r="4.469"/>
	</g>
	<g id="Seated">
		<circle fill="#FF8B00" cx="140.805" cy="158.777" r="4.469"/>
		<circle fill="#FF8B00" cx="140.805" cy="175.93" r="4.469"/>
		<circle fill="#FF8B00" cx="178.798" cy="158.777" r="4.469"/>
		<circle fill="#FF8B00" cx="178.798" cy="175.93" r="4.469"/>
		<circle fill="#FF8B00" cx="203.417" cy="158.777" r="4.469"/>
		<circle fill="#FF8B00" cx="203.417" cy="175.93" r="4.469"/>
		<circle fill="#FF8B00" cx="241.41" cy="158.777" r="4.47"/>
		<circle fill="#FF8B00" cx="241.41" cy="175.93" r="4.47"/>
		<circle fill="#FF8B00" cx="265.621" cy="158.777" r="4.47"/>
		<circle fill="#FF8B00" cx="265.621" cy="175.93" r="4.47"/>
		<circle fill="#FF8B00" cx="303.615" cy="158.777" r="4.47"/>
		<circle fill="#FF8B00" cx="303.615" cy="175.93" r="4.47"/>
		<circle fill="#FF8B00" cx="325.751" cy="158.777" r="4.47"/>
		<circle fill="#FF8B00" cx="325.751" cy="175.93" r="4.47"/>
		<circle fill="#FF8B00" cx="140.805" cy="199.461" r="4.469"/>
		<circle fill="#FF8B00" cx="140.805" cy="215.849" r="4.469"/>
		<circle fill="#FF8B00" cx="140.805" cy="233.422" r="4.469"/>
		<circle fill="#FF8B00" cx="140.805" cy="250.576" r="4.469"/>
		<circle fill="#FF8B00" cx="178.798" cy="199.461" r="4.469"/>
		<circle fill="#FF8B00" cx="178.798" cy="215.849" r="4.469"/>
		<circle fill="#FF8B00" cx="178.798" cy="233.422" r="4.469"/>
		<circle fill="#FF8B00" cx="203.417" cy="199.461" r="4.469"/>
		<circle fill="#FF8B00" cx="203.417" cy="215.849" r="4.469"/>
		<circle fill="#FF8B00" cx="203.417" cy="233.422" r="4.469"/>
		<circle fill="#FF8B00" cx="203.417" cy="250.576" r="4.469"/>
		<circle fill="#FF8B00" cx="241.41" cy="199.461" r="4.47"/>
		<circle fill="#FF8B00" cx="241.41" cy="215.849" r="4.47"/>
		<circle fill="#FF8B00" cx="241.41" cy="233.422" r="4.47"/>
		<circle fill="#FF8B00" cx="241.41" cy="250.576" r="4.47"/>
		<circle fill="#FF8B00" cx="265.621" cy="199.461" r="4.47"/>
		<circle fill="#FF8B00" cx="265.621" cy="215.849" r="4.47"/>
		<circle fill="#FF8B00" cx="265.621" cy="233.422" r="4.47"/>
		<circle fill="#FF8B00" cx="265.621" cy="250.576" r="4.47"/>
		<circle fill="#FF8B00" cx="303.615" cy="199.461" r="4.47"/>
		<circle fill="#FF8B00" cx="303.615" cy="215.849" r="4.47"/>
		<circle fill="#FF8B00" cx="303.615" cy="233.422" r="4.47"/>
		<circle fill="#FF8B00" cx="303.615" cy="250.576" r="4.47"/>
		<circle fill="#FF8B00" cx="325.751" cy="199.461" r="4.47"/>
		<circle fill="#FF8B00" cx="325.751" cy="215.849" r="4.47"/>
		<circle fill="#FF8B00" cx="325.751" cy="233.422" r="4.47"/>
		<circle fill="#FF8B00" cx="325.751" cy="250.576" r="4.47"/>
		<circle fill="#FF8B00" cx="367.751" cy="158.777" r="4.47"/>
		<circle fill="#FF8B00" cx="367.751" cy="175.93" r="4.47"/>
		<circle fill="#FF8B00" cx="367.751" cy="199.461" r="4.47"/>
		<circle fill="#FF8B00" cx="367.751" cy="215.849" r="4.47"/>
		<circle fill="#FF8B00" cx="367.751" cy="233.422" r="4.47"/>
		<circle fill="#FF8B00" cx="367.751" cy="250.576" r="4.47"/>
		<circle fill="#FF8B00" cx="178.901" cy="250.576" r="4.469"/>
		<circle fill="#FF8B00" cx="140.981" cy="127.816" r="4.469"/>
		<circle fill="#FF8B00" cx="140.981" cy="144.204" r="4.469"/>
		<circle fill="#FF8B00" cx="178.975" cy="127.816" r="4.469"/>
		<circle fill="#FF8B00" cx="178.975" cy="144.204" r="4.469"/>
		<circle fill="#FF8B00" cx="203.593" cy="127.816" r="4.469"/>
		<circle fill="#FF8B00" cx="203.593" cy="144.204" r="4.469"/>
		<circle fill="#FF8B00" cx="241.585" cy="127.816" r="4.47"/>
		<circle fill="#FF8B00" cx="241.585" cy="144.204" r="4.47"/>
		<circle fill="#FF8B00" cx="265.796" cy="127.816" r="4.47"/>
		<circle fill="#FF8B00" cx="265.796" cy="144.204" r="4.47"/>
		<circle fill="#FF8B00" cx="303.791" cy="127.816" r="4.47"/>
		<circle fill="#FF8B00" cx="303.791" cy="144.204" r="4.47"/>
		<circle fill="#FF8B00" cx="325.927" cy="127.816" r="4.47"/>
		<circle fill="#FF8B00" cx="325.927" cy="144.204" r="4.47"/>
		<circle fill="#FF8B00" cx="367.927" cy="127.816" r="4.47"/>
		<circle fill="#FF8B00" cx="367.927" cy="144.204" r="4.47"/>
	</g>
	<g id="General_Admission">
		<polygon fill="#FF0043" points="380.929,271.053 380.929,427.873 275.558,427.873 275.558,617.615 211.763,617.615 
			211.917,360.472 98.029,258.187 30,258.187 30,121.445 52.334,121.445 98.054,240.563 98.029,258.187 211.917,360.472 
			211.855,271.039 		"/>
	</g>
</g>
<g id="Foreground">
	<text transform="matrix(1 0 0 1 229.6313 353.6519)" fill="#FFFFFF" font-family="'GothamBook'" font-size="14">General Admission </text>
	<text transform="matrix(1 0 0 1 253.7925 368.4683)" fill="#FFFFFF" font-family="'GothamBook'" font-size="14">Row Seating</text>
	<text transform="matrix(1 0 0 1 237.6812 383.0757)" fill="#FFFFFF" font-family="'GothamBook'" font-size="14">(Some Standing)</text>
</g>
</svg>
