<?xml version="1.0" encoding="utf-8"?>
<!-- Generator: Adobe Illustrator 15.0.0, SVG Export Plug-In . SVG Version: 6.00 Build 0)  -->
<!DOCTYPE svg PUBLIC "-//W3C//DTD SVG 1.1//EN" "http://www.w3.org/Graphics/SVG/1.1/DTD/svg11.dtd">
<svg version="1.1" id="Layer_1" xmlns="http://www.w3.org/2000/svg" xmlns:xlink="http://www.w3.org/1999/xlink" x="0px" y="0px"
	 width="398.417px" height="639.46px" viewBox="0 0 398.417 639.46" enable-background="new 0 0 398.417 639.46"
	 xml:space="preserve">
<g id="Background">
	<polygon fill="#444444" points="67.558,464.742 27.888,464.908 27.888,272.03 97.1,272.03 146.402,320.289 146.402,452.796 
		80.233,452.796 	"/>
	<rect x="73.93" y="14.771" fill="#444444" width="307.19" height="102.983"/>
	<rect x="81.066" y="478.117" fill="#444444" width="87.286" height="139.807"/>
	<path fill="#F3F4F5" d="M67.558,464.742"/>
	<polygon fill="#444444" points="27.888,467.019 67.558,467.019 78.94,478.402 78.573,617.923 27.888,617.923 	"/>
	<g>
		<rect x="225.559" y="64.016" fill="none" width="43.378" height="11.404"/>
		<text transform="matrix(1 0 0 1 227.0952 74.2349)" fill="#FFFFFF" font-family="'GothamBook'" font-size="14">Stage</text>
	</g>
	<rect x="284.97" y="439.359" fill="#444444" width="95.943" height="71.514"/>
	<rect x="304.035" y="510.39" fill="#444444" width="77.086" height="107.533"/>
	<g>
		<rect x="305.632" y="485.8" fill="none" width="61.785" height="39.074"/>
		<text transform="matrix(1 0 0 1 314.2495 496.0181)" fill="#FFFFFF" font-family="'GothamBook'" font-size="14">Sound </text>
		<text transform="matrix(1 0 0 1 315.2866 512.8198)" fill="#FFFFFF" font-family="'GothamBook'" font-size="14">Booth</text>
	</g>
	<circle fill="#562D2D" cx="260.18" cy="302.339" r="4.469"/>
	<circle fill="#562D2D" cx="276.078" cy="302.339" r="4.47"/>
	<circle fill="#562D2D" cx="291.974" cy="302.339" r="4.469"/>
	<circle fill="#562D2D" cx="328.029" cy="302.339" r="4.47"/>
	<circle fill="#562D2D" cx="343.925" cy="302.339" r="4.47"/>
	<circle fill="#562D2D" cx="359.822" cy="302.339" r="4.47"/>
	<circle fill="#562D2D" cx="259.916" cy="322.892" r="4.47"/>
	<circle fill="#562D2D" cx="275.812" cy="322.892" r="4.47"/>
	<circle fill="#562D2D" cx="291.708" cy="322.892" r="4.469"/>
	<circle fill="#562D2D" cx="327.763" cy="322.892" r="4.469"/>
	<circle fill="#562D2D" cx="343.66" cy="322.892" r="4.469"/>
	<circle fill="#562D2D" cx="359.558" cy="322.892" r="4.47"/>
	<circle fill="#562D2D" cx="275.679" cy="342.987" r="4.47"/>
	<circle fill="#562D2D" cx="291.576" cy="342.987" r="4.469"/>
	<circle fill="#562D2D" cx="327.632" cy="342.987" r="4.47"/>
	<circle fill="#562D2D" cx="343.529" cy="342.987" r="4.47"/>
	<circle fill="#562D2D" cx="359.425" cy="342.987" r="4.469"/>
	<circle fill="#562D2D" cx="275.416" cy="363.541" r="4.469"/>
	<circle fill="#562D2D" cx="291.312" cy="363.541" r="4.469"/>
	<circle fill="#562D2D" cx="327.367" cy="363.541" r="4.47"/>
	<circle fill="#562D2D" cx="343.263" cy="363.541" r="4.47"/>
	<circle fill="#562D2D" cx="359.16" cy="363.541" r="4.469"/>
	<circle fill="#562D2D" cx="275.679" cy="383.075" r="4.47"/>
	<circle fill="#562D2D" cx="291.576" cy="383.075" r="4.469"/>
	<circle fill="#562D2D" cx="327.632" cy="383.075" r="4.47"/>
	<circle fill="#562D2D" cx="343.529" cy="383.075" r="4.47"/>
	<circle fill="#562D2D" cx="359.425" cy="383.075" r="4.469"/>
	<circle fill="#562D2D" cx="275.416" cy="403.628" r="4.469"/>
	<circle fill="#562D2D" cx="291.312" cy="403.628" r="4.469"/>
	<circle fill="#562D2D" cx="327.367" cy="403.629" r="4.47"/>
	<circle fill="#562D2D" cx="343.263" cy="403.629" r="4.47"/>
	<circle fill="#562D2D" cx="359.16" cy="403.628" r="4.469"/>
	<circle fill="#562D2D" cx="275.416" cy="422.98" r="4.469"/>
	<circle fill="#562D2D" cx="291.312" cy="422.98" r="4.469"/>
	<circle fill="#562D2D" cx="327.367" cy="422.98" r="4.471"/>
	<circle fill="#562D2D" cx="343.263" cy="422.98" r="4.471"/>
	<circle fill="#562D2D" cx="359.16" cy="422.98" r="4.469"/>
	<g>
		<rect x="87.562" y="488.025" fill="none" width="72.736" height="10.414"/>
		<text transform="matrix(1 0 0 1 93.3262 498.2437)" fill="#FFFFFF" font-family="'GothamBook'" font-size="14">Bar Area</text>
		<text transform="matrix(1 0 0 1 36.7085 455.23)" fill="#FFFFFF" font-family="'GothamBook'" font-size="14">VIP</text>
	</g>
	<path fill="#444444" d="M67.558,464.742"/>
</g>
<g id="Background-Above">
	<rect x="49.635" y="285.394" fill="#000000" width="21.88" height="74.566"/>
	<rect x="49.974" y="366.181" fill="#000000" width="21.88" height="74.566"/>
	<rect x="105.724" y="421.814" fill="#000000" width="21.879" height="14.369"/>
	<polygon fill="#020202" points="125.882,378.63 104.002,378.63 104.002,304.062 125.882,325.289 	"/>
</g>
<g id="Sections">
	<g id="Bar">
		<circle fill="#BBFF00" cx="92.619" cy="467.402" r="4.469"/>
		<circle fill="#BBFF00" cx="113.516" cy="467.402" r="4.469"/>
		<circle fill="#BBFF00" cx="134.412" cy="467.402" r="4.469"/>
		<circle fill="#BBFF00" cx="151.927" cy="467.402" r="4.469"/>
	</g>
	<g id="GA">
		<polygon fill="#FF0043" points="210.373,317.775 226.472,317.775 226.472,612.923 271.267,612.923 271.267,429.181 
			372.638,429.181 372.638,130.362 73.702,130.362 73.048,178.831 		"/>
	</g>
	<g id="VIP">
		<circle fill="#FFE600" cx="41.324" cy="286.4" r="4.469"/>
		<circle fill="#FFE600" cx="41.324" cy="307.789" r="4.469"/>
		<circle fill="#FFE600" cx="41.324" cy="327.362" r="4.469"/>
		<circle fill="#FFE600" cx="41.324" cy="347.515" r="4.469"/>
		<circle fill="#FFE600" cx="79.317" cy="286.4" r="4.469"/>
		<circle fill="#FFE600" cx="79.317" cy="307.789" r="4.469"/>
		<circle fill="#FFE600" cx="79.317" cy="327.362" r="4.469"/>
		<circle fill="#FFE600" cx="79.317" cy="347.515" r="4.469"/>
		<circle fill="#FFE600" cx="41.662" cy="373.576" r="4.469"/>
		<circle fill="#FFE600" cx="41.662" cy="391.148" r="4.469"/>
		<circle fill="#FFE600" cx="41.662" cy="411.303" r="4.47"/>
		<circle fill="#FFE600" cx="79.655" cy="373.576" r="4.469"/>
		<circle fill="#FFE600" cx="79.655" cy="391.148" r="4.469"/>
		<circle fill="#FFE600" cx="79.655" cy="411.303" r="4.47"/>
		<circle fill="#FFE600" cx="41.662" cy="432.816" r="4.469"/>
		<circle fill="#FFE600" cx="79.655" cy="432.816" r="4.469"/>
		<circle fill="#FFE600" cx="97.411" cy="428.251" r="4.469"/>
		<circle fill="#FFE600" cx="135.404" cy="428.251" r="4.469"/>
		<circle fill="#FFE600" cx="95.691" cy="305.07" r="4.469"/>
		<circle fill="#FFE600" cx="95.691" cy="327.457" r="4.469"/>
		<circle fill="#FFE600" cx="95.691" cy="346.03" r="4.469"/>
		<circle fill="#FFE600" cx="95.691" cy="366.184" r="4.469"/>
		<circle fill="#FFE600" cx="133.684" cy="334.486" r="4.469"/>
		<circle fill="#FFE600" cx="133.684" cy="353.184" r="4.469"/>
		<circle fill="#FFE600" cx="133.684" cy="370.698" r="4.469"/>
	</g>
</g>
<g id="Foreground">
	<text transform="matrix(1 0 0 1 204.8833 249.23)" fill="#FFFFFF" font-family="'GothamBook'" font-size="14.7252">General Admission </text>
	<text transform="matrix(1 0 0 1 233.7104 269.23)" fill="#FFFFFF" font-family="'GothamBook'" font-size="14.7252">(Standing)</text>
</g>
</svg>
