<?xml version="1.0" encoding="utf-8"?>
<!-- Generator: Adobe Illustrator 15.0.0, SVG Export Plug-In  -->
<!DOCTYPE svg PUBLIC "-//W3C//DTD SVG 1.1//EN" "http://www.w3.org/Graphics/SVG/1.1/DTD/svg11.dtd" [
	<!ENTITY ns_flows "http://ns.adobe.com/Flows/1.0/">
]>
<svg version="1.1"
	 xmlns="http://www.w3.org/2000/svg" xmlns:xlink="http://www.w3.org/1999/xlink" xmlns:a="http://ns.adobe.com/AdobeSVGViewerExtensions/3.0/"
	 x="0px" y="0px" width="403px" height="754px" viewBox="0 1 403 754" enable-background="new 0 1 403 754" xml:space="preserve">
<defs>
</defs>
<rect fill="#FFFFFF" width="402.791" height="752.939"/>
<polygon fill="#DBECDD" points="200.4,338.239 199.961,385.006 220.086,385.006 220.086,753.939 278.579,753.939 278.579,524.262 
	402.791,524.262 402.791,338.239 "/>
<circle fill="#562E2E" cx="99.256" cy="143.807" r="5.586"/>
<circle fill="#562E2E" cx="99.256" cy="164.291" r="5.586"/>
<circle fill="#DDDDDC" cx="99.256" cy="186.258" r="5.586"/>
<circle fill="#DDDDDC" cx="99.256" cy="207.698" r="5.586"/>
<circle fill="#DDDDDC" cx="146.748" cy="143.807" r="5.586"/>
<circle fill="#DDDDDC" cx="146.748" cy="164.291" r="5.586"/>
<circle fill="#DDDDDC" cx="146.748" cy="186.258" r="5.586"/>
<circle fill="#DDDDDC" cx="146.748" cy="207.698" r="5.586"/>
<circle fill="#DDDDDC" cx="302.768" cy="143.806" r="5.587"/>
<circle fill="#DDDDDC" cx="302.768" cy="164.291" r="5.587"/>
<circle fill="#DDDDDC" cx="302.768" cy="186.258" r="5.587"/>
<circle fill="#DDDDDC" cx="302.768" cy="207.698" r="5.587"/>
<circle fill="#DDDDDC" cx="330.439" cy="143.806" r="5.587"/>
<circle fill="#DDDDDC" cx="330.439" cy="164.291" r="5.587"/>
<circle fill="#DDDDDC" cx="330.439" cy="186.258" r="5.587"/>
<circle fill="#DDDDDC" cx="330.439" cy="207.698" r="5.587"/>
<circle fill="#562E2E" cx="99.256" cy="237.112" r="5.586"/>
<circle fill="#562E2E" cx="99.256" cy="257.598" r="5.586"/>
<circle fill="#DDDDDC" cx="99.256" cy="279.563" r="5.586"/>
<circle fill="#DDDDDC" cx="99.256" cy="301.006" r="5.586"/>
<circle fill="#DDDDDC" cx="146.748" cy="237.112" r="5.586"/>
<circle fill="#DDDDDC" cx="146.748" cy="257.598" r="5.586"/>
<circle fill="#DDDDDC" cx="146.748" cy="279.563" r="5.586"/>
<circle fill="#562E2E" cx="18.045" cy="340.785" r="5.587"/>
<circle fill="#562E2E" cx="18.045" cy="361.271" r="5.587"/>
<circle fill="#DDDDDC" cx="18.045" cy="383.238" r="5.587"/>
<circle fill="#DDDDDC" cx="18.045" cy="404.68" r="5.587"/>
<circle fill="#DDDDDC" cx="65.536" cy="340.785" r="5.587"/>
<circle fill="#DDDDDC" cx="65.536" cy="361.271" r="5.587"/>
<circle fill="#DDDDDC" cx="65.536" cy="383.238" r="5.587"/>
<circle fill="#DDDDDC" cx="65.536" cy="404.68" r="5.587"/>
<circle fill="#DDDDDC" cx="18.045" cy="422.822" r="5.587"/>
<circle fill="#DDDDDC" cx="65.536" cy="422.822" r="5.587"/>
<circle fill="#562E2E" cx="18.467" cy="441.771" r="5.586"/>
<circle fill="#562E2E" cx="18.467" cy="462.256" r="5.586"/>
<circle fill="#DDDDDC" cx="18.467" cy="484.221" r="5.586"/>
<circle fill="#DDDDDC" cx="18.467" cy="505.664" r="5.586"/>
<circle fill="#DDDDDC" cx="65.959" cy="441.771" r="5.587"/>
<circle fill="#DDDDDC" cx="65.959" cy="462.256" r="5.587"/>
<circle fill="#DDDDDC" cx="65.959" cy="484.221" r="5.587"/>
<circle fill="#DDDDDC" cx="65.959" cy="505.664" r="5.587"/>
<circle fill="#DDDDDC" cx="18.467" cy="523.806" r="5.586"/>
<circle fill="#DDDDDC" cx="65.959" cy="523.806" r="5.587"/>
<circle fill="#DDDDDC" cx="88.154" cy="518.1" r="5.587"/>
<circle fill="#DDDDDC" cx="135.645" cy="518.1" r="5.586"/>
<circle fill="#562E2E" cx="86.004" cy="364.123" r="5.587"/>
<circle fill="#562E2E" cx="86.004" cy="384.606" r="5.587"/>
<circle fill="#DDDDDC" cx="86.004" cy="406.573" r="5.587"/>
<circle fill="#DDDDDC" cx="86.004" cy="428.016" r="5.587"/>
<circle fill="#DDDDDC" cx="133.495" cy="390.655" r="5.586"/>
<circle fill="#DDDDDC" cx="133.495" cy="410.893" r="5.586"/>
<circle fill="#DDDDDC" cx="133.495" cy="428.016" r="5.586"/>
<circle fill="#DDDDDC" cx="86.004" cy="446.158" r="5.587"/>
<circle fill="#DDDDDC" cx="133.495" cy="446.158" r="5.586"/>
<circle fill="#DDDDDC" cx="302.768" cy="237.112" r="5.587"/>
<circle fill="#DDDDDC" cx="302.768" cy="257.598" r="5.587"/>
<circle fill="#DDDDDC" cx="302.768" cy="279.563" r="5.587"/>
<circle fill="#DDDDDC" cx="302.768" cy="301.006" r="5.587"/>
<circle fill="#DDDDDC" cx="330.439" cy="237.112" r="5.587"/>
<circle fill="#DDDDDC" cx="330.439" cy="257.598" r="5.587"/>
<circle fill="#DDDDDC" cx="330.439" cy="279.563" r="5.587"/>
<circle fill="#DDDDDC" cx="330.439" cy="301.006" r="5.587"/>
<circle fill="#DDDDDC" cx="382.939" cy="143.806" r="5.587"/>
<circle fill="#DDDDDC" cx="382.939" cy="164.291" r="5.587"/>
<circle fill="#DDDDDC" cx="382.939" cy="186.258" r="5.587"/>
<circle fill="#DDDDDC" cx="382.939" cy="207.698" r="5.587"/>
<circle fill="#DDDDDC" cx="382.939" cy="237.112" r="5.587"/>
<circle fill="#DDDDDC" cx="382.939" cy="257.598" r="5.587"/>
<circle fill="#DDDDDC" cx="382.939" cy="279.563" r="5.587"/>
<circle fill="#DDDDDC" cx="382.939" cy="301.006" r="5.587"/>
<circle fill="#562E2E" cx="80.914" cy="568.288" r="5.587"/>
<circle fill="#562E2E" cx="100.785" cy="568.288" r="5.586"/>
<circle fill="#562E2E" cx="120.655" cy="568.288" r="5.586"/>
<circle fill="#562E2E" cx="138.798" cy="568.288" r="5.586"/>
<circle fill="#DDDDDC" cx="146.875" cy="301.006" r="5.586"/>
<circle fill="#DDDDDC" cx="177.521" cy="143.806" r="5.587"/>
<circle fill="#DDDDDC" cx="177.521" cy="164.291" r="5.587"/>
<circle fill="#DDDDDC" cx="177.521" cy="186.258" r="5.587"/>
<circle fill="#DDDDDC" cx="177.521" cy="207.698" r="5.587"/>
<circle fill="#DDDDDC" cx="177.521" cy="237.112" r="5.587"/>
<circle fill="#DDDDDC" cx="177.521" cy="257.598" r="5.587"/>
<circle fill="#DDDDDC" cx="177.521" cy="279.563" r="5.587"/>
<circle fill="#DDDDDC" cx="177.521" cy="301.006" r="5.587"/>
<circle fill="#DDDDDC" cx="225.748" cy="143.807" r="5.586"/>
<circle fill="#DDDDDC" cx="225.748" cy="164.291" r="5.586"/>
<circle fill="#DDDDDC" cx="225.748" cy="186.258" r="5.586"/>
<circle fill="#DDDDDC" cx="225.748" cy="207.698" r="5.586"/>
<circle fill="#DDDDDC" cx="225.748" cy="237.112" r="5.586"/>
<circle fill="#DDDDDC" cx="225.748" cy="257.598" r="5.586"/>
<circle fill="#DDDDDC" cx="225.748" cy="279.563" r="5.586"/>
<circle fill="#DDDDDC" cx="225.875" cy="301.006" r="5.586"/>
<circle fill="#DDDDDC" cx="256.521" cy="143.806" r="5.587"/>
<circle fill="#DDDDDC" cx="256.521" cy="164.291" r="5.587"/>
<circle fill="#DDDDDC" cx="256.521" cy="186.258" r="5.587"/>
<circle fill="#DDDDDC" cx="256.521" cy="207.698" r="5.587"/>
<circle fill="#DDDDDC" cx="256.521" cy="237.112" r="5.587"/>
<circle fill="#DDDDDC" cx="256.521" cy="257.598" r="5.587"/>
<circle fill="#DDDDDC" cx="256.521" cy="279.563" r="5.587"/>
<circle fill="#DDDDDC" cx="256.521" cy="301.006" r="5.587"/>
</svg>
