<?xml version="1.0" encoding="UTF-8" standalone="no"?>
<!DOCTYPE svg PUBLIC "-//W3C//DTD SVG 1.1//EN"
 "http://www.w3.org/Graphics/SVG/1.1/DTD/svg11.dtd">
<!-- Generated by graphviz version 2.28.0 (20120503.1651)
 -->
<!-- Title: controllers_diagram Pages: 1 -->
<svg width="1559pt" height="1463pt"
 viewBox="0.00 0.00 1558.97 1463.25" xmlns="http://www.w3.org/2000/svg" xmlns:xlink="http://www.w3.org/1999/xlink">
<g id="graph1" class="graph" transform="scale(1 1) rotate(0) translate(4 1459.25)">
<title>controllers_diagram</title>
<polygon fill="white" stroke="white" points="-4,5 -4,-1459.25 1555.97,-1459.25 1555.97,5 -4,5"/>
<!-- _diagram_info -->
<g id="node1" class="node"><title>_diagram_info</title>
<text text-anchor="start" x="1351.59" y="-181" font-family="Times,serif" font-size="13.00">Controllers diagram</text>
<text text-anchor="start" x="1351.59" y="-165.4" font-family="Times,serif" font-size="13.00">Date: Sep 18 2012 &#45; 17:51</text>
<text text-anchor="start" x="1351.59" y="-149.8" font-family="Times,serif" font-size="13.00">Migration version: 20120918012421</text>
<text text-anchor="start" x="1351.59" y="-134.2" font-family="Times,serif" font-size="13.00">Generated by RailRoady 1.1.0</text>
<text text-anchor="start" x="1351.59" y="-118.6" font-family="Times,serif" font-size="13.00">http://railroady.prestonlee.com</text>
</g>
<!-- AccountsController -->
<g id="node2" class="node"><title>AccountsController</title>
<polyline fill="none" stroke="black" points="27.7044,-334.584 130.125,-334.584 "/>
<path fill="none" stroke="black" d="M130.125,-334.584C136.125,-334.584 142.125,-340.584 142.125,-346.584"/>
<polyline fill="none" stroke="black" points="142.125,-346.584 142.125,-521.784 "/>
<path fill="none" stroke="black" d="M142.125,-521.784C142.125,-527.784 136.125,-533.784 130.125,-533.784"/>
<polyline fill="none" stroke="black" points="130.125,-533.784 27.7044,-533.784 "/>
<path fill="none" stroke="black" d="M27.7044,-533.784C21.7044,-533.784 15.7044,-527.784 15.7044,-521.784"/>
<polyline fill="none" stroke="black" points="15.7044,-521.784 15.7044,-346.584 "/>
<path fill="none" stroke="black" d="M15.7044,-346.584C15.7044,-340.584 21.7044,-334.584 27.7044,-334.584"/>
<text text-anchor="middle" x="78.9148" y="-515.784" font-family="Times,serif" font-size="14.00">AccountsController</text>
<polyline fill="none" stroke="black" points="15.7044,-508.984 142.125,-508.984 "/>
<text text-anchor="start" x="23.7044" y="-490.984" font-family="Times,serif" font-size="14.00">create</text>
<text text-anchor="start" x="23.7044" y="-474.184" font-family="Times,serif" font-size="14.00">destroy</text>
<text text-anchor="start" x="23.7044" y="-457.384" font-family="Times,serif" font-size="14.00">edit</text>
<text text-anchor="start" x="23.7044" y="-440.584" font-family="Times,serif" font-size="14.00">index</text>
<text text-anchor="start" x="23.7044" y="-423.784" font-family="Times,serif" font-size="14.00">new</text>
<text text-anchor="start" x="23.7044" y="-406.984" font-family="Times,serif" font-size="14.00">show</text>
<text text-anchor="start" x="23.7044" y="-390.184" font-family="Times,serif" font-size="14.00">update</text>
<polyline fill="none" stroke="black" points="15.7044,-383.384 142.125,-383.384 "/>
<polyline fill="none" stroke="black" points="15.7044,-359.384 142.125,-359.384 "/>
<text text-anchor="start" x="23.7044" y="-341.384" font-family="Times,serif" font-size="14.00">_layout</text>
</g>
<!-- AdminController -->
<g id="node3" class="node"><title>AdminController</title>
<polyline fill="none" stroke="black" points="1152.57,-608.614 1241,-608.614 "/>
<path fill="none" stroke="black" d="M1241,-608.614C1247,-608.614 1253,-614.614 1253,-620.614"/>
<polyline fill="none" stroke="black" points="1253,-620.614 1253,-695.014 "/>
<path fill="none" stroke="black" d="M1253,-695.014C1253,-701.014 1247,-707.014 1241,-707.014"/>
<polyline fill="none" stroke="black" points="1241,-707.014 1152.57,-707.014 "/>
<path fill="none" stroke="black" d="M1152.57,-707.014C1146.57,-707.014 1140.57,-701.014 1140.57,-695.014"/>
<polyline fill="none" stroke="black" points="1140.57,-695.014 1140.57,-620.614 "/>
<path fill="none" stroke="black" d="M1140.57,-620.614C1140.57,-614.614 1146.57,-608.614 1152.57,-608.614"/>
<text text-anchor="middle" x="1196.79" y="-689.014" font-family="Times,serif" font-size="14.00">AdminController</text>
<polyline fill="none" stroke="black" points="1140.57,-682.214 1253,-682.214 "/>
<text text-anchor="start" x="1148.57" y="-664.214" font-family="Times,serif" font-size="14.00">index</text>
<polyline fill="none" stroke="black" points="1140.57,-657.414 1253,-657.414 "/>
<polyline fill="none" stroke="black" points="1140.57,-633.414 1253,-633.414 "/>
<text text-anchor="start" x="1148.57" y="-615.414" font-family="Times,serif" font-size="14.00">_layout</text>
</g>
<!-- ApplicationController -->
<g id="node4" class="node"><title>ApplicationController</title>
<polyline fill="none" stroke="black" points="600.948,-605.545 786.583,-605.545 "/>
<path fill="none" stroke="black" d="M786.583,-605.545C792.583,-605.545 798.583,-611.545 798.583,-617.545"/>
<polyline fill="none" stroke="black" points="798.583,-617.545 798.583,-775.945 "/>
<path fill="none" stroke="black" d="M798.583,-775.945C798.583,-781.945 792.583,-787.945 786.583,-787.945"/>
<polyline fill="none" stroke="black" points="786.583,-787.945 600.948,-787.945 "/>
<path fill="none" stroke="black" d="M600.948,-787.945C594.948,-787.945 588.948,-781.945 588.948,-775.945"/>
<polyline fill="none" stroke="black" points="588.948,-775.945 588.948,-617.545 "/>
<path fill="none" stroke="black" d="M588.948,-617.545C588.948,-611.545 594.948,-605.545 600.948,-605.545"/>
<text text-anchor="middle" x="693.765" y="-769.945" font-family="Times,serif" font-size="14.00">ApplicationController</text>
<polyline fill="none" stroke="black" points="588.948,-763.145 798.583,-763.145 "/>
<text text-anchor="start" x="596.948" y="-745.145" font-family="Times,serif" font-size="14.00">_one_time_conditions_valid_100?</text>
<text text-anchor="start" x="596.948" y="-728.345" font-family="Times,serif" font-size="14.00">_one_time_conditions_valid_102?</text>
<text text-anchor="start" x="596.948" y="-711.545" font-family="Times,serif" font-size="14.00">_one_time_conditions_valid_98?</text>
<polyline fill="none" stroke="black" points="588.948,-704.745 798.583,-704.745 "/>
<polyline fill="none" stroke="black" points="588.948,-680.745 798.583,-680.745 "/>
<text text-anchor="start" x="596.948" y="-662.745" font-family="Times,serif" font-size="14.00">_layout</text>
<text text-anchor="start" x="596.948" y="-645.945" font-family="Times,serif" font-size="14.00">layout</text>
<text text-anchor="start" x="596.948" y="-629.145" font-family="Times,serif" font-size="14.00">set_current_account</text>
<text text-anchor="start" x="596.948" y="-612.345" font-family="Times,serif" font-size="14.00">set_events</text>
</g>
<!-- ApplicationController&#45;&gt;AccountsController -->
<g id="edge2" class="edge"><title>ApplicationController&#45;&gt;AccountsController</title>
<path fill="none" stroke="black" d="M588.862,-675.601C500.575,-655.447 372.484,-620.593 268.735,-569.798 223.63,-547.714 177.685,-515.207 142.296,-487.554"/>
</g>
<!-- ApplicationController&#45;&gt;AdminController -->
<g id="edge4" class="edge"><title>ApplicationController&#45;&gt;AdminController</title>
<path fill="none" stroke="black" d="M798.602,-688.631C902.546,-680.586 1057.86,-668.566 1140.44,-662.175"/>
</g>
<!-- AreasController -->
<g id="node5" class="node"><title>AreasController</title>
<polyline fill="none" stroke="black" points="599.036,-1255.55 681.229,-1255.55 "/>
<path fill="none" stroke="black" d="M681.229,-1255.55C687.229,-1255.55 693.229,-1261.55 693.229,-1267.55"/>
<polyline fill="none" stroke="black" points="693.229,-1267.55 693.229,-1442.75 "/>
<path fill="none" stroke="black" d="M693.229,-1442.75C693.229,-1448.75 687.229,-1454.75 681.229,-1454.75"/>
<polyline fill="none" stroke="black" points="681.229,-1454.75 599.036,-1454.75 "/>
<path fill="none" stroke="black" d="M599.036,-1454.75C593.036,-1454.75 587.036,-1448.75 587.036,-1442.75"/>
<polyline fill="none" stroke="black" points="587.036,-1442.75 587.036,-1267.55 "/>
<path fill="none" stroke="black" d="M587.036,-1267.55C587.036,-1261.55 593.036,-1255.55 599.036,-1255.55"/>
<text text-anchor="middle" x="640.133" y="-1436.75" font-family="Times,serif" font-size="14.00">AreasController</text>
<polyline fill="none" stroke="black" points="587.036,-1429.95 693.229,-1429.95 "/>
<text text-anchor="start" x="595.036" y="-1411.95" font-family="Times,serif" font-size="14.00">create</text>
<text text-anchor="start" x="595.036" y="-1395.15" font-family="Times,serif" font-size="14.00">destroy</text>
<text text-anchor="start" x="595.036" y="-1378.35" font-family="Times,serif" font-size="14.00">edit</text>
<text text-anchor="start" x="595.036" y="-1361.55" font-family="Times,serif" font-size="14.00">index</text>
<text text-anchor="start" x="595.036" y="-1344.75" font-family="Times,serif" font-size="14.00">new</text>
<text text-anchor="start" x="595.036" y="-1327.95" font-family="Times,serif" font-size="14.00">show</text>
<text text-anchor="start" x="595.036" y="-1311.15" font-family="Times,serif" font-size="14.00">update</text>
<polyline fill="none" stroke="black" points="587.036,-1304.35 693.229,-1304.35 "/>
<polyline fill="none" stroke="black" points="587.036,-1280.35 693.229,-1280.35 "/>
<text text-anchor="start" x="595.036" y="-1262.35" font-family="Times,serif" font-size="14.00">_layout</text>
</g>
<!-- ApplicationController&#45;&gt;AreasController -->
<g id="edge6" class="edge"><title>ApplicationController&#45;&gt;AreasController</title>
<path fill="none" stroke="black" d="M686.336,-787.947C676.335,-910.722 658.605,-1128.38 648.259,-1255.39"/>
</g>
<!-- ArtistsController -->
<g id="node6" class="node"><title>ArtistsController</title>
<polyline fill="none" stroke="black" points="1149.79,-878.305 1236.67,-878.305 "/>
<path fill="none" stroke="black" d="M1236.67,-878.305C1242.67,-878.305 1248.67,-884.305 1248.67,-890.305"/>
<polyline fill="none" stroke="black" points="1248.67,-890.305 1248.67,-1065.5 "/>
<path fill="none" stroke="black" d="M1248.67,-1065.5C1248.67,-1071.5 1242.67,-1077.5 1236.67,-1077.5"/>
<polyline fill="none" stroke="black" points="1236.67,-1077.5 1149.79,-1077.5 "/>
<path fill="none" stroke="black" d="M1149.79,-1077.5C1143.79,-1077.5 1137.79,-1071.5 1137.79,-1065.5"/>
<polyline fill="none" stroke="black" points="1137.79,-1065.5 1137.79,-890.305 "/>
<path fill="none" stroke="black" d="M1137.79,-890.305C1137.79,-884.305 1143.79,-878.305 1149.79,-878.305"/>
<text text-anchor="middle" x="1193.23" y="-1059.5" font-family="Times,serif" font-size="14.00">ArtistsController</text>
<polyline fill="none" stroke="black" points="1137.79,-1052.7 1248.67,-1052.7 "/>
<text text-anchor="start" x="1145.79" y="-1034.7" font-family="Times,serif" font-size="14.00">create</text>
<text text-anchor="start" x="1145.79" y="-1017.9" font-family="Times,serif" font-size="14.00">destroy</text>
<text text-anchor="start" x="1145.79" y="-1001.1" font-family="Times,serif" font-size="14.00">edit</text>
<text text-anchor="start" x="1145.79" y="-984.305" font-family="Times,serif" font-size="14.00">index</text>
<text text-anchor="start" x="1145.79" y="-967.505" font-family="Times,serif" font-size="14.00">new</text>
<text text-anchor="start" x="1145.79" y="-950.705" font-family="Times,serif" font-size="14.00">show</text>
<text text-anchor="start" x="1145.79" y="-933.905" font-family="Times,serif" font-size="14.00">update</text>
<polyline fill="none" stroke="black" points="1137.79,-927.105 1248.67,-927.105 "/>
<polyline fill="none" stroke="black" points="1137.79,-903.105 1248.67,-903.105 "/>
<text text-anchor="start" x="1145.79" y="-885.105" font-family="Times,serif" font-size="14.00">_layout</text>
</g>
<!-- ApplicationController&#45;&gt;ArtistsController -->
<g id="edge8" class="edge"><title>ApplicationController&#45;&gt;ArtistsController</title>
<path fill="none" stroke="black" d="M798.773,-755.856C902.066,-814.002 1055.8,-900.541 1137.49,-946.528"/>
</g>
<!-- ChartsController -->
<g id="node7" class="node"><title>ChartsController</title>
<polyline fill="none" stroke="black" points="325.321,-815.785 411.418,-815.785 "/>
<path fill="none" stroke="black" d="M411.418,-815.785C417.418,-815.785 423.418,-821.785 423.418,-827.785"/>
<polyline fill="none" stroke="black" points="423.418,-827.785 423.418,-1019.79 "/>
<path fill="none" stroke="black" d="M423.418,-1019.79C423.418,-1025.79 417.418,-1031.79 411.418,-1031.79"/>
<polyline fill="none" stroke="black" points="411.418,-1031.79 325.321,-1031.79 "/>
<path fill="none" stroke="black" d="M325.321,-1031.79C319.321,-1031.79 313.321,-1025.79 313.321,-1019.79"/>
<polyline fill="none" stroke="black" points="313.321,-1019.79 313.321,-827.785 "/>
<path fill="none" stroke="black" d="M313.321,-827.785C313.321,-821.785 319.321,-815.785 325.321,-815.785"/>
<text text-anchor="middle" x="368.369" y="-1013.79" font-family="Times,serif" font-size="14.00">ChartsController</text>
<polyline fill="none" stroke="black" points="313.321,-1006.99 423.418,-1006.99 "/>
<text text-anchor="start" x="321.321" y="-988.985" font-family="Times,serif" font-size="14.00">clone_for_event</text>
<text text-anchor="start" x="321.321" y="-972.185" font-family="Times,serif" font-size="14.00">create</text>
<text text-anchor="start" x="321.321" y="-955.385" font-family="Times,serif" font-size="14.00">destroy</text>
<text text-anchor="start" x="321.321" y="-938.585" font-family="Times,serif" font-size="14.00">edit</text>
<text text-anchor="start" x="321.321" y="-921.785" font-family="Times,serif" font-size="14.00">index</text>
<text text-anchor="start" x="321.321" y="-904.985" font-family="Times,serif" font-size="14.00">new</text>
<text text-anchor="start" x="321.321" y="-888.185" font-family="Times,serif" font-size="14.00">show</text>
<text text-anchor="start" x="321.321" y="-871.385" font-family="Times,serif" font-size="14.00">update</text>
<polyline fill="none" stroke="black" points="313.321,-864.585 423.418,-864.585 "/>
<polyline fill="none" stroke="black" points="313.321,-840.585 423.418,-840.585 "/>
<text text-anchor="start" x="321.321" y="-822.585" font-family="Times,serif" font-size="14.00">_layout</text>
</g>
<!-- ApplicationController&#45;&gt;ChartsController -->
<g id="edge10" class="edge"><title>ApplicationController&#45;&gt;ChartsController</title>
<path fill="none" stroke="black" d="M588.568,-770.145C533.606,-808.493 468.597,-853.852 423.528,-885.299"/>
</g>
<!-- CustomerImportsController -->
<g id="node8" class="node"><title>CustomerImportsController</title>
<polyline fill="none" stroke="black" points="192.708,-100.159 340.246,-100.159 "/>
<path fill="none" stroke="black" d="M340.246,-100.159C346.246,-100.159 352.246,-106.159 352.246,-112.159"/>
<polyline fill="none" stroke="black" points="352.246,-112.159 352.246,-253.759 "/>
<path fill="none" stroke="black" d="M352.246,-253.759C352.246,-259.759 346.246,-265.759 340.246,-265.759"/>
<polyline fill="none" stroke="black" points="340.246,-265.759 192.708,-265.759 "/>
<path fill="none" stroke="black" d="M192.708,-265.759C186.708,-265.759 180.708,-259.759 180.708,-253.759"/>
<polyline fill="none" stroke="black" points="180.708,-253.759 180.708,-112.159 "/>
<path fill="none" stroke="black" d="M180.708,-112.159C180.708,-106.159 186.708,-100.159 192.708,-100.159"/>
<text text-anchor="middle" x="266.477" y="-247.759" font-family="Times,serif" font-size="14.00">CustomerImportsController</text>
<polyline fill="none" stroke="black" points="180.708,-240.959 352.246,-240.959 "/>
<text text-anchor="start" x="188.708" y="-222.959" font-family="Times,serif" font-size="14.00">create</text>
<text text-anchor="start" x="188.708" y="-206.159" font-family="Times,serif" font-size="14.00">edit</text>
<text text-anchor="start" x="188.708" y="-189.359" font-family="Times,serif" font-size="14.00">index</text>
<text text-anchor="start" x="188.708" y="-172.559" font-family="Times,serif" font-size="14.00">new</text>
<text text-anchor="start" x="188.708" y="-155.759" font-family="Times,serif" font-size="14.00">show</text>
<polyline fill="none" stroke="black" points="180.708,-148.959 352.246,-148.959 "/>
<polyline fill="none" stroke="black" points="180.708,-124.959 352.246,-124.959 "/>
<text text-anchor="start" x="188.708" y="-106.959" font-family="Times,serif" font-size="14.00">_layout</text>
</g>
<!-- ApplicationController&#45;&gt;CustomerImportsController -->
<g id="edge12" class="edge"><title>ApplicationController&#45;&gt;CustomerImportsController</title>
<path fill="none" stroke="black" d="M617.867,-605.482C537.888,-509.313 413.013,-359.159 335.663,-266.151"/>
</g>
<!-- EventsController -->
<g id="node9" class="node"><title>EventsController</title>
<polyline fill="none" stroke="black" points="1209.5,-309.078 1395.13,-309.078 "/>
<path fill="none" stroke="black" d="M1395.13,-309.078C1401.13,-309.078 1407.13,-315.078 1407.13,-321.078"/>
<polyline fill="none" stroke="black" points="1407.13,-321.078 1407.13,-529.878 "/>
<path fill="none" stroke="black" d="M1407.13,-529.878C1407.13,-535.878 1401.13,-541.878 1395.13,-541.878"/>
<polyline fill="none" stroke="black" points="1395.13,-541.878 1209.5,-541.878 "/>
<path fill="none" stroke="black" d="M1209.5,-541.878C1203.5,-541.878 1197.5,-535.878 1197.5,-529.878"/>
<polyline fill="none" stroke="black" points="1197.5,-529.878 1197.5,-321.078 "/>
<path fill="none" stroke="black" d="M1197.5,-321.078C1197.5,-315.078 1203.5,-309.078 1209.5,-309.078"/>
<text text-anchor="middle" x="1302.32" y="-523.878" font-family="Times,serif" font-size="14.00">EventsController</text>
<polyline fill="none" stroke="black" points="1197.5,-517.078 1407.13,-517.078 "/>
<text text-anchor="start" x="1205.5" y="-499.078" font-family="Times,serif" font-size="14.00">_one_time_conditions_valid_376?</text>
<text text-anchor="start" x="1205.5" y="-482.278" font-family="Times,serif" font-size="14.00">create</text>
<text text-anchor="start" x="1205.5" y="-465.478" font-family="Times,serif" font-size="14.00">destroy</text>
<text text-anchor="start" x="1205.5" y="-448.678" font-family="Times,serif" font-size="14.00">edit</text>
<text text-anchor="start" x="1205.5" y="-431.878" font-family="Times,serif" font-size="14.00">index</text>
<text text-anchor="start" x="1205.5" y="-415.078" font-family="Times,serif" font-size="14.00">new</text>
<text text-anchor="start" x="1205.5" y="-398.278" font-family="Times,serif" font-size="14.00">show</text>
<text text-anchor="start" x="1205.5" y="-381.478" font-family="Times,serif" font-size="14.00">update</text>
<polyline fill="none" stroke="black" points="1197.5,-374.678 1407.13,-374.678 "/>
<polyline fill="none" stroke="black" points="1197.5,-350.678 1407.13,-350.678 "/>
<text text-anchor="start" x="1205.5" y="-332.678" font-family="Times,serif" font-size="14.00">_layout</text>
<text text-anchor="start" x="1205.5" y="-315.878" font-family="Times,serif" font-size="14.00">populate_artists</text>
</g>
<!-- ApplicationController&#45;&gt;EventsController -->
<g id="edge14" class="edge"><title>ApplicationController&#45;&gt;EventsController</title>
<path fill="none" stroke="black" d="M798.725,-649.958C910.333,-600.208 1085.82,-521.981 1197.41,-472.24"/>
</g>
<!-- MainController -->
<g id="node10" class="node"><title>MainController</title>
<polyline fill="none" stroke="black" points="454.51,-122.345 533.607,-122.345 "/>
<path fill="none" stroke="black" d="M533.607,-122.345C539.607,-122.345 545.607,-128.345 545.607,-134.345"/>
<polyline fill="none" stroke="black" points="545.607,-134.345 545.607,-208.745 "/>
<path fill="none" stroke="black" d="M545.607,-208.745C545.607,-214.745 539.607,-220.745 533.607,-220.745"/>
<polyline fill="none" stroke="black" points="533.607,-220.745 454.51,-220.745 "/>
<path fill="none" stroke="black" d="M454.51,-220.745C448.51,-220.745 442.51,-214.745 442.51,-208.745"/>
<polyline fill="none" stroke="black" points="442.51,-208.745 442.51,-134.345 "/>
<path fill="none" stroke="black" d="M442.51,-134.345C442.51,-128.345 448.51,-122.345 454.51,-122.345"/>
<text text-anchor="middle" x="494.059" y="-202.745" font-family="Times,serif" font-size="14.00">MainController</text>
<polyline fill="none" stroke="black" points="442.51,-195.945 545.607,-195.945 "/>
<text text-anchor="start" x="450.51" y="-177.945" font-family="Times,serif" font-size="14.00">index</text>
<polyline fill="none" stroke="black" points="442.51,-171.145 545.607,-171.145 "/>
<polyline fill="none" stroke="black" points="442.51,-147.145 545.607,-147.145 "/>
<text text-anchor="start" x="450.51" y="-129.145" font-family="Times,serif" font-size="14.00">_layout</text>
</g>
<!-- ApplicationController&#45;&gt;MainController -->
<g id="edge16" class="edge"><title>ApplicationController&#45;&gt;MainController</title>
<path fill="none" stroke="black" d="M658.979,-605.262C616.513,-493.582 546.237,-308.768 512.824,-220.896"/>
</g>
<!-- ManagerController -->
<g id="node11" class="node"><title>ManagerController</title>
<polyline fill="none" stroke="black" points="825.929,-41.4226 925.226,-41.4226 "/>
<path fill="none" stroke="black" d="M925.226,-41.4226C931.226,-41.4226 937.226,-47.4226 937.226,-53.4226"/>
<polyline fill="none" stroke="black" points="937.226,-53.4226 937.226,-144.623 "/>
<path fill="none" stroke="black" d="M937.226,-144.623C937.226,-150.623 931.226,-156.623 925.226,-156.623"/>
<polyline fill="none" stroke="black" points="925.226,-156.623 825.929,-156.623 "/>
<path fill="none" stroke="black" d="M825.929,-156.623C819.929,-156.623 813.929,-150.623 813.929,-144.623"/>
<polyline fill="none" stroke="black" points="813.929,-144.623 813.929,-53.4226 "/>
<path fill="none" stroke="black" d="M813.929,-53.4226C813.929,-47.4226 819.929,-41.4226 825.929,-41.4226"/>
<text text-anchor="middle" x="875.578" y="-138.623" font-family="Times,serif" font-size="14.00">ManagerController</text>
<polyline fill="none" stroke="black" points="813.929,-131.823 937.226,-131.823 "/>
<text text-anchor="start" x="821.929" y="-113.823" font-family="Times,serif" font-size="14.00">index</text>
<text text-anchor="start" x="821.929" y="-97.0226" font-family="Times,serif" font-size="14.00">settings</text>
<polyline fill="none" stroke="black" points="813.929,-90.2226 937.226,-90.2226 "/>
<polyline fill="none" stroke="black" points="813.929,-66.2226 937.226,-66.2226 "/>
<text text-anchor="start" x="821.929" y="-48.2226" font-family="Times,serif" font-size="14.00">_layout</text>
</g>
<!-- ApplicationController&#45;&gt;ManagerController -->
<g id="edge18" class="edge"><title>ApplicationController&#45;&gt;ManagerController</title>
<path fill="none" stroke="black" d="M721.576,-605.313C759.476,-480.714 826.248,-261.198 857.935,-157.024"/>
</g>
<!-- NewslettersController -->
<g id="node12" class="node"><title>NewslettersController</title>
<polyline fill="none" stroke="black" points="602.438,-0.5 718.073,-0.5 "/>
<path fill="none" stroke="black" d="M718.073,-0.5C724.073,-0.5 730.073,-6.5 730.073,-12.5"/>
<polyline fill="none" stroke="black" points="730.073,-12.5 730.073,-86.9 "/>
<path fill="none" stroke="black" d="M730.073,-86.9C730.073,-92.9 724.073,-98.9 718.073,-98.9"/>
<polyline fill="none" stroke="black" points="718.073,-98.9 602.438,-98.9 "/>
<path fill="none" stroke="black" d="M602.438,-98.9C596.438,-98.9 590.438,-92.9 590.438,-86.9"/>
<polyline fill="none" stroke="black" points="590.438,-86.9 590.438,-12.5 "/>
<path fill="none" stroke="black" d="M590.438,-12.5C590.438,-6.5 596.438,-0.5 602.438,-0.5"/>
<text text-anchor="middle" x="660.255" y="-80.9" font-family="Times,serif" font-size="14.00">NewslettersController</text>
<polyline fill="none" stroke="black" points="590.438,-74.1 730.073,-74.1 "/>
<text text-anchor="start" x="598.438" y="-56.1" font-family="Times,serif" font-size="14.00">index</text>
<polyline fill="none" stroke="black" points="590.438,-49.3 730.073,-49.3 "/>
<polyline fill="none" stroke="black" points="590.438,-25.3 730.073,-25.3 "/>
<text text-anchor="start" x="598.438" y="-7.3" font-family="Times,serif" font-size="14.00">_layout</text>
</g>
<!-- ApplicationController&#45;&gt;NewslettersController -->
<g id="edge20" class="edge"><title>ApplicationController&#45;&gt;NewslettersController</title>
<path fill="none" stroke="black" d="M689.035,-605.411C681.846,-466.591 668.413,-207.224 662.811,-99.0529"/>
</g>
<!-- OrdersController -->
<g id="node13" class="node"><title>OrdersController</title>
<polyline fill="none" stroke="black" points="11.5896,-590.989 99.2312,-590.989 "/>
<path fill="none" stroke="black" d="M99.2312,-590.989C105.231,-590.989 111.231,-596.989 111.231,-602.989"/>
<polyline fill="none" stroke="black" points="111.231,-602.989 111.231,-778.189 "/>
<path fill="none" stroke="black" d="M111.231,-778.189C111.231,-784.189 105.231,-790.189 99.2312,-790.189"/>
<polyline fill="none" stroke="black" points="99.2312,-790.189 11.5896,-790.189 "/>
<path fill="none" stroke="black" d="M11.5896,-790.189C5.5896,-790.189 -0.4104,-784.189 -0.4104,-778.189"/>
<polyline fill="none" stroke="black" points="-0.4104,-778.189 -0.4104,-602.989 "/>
<path fill="none" stroke="black" d="M-0.4104,-602.989C-0.4104,-596.989 5.5896,-590.989 11.5896,-590.989"/>
<text text-anchor="middle" x="55.4104" y="-772.189" font-family="Times,serif" font-size="14.00">OrdersController</text>
<polyline fill="none" stroke="black" points="-0.4104,-765.389 111.231,-765.389 "/>
<text text-anchor="start" x="7.5896" y="-747.389" font-family="Times,serif" font-size="14.00">create</text>
<text text-anchor="start" x="7.5896" y="-730.589" font-family="Times,serif" font-size="14.00">destroy</text>
<text text-anchor="start" x="7.5896" y="-713.789" font-family="Times,serif" font-size="14.00">edit</text>
<text text-anchor="start" x="7.5896" y="-696.989" font-family="Times,serif" font-size="14.00">index</text>
<text text-anchor="start" x="7.5896" y="-680.189" font-family="Times,serif" font-size="14.00">new</text>
<text text-anchor="start" x="7.5896" y="-663.389" font-family="Times,serif" font-size="14.00">show</text>
<text text-anchor="start" x="7.5896" y="-646.589" font-family="Times,serif" font-size="14.00">update</text>
<polyline fill="none" stroke="black" points="-0.4104,-639.789 111.231,-639.789 "/>
<polyline fill="none" stroke="black" points="-0.4104,-615.789 111.231,-615.789 "/>
<text text-anchor="start" x="7.5896" y="-597.789" font-family="Times,serif" font-size="14.00">_layout</text>
</g>
<!-- ApplicationController&#45;&gt;OrdersController -->
<g id="edge22" class="edge"><title>ApplicationController&#45;&gt;OrdersController</title>
<path fill="none" stroke="black" d="M588.711,-695.732C452.1,-694.414 218.358,-692.16 111.587,-691.131"/>
</g>
<!-- PagesController -->
<g id="node14" class="node"><title>PagesController</title>
<polyline fill="none" stroke="black" points="1330.55,-698.343 1412.76,-698.343 "/>
<path fill="none" stroke="black" d="M1412.76,-698.343C1418.76,-698.343 1424.76,-704.343 1424.76,-710.343"/>
<polyline fill="none" stroke="black" points="1424.76,-710.343 1424.76,-885.543 "/>
<path fill="none" stroke="black" d="M1424.76,-885.543C1424.76,-891.543 1418.76,-897.543 1412.76,-897.543"/>
<polyline fill="none" stroke="black" points="1412.76,-897.543 1330.55,-897.543 "/>
<path fill="none" stroke="black" d="M1330.55,-897.543C1324.55,-897.543 1318.55,-891.543 1318.55,-885.543"/>
<polyline fill="none" stroke="black" points="1318.55,-885.543 1318.55,-710.343 "/>
<path fill="none" stroke="black" d="M1318.55,-710.343C1318.55,-704.343 1324.55,-698.343 1330.55,-698.343"/>
<text text-anchor="middle" x="1371.66" y="-879.543" font-family="Times,serif" font-size="14.00">PagesController</text>
<polyline fill="none" stroke="black" points="1318.55,-872.743 1424.76,-872.743 "/>
<text text-anchor="start" x="1326.55" y="-854.743" font-family="Times,serif" font-size="14.00">create</text>
<text text-anchor="start" x="1326.55" y="-837.943" font-family="Times,serif" font-size="14.00">destroy</text>
<text text-anchor="start" x="1326.55" y="-821.143" font-family="Times,serif" font-size="14.00">edit</text>
<text text-anchor="start" x="1326.55" y="-804.343" font-family="Times,serif" font-size="14.00">index</text>
<text text-anchor="start" x="1326.55" y="-787.543" font-family="Times,serif" font-size="14.00">new</text>
<text text-anchor="start" x="1326.55" y="-770.743" font-family="Times,serif" font-size="14.00">show</text>
<text text-anchor="start" x="1326.55" y="-753.943" font-family="Times,serif" font-size="14.00">update</text>
<polyline fill="none" stroke="black" points="1318.55,-747.143 1424.76,-747.143 "/>
<polyline fill="none" stroke="black" points="1318.55,-723.143 1424.76,-723.143 "/>
<text text-anchor="start" x="1326.55" y="-705.143" font-family="Times,serif" font-size="14.00">_layout</text>
</g>
<!-- ApplicationController&#45;&gt;PagesController -->
<g id="edge24" class="edge"><title>ApplicationController&#45;&gt;PagesController</title>
<path fill="none" stroke="black" d="M798.942,-712.446C945.652,-734.347 1206.29,-773.257 1318.19,-789.962"/>
</g>
<!-- PricesController -->
<g id="node15" class="node"><title>PricesController</title>
<polyline fill="none" stroke="black" points="1107.27,-1096.48 1191.03,-1096.48 "/>
<path fill="none" stroke="black" d="M1191.03,-1096.48C1197.03,-1096.48 1203.03,-1102.48 1203.03,-1108.48"/>
<polyline fill="none" stroke="black" points="1203.03,-1108.48 1203.03,-1283.68 "/>
<path fill="none" stroke="black" d="M1203.03,-1283.68C1203.03,-1289.68 1197.03,-1295.68 1191.03,-1295.68"/>
<polyline fill="none" stroke="black" points="1191.03,-1295.68 1107.27,-1295.68 "/>
<path fill="none" stroke="black" d="M1107.27,-1295.68C1101.27,-1295.68 1095.27,-1289.68 1095.27,-1283.68"/>
<polyline fill="none" stroke="black" points="1095.27,-1283.68 1095.27,-1108.48 "/>
<path fill="none" stroke="black" d="M1095.27,-1108.48C1095.27,-1102.48 1101.27,-1096.48 1107.27,-1096.48"/>
<text text-anchor="middle" x="1149.15" y="-1277.68" font-family="Times,serif" font-size="14.00">PricesController</text>
<polyline fill="none" stroke="black" points="1095.27,-1270.88 1203.03,-1270.88 "/>
<text text-anchor="start" x="1103.27" y="-1252.88" font-family="Times,serif" font-size="14.00">create</text>
<text text-anchor="start" x="1103.27" y="-1236.08" font-family="Times,serif" font-size="14.00">destroy</text>
<text text-anchor="start" x="1103.27" y="-1219.28" font-family="Times,serif" font-size="14.00">edit</text>
<text text-anchor="start" x="1103.27" y="-1202.48" font-family="Times,serif" font-size="14.00">index</text>
<text text-anchor="start" x="1103.27" y="-1185.68" font-family="Times,serif" font-size="14.00">new</text>
<text text-anchor="start" x="1103.27" y="-1168.88" font-family="Times,serif" font-size="14.00">show</text>
<text text-anchor="start" x="1103.27" y="-1152.08" font-family="Times,serif" font-size="14.00">update</text>
<polyline fill="none" stroke="black" points="1095.27,-1145.28 1203.03,-1145.28 "/>
<polyline fill="none" stroke="black" points="1095.27,-1121.28 1203.03,-1121.28 "/>
<text text-anchor="start" x="1103.27" y="-1103.28" font-family="Times,serif" font-size="14.00">_layout</text>
</g>
<!-- ApplicationController&#45;&gt;PricesController -->
<g id="edge26" class="edge"><title>ApplicationController&#45;&gt;PricesController</title>
<path fill="none" stroke="black" d="M777.025,-788.039C869.549,-889.493 1016.26,-1050.37 1094.99,-1136.69"/>
</g>
<!-- ReportsController -->
<g id="node16" class="node"><title>ReportsController</title>
<polyline fill="none" stroke="black" points="850.315,-1278.06 943.411,-1278.06 "/>
<path fill="none" stroke="black" d="M943.411,-1278.06C949.411,-1278.06 955.411,-1284.06 955.411,-1290.06"/>
<polyline fill="none" stroke="black" points="955.411,-1290.06 955.411,-1364.46 "/>
<path fill="none" stroke="black" d="M955.411,-1364.46C955.411,-1370.46 949.411,-1376.46 943.411,-1376.46"/>
<polyline fill="none" stroke="black" points="943.411,-1376.46 850.315,-1376.46 "/>
<path fill="none" stroke="black" d="M850.315,-1376.46C844.315,-1376.46 838.315,-1370.46 838.315,-1364.46"/>
<polyline fill="none" stroke="black" points="838.315,-1364.46 838.315,-1290.06 "/>
<path fill="none" stroke="black" d="M838.315,-1290.06C838.315,-1284.06 844.315,-1278.06 850.315,-1278.06"/>
<text text-anchor="middle" x="896.863" y="-1358.46" font-family="Times,serif" font-size="14.00">ReportsController</text>
<polyline fill="none" stroke="black" points="838.315,-1351.66 955.411,-1351.66 "/>
<text text-anchor="start" x="846.315" y="-1333.66" font-family="Times,serif" font-size="14.00">index</text>
<polyline fill="none" stroke="black" points="838.315,-1326.86 955.411,-1326.86 "/>
<polyline fill="none" stroke="black" points="838.315,-1302.86 955.411,-1302.86 "/>
<text text-anchor="start" x="846.315" y="-1284.86" font-family="Times,serif" font-size="14.00">_layout</text>
</g>
<!-- ApplicationController&#45;&gt;ReportsController -->
<g id="edge28" class="edge"><title>ApplicationController&#45;&gt;ReportsController</title>
<path fill="none" stroke="black" d="M699.337,-788.263C707.915,-885.761 729.432,-1042.95 782.853,-1167.92 800.033,-1208.11 828.692,-1248.1 852.977,-1277.96"/>
</g>
<!-- SeatingChartsController -->
<g id="node17" class="node"><title>SeatingChartsController</title>
<polyline fill="none" stroke="black" points="913.865,-291.113 1041.95,-291.113 "/>
<path fill="none" stroke="black" d="M1041.95,-291.113C1047.95,-291.113 1053.95,-297.113 1053.95,-303.113"/>
<polyline fill="none" stroke="black" points="1053.95,-303.113 1053.95,-478.313 "/>
<path fill="none" stroke="black" d="M1053.95,-478.313C1053.95,-484.313 1047.95,-490.313 1041.95,-490.313"/>
<polyline fill="none" stroke="black" points="1041.95,-490.313 913.865,-490.313 "/>
<path fill="none" stroke="black" d="M913.865,-490.313C907.865,-490.313 901.865,-484.313 901.865,-478.313"/>
<polyline fill="none" stroke="black" points="901.865,-478.313 901.865,-303.113 "/>
<path fill="none" stroke="black" d="M901.865,-303.113C901.865,-297.113 907.865,-291.113 913.865,-291.113"/>
<text text-anchor="middle" x="977.909" y="-472.313" font-family="Times,serif" font-size="14.00">SeatingChartsController</text>
<polyline fill="none" stroke="black" points="901.865,-465.513 1053.95,-465.513 "/>
<text text-anchor="start" x="909.865" y="-447.513" font-family="Times,serif" font-size="14.00">create</text>
<text text-anchor="start" x="909.865" y="-430.713" font-family="Times,serif" font-size="14.00">destroy</text>
<text text-anchor="start" x="909.865" y="-413.913" font-family="Times,serif" font-size="14.00">edit</text>
<text text-anchor="start" x="909.865" y="-397.113" font-family="Times,serif" font-size="14.00">index</text>
<text text-anchor="start" x="909.865" y="-380.313" font-family="Times,serif" font-size="14.00">new</text>
<text text-anchor="start" x="909.865" y="-363.513" font-family="Times,serif" font-size="14.00">show</text>
<text text-anchor="start" x="909.865" y="-346.713" font-family="Times,serif" font-size="14.00">update</text>
<polyline fill="none" stroke="black" points="901.865,-339.913 1053.95,-339.913 "/>
<polyline fill="none" stroke="black" points="901.865,-315.913 1053.95,-315.913 "/>
<text text-anchor="start" x="909.865" y="-297.913" font-family="Times,serif" font-size="14.00">_layout</text>
</g>
<!-- ApplicationController&#45;&gt;SeatingChartsController -->
<g id="edge30" class="edge"><title>ApplicationController&#45;&gt;SeatingChartsController</title>
<path fill="none" stroke="black" d="M778.633,-605.34C817.717,-563.245 863.734,-513.683 901.696,-472.797"/>
</g>
<!-- SectionsController -->
<g id="node18" class="node"><title>SectionsController</title>
<polyline fill="none" stroke="black" points="1073.95,-84.3692 1170.94,-84.3692 "/>
<path fill="none" stroke="black" d="M1170.94,-84.3692C1176.94,-84.3692 1182.94,-90.3692 1182.94,-96.3692"/>
<polyline fill="none" stroke="black" points="1182.94,-96.3692 1182.94,-271.569 "/>
<path fill="none" stroke="black" d="M1182.94,-271.569C1182.94,-277.569 1176.94,-283.569 1170.94,-283.569"/>
<polyline fill="none" stroke="black" points="1170.94,-283.569 1073.95,-283.569 "/>
<path fill="none" stroke="black" d="M1073.95,-283.569C1067.95,-283.569 1061.95,-277.569 1061.95,-271.569"/>
<polyline fill="none" stroke="black" points="1061.95,-271.569 1061.95,-96.3692 "/>
<path fill="none" stroke="black" d="M1061.95,-96.3692C1061.95,-90.3692 1067.95,-84.3692 1073.95,-84.3692"/>
<text text-anchor="middle" x="1122.45" y="-265.569" font-family="Times,serif" font-size="14.00">SectionsController</text>
<polyline fill="none" stroke="black" points="1061.95,-258.769 1182.94,-258.769 "/>
<text text-anchor="start" x="1069.95" y="-240.769" font-family="Times,serif" font-size="14.00">create</text>
<text text-anchor="start" x="1069.95" y="-223.969" font-family="Times,serif" font-size="14.00">destroy</text>
<text text-anchor="start" x="1069.95" y="-207.169" font-family="Times,serif" font-size="14.00">edit</text>
<text text-anchor="start" x="1069.95" y="-190.369" font-family="Times,serif" font-size="14.00">index</text>
<text text-anchor="start" x="1069.95" y="-173.569" font-family="Times,serif" font-size="14.00">new</text>
<text text-anchor="start" x="1069.95" y="-156.769" font-family="Times,serif" font-size="14.00">show</text>
<text text-anchor="start" x="1069.95" y="-139.969" font-family="Times,serif" font-size="14.00">update</text>
<polyline fill="none" stroke="black" points="1061.95,-133.169 1182.94,-133.169 "/>
<polyline fill="none" stroke="black" points="1061.95,-109.169 1182.94,-109.169 "/>
<text text-anchor="start" x="1069.95" y="-91.1692" font-family="Times,serif" font-size="14.00">_layout</text>
</g>
<!-- ApplicationController&#45;&gt;SectionsController -->
<g id="edge32" class="edge"><title>ApplicationController&#45;&gt;SectionsController</title>
<path fill="none" stroke="black" d="M720.002,-605.139C750.085,-514.401 807.373,-376.528 898.665,-287.913 944.464,-243.457 1012.76,-215.538 1061.85,-199.967"/>
</g>
<!-- StatsController -->
<g id="node19" class="node"><title>StatsController</title>
<polyline fill="none" stroke="black" points="176.928,-1113.06 253.7,-1113.06 "/>
<path fill="none" stroke="black" d="M253.7,-1113.06C259.7,-1113.06 265.7,-1119.06 265.7,-1125.06"/>
<polyline fill="none" stroke="black" points="265.7,-1125.06 265.7,-1216.26 "/>
<path fill="none" stroke="black" d="M265.7,-1216.26C265.7,-1222.26 259.7,-1228.26 253.7,-1228.26"/>
<polyline fill="none" stroke="black" points="253.7,-1228.26 176.928,-1228.26 "/>
<path fill="none" stroke="black" d="M176.928,-1228.26C170.928,-1228.26 164.928,-1222.26 164.928,-1216.26"/>
<polyline fill="none" stroke="black" points="164.928,-1216.26 164.928,-1125.06 "/>
<path fill="none" stroke="black" d="M164.928,-1125.06C164.928,-1119.06 170.928,-1113.06 176.928,-1113.06"/>
<text text-anchor="middle" x="215.314" y="-1210.26" font-family="Times,serif" font-size="14.00">StatsController</text>
<polyline fill="none" stroke="black" points="164.928,-1203.46 265.7,-1203.46 "/>
<text text-anchor="start" x="172.928" y="-1185.46" font-family="Times,serif" font-size="14.00">overview</text>
<text text-anchor="start" x="172.928" y="-1168.66" font-family="Times,serif" font-size="14.00">overview=</text>
<polyline fill="none" stroke="black" points="164.928,-1161.86 265.7,-1161.86 "/>
<polyline fill="none" stroke="black" points="164.928,-1137.86 265.7,-1137.86 "/>
<text text-anchor="start" x="172.928" y="-1119.86" font-family="Times,serif" font-size="14.00">_layout</text>
</g>
<!-- ApplicationController&#45;&gt;StatsController -->
<g id="edge34" class="edge"><title>ApplicationController&#45;&gt;StatsController</title>
<path fill="none" stroke="black" d="M634.032,-788.299C584.094,-860.536 508.104,-961.096 426.618,-1034.99 377.044,-1079.94 310.95,-1119.76 265.97,-1144.44"/>
</g>
<!-- TicketLocksController -->
<g id="node20" class="node"><title>TicketLocksController</title>
<polyline fill="none" stroke="black" points="20.9996,-869.887 140.032,-869.887 "/>
<path fill="none" stroke="black" d="M140.032,-869.887C146.032,-869.887 152.032,-875.887 152.032,-881.887"/>
<polyline fill="none" stroke="black" points="152.032,-881.887 152.032,-973.087 "/>
<path fill="none" stroke="black" d="M152.032,-973.087C152.032,-979.087 146.032,-985.087 140.032,-985.087"/>
<polyline fill="none" stroke="black" points="140.032,-985.087 20.9996,-985.087 "/>
<path fill="none" stroke="black" d="M20.9996,-985.087C14.9996,-985.087 8.99962,-979.087 8.99962,-973.087"/>
<polyline fill="none" stroke="black" points="8.99962,-973.087 8.99962,-881.887 "/>
<path fill="none" stroke="black" d="M8.99962,-881.887C8.99962,-875.887 14.9996,-869.887 20.9996,-869.887"/>
<text text-anchor="middle" x="80.5157" y="-967.087" font-family="Times,serif" font-size="14.00">TicketLocksController</text>
<polyline fill="none" stroke="black" points="8.99962,-960.287 152.032,-960.287 "/>
<text text-anchor="start" x="16.9996" y="-942.287" font-family="Times,serif" font-size="14.00">destroy</text>
<text text-anchor="start" x="16.9996" y="-925.487" font-family="Times,serif" font-size="14.00">new</text>
<polyline fill="none" stroke="black" points="8.99962,-918.687 152.032,-918.687 "/>
<polyline fill="none" stroke="black" points="8.99962,-894.687 152.032,-894.687 "/>
<text text-anchor="start" x="16.9996" y="-876.687" font-family="Times,serif" font-size="14.00">_layout</text>
</g>
<!-- ApplicationController&#45;&gt;TicketLocksController -->
<g id="edge36" class="edge"><title>ApplicationController&#45;&gt;TicketLocksController</title>
<path fill="none" stroke="black" d="M588.723,-723.254C510.679,-744.196 402.243,-775.938 310.121,-812.585 255.76,-834.21 196.787,-863.864 152.22,-887.63"/>
</g>
<!-- TicketTemplatesController -->
<g id="node21" class="node"><title>TicketTemplatesController</title>
<polyline fill="none" stroke="black" points="371.402,-1157.62 513.554,-1157.62 "/>
<path fill="none" stroke="black" d="M513.554,-1157.62C519.554,-1157.62 525.554,-1163.62 525.554,-1169.62"/>
<polyline fill="none" stroke="black" points="525.554,-1169.62 525.554,-1344.82 "/>
<path fill="none" stroke="black" d="M525.554,-1344.82C525.554,-1350.82 519.554,-1356.82 513.554,-1356.82"/>
<polyline fill="none" stroke="black" points="513.554,-1356.82 371.402,-1356.82 "/>
<path fill="none" stroke="black" d="M371.402,-1356.82C365.402,-1356.82 359.402,-1350.82 359.402,-1344.82"/>
<polyline fill="none" stroke="black" points="359.402,-1344.82 359.402,-1169.62 "/>
<path fill="none" stroke="black" d="M359.402,-1169.62C359.402,-1163.62 365.402,-1157.62 371.402,-1157.62"/>
<text text-anchor="middle" x="442.478" y="-1338.82" font-family="Times,serif" font-size="14.00">TicketTemplatesController</text>
<polyline fill="none" stroke="black" points="359.402,-1332.02 525.554,-1332.02 "/>
<text text-anchor="start" x="367.402" y="-1314.02" font-family="Times,serif" font-size="14.00">create</text>
<text text-anchor="start" x="367.402" y="-1297.22" font-family="Times,serif" font-size="14.00">destroy</text>
<text text-anchor="start" x="367.402" y="-1280.42" font-family="Times,serif" font-size="14.00">edit</text>
<text text-anchor="start" x="367.402" y="-1263.62" font-family="Times,serif" font-size="14.00">index</text>
<text text-anchor="start" x="367.402" y="-1246.82" font-family="Times,serif" font-size="14.00">new</text>
<text text-anchor="start" x="367.402" y="-1230.02" font-family="Times,serif" font-size="14.00">show</text>
<text text-anchor="start" x="367.402" y="-1213.22" font-family="Times,serif" font-size="14.00">update</text>
<polyline fill="none" stroke="black" points="359.402,-1206.42 525.554,-1206.42 "/>
<polyline fill="none" stroke="black" points="359.402,-1182.42 525.554,-1182.42 "/>
<text text-anchor="start" x="367.402" y="-1164.42" font-family="Times,serif" font-size="14.00">_layout</text>
</g>
<!-- ApplicationController&#45;&gt;TicketTemplatesController -->
<g id="edge38" class="edge"><title>ApplicationController&#45;&gt;TicketTemplatesController</title>
<path fill="none" stroke="black" d="M652.832,-788.041C607.355,-889.473 534.164,-1052.72 487.21,-1157.45"/>
</g>
<!-- TicketsController -->
<g id="node22" class="node"><title>TicketsController</title>
<polyline fill="none" stroke="black" points="798.053,-965.518 888.319,-965.518 "/>
<path fill="none" stroke="black" d="M888.319,-965.518C894.319,-965.518 900.319,-971.518 900.319,-977.518"/>
<polyline fill="none" stroke="black" points="900.319,-977.518 900.319,-1152.72 "/>
<path fill="none" stroke="black" d="M900.319,-1152.72C900.319,-1158.72 894.319,-1164.72 888.319,-1164.72"/>
<polyline fill="none" stroke="black" points="888.319,-1164.72 798.053,-1164.72 "/>
<path fill="none" stroke="black" d="M798.053,-1164.72C792.053,-1164.72 786.053,-1158.72 786.053,-1152.72"/>
<polyline fill="none" stroke="black" points="786.053,-1152.72 786.053,-977.518 "/>
<path fill="none" stroke="black" d="M786.053,-977.518C786.053,-971.518 792.053,-965.518 798.053,-965.518"/>
<text text-anchor="middle" x="843.186" y="-1146.72" font-family="Times,serif" font-size="14.00">TicketsController</text>
<polyline fill="none" stroke="black" points="786.053,-1139.92 900.319,-1139.92 "/>
<text text-anchor="start" x="794.053" y="-1121.92" font-family="Times,serif" font-size="14.00">create</text>
<text text-anchor="start" x="794.053" y="-1105.12" font-family="Times,serif" font-size="14.00">destroy</text>
<text text-anchor="start" x="794.053" y="-1088.32" font-family="Times,serif" font-size="14.00">edit</text>
<text text-anchor="start" x="794.053" y="-1071.52" font-family="Times,serif" font-size="14.00">index</text>
<text text-anchor="start" x="794.053" y="-1054.72" font-family="Times,serif" font-size="14.00">new</text>
<text text-anchor="start" x="794.053" y="-1037.92" font-family="Times,serif" font-size="14.00">show</text>
<text text-anchor="start" x="794.053" y="-1021.12" font-family="Times,serif" font-size="14.00">update</text>
<polyline fill="none" stroke="black" points="786.053,-1014.32 900.319,-1014.32 "/>
<polyline fill="none" stroke="black" points="786.053,-990.318 900.319,-990.318 "/>
<text text-anchor="start" x="794.053" y="-972.318" font-family="Times,serif" font-size="14.00">_layout</text>
</g>
<!-- ApplicationController&#45;&gt;TicketsController -->
<g id="edge40" class="edge"><title>ApplicationController&#45;&gt;TicketsController</title>
<path fill="none" stroke="black" d="M730.893,-788.276C752.717,-842.08 780.326,-910.146 802.706,-965.322"/>
</g>
<!-- UsersController -->
<g id="node23" class="node"><title>UsersController</title>
<polyline fill="none" stroke="black" points="283.935,-367.398 365.363,-367.398 "/>
<path fill="none" stroke="black" d="M365.363,-367.398C371.363,-367.398 377.363,-373.398 377.363,-379.398"/>
<polyline fill="none" stroke="black" points="377.363,-379.398 377.363,-554.598 "/>
<path fill="none" stroke="black" d="M377.363,-554.598C377.363,-560.598 371.363,-566.598 365.363,-566.598"/>
<polyline fill="none" stroke="black" points="365.363,-566.598 283.935,-566.598 "/>
<path fill="none" stroke="black" d="M283.935,-566.598C277.935,-566.598 271.935,-560.598 271.935,-554.598"/>
<polyline fill="none" stroke="black" points="271.935,-554.598 271.935,-379.398 "/>
<path fill="none" stroke="black" d="M271.935,-379.398C271.935,-373.398 277.935,-367.398 283.935,-367.398"/>
<text text-anchor="middle" x="324.649" y="-548.598" font-family="Times,serif" font-size="14.00">UsersController</text>
<polyline fill="none" stroke="black" points="271.935,-541.798 377.363,-541.798 "/>
<text text-anchor="start" x="279.935" y="-523.798" font-family="Times,serif" font-size="14.00">create</text>
<text text-anchor="start" x="279.935" y="-506.998" font-family="Times,serif" font-size="14.00">destroy</text>
<text text-anchor="start" x="279.935" y="-490.198" font-family="Times,serif" font-size="14.00">edit</text>
<text text-anchor="start" x="279.935" y="-473.398" font-family="Times,serif" font-size="14.00">index</text>
<text text-anchor="start" x="279.935" y="-456.598" font-family="Times,serif" font-size="14.00">new</text>
<text text-anchor="start" x="279.935" y="-439.798" font-family="Times,serif" font-size="14.00">show</text>
<text text-anchor="start" x="279.935" y="-422.998" font-family="Times,serif" font-size="14.00">update</text>
<polyline fill="none" stroke="black" points="271.935,-416.198 377.363,-416.198 "/>
<polyline fill="none" stroke="black" points="271.935,-392.198 377.363,-392.198 "/>
<text text-anchor="start" x="279.935" y="-374.198" font-family="Times,serif" font-size="14.00">_layout</text>
</g>
<!-- ApplicationController&#45;&gt;UsersController -->
<g id="edge42" class="edge"><title>ApplicationController&#45;&gt;UsersController</title>
<path fill="none" stroke="black" d="M588.485,-631.216C519.552,-588.31 432.4,-534.064 377.571,-499.938"/>
</g>
</g>
</svg>
