<?xml version="1.0" encoding="UTF-8" standalone="no"?>
<!DOCTYPE svg PUBLIC "-//W3C//DTD SVG 1.1//EN"
 "http://www.w3.org/Graphics/SVG/1.1/DTD/svg11.dtd">
<!-- Generated by graphviz version 2.28.0 (20120503.1651)
 -->
<!-- Title: controllers_diagram Pages: 1 -->
<svg width="1473pt" height="1283pt"
 viewBox="0.00 0.00 1473.26 1283.39" xmlns="http://www.w3.org/2000/svg" xmlns:xlink="http://www.w3.org/1999/xlink">
<g id="graph1" class="graph" transform="scale(1 1) rotate(0) translate(4 1279.39)">
<title>controllers_diagram</title>
<polygon fill="white" stroke="white" points="-4,5 -4,-1279.39 1470.26,-1279.39 1470.26,5 -4,5"/>
<!-- _diagram_info -->
<g id="node1" class="node"><title>_diagram_info</title>
<text text-anchor="start" x="1265.88" y="-1179" font-family="Times,serif" font-size="13.00">Controllers diagram</text>
<text text-anchor="start" x="1265.88" y="-1163.4" font-family="Times,serif" font-size="13.00">Date: Oct 17 2012 &#45; 13:11</text>
<text text-anchor="start" x="1265.88" y="-1147.8" font-family="Times,serif" font-size="13.00">Migration version: 20121017135151</text>
<text text-anchor="start" x="1265.88" y="-1132.2" font-family="Times,serif" font-size="13.00">Generated by RailRoady 1.1.0</text>
<text text-anchor="start" x="1265.88" y="-1116.6" font-family="Times,serif" font-size="13.00">http://railroady.prestonlee.com</text>
</g>
<!-- AccountsController -->
<g id="node2" class="node"><title>AccountsController</title>
<ellipse fill="none" stroke="black" cx="134.5" cy="-445.795" rx="87.3045" ry="18"/>
<text text-anchor="middle" x="134.5" y="-440.195" font-family="Times,serif" font-size="14.00">AccountsController</text>
</g>
<!-- AdminController -->
<g id="node3" class="node"><title>AdminController</title>
<ellipse fill="none" stroke="black" cx="1235.26" cy="-558.142" rx="77.3328" ry="18"/>
<text text-anchor="middle" x="1235.26" y="-552.542" font-family="Times,serif" font-size="14.00">AdminController</text>
</g>
<!-- ApplicationController -->
<g id="node4" class="node"><title>ApplicationController</title>
<ellipse fill="none" stroke="black" cx="720.442" cy="-636.777" rx="95.984" ry="18"/>
<text text-anchor="middle" x="720.442" y="-631.177" font-family="Times,serif" font-size="14.00">ApplicationController</text>
</g>
<!-- ApplicationController&#45;&gt;AccountsController -->
<g id="edge2" class="edge"><title>ApplicationController&#45;&gt;AccountsController</title>
<path fill="none" stroke="black" d="M672.492,-621.148C562.071,-585.157 290.944,-496.786 181.475,-461.106"/>
</g>
<!-- ApplicationController&#45;&gt;AdminController -->
<g id="edge4" class="edge"><title>ApplicationController&#45;&gt;AdminController</title>
<path fill="none" stroke="black" d="M795.026,-625.385C896.042,-609.955 1074.7,-582.667 1170.41,-568.046"/>
</g>
<!-- AreasController -->
<g id="node5" class="node"><title>AreasController</title>
<ellipse fill="none" stroke="black" cx="448.749" cy="-1169.98" rx="72.8766" ry="18"/>
<text text-anchor="middle" x="448.749" y="-1164.38" font-family="Times,serif" font-size="14.00">AreasController</text>
</g>
<!-- ApplicationController&#45;&gt;AreasController -->
<g id="edge6" class="edge"><title>ApplicationController&#45;&gt;AreasController</title>
<path fill="none" stroke="black" d="M715.574,-654.795C704.248,-695.519 674.121,-797.291 635.372,-876.751 581.546,-987.126 495.368,-1107.31 462.285,-1151.97"/>
</g>
<!-- ArtistsController -->
<g id="node6" class="node"><title>ArtistsController</title>
<ellipse fill="none" stroke="black" cx="1055.18" cy="-618.729" rx="76.2275" ry="18"/>
<text text-anchor="middle" x="1055.18" y="-613.129" font-family="Times,serif" font-size="14.00">ArtistsController</text>
</g>
<!-- ApplicationController&#45;&gt;ArtistsController -->
<g id="edge8" class="edge"><title>ApplicationController&#45;&gt;ArtistsController</title>
<path fill="none" stroke="black" d="M813.24,-631.774C865.964,-628.931 931.098,-625.419 980.497,-622.756"/>
</g>
<!-- CarouselItemsController -->
<g id="node7" class="node"><title>CarouselItemsController</title>
<ellipse fill="none" stroke="black" cx="272.837" cy="-686.13" rx="106.268" ry="18"/>
<text text-anchor="middle" x="272.837" y="-680.53" font-family="Times,serif" font-size="14.00">CarouselItemsController</text>
</g>
<!-- ApplicationController&#45;&gt;CarouselItemsController -->
<g id="edge10" class="edge"><title>ApplicationController&#45;&gt;CarouselItemsController</title>
<path fill="none" stroke="black" d="M637.562,-645.915C559.347,-654.539 442.419,-667.432 362.161,-676.281"/>
</g>
<!-- CarouselsController -->
<g id="node8" class="node"><title>CarouselsController</title>
<ellipse fill="none" stroke="black" cx="304.296" cy="-164.25" rx="88.2244" ry="18"/>
<text text-anchor="middle" x="304.296" y="-158.65" font-family="Times,serif" font-size="14.00">CarouselsController</text>
</g>
<!-- ApplicationController&#45;&gt;CarouselsController -->
<g id="edge12" class="edge"><title>ApplicationController&#45;&gt;CarouselsController</title>
<path fill="none" stroke="black" d="M704.637,-618.83C638.719,-543.981 386.065,-257.097 320.117,-182.214"/>
</g>
<!-- ChartsController -->
<g id="node9" class="node"><title>ChartsController</title>
<ellipse fill="none" stroke="black" cx="1185" cy="-291.704" rx="75.4144" ry="18"/>
<text text-anchor="middle" x="1185" y="-286.104" font-family="Times,serif" font-size="14.00">ChartsController</text>
</g>
<!-- ApplicationController&#45;&gt;ChartsController -->
<g id="edge14" class="edge"><title>ApplicationController&#45;&gt;ChartsController</title>
<path fill="none" stroke="black" d="M744.118,-619.19C823.901,-559.927 1082.35,-367.952 1161.65,-309.05"/>
</g>
<!-- CheckinsController -->
<g id="node10" class="node"><title>CheckinsController</title>
<ellipse fill="none" stroke="black" cx="539.791" cy="-44.0097" rx="86.5047" ry="18"/>
<text text-anchor="middle" x="539.791" y="-38.4097" font-family="Times,serif" font-size="14.00">CheckinsController</text>
</g>
<!-- ApplicationController&#45;&gt;CheckinsController -->
<g id="edge16" class="edge"><title>ApplicationController&#45;&gt;CheckinsController</title>
<path fill="none" stroke="black" d="M714.937,-618.713C688.209,-531.012 572.171,-150.258 545.342,-62.2238"/>
</g>
<!-- CustomerImportsController -->
<g id="node11" class="node"><title>CustomerImportsController</title>
<ellipse fill="none" stroke="black" cx="937.315" cy="-88.5999" rx="117.986" ry="18"/>
<text text-anchor="middle" x="937.315" y="-82.9999" font-family="Times,serif" font-size="14.00">CustomerImportsController</text>
</g>
<!-- ApplicationController&#45;&gt;CustomerImportsController -->
<g id="edge18" class="edge"><title>ApplicationController&#45;&gt;CustomerImportsController</title>
<path fill="none" stroke="black" d="M726.547,-618.548C742.696,-570.636 788.288,-437.352 831.822,-328.512 865.365,-244.654 910.316,-146.599 928.817,-106.781"/>
</g>
<!-- EventsController -->
<g id="node12" class="node"><title>EventsController</title>
<ellipse fill="none" stroke="black" cx="698.048" cy="-194.188" rx="77.0196" ry="18"/>
<text text-anchor="middle" x="698.048" y="-188.588" font-family="Times,serif" font-size="14.00">EventsController</text>
</g>
<!-- ApplicationController&#45;&gt;EventsController -->
<g id="edge20" class="edge"><title>ApplicationController&#45;&gt;EventsController</title>
<path fill="none" stroke="black" d="M719.523,-618.602C715.893,-546.867 702.584,-283.84 698.963,-212.271"/>
</g>
<!-- Front::ChartsController -->
<g id="node13" class="node"><title>Front::ChartsController</title>
<ellipse fill="none" stroke="black" cx="102.118" cy="-633.961" rx="102.353" ry="18"/>
<text text-anchor="middle" x="102.118" y="-628.361" font-family="Times,serif" font-size="14.00">Front::ChartsController</text>
</g>
<!-- ApplicationController&#45;&gt;Front::ChartsController -->
<g id="edge22" class="edge"><title>ApplicationController&#45;&gt;Front::ChartsController</title>
<path fill="none" stroke="black" d="M624.168,-636.338C510.119,-635.819 320.931,-634.957 204.341,-634.426"/>
</g>
<!-- Front::EventsController -->
<g id="node14" class="node"><title>Front::EventsController</title>
<ellipse fill="none" stroke="black" cx="1341.12" cy="-700.493" rx="102.959" ry="18"/>
<text text-anchor="middle" x="1341.12" y="-694.893" font-family="Times,serif" font-size="14.00">Front::EventsController</text>
</g>
<!-- ApplicationController&#45;&gt;Front::EventsController -->
<g id="edge24" class="edge"><title>ApplicationController&#45;&gt;Front::EventsController</title>
<path fill="none" stroke="black" d="M804.795,-645.436C921.798,-657.447 1132.4,-679.067 1251.92,-691.337"/>
</g>
<!-- Front::OrdersController -->
<g id="node15" class="node"><title>Front::OrdersController</title>
<ellipse fill="none" stroke="black" cx="1270.02" cy="-860.813" rx="102.952" ry="18"/>
<text text-anchor="middle" x="1270.02" y="-855.213" font-family="Times,serif" font-size="14.00">Front::OrdersController</text>
</g>
<!-- ApplicationController&#45;&gt;Front::OrdersController -->
<g id="edge26" class="edge"><title>ApplicationController&#45;&gt;Front::OrdersController</title>
<path fill="none" stroke="black" d="M760.854,-653.251C862.365,-694.631 1127.21,-802.594 1229.18,-844.163"/>
</g>
<!-- Front::PagesController -->
<g id="node16" class="node"><title>Front::PagesController</title>
<ellipse fill="none" stroke="black" cx="790.751" cy="-1257.39" rx="99.3282" ry="18"/>
<text text-anchor="middle" x="790.751" y="-1251.79" font-family="Times,serif" font-size="14.00">Front::PagesController</text>
</g>
<!-- ApplicationController&#45;&gt;Front::PagesController -->
<g id="edge28" class="edge"><title>ApplicationController&#45;&gt;Front::PagesController</title>
<path fill="none" stroke="black" d="M731.699,-654.697C766.491,-711.906 869.778,-896.181 866.424,-1062.61 865.027,-1131.89 823.591,-1206.22 802.639,-1239.49"/>
</g>
<!-- ImagesController -->
<g id="node17" class="node"><title>ImagesController</title>
<ellipse fill="none" stroke="black" cx="912.037" cy="-328.624" rx="78.4241" ry="18"/>
<text text-anchor="middle" x="912.037" y="-323.024" font-family="Times,serif" font-size="14.00">ImagesController</text>
</g>
<!-- ApplicationController&#45;&gt;ImagesController -->
<g id="edge30" class="edge"><title>ApplicationController&#45;&gt;ImagesController</title>
<path fill="none" stroke="black" d="M731.571,-618.877C765.434,-564.414 866.974,-401.102 900.877,-346.573"/>
</g>
<!-- MainController -->
<g id="node18" class="node"><title>MainController</title>
<ellipse fill="none" stroke="black" cx="1095.04" cy="-155.725" rx="71.1714" ry="18"/>
<text text-anchor="middle" x="1095.04" y="-150.125" font-family="Times,serif" font-size="14.00">MainController</text>
</g>
<!-- ApplicationController&#45;&gt;MainController -->
<g id="edge32" class="edge"><title>ApplicationController&#45;&gt;MainController</title>
<path fill="none" stroke="black" d="M738.257,-619.042C783.655,-573.355 906.168,-446.918 992.252,-328.736 1031.34,-275.08 1069.02,-205.768 1085.86,-173.595"/>
</g>
<!-- ManagerController -->
<g id="node19" class="node"><title>ManagerController</title>
<ellipse fill="none" stroke="black" cx="264.902" cy="-1081.69" rx="85.0719" ry="18"/>
<text text-anchor="middle" x="264.902" y="-1076.09" font-family="Times,serif" font-size="14.00">ManagerController</text>
</g>
<!-- ApplicationController&#45;&gt;ManagerController -->
<g id="edge34" class="edge"><title>ApplicationController&#45;&gt;ManagerController</title>
<path fill="none" stroke="black" d="M678.256,-653.038C605.385,-683.788 458.418,-758.187 402.958,-876.559 389.739,-904.774 417.861,-917.653 406.297,-946.585 384.748,-1000.5 328.899,-1042.67 294.188,-1064.73"/>
</g>
<!-- NewslettersController -->
<g id="node20" class="node"><title>NewslettersController</title>
<ellipse fill="none" stroke="black" cx="137.85" cy="-853.867" rx="95.9769" ry="18"/>
<text text-anchor="middle" x="137.85" y="-848.267" font-family="Times,serif" font-size="14.00">NewslettersController</text>
</g>
<!-- ApplicationController&#45;&gt;NewslettersController -->
<g id="edge36" class="edge"><title>ApplicationController&#45;&gt;NewslettersController</title>
<path fill="none" stroke="black" d="M677.129,-652.916C569.142,-693.156 288.922,-797.574 181.052,-837.769"/>
</g>
<!-- OrdersController -->
<g id="node21" class="node"><title>OrdersController</title>
<ellipse fill="none" stroke="black" cx="327.691" cy="-946.428" rx="77.0125" ry="18"/>
<text text-anchor="middle" x="327.691" y="-940.828" font-family="Times,serif" font-size="14.00">OrdersController</text>
</g>
<!-- ApplicationController&#45;&gt;OrdersController -->
<g id="edge38" class="edge"><title>ApplicationController&#45;&gt;OrdersController</title>
<path fill="none" stroke="black" d="M695.491,-654.304C641.045,-692.832 508.042,-788.49 402.958,-876.559 382.734,-893.509 360.737,-914.213 345.777,-928.665"/>
</g>
<!-- PagesController -->
<g id="node22" class="node"><title>PagesController</title>
<ellipse fill="none" stroke="black" cx="451.727" cy="-473.306" rx="72.8907" ry="18"/>
<text text-anchor="middle" x="451.727" y="-467.706" font-family="Times,serif" font-size="14.00">PagesController</text>
</g>
<!-- ApplicationController&#45;&gt;PagesController -->
<g id="edge40" class="edge"><title>ApplicationController&#45;&gt;PagesController</title>
<path fill="none" stroke="black" d="M691.939,-619.437C640.072,-587.884 530.886,-521.462 479.535,-490.223"/>
</g>
<!-- PricesController -->
<g id="node23" class="node"><title>PricesController</title>
<ellipse fill="none" stroke="black" cx="251.012" cy="-341.77" rx="73.9958" ry="18"/>
<text text-anchor="middle" x="251.012" y="-336.17" font-family="Times,serif" font-size="14.00">PricesController</text>
</g>
<!-- ApplicationController&#45;&gt;PricesController -->
<g id="edge42" class="edge"><title>ApplicationController&#45;&gt;PricesController</title>
<path fill="none" stroke="black" d="M701.057,-618.94C666.937,-587.893 593.424,-522.536 526.586,-473.372 452.059,-418.553 351.092,-377.321 294.358,-356.624"/>
</g>
<!-- ReportsController -->
<g id="node24" class="node"><title>ReportsController</title>
<ellipse fill="none" stroke="black" cx="974.983" cy="-1082.62" rx="80.1585" ry="18"/>
<text text-anchor="middle" x="974.983" y="-1077.02" font-family="Times,serif" font-size="14.00">ReportsController</text>
</g>
<!-- ApplicationController&#45;&gt;ReportsController -->
<g id="edge44" class="edge"><title>ApplicationController&#45;&gt;ReportsController</title>
<path fill="none" stroke="black" d="M730.736,-654.807C771.753,-726.651 923.315,-992.124 964.561,-1064.37"/>
</g>
<!-- SeatingChartsController -->
<g id="node25" class="node"><title>SeatingChartsController</title>
<ellipse fill="none" stroke="black" cx="1054.5" cy="-1188.27" rx="104.364" ry="18"/>
<text text-anchor="middle" x="1054.5" y="-1182.67" font-family="Times,serif" font-size="14.00">SeatingChartsController</text>
</g>
<!-- ApplicationController&#45;&gt;SeatingChartsController -->
<g id="edge46" class="edge"><title>ApplicationController&#45;&gt;SeatingChartsController</title>
<path fill="none" stroke="black" d="M732.122,-654.841C757.198,-693.373 818.471,-786.184 874.539,-860.602 951.494,-962.742 1015.82,-961.853 1057.35,-1082.81 1067.4,-1112.08 1062.94,-1148.67 1058.75,-1170.15"/>
</g>
<!-- SectionsController -->
<g id="node26" class="node"><title>SectionsController</title>
<ellipse fill="none" stroke="black" cx="599.745" cy="-1234.01" rx="83.1814" ry="18"/>
<text text-anchor="middle" x="599.745" y="-1228.41" font-family="Times,serif" font-size="14.00">SectionsController</text>
</g>
<!-- ApplicationController&#45;&gt;SectionsController -->
<g id="edge48" class="edge"><title>ApplicationController&#45;&gt;SectionsController</title>
<path fill="none" stroke="black" d="M715.167,-654.845C698.315,-713.242 645.276,-902.394 617.729,-1062.29 608.161,-1117.82 602.947,-1184.4 600.852,-1215.85"/>
</g>
<!-- StatsController -->
<g id="node28" class="node"><title>StatsController</title>
<ellipse fill="none" stroke="black" cx="766.193" cy="-18" rx="69.2665" ry="18"/>
<text text-anchor="middle" x="766.193" y="-12.4" font-family="Times,serif" font-size="14.00">StatsController</text>
</g>
<!-- ApplicationController&#45;&gt;StatsController -->
<g id="edge50" class="edge"><title>ApplicationController&#45;&gt;StatsController</title>
<path fill="none" stroke="black" d="M723.956,-618.751C735.385,-558.771 771.089,-360.319 776.659,-194.317 778.603,-136.394 771.972,-67.8947 768.368,-36.0071"/>
</g>
<!-- TicketLocksController -->
<g id="node30" class="node"><title>TicketLocksController</title>
<ellipse fill="none" stroke="black" cx="1201.03" cy="-1008.09" rx="98.4913" ry="18"/>
<text text-anchor="middle" x="1201.03" y="-1002.49" font-family="Times,serif" font-size="14.00">TicketLocksController</text>
</g>
<!-- ApplicationController&#45;&gt;TicketLocksController -->
<g id="edge52" class="edge"><title>ApplicationController&#45;&gt;TicketLocksController</title>
<path fill="none" stroke="black" d="M748.129,-654.101C805.099,-690.155 938.819,-776.894 1042.8,-860.725 1096.57,-904.078 1154.79,-961.241 1183.28,-989.967"/>
</g>
<!-- TicketTemplatesController -->
<g id="node31" class="node"><title>TicketTemplatesController</title>
<ellipse fill="none" stroke="black" cx="519.165" cy="-876.655" rx="114.412" ry="18"/>
<text text-anchor="middle" x="519.165" y="-871.055" font-family="Times,serif" font-size="14.00">TicketTemplatesController</text>
</g>
<!-- ApplicationController&#45;&gt;TicketTemplatesController -->
<g id="edge54" class="edge"><title>ApplicationController&#45;&gt;TicketTemplatesController</title>
<path fill="none" stroke="black" d="M705.314,-654.807C667.921,-699.37 571.482,-814.304 534.194,-858.743"/>
</g>
<!-- TicketsController -->
<g id="node32" class="node"><title>TicketsController</title>
<ellipse fill="none" stroke="black" cx="470.443" cy="-218.812" rx="78.2299" ry="18"/>
<text text-anchor="middle" x="470.443" y="-213.212" font-family="Times,serif" font-size="14.00">TicketsController</text>
</g>
<!-- ApplicationController&#45;&gt;TicketsController -->
<g id="edge56" class="edge"><title>ApplicationController&#45;&gt;TicketsController</title>
<path fill="none" stroke="black" d="M709.7,-618.817C668.671,-550.223 522.105,-305.184 481.145,-236.704"/>
</g>
<!-- UsersController -->
<g id="node33" class="node"><title>UsersController</title>
<ellipse fill="none" stroke="black" cx="1305.79" cy="-417.333" rx="72.5828" ry="18"/>
<text text-anchor="middle" x="1305.79" y="-411.733" font-family="Times,serif" font-size="14.00">UsersController</text>
</g>
<!-- ApplicationController&#45;&gt;UsersController -->
<g id="edge58" class="edge"><title>ApplicationController&#45;&gt;UsersController</title>
<path fill="none" stroke="black" d="M763.485,-620.641C872.658,-579.712 1159.21,-472.286 1265.42,-432.467"/>
</g>
<!-- WidgetPlacementsController -->
<g id="node34" class="node"><title>WidgetPlacementsController</title>
<ellipse fill="none" stroke="black" cx="742.076" cy="-1062.45" rx="122.129" ry="18"/>
<text text-anchor="middle" x="742.076" y="-1056.85" font-family="Times,serif" font-size="14.00">WidgetPlacementsController</text>
</g>
<!-- ApplicationController&#45;&gt;WidgetPlacementsController -->
<g id="edge60" class="edge"><title>ApplicationController&#45;&gt;WidgetPlacementsController</title>
<path fill="none" stroke="black" d="M721.358,-654.796C724.889,-724.265 737.596,-974.302 741.148,-1044.19"/>
</g>
<!-- WidgetsController -->
<g id="node35" class="node"><title>WidgetsController</title>
<ellipse fill="none" stroke="black" cx="958.669" cy="-860.664" rx="82.2949" ry="18"/>
<text text-anchor="middle" x="958.669" y="-855.064" font-family="Times,serif" font-size="14.00">WidgetsController</text>
</g>
<!-- ApplicationController&#45;&gt;WidgetsController -->
<g id="edge62" class="edge"><title>ApplicationController&#45;&gt;WidgetsController</title>
<path fill="none" stroke="black" d="M739.535,-654.72C784.251,-696.745 895.338,-801.145 939.816,-842.946"/>
</g>
<!-- SidebarsController -->
<g id="node27" class="node"><title>SidebarsController</title>
<ellipse fill="none" stroke="black" cx="1341.87" cy="-166" rx="83.974" ry="18"/>
<text text-anchor="middle" x="1341.87" y="-160.4" font-family="Times,serif" font-size="14.00">SidebarsController</text>
</g>
<!-- ThemesController -->
<g id="node29" class="node"><title>ThemesController</title>
<ellipse fill="none" stroke="black" cx="1265.18" cy="-18" rx="81.099" ry="18"/>
<text text-anchor="middle" x="1265.18" y="-12.4" font-family="Times,serif" font-size="14.00">ThemesController</text>
</g>
</g>
</svg>
