<?xml version="1.0" encoding="UTF-8" standalone="no"?>
<!DOCTYPE svg PUBLIC "-//W3C//DTD SVG 1.1//EN"
 "http://www.w3.org/Graphics/SVG/1.1/DTD/svg11.dtd">
<!-- Generated by graphviz version 2.28.0 (20120503.1651)
 -->
<!-- Title: controllers_diagram Pages: 1 -->
<svg width="1556pt" height="1379pt"
 viewBox="0.00 0.00 1556.20 1379.03" xmlns="http://www.w3.org/2000/svg" xmlns:xlink="http://www.w3.org/1999/xlink">
<g id="graph1" class="graph" transform="scale(1 1) rotate(0) translate(4 1375.03)">
<title>controllers_diagram</title>
<polygon fill="white" stroke="white" points="-4,5 -4,-1375.03 1553.2,-1375.03 1553.2,5 -4,5"/>
<!-- _diagram_info -->
<g id="node1" class="node"><title>_diagram_info</title>
<text text-anchor="start" x="1250.85" y="-69" font-family="Times,serif" font-size="13.00">Controllers diagram</text>
<text text-anchor="start" x="1250.85" y="-53.4" font-family="Times,serif" font-size="13.00">Date: Oct 09 2012 &#45; 13:44</text>
<text text-anchor="start" x="1250.85" y="-37.8" font-family="Times,serif" font-size="13.00">Migration version: 20121009015824</text>
<text text-anchor="start" x="1250.85" y="-22.2" font-family="Times,serif" font-size="13.00">Generated by RailRoady 1.1.0</text>
<text text-anchor="start" x="1250.85" y="-6.6" font-family="Times,serif" font-size="13.00">http://railroady.prestonlee.com</text>
</g>
<!-- AccountsController -->
<g id="node2" class="node"><title>AccountsController</title>
<ellipse fill="none" stroke="black" cx="133.272" cy="-479.974" rx="87.3045" ry="18"/>
<text text-anchor="middle" x="133.272" y="-474.374" font-family="Times,serif" font-size="14.00">AccountsController</text>
</g>
<!-- AdminController -->
<g id="node3" class="node"><title>AdminController</title>
<ellipse fill="none" stroke="black" cx="1271.27" cy="-606.875" rx="77.3328" ry="18"/>
<text text-anchor="middle" x="1271.27" y="-601.275" font-family="Times,serif" font-size="14.00">AdminController</text>
</g>
<!-- ApplicationController -->
<g id="node4" class="node"><title>ApplicationController</title>
<ellipse fill="none" stroke="black" cx="777.746" cy="-693.557" rx="95.984" ry="18"/>
<text text-anchor="middle" x="777.746" y="-687.957" font-family="Times,serif" font-size="14.00">ApplicationController</text>
</g>
<!-- ApplicationController&#45;&gt;AccountsController -->
<g id="edge2" class="edge"><title>ApplicationController&#45;&gt;AccountsController</title>
<path fill="none" stroke="black" d="M730.356,-677.852C610.737,-638.209 297.709,-534.47 179.43,-495.271"/>
</g>
<!-- ApplicationController&#45;&gt;AdminController -->
<g id="edge4" class="edge"><title>ApplicationController&#45;&gt;AdminController</title>
<path fill="none" stroke="black" d="M847.931,-681.23C944.532,-664.263 1116.95,-633.98 1209.12,-617.791"/>
</g>
<!-- AreasController -->
<g id="node5" class="node"><title>AreasController</title>
<ellipse fill="none" stroke="black" cx="491.289" cy="-1288.6" rx="72.8766" ry="18"/>
<text text-anchor="middle" x="491.289" y="-1283" font-family="Times,serif" font-size="14.00">AreasController</text>
</g>
<!-- ApplicationController&#45;&gt;AreasController -->
<g id="edge6" class="edge"><title>ApplicationController&#45;&gt;AreasController</title>
<path fill="none" stroke="black" d="M774.517,-711.66C765.156,-761.679 735.289,-905.254 682.968,-1013.99 632.17,-1119.56 542.586,-1229.07 506.745,-1270.92"/>
</g>
<!-- ArtistsController -->
<g id="node6" class="node"><title>ArtistsController</title>
<ellipse fill="none" stroke="black" cx="1127.27" cy="-794.629" rx="76.2275" ry="18"/>
<text text-anchor="middle" x="1127.27" y="-789.029" font-family="Times,serif" font-size="14.00">ArtistsController</text>
</g>
<!-- ApplicationController&#45;&gt;ArtistsController -->
<g id="edge8" class="edge"><title>ApplicationController&#45;&gt;ArtistsController</title>
<path fill="none" stroke="black" d="M830.073,-708.689C897.393,-728.156 1013.42,-761.709 1078.81,-780.617"/>
</g>
<!-- ChartsController -->
<g id="node7" class="node"><title>ChartsController</title>
<ellipse fill="none" stroke="black" cx="297.966" cy="-759.529" rx="75.4144" ry="18"/>
<text text-anchor="middle" x="297.966" y="-753.929" font-family="Times,serif" font-size="14.00">ChartsController</text>
</g>
<!-- ApplicationController&#45;&gt;ChartsController -->
<g id="edge10" class="edge"><title>ApplicationController&#45;&gt;ChartsController</title>
<path fill="none" stroke="black" d="M700.128,-704.23C606.773,-717.067 451.697,-738.39 363.891,-750.464"/>
</g>
<!-- CheckinsController -->
<g id="node8" class="node"><title>CheckinsController</title>
<ellipse fill="none" stroke="black" cx="324.78" cy="-172.933" rx="86.5047" ry="18"/>
<text text-anchor="middle" x="324.78" y="-167.333" font-family="Times,serif" font-size="14.00">CheckinsController</text>
</g>
<!-- ApplicationController&#45;&gt;CheckinsController -->
<g id="edge12" class="edge"><title>ApplicationController&#45;&gt;CheckinsController</title>
<path fill="none" stroke="black" d="M762.154,-675.636C692.46,-595.533 409.866,-270.729 340.307,-190.779"/>
</g>
<!-- CustomerImportsController -->
<g id="node9" class="node"><title>CustomerImportsController</title>
<ellipse fill="none" stroke="black" cx="1298.9" cy="-327.286" rx="117.986" ry="18"/>
<text text-anchor="middle" x="1298.9" y="-321.686" font-family="Times,serif" font-size="14.00">CustomerImportsController</text>
</g>
<!-- ApplicationController&#45;&gt;CustomerImportsController -->
<g id="edge14" class="edge"><title>ApplicationController&#45;&gt;CustomerImportsController</title>
<path fill="none" stroke="black" d="M802.531,-676.138C890.222,-614.508 1185.25,-407.16 1273.66,-345.027"/>
</g>
<!-- EventsController -->
<g id="node10" class="node"><title>EventsController</title>
<ellipse fill="none" stroke="black" cx="580.798" cy="-49.0167" rx="77.0196" ry="18"/>
<text text-anchor="middle" x="580.798" y="-43.4167" font-family="Times,serif" font-size="14.00">EventsController</text>
</g>
<!-- ApplicationController&#45;&gt;EventsController -->
<g id="edge16" class="edge"><title>ApplicationController&#45;&gt;EventsController</title>
<path fill="none" stroke="black" d="M772.169,-675.306C743.686,-582.092 614.695,-159.947 586.327,-67.1091"/>
</g>
<!-- Front::ChartsController -->
<g id="node11" class="node"><title>Front::ChartsController</title>
<ellipse fill="none" stroke="black" cx="1015.07" cy="-98.5866" rx="102.353" ry="18"/>
<text text-anchor="middle" x="1015.07" y="-92.9866" font-family="Times,serif" font-size="14.00">Front::ChartsController</text>
</g>
<!-- ApplicationController&#45;&gt;Front::ChartsController -->
<g id="edge18" class="edge"><title>ApplicationController&#45;&gt;Front::ChartsController</title>
<path fill="none" stroke="black" d="M784.978,-675.426C820.129,-587.302 972.868,-204.384 1007.89,-116.576"/>
</g>
<!-- Front::EventsController -->
<g id="node12" class="node"><title>Front::EventsController</title>
<ellipse fill="none" stroke="black" cx="767.698" cy="-221.359" rx="102.959" ry="18"/>
<text text-anchor="middle" x="767.698" y="-215.759" font-family="Times,serif" font-size="14.00">Front::EventsController</text>
</g>
<!-- ApplicationController&#45;&gt;Front::EventsController -->
<g id="edge20" class="edge"><title>ApplicationController&#45;&gt;Front::EventsController</title>
<path fill="none" stroke="black" d="M777.358,-675.336C775.759,-600.167 769.682,-314.594 768.085,-239.527"/>
</g>
<!-- Front::OrdersController -->
<g id="node13" class="node"><title>Front::OrdersController</title>
<ellipse fill="none" stroke="black" cx="103.15" cy="-693.55" rx="102.952" ry="18"/>
<text text-anchor="middle" x="103.15" y="-687.95" font-family="Times,serif" font-size="14.00">Front::OrdersController</text>
</g>
<!-- ApplicationController&#45;&gt;Front::OrdersController -->
<g id="edge22" class="edge"><title>ApplicationController&#45;&gt;Front::OrdersController</title>
<path fill="none" stroke="black" d="M681.451,-693.556C555.585,-693.555 335.995,-693.552 206.66,-693.551"/>
</g>
<!-- Front::PagesController -->
<g id="node14" class="node"><title>Front::PagesController</title>
<ellipse fill="none" stroke="black" cx="1448.93" cy="-748.352" rx="99.3282" ry="18"/>
<text text-anchor="middle" x="1448.93" y="-742.752" font-family="Times,serif" font-size="14.00">Front::PagesController</text>
</g>
<!-- ApplicationController&#45;&gt;Front::PagesController -->
<g id="edge24" class="edge"><title>ApplicationController&#45;&gt;Front::PagesController</title>
<path fill="none" stroke="black" d="M866.181,-700.777C993.973,-711.21 1229.06,-730.402 1358.15,-740.941"/>
</g>
<!-- ImagesController -->
<g id="node15" class="node"><title>ImagesController</title>
<ellipse fill="none" stroke="black" cx="1376.8" cy="-935.323" rx="78.4241" ry="18"/>
<text text-anchor="middle" x="1376.8" y="-929.723" font-family="Times,serif" font-size="14.00">ImagesController</text>
</g>
<!-- ApplicationController&#45;&gt;ImagesController -->
<g id="edge26" class="edge"><title>ApplicationController&#45;&gt;ImagesController</title>
<path fill="none" stroke="black" d="M818.45,-709.985C928.397,-754.356 1230.3,-876.197 1338,-919.662"/>
</g>
<!-- MainController -->
<g id="node16" class="node"><title>MainController</title>
<ellipse fill="none" stroke="black" cx="865.343" cy="-1353.03" rx="71.1714" ry="18"/>
<text text-anchor="middle" x="865.343" y="-1347.43" font-family="Times,serif" font-size="14.00">MainController</text>
</g>
<!-- ApplicationController&#45;&gt;MainController -->
<g id="edge28" class="edge"><title>ApplicationController&#45;&gt;MainController</title>
<path fill="none" stroke="black" d="M775.648,-711.912C769.52,-769.472 753.584,-951.372 778.242,-1098.84 793.628,-1190.87 838.135,-1294.25 856.871,-1335.08"/>
</g>
<!-- ManagerController -->
<g id="node17" class="node"><title>ManagerController</title>
<ellipse fill="none" stroke="black" cx="1012.95" cy="-379.386" rx="85.0719" ry="18"/>
<text text-anchor="middle" x="1012.95" y="-373.786" font-family="Times,serif" font-size="14.00">ManagerController</text>
</g>
<!-- ApplicationController&#45;&gt;ManagerController -->
<g id="edge30" class="edge"><title>ApplicationController&#45;&gt;ManagerController</title>
<path fill="none" stroke="black" d="M791.408,-675.308C833.076,-619.65 958.215,-452.494 999.54,-397.294"/>
</g>
<!-- NewslettersController -->
<g id="node18" class="node"><title>NewslettersController</title>
<ellipse fill="none" stroke="black" cx="1190.76" cy="-173.56" rx="95.9769" ry="18"/>
<text text-anchor="middle" x="1190.76" y="-167.96" font-family="Times,serif" font-size="14.00">NewslettersController</text>
</g>
<!-- ApplicationController&#45;&gt;NewslettersController -->
<g id="edge32" class="edge"><title>ApplicationController&#45;&gt;NewslettersController</title>
<path fill="none" stroke="black" d="M801.364,-675.812C859.037,-631.469 1008.94,-509.976 1099.59,-379.502 1143.43,-316.404 1173.69,-228.835 1185.38,-191.537"/>
</g>
<!-- OrdersController -->
<g id="node19" class="node"><title>OrdersController</title>
<ellipse fill="none" stroke="black" cx="282.104" cy="-1178.94" rx="77.0125" ry="18"/>
<text text-anchor="middle" x="282.104" y="-1173.34" font-family="Times,serif" font-size="14.00">OrdersController</text>
</g>
<!-- ApplicationController&#45;&gt;OrdersController -->
<g id="edge34" class="edge"><title>ApplicationController&#45;&gt;OrdersController</title>
<path fill="none" stroke="black" d="M759.953,-711.597C709.937,-762.236 563.659,-909.844 439.722,-1030.03 390.267,-1077.99 330.974,-1133.47 301.18,-1161.22"/>
</g>
<!-- PagesController -->
<g id="node20" class="node"><title>PagesController</title>
<ellipse fill="none" stroke="black" cx="143.247" cy="-934.821" rx="72.8907" ry="18"/>
<text text-anchor="middle" x="143.247" y="-929.221" font-family="Times,serif" font-size="14.00">PagesController</text>
</g>
<!-- ApplicationController&#45;&gt;PagesController -->
<g id="edge36" class="edge"><title>ApplicationController&#45;&gt;PagesController</title>
<path fill="none" stroke="black" d="M735.129,-709.762C618.707,-754.03 296.445,-876.568 183.214,-919.623"/>
</g>
<!-- PricesController -->
<g id="node21" class="node"><title>PricesController</title>
<ellipse fill="none" stroke="black" cx="363.795" cy="-1029.85" rx="73.9958" ry="18"/>
<text text-anchor="middle" x="363.795" y="-1024.25" font-family="Times,serif" font-size="14.00">PricesController</text>
</g>
<!-- ApplicationController&#45;&gt;PricesController -->
<g id="edge38" class="edge"><title>ApplicationController&#45;&gt;PricesController</title>
<path fill="none" stroke="black" d="M756.073,-711.164C684.54,-769.276 456.472,-954.556 385.253,-1012.41"/>
</g>
<!-- ReportsController -->
<g id="node22" class="node"><title>ReportsController</title>
<ellipse fill="none" stroke="black" cx="491.307" cy="-537.521" rx="80.1585" ry="18"/>
<text text-anchor="middle" x="491.307" y="-531.921" font-family="Times,serif" font-size="14.00">ReportsController</text>
</g>
<!-- ApplicationController&#45;&gt;ReportsController -->
<g id="edge40" class="edge"><title>ApplicationController&#45;&gt;ReportsController</title>
<path fill="none" stroke="black" d="M746.272,-676.412C690.902,-646.249 576.752,-584.067 521.964,-554.221"/>
</g>
<!-- SeatingChartsController -->
<g id="node23" class="node"><title>SeatingChartsController</title>
<ellipse fill="none" stroke="black" cx="271.653" cy="-379.914" rx="104.364" ry="18"/>
<text text-anchor="middle" x="271.653" y="-374.314" font-family="Times,serif" font-size="14.00">SeatingChartsController</text>
</g>
<!-- ApplicationController&#45;&gt;SeatingChartsController -->
<g id="edge42" class="edge"><title>ApplicationController&#45;&gt;SeatingChartsController</title>
<path fill="none" stroke="black" d="M756.38,-675.757C719.957,-645.752 643.042,-583.853 573.678,-537.566 484.134,-477.812 369.257,-423.338 310.326,-396.839"/>
</g>
<!-- SectionsController -->
<g id="node24" class="node"><title>SectionsController</title>
<ellipse fill="none" stroke="black" cx="1093.26" cy="-1123.3" rx="83.1814" ry="18"/>
<text text-anchor="middle" x="1093.26" y="-1117.7" font-family="Times,serif" font-size="14.00">SectionsController</text>
</g>
<!-- ApplicationController&#45;&gt;SectionsController -->
<g id="edge44" class="edge"><title>ApplicationController&#45;&gt;SectionsController</title>
<path fill="none" stroke="black" d="M790.901,-711.475C842.217,-781.369 1028.63,-1035.27 1080.05,-1105.3"/>
</g>
<!-- SidebarsController -->
<g id="node25" class="node"><title>SidebarsController</title>
<ellipse fill="none" stroke="black" cx="1104.47" cy="-1302.51" rx="83.4806" ry="18"/>
<text text-anchor="middle" x="1104.47" y="-1296.91" font-family="Times,serif" font-size="14.00">SidebarsController</text>
</g>
<!-- ApplicationController&#45;&gt;SidebarsController -->
<g id="edge46" class="edge"><title>ApplicationController&#45;&gt;SidebarsController</title>
<path fill="none" stroke="black" d="M787.403,-711.569C819.055,-770.604 922.545,-963.614 1008.2,-1123.23 1039.86,-1182.22 1077.4,-1252.11 1094.77,-1284.44"/>
</g>
<!-- StatsController -->
<g id="node26" class="node"><title>StatsController</title>
<ellipse fill="none" stroke="black" cx="671.058" cy="-1344.68" rx="69.2665" ry="18"/>
<text text-anchor="middle" x="671.058" y="-1339.08" font-family="Times,serif" font-size="14.00">StatsController</text>
</g>
<!-- ApplicationController&#45;&gt;StatsController -->
<g id="edge48" class="edge"><title>ApplicationController&#45;&gt;StatsController</title>
<path fill="none" stroke="black" d="M774.781,-711.652C759.451,-805.208 689.303,-1233.32 674.008,-1326.67"/>
</g>
<!-- TicketLocksController -->
<g id="node27" class="node"><title>TicketLocksController</title>
<ellipse fill="none" stroke="black" cx="823.531" cy="-18" rx="98.4913" ry="18"/>
<text text-anchor="middle" x="823.531" y="-12.4" font-family="Times,serif" font-size="14.00">TicketLocksController</text>
</g>
<!-- ApplicationController&#45;&gt;TicketLocksController -->
<g id="edge50" class="edge"><title>ApplicationController&#45;&gt;TicketLocksController</title>
<path fill="none" stroke="black" d="M784.376,-675.373C806.479,-612.991 876.06,-401.583 872.603,-221.46 871.257,-151.345 844.049,-71.3087 830.739,-36.1622"/>
</g>
<!-- TicketTemplatesController -->
<g id="node28" class="node"><title>TicketTemplatesController</title>
<ellipse fill="none" stroke="black" cx="1299.32" cy="-1104.74" rx="114.412" ry="18"/>
<text text-anchor="middle" x="1299.32" y="-1099.14" font-family="Times,serif" font-size="14.00">TicketTemplatesController</text>
</g>
<!-- ApplicationController&#45;&gt;TicketTemplatesController -->
<g id="edge52" class="edge"><title>ApplicationController&#45;&gt;TicketTemplatesController</title>
<path fill="none" stroke="black" d="M800.157,-711.225C885.658,-778.629 1190.84,-1019.22 1276.7,-1086.9"/>
</g>
<!-- TicketsController -->
<g id="node29" class="node"><title>TicketsController</title>
<ellipse fill="none" stroke="black" cx="602.55" cy="-1013.92" rx="78.2299" ry="18"/>
<text text-anchor="middle" x="602.55" y="-1008.32" font-family="Times,serif" font-size="14.00">TicketsController</text>
</g>
<!-- ApplicationController&#45;&gt;TicketsController -->
<g id="edge54" class="edge"><title>ApplicationController&#45;&gt;TicketsController</title>
<path fill="none" stroke="black" d="M767.824,-711.699C736.988,-768.086 643.049,-939.859 612.362,-995.973"/>
</g>
<!-- UsersController -->
<g id="node30" class="node"><title>UsersController</title>
<ellipse fill="none" stroke="black" cx="505.871" cy="-247.709" rx="72.5828" ry="18"/>
<text text-anchor="middle" x="505.871" y="-242.109" font-family="Times,serif" font-size="14.00">UsersController</text>
</g>
<!-- ApplicationController&#45;&gt;UsersController -->
<g id="edge56" class="edge"><title>ApplicationController&#45;&gt;UsersController</title>
<path fill="none" stroke="black" d="M766.751,-675.527C722.941,-603.683 561.057,-338.209 517.002,-265.963"/>
</g>
<!-- WidgetPlacementsController -->
<g id="node31" class="node"><title>WidgetPlacementsController</title>
<ellipse fill="none" stroke="black" cx="1420.24" cy="-485.754" rx="122.129" ry="18"/>
<text text-anchor="middle" x="1420.24" y="-480.154" font-family="Times,serif" font-size="14.00">WidgetPlacementsController</text>
</g>
<!-- ApplicationController&#45;&gt;WidgetPlacementsController -->
<g id="edge58" class="edge"><title>ApplicationController&#45;&gt;WidgetPlacementsController</title>
<path fill="none" stroke="black" d="M826.037,-677.938C944.375,-639.663 1247.98,-541.467 1369.16,-502.272"/>
</g>
<!-- WidgetsController -->
<g id="node32" class="node"><title>WidgetsController</title>
<ellipse fill="none" stroke="black" cx="862.368" cy="-1099.02" rx="82.2949" ry="18"/>
<text text-anchor="middle" x="862.368" y="-1093.42" font-family="Times,serif" font-size="14.00">WidgetsController</text>
</g>
<!-- ApplicationController&#45;&gt;WidgetsController -->
<g id="edge60" class="edge"><title>ApplicationController&#45;&gt;WidgetsController</title>
<path fill="none" stroke="black" d="M781.546,-711.767C795.6,-779.107 844.542,-1013.61 858.578,-1080.86"/>
</g>
</g>
</svg>
