<?xml version="1.0" encoding="UTF-8" standalone="no"?>
<!DOCTYPE svg PUBLIC "-//W3C//DTD SVG 1.1//EN"
 "http://www.w3.org/Graphics/SVG/1.1/DTD/svg11.dtd">
<!-- Generated by graphviz version 2.28.0 (20120503.1651)
 -->
<!-- Title: controllers_diagram Pages: 1 -->
<svg width="1650pt" height="1455pt"
 viewBox="0.00 0.00 1650.45 1454.87" xmlns="http://www.w3.org/2000/svg" xmlns:xlink="http://www.w3.org/1999/xlink">
<g id="graph1" class="graph" transform="scale(1 1) rotate(0) translate(4 1450.87)">
<title>controllers_diagram</title>
<polygon fill="white" stroke="white" points="-4,5 -4,-1450.87 1647.45,-1450.87 1647.45,5 -4,5"/>
<!-- _diagram_info -->
<g id="node1" class="node"><title>_diagram_info</title>
<text text-anchor="start" x="1413.85" y="-1401" font-family="Times,serif" font-size="13.00">Controllers diagram</text>
<text text-anchor="start" x="1413.85" y="-1385.4" font-family="Times,serif" font-size="13.00">Date: Oct 17 2012 &#45; 17:11</text>
<text text-anchor="start" x="1413.85" y="-1369.8" font-family="Times,serif" font-size="13.00">Migration version: 20121017135151</text>
<text text-anchor="start" x="1413.85" y="-1354.2" font-family="Times,serif" font-size="13.00">Generated by RailRoady 1.1.0</text>
<text text-anchor="start" x="1413.85" y="-1338.6" font-family="Times,serif" font-size="13.00">http://railroady.prestonlee.com</text>
</g>
<!-- AccountsController -->
<g id="node2" class="node"><title>AccountsController</title>
<ellipse fill="none" stroke="black" cx="140.649" cy="-474.8" rx="87.3045" ry="18"/>
<text text-anchor="middle" x="140.649" y="-469.2" font-family="Times,serif" font-size="14.00">AccountsController</text>
</g>
<!-- AdminController -->
<g id="node3" class="node"><title>AdminController</title>
<ellipse fill="none" stroke="black" cx="1328.26" cy="-655.612" rx="77.3328" ry="18"/>
<text text-anchor="middle" x="1328.26" y="-650.012" font-family="Times,serif" font-size="14.00">AdminController</text>
</g>
<!-- ApplicationController -->
<g id="node4" class="node"><title>ApplicationController</title>
<ellipse fill="none" stroke="black" cx="820.431" cy="-732.523" rx="95.984" ry="18"/>
<text text-anchor="middle" x="820.431" y="-726.923" font-family="Times,serif" font-size="14.00">ApplicationController</text>
</g>
<!-- ApplicationController&#45;&gt;AccountsController -->
<g id="edge2" class="edge"><title>ApplicationController&#45;&gt;AccountsController</title>
<path fill="none" stroke="black" d="M777.65,-716.304C655.175,-669.87 304.208,-536.809 182.676,-490.734"/>
</g>
<!-- ApplicationController&#45;&gt;AdminController -->
<g id="edge4" class="edge"><title>ApplicationController&#45;&gt;AdminController</title>
<path fill="none" stroke="black" d="M895.362,-721.175C994.824,-706.111 1168.83,-679.757 1263.11,-665.479"/>
</g>
<!-- AreasController -->
<g id="node5" class="node"><title>AreasController</title>
<ellipse fill="none" stroke="black" cx="522.098" cy="-1369.68" rx="72.8766" ry="18"/>
<text text-anchor="middle" x="522.098" y="-1364.08" font-family="Times,serif" font-size="14.00">AreasController</text>
</g>
<!-- ApplicationController&#45;&gt;AreasController -->
<g id="edge6" class="edge"><title>ApplicationController&#45;&gt;AreasController</title>
<path fill="none" stroke="black" d="M811.983,-750.566C768.838,-842.712 573.443,-1260.02 530.472,-1351.8"/>
</g>
<!-- ArtistsController -->
<g id="node6" class="node"><title>ArtistsController</title>
<ellipse fill="none" stroke="black" cx="1190.86" cy="-886.15" rx="76.2275" ry="18"/>
<text text-anchor="middle" x="1190.86" y="-880.55" font-family="Times,serif" font-size="14.00">ArtistsController</text>
</g>
<!-- ApplicationController&#45;&gt;ArtistsController -->
<g id="edge8" class="edge"><title>ApplicationController&#45;&gt;ArtistsController</title>
<path fill="none" stroke="black" d="M860.073,-748.964C931.836,-778.726 1082.36,-841.155 1152.89,-870.402"/>
</g>
<!-- CarouselItemsController -->
<g id="node7" class="node"><title>CarouselItemsController</title>
<ellipse fill="none" stroke="black" cx="291.016" cy="-836.287" rx="106.268" ry="18"/>
<text text-anchor="middle" x="291.016" y="-830.687" font-family="Times,serif" font-size="14.00">CarouselItemsController</text>
</g>
<!-- ApplicationController&#45;&gt;CarouselItemsController -->
<g id="edge10" class="edge"><title>ApplicationController&#45;&gt;CarouselItemsController</title>
<path fill="none" stroke="black" d="M753.916,-745.56C653.245,-765.291 463.085,-802.562 360.619,-822.646"/>
</g>
<!-- CarouselsController -->
<g id="node8" class="node"><title>CarouselsController</title>
<ellipse fill="none" stroke="black" cx="343.333" cy="-180.188" rx="88.2244" ry="18"/>
<text text-anchor="middle" x="343.333" y="-174.588" font-family="Times,serif" font-size="14.00">CarouselsController</text>
</g>
<!-- ApplicationController&#45;&gt;CarouselsController -->
<g id="edge12" class="edge"><title>ApplicationController&#45;&gt;CarouselsController</title>
<path fill="none" stroke="black" d="M804.828,-714.46C732.561,-630.796 430.832,-281.485 358.817,-198.113"/>
</g>
<!-- ChartsController -->
<g id="node9" class="node"><title>ChartsController</title>
<ellipse fill="none" stroke="black" cx="1377.51" cy="-348.637" rx="75.4144" ry="18"/>
<text text-anchor="middle" x="1377.51" y="-343.037" font-family="Times,serif" font-size="14.00">ChartsController</text>
</g>
<!-- ApplicationController&#45;&gt;ChartsController -->
<g id="edge14" class="edge"><title>ApplicationController&#45;&gt;ChartsController</title>
<path fill="none" stroke="black" d="M845.815,-715.031C938.832,-650.932 1260.4,-429.338 1352.61,-365.793"/>
</g>
<!-- CustomerImportsController -->
<g id="node10" class="node"><title>CustomerImportsController</title>
<ellipse fill="none" stroke="black" cx="599.595" cy="-60.1484" rx="117.986" ry="18"/>
<text text-anchor="middle" x="599.595" y="-54.5484" font-family="Times,serif" font-size="14.00">CustomerImportsController</text>
</g>
<!-- ApplicationController&#45;&gt;CustomerImportsController -->
<g id="edge16" class="edge"><title>ApplicationController&#45;&gt;CustomerImportsController</title>
<path fill="none" stroke="black" d="M814.524,-714.539C783.212,-619.203 636.877,-173.66 605.52,-78.1885"/>
</g>
<!-- EventsController -->
<g id="node11" class="node"><title>EventsController</title>
<ellipse fill="none" stroke="black" cx="1061.45" cy="-99.2316" rx="77.0196" ry="18"/>
<text text-anchor="middle" x="1061.45" y="-93.6316" font-family="Times,serif" font-size="14.00">EventsController</text>
</g>
<!-- ApplicationController&#45;&gt;EventsController -->
<g id="edge18" class="edge"><title>ApplicationController&#45;&gt;EventsController</title>
<path fill="none" stroke="black" d="M827.384,-714.253C862.464,-622.079 1019.71,-208.911 1054.59,-117.272"/>
</g>
<!-- Front::ChartsController -->
<g id="node12" class="node"><title>Front::ChartsController</title>
<ellipse fill="none" stroke="black" cx="806.564" cy="-245.831" rx="102.353" ry="18"/>
<text text-anchor="middle" x="806.564" y="-240.231" font-family="Times,serif" font-size="14.00">Front::ChartsController</text>
</g>
<!-- ApplicationController&#45;&gt;Front::ChartsController -->
<g id="edge20" class="edge"><title>ApplicationController&#45;&gt;Front::ChartsController</title>
<path fill="none" stroke="black" d="M819.913,-714.333C817.725,-637.54 809.256,-340.326 807.077,-263.854"/>
</g>
<!-- Front::EventsController -->
<g id="node13" class="node"><title>Front::EventsController</title>
<ellipse fill="none" stroke="black" cx="103.153" cy="-719.427" rx="102.959" ry="18"/>
<text text-anchor="middle" x="103.153" y="-713.827" font-family="Times,serif" font-size="14.00">Front::EventsController</text>
</g>
<!-- ApplicationController&#45;&gt;Front::EventsController -->
<g id="edge22" class="edge"><title>ApplicationController&#45;&gt;Front::EventsController</title>
<path fill="none" stroke="black" d="M724.44,-730.771C589.494,-728.307 344.726,-723.837 206.113,-721.307"/>
</g>
<!-- Front::OrdersController -->
<g id="node14" class="node"><title>Front::OrdersController</title>
<ellipse fill="none" stroke="black" cx="1524.97" cy="-803.309" rx="102.952" ry="18"/>
<text text-anchor="middle" x="1524.97" y="-797.709" font-family="Times,serif" font-size="14.00">Front::OrdersController</text>
</g>
<!-- ApplicationController&#45;&gt;Front::OrdersController -->
<g id="edge24" class="edge"><title>ApplicationController&#45;&gt;Front::OrdersController</title>
<path fill="none" stroke="black" d="M905.415,-741.062C1039.37,-754.52 1298.4,-780.545 1435.24,-794.294"/>
</g>
<!-- Front::PagesController -->
<g id="node15" class="node"><title>Front::PagesController</title>
<ellipse fill="none" stroke="black" cx="1449.9" cy="-1014.36" rx="99.3282" ry="18"/>
<text text-anchor="middle" x="1449.9" y="-1008.76" font-family="Times,serif" font-size="14.00">Front::PagesController</text>
</g>
<!-- ApplicationController&#45;&gt;Front::PagesController -->
<g id="edge26" class="edge"><title>ApplicationController&#45;&gt;Front::PagesController</title>
<path fill="none" stroke="black" d="M849.718,-749.872C904.592,-781.97 1027.14,-851.746 1135.53,-899.981 1226.93,-940.656 1337.66,-978.376 1400.33,-998.703"/>
</g>
<!-- ImagesController -->
<g id="node16" class="node"><title>ImagesController</title>
<ellipse fill="none" stroke="black" cx="934.211" cy="-1411.43" rx="78.4241" ry="18"/>
<text text-anchor="middle" x="934.211" y="-1405.83" font-family="Times,serif" font-size="14.00">ImagesController</text>
</g>
<!-- ApplicationController&#45;&gt;ImagesController -->
<g id="edge28" class="edge"><title>ApplicationController&#45;&gt;ImagesController</title>
<path fill="none" stroke="black" d="M823.474,-750.682C839.607,-846.944 915.002,-1296.81 931.158,-1393.21"/>
</g>
<!-- MainController -->
<g id="node17" class="node"><title>MainController</title>
<ellipse fill="none" stroke="black" cx="1080.35" cy="-406.534" rx="71.1714" ry="18"/>
<text text-anchor="middle" x="1080.35" y="-400.934" font-family="Times,serif" font-size="14.00">MainController</text>
</g>
<!-- ApplicationController&#45;&gt;MainController -->
<g id="edge30" class="edge"><title>ApplicationController&#45;&gt;MainController</title>
<path fill="none" stroke="black" d="M834.776,-714.532C880.219,-657.538 1020.67,-481.386 1066.05,-424.47"/>
</g>
<!-- ManagerController -->
<g id="node18" class="node"><title>ManagerController</title>
<ellipse fill="none" stroke="black" cx="1253.24" cy="-180.872" rx="85.0719" ry="18"/>
<text text-anchor="middle" x="1253.24" y="-175.272" font-family="Times,serif" font-size="14.00">ManagerController</text>
</g>
<!-- ApplicationController&#45;&gt;ManagerController -->
<g id="edge32" class="edge"><title>ApplicationController&#45;&gt;ManagerController</title>
<path fill="none" stroke="black" d="M828.427,-714.354C851.568,-662.883 922.414,-512.923 1007.64,-406.35 1077.95,-318.427 1183.19,-233.95 1229.7,-198.436"/>
</g>
<!-- NewslettersController -->
<g id="node19" class="node"><title>NewslettersController</title>
<ellipse fill="none" stroke="black" cx="288.424" cy="-1229.62" rx="95.9769" ry="18"/>
<text text-anchor="middle" x="288.424" y="-1224.02" font-family="Times,serif" font-size="14.00">NewslettersController</text>
</g>
<!-- ApplicationController&#45;&gt;NewslettersController -->
<g id="edge34" class="edge"><title>ApplicationController&#45;&gt;NewslettersController</title>
<path fill="none" stroke="black" d="M796.626,-750.331C727.297,-802.757 521.08,-962.731 373.032,-1119.58 344.582,-1149.72 316.168,-1189.03 300.585,-1211.58"/>
</g>
<!-- OrdersController -->
<g id="node20" class="node"><title>OrdersController</title>
<ellipse fill="none" stroke="black" cx="152.248" cy="-1000.24" rx="77.0125" ry="18"/>
<text text-anchor="middle" x="152.248" y="-994.644" font-family="Times,serif" font-size="14.00">OrdersController</text>
</g>
<!-- ApplicationController&#45;&gt;OrdersController -->
<g id="edge36" class="edge"><title>ApplicationController&#45;&gt;OrdersController</title>
<path fill="none" stroke="black" d="M779.639,-748.867C659.643,-796.946 308.911,-937.474 191.247,-984.618"/>
</g>
<!-- PagesController -->
<g id="node21" class="node"><title>PagesController</title>
<ellipse fill="none" stroke="black" cx="447.89" cy="-1119.69" rx="72.8907" ry="18"/>
<text text-anchor="middle" x="447.89" y="-1114.09" font-family="Times,serif" font-size="14.00">PagesController</text>
</g>
<!-- ApplicationController&#45;&gt;PagesController -->
<g id="edge38" class="edge"><title>ApplicationController&#45;&gt;PagesController</title>
<path fill="none" stroke="black" d="M803.21,-750.421C740.818,-815.262 527.024,-1037.45 464.929,-1101.98"/>
</g>
<!-- PricesController -->
<g id="node22" class="node"><title>PricesController</title>
<ellipse fill="none" stroke="black" cx="503.873" cy="-694.474" rx="73.9958" ry="18"/>
<text text-anchor="middle" x="503.873" y="-688.874" font-family="Times,serif" font-size="14.00">PricesController</text>
</g>
<!-- ApplicationController&#45;&gt;PricesController -->
<g id="edge40" class="edge"><title>ApplicationController&#45;&gt;PricesController</title>
<path fill="none" stroke="black" d="M739.321,-722.774C687.021,-716.488 619.838,-708.413 570.632,-702.499"/>
</g>
<!-- ReportsController -->
<g id="node23" class="node"><title>ReportsController</title>
<ellipse fill="none" stroke="black" cx="316.623" cy="-433.731" rx="80.1585" ry="18"/>
<text text-anchor="middle" x="316.623" y="-428.131" font-family="Times,serif" font-size="14.00">ReportsController</text>
</g>
<!-- ApplicationController&#45;&gt;ReportsController -->
<g id="edge42" class="edge"><title>ApplicationController&#45;&gt;ReportsController</title>
<path fill="none" stroke="black" d="M791.167,-715.167C701.913,-662.234 433.86,-503.26 345.341,-450.762"/>
</g>
<!-- SeatingChartsController -->
<g id="node24" class="node"><title>SeatingChartsController</title>
<ellipse fill="none" stroke="black" cx="1059.17" cy="-1163.87" rx="104.364" ry="18"/>
<text text-anchor="middle" x="1059.17" y="-1158.27" font-family="Times,serif" font-size="14.00">SeatingChartsController</text>
</g>
<!-- ApplicationController&#45;&gt;SeatingChartsController -->
<g id="edge44" class="edge"><title>ApplicationController&#45;&gt;SeatingChartsController</title>
<path fill="none" stroke="black" d="M830.386,-750.509C869.215,-820.664 1010.27,-1075.52 1049.18,-1145.81"/>
</g>
<!-- SectionsController -->
<g id="node25" class="node"><title>SectionsController</title>
<ellipse fill="none" stroke="black" cx="1167.11" cy="-1360.28" rx="83.1814" ry="18"/>
<text text-anchor="middle" x="1167.11" y="-1354.68" font-family="Times,serif" font-size="14.00">SectionsController</text>
</g>
<!-- ApplicationController&#45;&gt;SectionsController -->
<g id="edge46" class="edge"><title>ApplicationController&#45;&gt;SectionsController</title>
<path fill="none" stroke="black" d="M822.545,-750.777C830.444,-813.045 862.537,-1021.13 952.665,-1163.83 1003.35,-1244.08 1095.24,-1312.41 1140.48,-1343.05"/>
</g>
<!-- StatsController -->
<g id="node27" class="node"><title>StatsController</title>
<ellipse fill="none" stroke="black" cx="728.91" cy="-1428.87" rx="69.2665" ry="18"/>
<text text-anchor="middle" x="728.91" y="-1423.27" font-family="Times,serif" font-size="14.00">StatsController</text>
</g>
<!-- ApplicationController&#45;&gt;StatsController -->
<g id="edge48" class="edge"><title>ApplicationController&#45;&gt;StatsController</title>
<path fill="none" stroke="black" d="M822.598,-750.536C829.057,-807.847 846.34,-990.945 823.206,-1139.75 806.701,-1245.92 756.851,-1365.99 737.098,-1410.78"/>
</g>
<!-- TicketLocksController -->
<g id="node29" class="node"><title>TicketLocksController</title>
<ellipse fill="none" stroke="black" cx="851.026" cy="-18" rx="98.4913" ry="18"/>
<text text-anchor="middle" x="851.026" y="-12.4" font-family="Times,serif" font-size="14.00">TicketLocksController</text>
</g>
<!-- ApplicationController&#45;&gt;TicketLocksController -->
<g id="edge50" class="edge"><title>ApplicationController&#45;&gt;TicketLocksController</title>
<path fill="none" stroke="black" d="M826.823,-714.18C848.435,-650.298 917.073,-431.387 910.397,-245.95 907.506,-165.643 874.073,-74.3172 858.688,-36.203"/>
</g>
<!-- TicketTemplatesController -->
<g id="node30" class="node"><title>TicketTemplatesController</title>
<ellipse fill="none" stroke="black" cx="1340.19" cy="-1192.17" rx="114.412" ry="18"/>
<text text-anchor="middle" x="1340.19" y="-1186.57" font-family="Times,serif" font-size="14.00">TicketTemplatesController</text>
</g>
<!-- ApplicationController&#45;&gt;TicketTemplatesController -->
<g id="edge52" class="edge"><title>ApplicationController&#45;&gt;TicketTemplatesController</title>
<path fill="none" stroke="black" d="M840.488,-750.26C923.135,-823.35 1236.86,-1100.79 1319.91,-1174.24"/>
</g>
<!-- TicketsController -->
<g id="node31" class="node"><title>TicketsController</title>
<ellipse fill="none" stroke="black" cx="742.789" cy="-1139.62" rx="78.2299" ry="18"/>
<text text-anchor="middle" x="742.789" y="-1134.02" font-family="Times,serif" font-size="14.00">TicketsController</text>
</g>
<!-- ApplicationController&#45;&gt;TicketsController -->
<g id="edge54" class="edge"><title>ApplicationController&#45;&gt;TicketsController</title>
<path fill="none" stroke="black" d="M816.995,-750.541C804.17,-817.786 759.179,-1053.68 746.274,-1121.35"/>
</g>
<!-- UsersController -->
<g id="node32" class="node"><title>UsersController</title>
<ellipse fill="none" stroke="black" cx="528.542" cy="-295.77" rx="72.5828" ry="18"/>
<text text-anchor="middle" x="528.542" y="-290.17" font-family="Times,serif" font-size="14.00">UsersController</text>
</g>
<!-- ApplicationController&#45;&gt;UsersController -->
<g id="edge56" class="edge"><title>ApplicationController&#45;&gt;UsersController</title>
<path fill="none" stroke="black" d="M808.444,-714.588C761.135,-643.799 587.668,-384.24 540.467,-313.614"/>
</g>
<!-- WidgetPlacementsController -->
<g id="node33" class="node"><title>WidgetPlacementsController</title>
<ellipse fill="none" stroke="black" cx="1499.28" cy="-527.442" rx="122.129" ry="18"/>
<text text-anchor="middle" x="1499.28" y="-521.842" font-family="Times,serif" font-size="14.00">WidgetPlacementsController</text>
</g>
<!-- ApplicationController&#45;&gt;WidgetPlacementsController -->
<g id="edge58" class="edge"><title>ApplicationController&#45;&gt;WidgetPlacementsController</title>
<path fill="none" stroke="black" d="M871.177,-717.193C995.995,-679.485 1317.08,-582.484 1445.26,-543.762"/>
</g>
<!-- SidebarsController -->
<g id="node26" class="node"><title>SidebarsController</title>
<ellipse fill="none" stroke="black" cx="1341.83" cy="-92" rx="83.974" ry="18"/>
<text text-anchor="middle" x="1341.83" y="-86.4" font-family="Times,serif" font-size="14.00">SidebarsController</text>
</g>
<!-- ThemesController -->
<g id="node28" class="node"><title>ThemesController</title>
<ellipse fill="none" stroke="black" cx="1561.15" cy="-240" rx="81.099" ry="18"/>
<text text-anchor="middle" x="1561.15" y="-234.4" font-family="Times,serif" font-size="14.00">ThemesController</text>
</g>
<!-- WidgetsController -->
<g id="node34" class="node"><title>WidgetsController</title>
<ellipse fill="none" stroke="black" cx="230.377" cy="-1424" rx="82.5599" ry="18"/>
<text text-anchor="middle" x="230.377" y="-1418.4" font-family="Times,serif" font-size="14.00">WidgetsController</text>
</g>
</g>
</svg>
