<?xml version="1.0" encoding="UTF-8" standalone="no"?>
<!DOCTYPE svg PUBLIC "-//W3C//DTD SVG 1.1//EN"
 "http://www.w3.org/Graphics/SVG/1.1/DTD/svg11.dtd">
<!-- Generated by graphviz version 2.28.0 (20120503.1651)
 -->
<!-- Title: controllers_diagram Pages: 1 -->
<svg width="1435pt" height="1292pt"
 viewBox="0.00 0.00 1435.07 1291.95" xmlns="http://www.w3.org/2000/svg" xmlns:xlink="http://www.w3.org/1999/xlink">
<g id="graph1" class="graph" transform="scale(1 1) rotate(0) translate(4 1287.95)">
<title>controllers_diagram</title>
<polygon fill="white" stroke="white" points="-4,5 -4,-1287.95 1432.07,-1287.95 1432.07,5 -4,5"/>
<!-- _diagram_info -->
<g id="node1" class="node"><title>_diagram_info</title>
<text text-anchor="start" x="1162.84" y="-69" font-family="Times,serif" font-size="13.00">Controllers diagram</text>
<text text-anchor="start" x="1162.84" y="-53.4" font-family="Times,serif" font-size="13.00">Date: Sep 23 2012 &#45; 10:39</text>
<text text-anchor="start" x="1162.84" y="-37.8" font-family="Times,serif" font-size="13.00">Migration version: 20120923143637</text>
<text text-anchor="start" x="1162.84" y="-22.2" font-family="Times,serif" font-size="13.00">Generated by RailRoady 1.1.0</text>
<text text-anchor="start" x="1162.84" y="-6.6" font-family="Times,serif" font-size="13.00">http://railroady.prestonlee.com</text>
</g>
<!-- AccountsController -->
<g id="node2" class="node"><title>AccountsController</title>
<ellipse fill="none" stroke="black" cx="147.276" cy="-385.889" rx="87.3045" ry="18"/>
<text text-anchor="middle" x="147.276" y="-380.289" font-family="Times,serif" font-size="14.00">AccountsController</text>
</g>
<!-- AdminController -->
<g id="node3" class="node"><title>AdminController</title>
<ellipse fill="none" stroke="black" cx="1232.22" cy="-548.364" rx="77.3328" ry="18"/>
<text text-anchor="middle" x="1232.22" y="-542.764" font-family="Times,serif" font-size="14.00">AdminController</text>
</g>
<!-- ApplicationController -->
<g id="node4" class="node"><title>ApplicationController</title>
<ellipse fill="none" stroke="black" cx="715.105" cy="-648.498" rx="95.984" ry="18"/>
<text text-anchor="middle" x="715.105" y="-642.898" font-family="Times,serif" font-size="14.00">ApplicationController</text>
</g>
<!-- ApplicationController&#45;&gt;AccountsController -->
<g id="edge2" class="edge"><title>ApplicationController&#45;&gt;AccountsController</title>
<path fill="none" stroke="black" d="M678.721,-631.671C576.037,-584.182 284.853,-449.515 182.992,-402.407"/>
</g>
<!-- ApplicationController&#45;&gt;AdminController -->
<g id="edge4" class="edge"><title>ApplicationController&#45;&gt;AdminController</title>
<path fill="none" stroke="black" d="M782.179,-635.51C883.838,-615.825 1075.35,-578.741 1172.48,-559.932"/>
</g>
<!-- AreasController -->
<g id="node5" class="node"><title>AreasController</title>
<ellipse fill="none" stroke="black" cx="456.177" cy="-1224.06" rx="72.8766" ry="18"/>
<text text-anchor="middle" x="456.177" y="-1218.46" font-family="Times,serif" font-size="14.00">AreasController</text>
</g>
<!-- ApplicationController&#45;&gt;AreasController -->
<g id="edge6" class="edge"><title>ApplicationController&#45;&gt;AreasController</title>
<path fill="none" stroke="black" d="M705.943,-666.435C680.637,-716.194 608.061,-860.382 553.739,-983.001 517.257,-1065.35 478.386,-1165.75 463.005,-1206.05"/>
</g>
<!-- ArtistsController -->
<g id="node6" class="node"><title>ArtistsController</title>
<ellipse fill="none" stroke="black" cx="1090.96" cy="-779.825" rx="76.2275" ry="18"/>
<text text-anchor="middle" x="1090.96" y="-774.225" font-family="Times,serif" font-size="14.00">ArtistsController</text>
</g>
<!-- ApplicationController&#45;&gt;ArtistsController -->
<g id="edge8" class="edge"><title>ApplicationController&#45;&gt;ArtistsController</title>
<path fill="none" stroke="black" d="M760.816,-664.47C834.081,-690.07 976.796,-739.936 1048.17,-764.874"/>
</g>
<!-- ChartsController -->
<g id="node7" class="node"><title>ChartsController</title>
<ellipse fill="none" stroke="black" cx="326.475" cy="-678.648" rx="75.4144" ry="18"/>
<text text-anchor="middle" x="326.475" y="-673.048" font-family="Times,serif" font-size="14.00">ChartsController</text>
</g>
<!-- ApplicationController&#45;&gt;ChartsController -->
<g id="edge10" class="edge"><title>ApplicationController&#45;&gt;ChartsController</title>
<path fill="none" stroke="black" d="M625.946,-655.415C557.036,-660.761 462.879,-668.066 398.656,-673.048"/>
</g>
<!-- CheckinsController -->
<g id="node8" class="node"><title>CheckinsController</title>
<ellipse fill="none" stroke="black" cx="303.9" cy="-175.15" rx="86.5047" ry="18"/>
<text text-anchor="middle" x="303.9" y="-169.55" font-family="Times,serif" font-size="14.00">CheckinsController</text>
</g>
<!-- ApplicationController&#45;&gt;CheckinsController -->
<g id="edge12" class="edge"><title>ApplicationController&#45;&gt;CheckinsController</title>
<path fill="none" stroke="black" d="M700.401,-630.574C664.941,-587.45 571.714,-474.654 491.42,-382.586 429.358,-311.423 353.357,-228.653 320.422,-192.992"/>
</g>
<!-- CustomerImportsController -->
<g id="node9" class="node"><title>CustomerImportsController</title>
<ellipse fill="none" stroke="black" cx="1274.63" cy="-364.502" rx="117.986" ry="18"/>
<text text-anchor="middle" x="1274.63" y="-358.902" font-family="Times,serif" font-size="14.00">CustomerImportsController</text>
</g>
<!-- ApplicationController&#45;&gt;CustomerImportsController -->
<g id="edge14" class="edge"><title>ApplicationController&#45;&gt;CustomerImportsController</title>
<path fill="none" stroke="black" d="M748.43,-631.583C847.593,-581.251 1140.1,-432.782 1240.41,-381.868"/>
</g>
<!-- EventsController -->
<g id="node10" class="node"><title>EventsController</title>
<ellipse fill="none" stroke="black" cx="494.078" cy="-85.313" rx="77.0196" ry="18"/>
<text text-anchor="middle" x="494.078" y="-79.713" font-family="Times,serif" font-size="14.00">EventsController</text>
</g>
<!-- ApplicationController&#45;&gt;EventsController -->
<g id="edge16" class="edge"><title>ApplicationController&#45;&gt;EventsController</title>
<path fill="none" stroke="black" d="M708.002,-630.398C674.714,-545.579 534.387,-188.02 501.156,-103.346"/>
</g>
<!-- MainController -->
<g id="node11" class="node"><title>MainController</title>
<ellipse fill="none" stroke="black" cx="938.005" cy="-91.5238" rx="71.1714" ry="18"/>
<text text-anchor="middle" x="938.005" y="-85.9238" font-family="Times,serif" font-size="14.00">MainController</text>
</g>
<!-- ApplicationController&#45;&gt;MainController -->
<g id="edge18" class="edge"><title>ApplicationController&#45;&gt;MainController</title>
<path fill="none" stroke="black" d="M722.395,-630.283C756.158,-545.916 897.125,-193.672 930.771,-109.6"/>
</g>
<!-- ManagerController -->
<g id="node12" class="node"><title>ManagerController</title>
<ellipse fill="none" stroke="black" cx="677.734" cy="-233.594" rx="85.0719" ry="18"/>
<text text-anchor="middle" x="677.734" y="-227.994" font-family="Times,serif" font-size="14.00">ManagerController</text>
</g>
<!-- ApplicationController&#45;&gt;ManagerController -->
<g id="edge20" class="edge"><title>ApplicationController&#45;&gt;ManagerController</title>
<path fill="none" stroke="black" d="M713.476,-630.403C707.322,-562.088 685.54,-320.261 679.372,-251.784"/>
</g>
<!-- NewslettersController -->
<g id="node13" class="node"><title>NewslettersController</title>
<ellipse fill="none" stroke="black" cx="96.1588" cy="-602.586" rx="95.9769" ry="18"/>
<text text-anchor="middle" x="96.1588" y="-596.986" font-family="Times,serif" font-size="14.00">NewslettersController</text>
</g>
<!-- ApplicationController&#45;&gt;NewslettersController -->
<g id="edge22" class="edge"><title>ApplicationController&#45;&gt;NewslettersController</title>
<path fill="none" stroke="black" d="M625.436,-641.847C508.008,-633.136 303.317,-617.953 185.869,-609.241"/>
</g>
<!-- OrdersController -->
<g id="node14" class="node"><title>OrdersController</title>
<ellipse fill="none" stroke="black" cx="1350.06" cy="-706.184" rx="77.0125" ry="18"/>
<text text-anchor="middle" x="1350.06" y="-700.584" font-family="Times,serif" font-size="14.00">OrdersController</text>
</g>
<!-- ApplicationController&#45;&gt;OrdersController -->
<g id="edge24" class="edge"><title>ApplicationController&#45;&gt;OrdersController</title>
<path fill="none" stroke="black" d="M801.73,-656.368C928.143,-667.853 1160.85,-688.994 1278.28,-699.662"/>
</g>
<!-- PagesController -->
<g id="node15" class="node"><title>PagesController</title>
<ellipse fill="none" stroke="black" cx="1268.98" cy="-941.022" rx="72.8907" ry="18"/>
<text text-anchor="middle" x="1268.98" y="-935.422" font-family="Times,serif" font-size="14.00">PagesController</text>
</g>
<!-- ApplicationController&#45;&gt;PagesController -->
<g id="edge26" class="edge"><title>ApplicationController&#45;&gt;PagesController</title>
<path fill="none" stroke="black" d="M747.278,-665.49C845.518,-717.374 1140.79,-873.318 1237.75,-924.529"/>
</g>
<!-- PricesController -->
<g id="node16" class="node"><title>PricesController</title>
<ellipse fill="none" stroke="black" cx="871.895" cy="-1251.31" rx="73.9958" ry="18"/>
<text text-anchor="middle" x="871.895" y="-1245.71" font-family="Times,serif" font-size="14.00">PricesController</text>
</g>
<!-- ApplicationController&#45;&gt;PricesController -->
<g id="edge28" class="edge"><title>ApplicationController&#45;&gt;PricesController</title>
<path fill="none" stroke="black" d="M719.798,-666.539C742.879,-755.281 844.18,-1144.76 867.221,-1233.34"/>
</g>
<!-- ReportsController -->
<g id="node17" class="node"><title>ReportsController</title>
<ellipse fill="none" stroke="black" cx="975.75" cy="-370.562" rx="80.1585" ry="18"/>
<text text-anchor="middle" x="975.75" y="-364.962" font-family="Times,serif" font-size="14.00">ReportsController</text>
</g>
<!-- ApplicationController&#45;&gt;ReportsController -->
<g id="edge30" class="edge"><title>ApplicationController&#45;&gt;ReportsController</title>
<path fill="none" stroke="black" d="M731.806,-630.689C778.884,-580.488 912.281,-438.242 959.188,-388.222"/>
</g>
<!-- SeatingChartsController -->
<g id="node18" class="node"><title>SeatingChartsController</title>
<ellipse fill="none" stroke="black" cx="1131.29" cy="-185.21" rx="104.364" ry="18"/>
<text text-anchor="middle" x="1131.29" y="-179.61" font-family="Times,serif" font-size="14.00">SeatingChartsController</text>
</g>
<!-- ApplicationController&#45;&gt;SeatingChartsController -->
<g id="edge32" class="edge"><title>ApplicationController&#45;&gt;SeatingChartsController</title>
<path fill="none" stroke="black" d="M723.907,-630.467C747.163,-583.954 813.945,-457.473 893.381,-370.424 959.362,-298.119 1055.89,-232.62 1103.14,-202.564"/>
</g>
<!-- SectionsController -->
<g id="node19" class="node"><title>SectionsController</title>
<ellipse fill="none" stroke="black" cx="211.715" cy="-1049.26" rx="83.1814" ry="18"/>
<text text-anchor="middle" x="211.715" y="-1043.66" font-family="Times,serif" font-size="14.00">SectionsController</text>
</g>
<!-- ApplicationController&#45;&gt;SectionsController -->
<g id="edge34" class="edge"><title>ApplicationController&#45;&gt;SectionsController</title>
<path fill="none" stroke="black" d="M692.826,-666.235C609.485,-732.585 316.646,-965.721 233.738,-1031.73"/>
</g>
<!-- SidebarsController -->
<g id="node20" class="node"><title>SidebarsController</title>
<ellipse fill="none" stroke="black" cx="121.278" cy="-829.083" rx="83.4806" ry="18"/>
<text text-anchor="middle" x="121.278" y="-823.483" font-family="Times,serif" font-size="14.00">SidebarsController</text>
</g>
<!-- ApplicationController&#45;&gt;SidebarsController -->
<g id="edge36" class="edge"><title>ApplicationController&#45;&gt;SidebarsController</title>
<path fill="none" stroke="black" d="M664.476,-663.895C551.584,-698.225 280.49,-780.666 169.697,-814.358"/>
</g>
<!-- StatsController -->
<g id="node21" class="node"><title>StatsController</title>
<ellipse fill="none" stroke="black" cx="384.828" cy="-1002.43" rx="69.2665" ry="18"/>
<text text-anchor="middle" x="384.828" y="-996.835" font-family="Times,serif" font-size="14.00">StatsController</text>
</g>
<!-- ApplicationController&#45;&gt;StatsController -->
<g id="edge38" class="edge"><title>ApplicationController&#45;&gt;StatsController</title>
<path fill="none" stroke="black" d="M698.273,-666.536C641.485,-727.392 457.381,-924.685 401.234,-984.853"/>
</g>
<!-- TicketLocksController -->
<g id="node22" class="node"><title>TicketLocksController</title>
<ellipse fill="none" stroke="black" cx="653.999" cy="-983.102" rx="98.4913" ry="18"/>
<text text-anchor="middle" x="653.999" y="-977.502" font-family="Times,serif" font-size="14.00">TicketLocksController</text>
</g>
<!-- ApplicationController&#45;&gt;TicketLocksController -->
<g id="edge40" class="edge"><title>ApplicationController&#45;&gt;TicketLocksController</title>
<path fill="none" stroke="black" d="M711.82,-666.488C701.21,-724.586 667.934,-906.798 657.3,-965.023"/>
</g>
<!-- TicketTemplatesController -->
<g id="node23" class="node"><title>TicketTemplatesController</title>
<ellipse fill="none" stroke="black" cx="375.214" cy="-382.478" rx="114.412" ry="18"/>
<text text-anchor="middle" x="375.214" y="-376.878" font-family="Times,serif" font-size="14.00">TicketTemplatesController</text>
</g>
<!-- ApplicationController&#45;&gt;TicketTemplatesController -->
<g id="edge42" class="edge"><title>ApplicationController&#45;&gt;TicketTemplatesController</title>
<path fill="none" stroke="black" d="M692.541,-630.838C630.861,-582.563 459.926,-448.778 397.993,-400.306"/>
</g>
<!-- TicketsController -->
<g id="node24" class="node"><title>TicketsController</title>
<ellipse fill="none" stroke="black" cx="963.182" cy="-1039.13" rx="78.2299" ry="18"/>
<text text-anchor="middle" x="963.182" y="-1033.53" font-family="Times,serif" font-size="14.00">TicketsController</text>
</g>
<!-- ApplicationController&#45;&gt;TicketsController -->
<g id="edge44" class="edge"><title>ApplicationController&#45;&gt;TicketsController</title>
<path fill="none" stroke="black" d="M726.573,-666.555C768.12,-731.976 910.487,-956.15 951.836,-1021.26"/>
</g>
<!-- UsersController -->
<g id="node25" class="node"><title>UsersController</title>
<ellipse fill="none" stroke="black" cx="1125.25" cy="-1143.94" rx="72.5828" ry="18"/>
<text text-anchor="middle" x="1125.25" y="-1138.34" font-family="Times,serif" font-size="14.00">UsersController</text>
</g>
<!-- ApplicationController&#45;&gt;UsersController -->
<g id="edge46" class="edge"><title>ApplicationController&#45;&gt;UsersController</title>
<path fill="none" stroke="black" d="M730.738,-666.61C778.369,-721.898 925.628,-893.589 1043.6,-1039.25 1067.97,-1069.35 1095.52,-1105.03 1111.58,-1126"/>
</g>
<!-- WidgetPlacementsController -->
<g id="node26" class="node"><title>WidgetPlacementsController</title>
<ellipse fill="none" stroke="black" cx="666.813" cy="-1265.95" rx="122.129" ry="18"/>
<text text-anchor="middle" x="666.813" y="-1260.35" font-family="Times,serif" font-size="14.00">WidgetPlacementsController</text>
</g>
<!-- ApplicationController&#45;&gt;WidgetPlacementsController -->
<g id="edge48" class="edge"><title>ApplicationController&#45;&gt;WidgetPlacementsController</title>
<path fill="none" stroke="black" d="M719.894,-666.606C732.592,-716.803 765.407,-862.024 754.258,-983.202 744.702,-1087.07 695.316,-1204 675.277,-1247.97"/>
</g>
<!-- WidgetsController -->
<g id="node27" class="node"><title>WidgetsController</title>
<ellipse fill="none" stroke="black" cx="730.999" cy="-18" rx="82.2949" ry="18"/>
<text text-anchor="middle" x="730.999" y="-12.4" font-family="Times,serif" font-size="14.00">WidgetsController</text>
</g>
<!-- ApplicationController&#45;&gt;WidgetsController -->
<g id="edge50" class="edge"><title>ApplicationController&#45;&gt;WidgetsController</title>
<path fill="none" stroke="black" d="M719.04,-630.393C731.184,-572.739 767.106,-388.147 764.38,-233.706 763.073,-159.633 744.295,-72.8965 735.492,-36.0368"/>
</g>
</g>
</svg>
