<?xml version="1.0" encoding="UTF-8" standalone="no"?>
<!DOCTYPE svg PUBLIC "-//W3C//DTD SVG 1.1//EN"
 "http://www.w3.org/Graphics/SVG/1.1/DTD/svg11.dtd">
<!-- Generated by graphviz version 2.28.0 (20120503.1651)
 -->
<!-- Title: controllers_diagram Pages: 1 -->
<svg width="1316pt" height="1192pt"
 viewBox="0.00 0.00 1315.71 1192.08" xmlns="http://www.w3.org/2000/svg" xmlns:xlink="http://www.w3.org/1999/xlink">
<g id="graph1" class="graph" transform="scale(1 1) rotate(0) translate(4 1188.08)">
<title>controllers_diagram</title>
<polygon fill="white" stroke="white" points="-4,5 -4,-1188.08 1312.71,-1188.08 1312.71,5 -4,5"/>
<!-- _diagram_info -->
<g id="node1" class="node"><title>_diagram_info</title>
<text text-anchor="start" x="1075" y="-69" font-family="Times,serif" font-size="13.00">Controllers diagram</text>
<text text-anchor="start" x="1075" y="-53.4" font-family="Times,serif" font-size="13.00">Date: Sep 18 2012 &#45; 17:51</text>
<text text-anchor="start" x="1075" y="-37.8" font-family="Times,serif" font-size="13.00">Migration version: 20120918012421</text>
<text text-anchor="start" x="1075" y="-22.2" font-family="Times,serif" font-size="13.00">Generated by RailRoady 1.1.0</text>
<text text-anchor="start" x="1075" y="-6.6" font-family="Times,serif" font-size="13.00">http://railroady.prestonlee.com</text>
</g>
<!-- AccountsController -->
<g id="node2" class="node"><title>AccountsController</title>
<ellipse fill="none" stroke="black" cx="97.6751" cy="-356.135" rx="87.3045" ry="18"/>
<text text-anchor="middle" x="97.6751" y="-350.535" font-family="Times,serif" font-size="14.00">AccountsController</text>
</g>
<!-- AdminController -->
<g id="node3" class="node"><title>AdminController</title>
<ellipse fill="none" stroke="black" cx="1080.79" cy="-552.806" rx="77.3328" ry="18"/>
<text text-anchor="middle" x="1080.79" y="-547.206" font-family="Times,serif" font-size="14.00">AdminController</text>
</g>
<!-- ApplicationController -->
<g id="node4" class="node"><title>ApplicationController</title>
<ellipse fill="none" stroke="black" cx="638.406" cy="-587.044" rx="95.984" ry="18"/>
<text text-anchor="middle" x="638.406" y="-581.444" font-family="Times,serif" font-size="14.00">ApplicationController</text>
</g>
<!-- ApplicationController&#45;&gt;AccountsController -->
<g id="edge2" class="edge"><title>ApplicationController&#45;&gt;AccountsController</title>
<path fill="none" stroke="black" d="M599.518,-570.437C499.628,-527.781 234.95,-414.756 135.85,-372.437"/>
</g>
<!-- ApplicationController&#45;&gt;AdminController -->
<g id="edge4" class="edge"><title>ApplicationController&#45;&gt;AdminController</title>
<path fill="none" stroke="black" d="M727.396,-580.156C809.523,-573.8 930.056,-564.472 1006.97,-558.519"/>
</g>
<!-- AreasController -->
<g id="node5" class="node"><title>AreasController</title>
<ellipse fill="none" stroke="black" cx="591.239" cy="-1166.08" rx="72.8766" ry="18"/>
<text text-anchor="middle" x="591.239" y="-1160.48" font-family="Times,serif" font-size="14.00">AreasController</text>
</g>
<!-- ApplicationController&#45;&gt;AreasController -->
<g id="edge6" class="edge"><title>ApplicationController&#45;&gt;AreasController</title>
<path fill="none" stroke="black" d="M636.916,-605.329C629.846,-692.123 599.725,-1061.9 592.705,-1148.07"/>
</g>
<!-- ArtistsController -->
<g id="node6" class="node"><title>ArtistsController</title>
<ellipse fill="none" stroke="black" cx="1077.66" cy="-834.31" rx="76.2275" ry="18"/>
<text text-anchor="middle" x="1077.66" y="-828.71" font-family="Times,serif" font-size="14.00">ArtistsController</text>
</g>
<!-- ApplicationController&#45;&gt;ArtistsController -->
<g id="edge8" class="edge"><title>ApplicationController&#45;&gt;ArtistsController</title>
<path fill="none" stroke="black" d="M668.944,-604.235C749.685,-649.686 968.057,-772.613 1047.9,-817.559"/>
</g>
<!-- ChartsController -->
<g id="node7" class="node"><title>ChartsController</title>
<ellipse fill="none" stroke="black" cx="352.236" cy="-786.715" rx="75.4144" ry="18"/>
<text text-anchor="middle" x="352.236" y="-781.115" font-family="Times,serif" font-size="14.00">ChartsController</text>
</g>
<!-- ApplicationController&#45;&gt;ChartsController -->
<g id="edge10" class="edge"><title>ApplicationController&#45;&gt;ChartsController</title>
<path fill="none" stroke="black" d="M613.261,-604.588C558.842,-642.558 430.719,-731.954 376.815,-769.565"/>
</g>
<!-- CustomerImportsController -->
<g id="node8" class="node"><title>CustomerImportsController</title>
<ellipse fill="none" stroke="black" cx="262.627" cy="-135.195" rx="117.986" ry="18"/>
<text text-anchor="middle" x="262.627" y="-129.595" font-family="Times,serif" font-size="14.00">CustomerImportsController</text>
</g>
<!-- ApplicationController&#45;&gt;CustomerImportsController -->
<g id="edge12" class="edge"><title>ApplicationController&#45;&gt;CustomerImportsController</title>
<path fill="none" stroke="black" d="M623.443,-569.052C563.108,-496.503 338.045,-225.881 277.632,-153.238"/>
</g>
<!-- EventsController -->
<g id="node9" class="node"><title>EventsController</title>
<ellipse fill="none" stroke="black" cx="1173.6" cy="-348.478" rx="77.0196" ry="18"/>
<text text-anchor="middle" x="1173.6" y="-342.878" font-family="Times,serif" font-size="14.00">EventsController</text>
</g>
<!-- ApplicationController&#45;&gt;EventsController -->
<g id="edge14" class="edge"><title>ApplicationController&#45;&gt;EventsController</title>
<path fill="none" stroke="black" d="M676.039,-570.268C774.899,-526.2 1040.98,-407.592 1137.77,-364.448"/>
</g>
<!-- MainController -->
<g id="node10" class="node"><title>MainController</title>
<ellipse fill="none" stroke="black" cx="462.774" cy="-125.157" rx="71.1714" ry="18"/>
<text text-anchor="middle" x="462.774" y="-119.557" font-family="Times,serif" font-size="14.00">MainController</text>
</g>
<!-- ApplicationController&#45;&gt;MainController -->
<g id="edge16" class="edge"><title>ApplicationController&#45;&gt;MainController</title>
<path fill="none" stroke="black" d="M631.521,-568.937C603.425,-495.049 497.619,-216.795 469.611,-143.138"/>
</g>
<!-- ManagerController -->
<g id="node11" class="node"><title>ManagerController</title>
<ellipse fill="none" stroke="black" cx="798.301" cy="-61.3768" rx="85.0719" ry="18"/>
<text text-anchor="middle" x="798.301" y="-55.7768" font-family="Times,serif" font-size="14.00">ManagerController</text>
</g>
<!-- ApplicationController&#45;&gt;ManagerController -->
<g id="edge18" class="edge"><title>ApplicationController&#45;&gt;ManagerController</title>
<path fill="none" stroke="black" d="M643.91,-568.949C668.511,-488.07 768.266,-160.119 792.82,-79.3954"/>
</g>
<!-- NewslettersController -->
<g id="node12" class="node"><title>NewslettersController</title>
<ellipse fill="none" stroke="black" cx="608.935" cy="-18" rx="95.9769" ry="18"/>
<text text-anchor="middle" x="608.935" y="-12.4" font-family="Times,serif" font-size="14.00">NewslettersController</text>
</g>
<!-- ApplicationController&#45;&gt;NewslettersController -->
<g id="edge20" class="edge"><title>ApplicationController&#45;&gt;NewslettersController</title>
<path fill="none" stroke="black" d="M637.458,-568.755C633.02,-483.054 614.31,-121.776 609.879,-36.2206"/>
</g>
<!-- OrdersController -->
<g id="node13" class="node"><title>OrdersController</title>
<ellipse fill="none" stroke="black" cx="77.0042" cy="-581.63" rx="77.0125" ry="18"/>
<text text-anchor="middle" x="77.0042" y="-576.03" font-family="Times,serif" font-size="14.00">OrdersController</text>
</g>
<!-- ApplicationController&#45;&gt;OrdersController -->
<g id="edge22" class="edge"><title>ApplicationController&#45;&gt;OrdersController</title>
<path fill="none" stroke="black" d="M542.216,-586.116C432.549,-585.059 255.423,-583.351 154.315,-582.376"/>
</g>
<!-- PagesController -->
<g id="node14" class="node"><title>PagesController</title>
<ellipse fill="none" stroke="black" cx="1234.58" cy="-676.043" rx="72.8907" ry="18"/>
<text text-anchor="middle" x="1234.58" y="-670.443" font-family="Times,serif" font-size="14.00">PagesController</text>
</g>
<!-- ApplicationController&#45;&gt;PagesController -->
<g id="edge24" class="edge"><title>ApplicationController&#45;&gt;PagesController</title>
<path fill="none" stroke="black" d="M713.609,-598.27C832.403,-616.005 1061.31,-650.177 1171.83,-666.676"/>
</g>
<!-- PricesController -->
<g id="node15" class="node"><title>PricesController</title>
<ellipse fill="none" stroke="black" cx="1038.89" cy="-1026.18" rx="73.9958" ry="18"/>
<text text-anchor="middle" x="1038.89" y="-1020.58" font-family="Times,serif" font-size="14.00">PricesController</text>
</g>
<!-- ApplicationController&#45;&gt;PricesController -->
<g id="edge26" class="edge"><title>ApplicationController&#45;&gt;PricesController</title>
<path fill="none" stroke="black" d="M654.601,-604.802C719.136,-675.565 957.601,-937.044 1022.5,-1008.2"/>
</g>
<!-- ReportsController -->
<g id="node16" class="node"><title>ReportsController</title>
<ellipse fill="none" stroke="black" cx="817.02" cy="-1141.55" rx="80.1585" ry="18"/>
<text text-anchor="middle" x="817.02" y="-1135.95" font-family="Times,serif" font-size="14.00">ReportsController</text>
</g>
<!-- ApplicationController&#45;&gt;ReportsController -->
<g id="edge28" class="edge"><title>ApplicationController&#45;&gt;ReportsController</title>
<path fill="none" stroke="black" d="M639.054,-605.126C641.31,-655.131 650.931,-798.978 689.395,-910.97 718.599,-996.001 778.164,-1086.35 804.275,-1123.75"/>
</g>
<!-- SeatingChartsController -->
<g id="node17" class="node"><title>SeatingChartsController</title>
<ellipse fill="none" stroke="black" cx="888.297" cy="-317.904" rx="104.364" ry="18"/>
<text text-anchor="middle" x="888.297" y="-312.304" font-family="Times,serif" font-size="14.00">SeatingChartsController</text>
</g>
<!-- ApplicationController&#45;&gt;SeatingChartsController -->
<g id="edge30" class="edge"><title>ApplicationController&#45;&gt;SeatingChartsController</title>
<path fill="none" stroke="black" d="M655.19,-568.967C700.713,-519.937 826.148,-384.84 871.586,-335.903"/>
</g>
<!-- SectionsController -->
<g id="node18" class="node"><title>SectionsController</title>
<ellipse fill="none" stroke="black" cx="1015.41" cy="-136.083" rx="83.1814" ry="18"/>
<text text-anchor="middle" x="1015.41" y="-130.483" font-family="Times,serif" font-size="14.00">SectionsController</text>
</g>
<!-- ApplicationController&#45;&gt;SectionsController -->
<g id="edge32" class="edge"><title>ApplicationController&#45;&gt;SectionsController</title>
<path fill="none" stroke="black" d="M645.015,-568.804C662.242,-522.967 712.071,-400.708 781.788,-317.854 843.33,-244.715 938.771,-181.901 986.365,-153.017"/>
</g>
<!-- StatsController -->
<g id="node19" class="node"><title>StatsController</title>
<ellipse fill="none" stroke="black" cx="217.631" cy="-1003.83" rx="69.2665" ry="18"/>
<text text-anchor="middle" x="217.631" y="-998.228" font-family="Times,serif" font-size="14.00">StatsController</text>
</g>
<!-- ApplicationController&#45;&gt;StatsController -->
<g id="edge34" class="edge"><title>ApplicationController&#45;&gt;StatsController</title>
<path fill="none" stroke="black" d="M620.325,-604.952C551.27,-673.353 304.584,-917.7 235.644,-985.986"/>
</g>
<!-- TicketLocksController -->
<g id="node20" class="node"><title>TicketLocksController</title>
<ellipse fill="none" stroke="black" cx="99.0831" cy="-789.97" rx="98.4913" ry="18"/>
<text text-anchor="middle" x="99.0831" y="-784.37" font-family="Times,serif" font-size="14.00">TicketLocksController</text>
</g>
<!-- ApplicationController&#45;&gt;TicketLocksController -->
<g id="edge36" class="edge"><title>ApplicationController&#45;&gt;TicketLocksController</title>
<path fill="none" stroke="black" d="M595.182,-603.307C494.074,-641.35 243.078,-735.79 142.137,-773.771"/>
</g>
<!-- TicketTemplatesController -->
<g id="node21" class="node"><title>TicketTemplatesController</title>
<ellipse fill="none" stroke="black" cx="417.411" cy="-1079.95" rx="114.412" ry="18"/>
<text text-anchor="middle" x="417.411" y="-1074.35" font-family="Times,serif" font-size="14.00">TicketTemplatesController</text>
</g>
<!-- ApplicationController&#45;&gt;TicketTemplatesController -->
<g id="edge38" class="edge"><title>ApplicationController&#45;&gt;TicketTemplatesController</title>
<path fill="none" stroke="black" d="M630.278,-605.171C595.586,-682.548 460.104,-984.729 425.495,-1061.92"/>
</g>
<!-- TicketsController -->
<g id="node22" class="node"><title>TicketsController</title>
<ellipse fill="none" stroke="black" cx="769.814" cy="-911.01" rx="78.2299" ry="18"/>
<text text-anchor="middle" x="769.814" y="-905.41" font-family="Times,serif" font-size="14.00">TicketsController</text>
</g>
<!-- ApplicationController&#45;&gt;TicketsController -->
<g id="edge40" class="edge"><title>ApplicationController&#45;&gt;TicketsController</title>
<path fill="none" stroke="black" d="M645.847,-605.39C668.976,-662.411 739.436,-836.119 762.454,-892.865"/>
</g>
<!-- UsersController -->
<g id="node23" class="node"><title>UsersController</title>
<ellipse fill="none" stroke="black" cx="313.786" cy="-384.993" rx="72.5828" ry="18"/>
<text text-anchor="middle" x="313.786" y="-379.393" font-family="Times,serif" font-size="14.00">UsersController</text>
</g>
<!-- ApplicationController&#45;&gt;UsersController -->
<g id="edge42" class="edge"><title>ApplicationController&#45;&gt;UsersController</title>
<path fill="none" stroke="black" d="M610.448,-569.642C548.778,-531.257 401.734,-439.733 340.875,-401.854"/>
</g>
</g>
</svg>
