<?xml version="1.0" encoding="UTF-8" standalone="no"?>
<!DOCTYPE svg PUBLIC "-//W3C//DTD SVG 1.1//EN"
 "http://www.w3.org/Graphics/SVG/1.1/DTD/svg11.dtd">
<!-- Generated by graphviz version 2.28.0 (20120503.1651)
 -->
<!-- Title: controllers_diagram Pages: 1 -->
<svg width="1339pt" height="1205pt"
 viewBox="0.00 0.00 1338.82 1205.01" xmlns="http://www.w3.org/2000/svg" xmlns:xlink="http://www.w3.org/1999/xlink">
<g id="graph1" class="graph" transform="scale(1 1) rotate(0) translate(4 1201.01)">
<title>controllers_diagram</title>
<polygon fill="white" stroke="white" points="-4,5 -4,-1201.01 1335.82,-1201.01 1335.82,5 -4,5"/>
<!-- _diagram_info -->
<g id="node1" class="node"><title>_diagram_info</title>
<text text-anchor="start" x="1085.94" y="-69" font-family="Times,serif" font-size="13.00">Controllers diagram</text>
<text text-anchor="start" x="1085.94" y="-53.4" font-family="Times,serif" font-size="13.00">Date: Sep 25 2012 &#45; 17:54</text>
<text text-anchor="start" x="1085.94" y="-37.8" font-family="Times,serif" font-size="13.00">Migration version: 20120925200934</text>
<text text-anchor="start" x="1085.94" y="-22.2" font-family="Times,serif" font-size="13.00">Generated by RailRoady 1.1.0</text>
<text text-anchor="start" x="1085.94" y="-6.6" font-family="Times,serif" font-size="13.00">http://railroady.prestonlee.com</text>
</g>
<!-- AccountsController -->
<g id="node2" class="node"><title>AccountsController</title>
<ellipse fill="none" stroke="black" cx="114.478" cy="-382.943" rx="87.3045" ry="18"/>
<text text-anchor="middle" x="114.478" y="-377.343" font-family="Times,serif" font-size="14.00">AccountsController</text>
</g>
<!-- AdminController -->
<g id="node3" class="node"><title>AdminController</title>
<ellipse fill="none" stroke="black" cx="1117.91" cy="-484.342" rx="77.3328" ry="18"/>
<text text-anchor="middle" x="1117.91" y="-478.742" font-family="Times,serif" font-size="14.00">AdminController</text>
</g>
<!-- ApplicationController -->
<g id="node4" class="node"><title>ApplicationController</title>
<ellipse fill="none" stroke="black" cx="656.927" cy="-606.63" rx="95.984" ry="18"/>
<text text-anchor="middle" x="656.927" y="-601.03" font-family="Times,serif" font-size="14.00">ApplicationController</text>
</g>
<!-- ApplicationController&#45;&gt;AccountsController -->
<g id="edge2" class="edge"><title>ApplicationController&#45;&gt;AccountsController</title>
<path fill="none" stroke="black" d="M617.039,-590.182C516.479,-548.715 253.523,-440.281 153.692,-399.114"/>
</g>
<!-- ApplicationController&#45;&gt;AdminController -->
<g id="edge4" class="edge"><title>ApplicationController&#45;&gt;AdminController</title>
<path fill="none" stroke="black" d="M712.532,-591.879C802.691,-567.962 979.456,-521.07 1066.7,-497.925"/>
</g>
<!-- AreasController -->
<g id="node5" class="node"><title>AreasController</title>
<ellipse fill="none" stroke="black" cx="410.751" cy="-1126.68" rx="72.8766" ry="18"/>
<text text-anchor="middle" x="410.751" y="-1121.08" font-family="Times,serif" font-size="14.00">AreasController</text>
</g>
<!-- ApplicationController&#45;&gt;AreasController -->
<g id="edge6" class="edge"><title>ApplicationController&#45;&gt;AreasController</title>
<path fill="none" stroke="black" d="M648.31,-624.834C610.227,-705.284 457.239,-1028.47 419.298,-1108.63"/>
</g>
<!-- ArtistsController -->
<g id="node6" class="node"><title>ArtistsController</title>
<ellipse fill="none" stroke="black" cx="988.409" cy="-682.881" rx="76.2275" ry="18"/>
<text text-anchor="middle" x="988.409" y="-677.281" font-family="Times,serif" font-size="14.00">ArtistsController</text>
</g>
<!-- ApplicationController&#45;&gt;ArtistsController -->
<g id="edge8" class="edge"><title>ApplicationController&#45;&gt;ArtistsController</title>
<path fill="none" stroke="black" d="M717.726,-620.616C779.405,-634.804 874.023,-656.569 933.497,-670.25"/>
</g>
<!-- ChartsController -->
<g id="node7" class="node"><title>ChartsController</title>
<ellipse fill="none" stroke="black" cx="244.808" cy="-661.362" rx="75.4144" ry="18"/>
<text text-anchor="middle" x="244.808" y="-655.762" font-family="Times,serif" font-size="14.00">ChartsController</text>
</g>
<!-- ApplicationController&#45;&gt;ChartsController -->
<g id="edge10" class="edge"><title>ApplicationController&#45;&gt;ChartsController</title>
<path fill="none" stroke="black" d="M578.44,-617.054C501.022,-627.335 383.994,-642.878 311.102,-652.558"/>
</g>
<!-- CheckinsController -->
<g id="node8" class="node"><title>CheckinsController</title>
<ellipse fill="none" stroke="black" cx="300.352" cy="-137.262" rx="86.5047" ry="18"/>
<text text-anchor="middle" x="300.352" y="-131.662" font-family="Times,serif" font-size="14.00">CheckinsController</text>
</g>
<!-- ApplicationController&#45;&gt;CheckinsController -->
<g id="edge12" class="edge"><title>ApplicationController&#45;&gt;CheckinsController</title>
<path fill="none" stroke="black" d="M643.384,-588.804C586.902,-514.455 370.416,-229.489 313.908,-155.107"/>
</g>
<!-- CmsController -->
<g id="node9" class="node"><title>CmsController</title>
<ellipse fill="none" stroke="black" cx="1162.19" cy="-324.128" rx="68.1612" ry="18"/>
<text text-anchor="middle" x="1162.19" y="-318.528" font-family="Times,serif" font-size="14.00">CmsController</text>
</g>
<!-- ApplicationController&#45;&gt;CmsController -->
<g id="edge14" class="edge"><title>ApplicationController&#45;&gt;CmsController</title>
<path fill="none" stroke="black" d="M687.773,-589.384C778.619,-538.591 1044.35,-390.014 1133.02,-340.441"/>
</g>
<!-- CustomerImportsController -->
<g id="node10" class="node"><title>CustomerImportsController</title>
<ellipse fill="none" stroke="black" cx="469.537" cy="-72.7403" rx="117.986" ry="18"/>
<text text-anchor="middle" x="469.537" y="-67.1403" font-family="Times,serif" font-size="14.00">CustomerImportsController</text>
</g>
<!-- ApplicationController&#45;&gt;CustomerImportsController -->
<g id="edge16" class="edge"><title>ApplicationController&#45;&gt;CustomerImportsController</title>
<path fill="none" stroke="black" d="M650.585,-588.561C621.911,-506.867 504.548,-172.49 475.877,-90.8052"/>
</g>
<!-- EventsController -->
<g id="node11" class="node"><title>EventsController</title>
<ellipse fill="none" stroke="black" cx="875.519" cy="-90.7134" rx="77.0196" ry="18"/>
<text text-anchor="middle" x="875.519" y="-85.1134" font-family="Times,serif" font-size="14.00">EventsController</text>
</g>
<!-- ApplicationController&#45;&gt;EventsController -->
<g id="edge18" class="edge"><title>ApplicationController&#45;&gt;EventsController</title>
<path fill="none" stroke="black" d="M664.578,-588.571C698.394,-508.761 834.24,-188.141 867.93,-108.626"/>
</g>
<!-- ImagesController -->
<g id="node12" class="node"><title>ImagesController</title>
<ellipse fill="none" stroke="black" cx="623.263" cy="-188.905" rx="78.4241" ry="18"/>
<text text-anchor="middle" x="623.263" y="-183.305" font-family="Times,serif" font-size="14.00">ImagesController</text>
</g>
<!-- ApplicationController&#45;&gt;ImagesController -->
<g id="edge20" class="edge"><title>ApplicationController&#45;&gt;ImagesController</title>
<path fill="none" stroke="black" d="M655.459,-588.413C649.916,-519.633 630.295,-276.16 624.739,-207.218"/>
</g>
<!-- MainController -->
<g id="node13" class="node"><title>MainController</title>
<ellipse fill="none" stroke="black" cx="71.0571" cy="-578.182" rx="71.1714" ry="18"/>
<text text-anchor="middle" x="71.0571" y="-572.582" font-family="Times,serif" font-size="14.00">MainController</text>
</g>
<!-- ApplicationController&#45;&gt;MainController -->
<g id="edge22" class="edge"><title>ApplicationController&#45;&gt;MainController</title>
<path fill="none" stroke="black" d="M563.77,-602.107C446.25,-596.4 246.796,-586.715 141.306,-581.593"/>
</g>
<!-- ManagerController -->
<g id="node14" class="node"><title>ManagerController</title>
<ellipse fill="none" stroke="black" cx="1245.8" cy="-603.728" rx="85.0719" ry="18"/>
<text text-anchor="middle" x="1245.8" y="-598.128" font-family="Times,serif" font-size="14.00">ManagerController</text>
</g>
<!-- ApplicationController&#45;&gt;ManagerController -->
<g id="edge24" class="edge"><title>ApplicationController&#45;&gt;ManagerController</title>
<path fill="none" stroke="black" d="M753.179,-606.156C866.336,-605.598 1052.38,-604.681 1160.55,-604.148"/>
</g>
<!-- NewslettersController -->
<g id="node15" class="node"><title>NewslettersController</title>
<ellipse fill="none" stroke="black" cx="1191.94" cy="-798.493" rx="95.9769" ry="18"/>
<text text-anchor="middle" x="1191.94" y="-792.893" font-family="Times,serif" font-size="14.00">NewslettersController</text>
</g>
<!-- ApplicationController&#45;&gt;NewslettersController -->
<g id="edge26" class="edge"><title>ApplicationController&#45;&gt;NewslettersController</title>
<path fill="none" stroke="black" d="M701.621,-622.658C802.454,-658.819 1046.66,-746.394 1147.37,-782.511"/>
</g>
<!-- OrdersController -->
<g id="node16" class="node"><title>OrdersController</title>
<ellipse fill="none" stroke="black" cx="764.19" cy="-1157.14" rx="77.0125" ry="18"/>
<text text-anchor="middle" x="764.19" y="-1151.54" font-family="Times,serif" font-size="14.00">OrdersController</text>
</g>
<!-- ApplicationController&#45;&gt;OrdersController -->
<g id="edge28" class="edge"><title>ApplicationController&#45;&gt;OrdersController</title>
<path fill="none" stroke="black" d="M660.435,-624.634C676.664,-707.929 744.367,-1055.4 760.655,-1138.99"/>
</g>
<!-- PagesController -->
<g id="node17" class="node"><title>PagesController</title>
<ellipse fill="none" stroke="black" cx="868.126" cy="-328.124" rx="72.8907" ry="18"/>
<text text-anchor="middle" x="868.126" y="-322.524" font-family="Times,serif" font-size="14.00">PagesController</text>
</g>
<!-- ApplicationController&#45;&gt;PagesController -->
<g id="edge30" class="edge"><title>ApplicationController&#45;&gt;PagesController</title>
<path fill="none" stroke="black" d="M670.46,-588.785C708.606,-538.481 816.697,-395.943 854.706,-345.821"/>
</g>
<!-- PricesController -->
<g id="node18" class="node"><title>PricesController</title>
<ellipse fill="none" stroke="black" cx="1040.92" cy="-177.603" rx="73.9958" ry="18"/>
<text text-anchor="middle" x="1040.92" y="-172.003" font-family="Times,serif" font-size="14.00">PricesController</text>
</g>
<!-- ApplicationController&#45;&gt;PricesController -->
<g id="edge32" class="edge"><title>ApplicationController&#45;&gt;PricesController</title>
<path fill="none" stroke="black" d="M678.248,-588.817C728.015,-546.641 854.336,-436.1 942.985,-328.198 979.611,-283.617 1014.45,-224.824 1030.95,-195.641"/>
</g>
<!-- ReportsController -->
<g id="node19" class="node"><title>ReportsController</title>
<ellipse fill="none" stroke="black" cx="217.044" cy="-1009.45" rx="80.1585" ry="18"/>
<text text-anchor="middle" x="217.044" y="-1003.85" font-family="Times,serif" font-size="14.00">ReportsController</text>
</g>
<!-- ApplicationController&#45;&gt;ReportsController -->
<g id="edge34" class="edge"><title>ApplicationController&#45;&gt;ReportsController</title>
<path fill="none" stroke="black" d="M646.53,-624.848C617.628,-674.236 531.723,-812.749 430.085,-899.018 377.997,-943.23 305.214,-976.115 259.629,-994.042"/>
</g>
<!-- SeatingChartsController -->
<g id="node20" class="node"><title>SeatingChartsController</title>
<ellipse fill="none" stroke="black" cx="105.628" cy="-807.47" rx="104.364" ry="18"/>
<text text-anchor="middle" x="105.628" y="-801.87" font-family="Times,serif" font-size="14.00">SeatingChartsController</text>
</g>
<!-- ApplicationController&#45;&gt;SeatingChartsController -->
<g id="edge36" class="edge"><title>ApplicationController&#45;&gt;SeatingChartsController</title>
<path fill="none" stroke="black" d="M612.744,-622.726C509.645,-660.285 254.088,-753.385 150.406,-791.157"/>
</g>
<!-- SectionsController -->
<g id="node21" class="node"><title>SectionsController</title>
<ellipse fill="none" stroke="black" cx="345.035" cy="-898.834" rx="83.1814" ry="18"/>
<text text-anchor="middle" x="345.035" y="-893.234" font-family="Times,serif" font-size="14.00">SectionsController</text>
</g>
<!-- ApplicationController&#45;&gt;SectionsController -->
<g id="edge38" class="edge"><title>ApplicationController&#45;&gt;SectionsController</title>
<path fill="none" stroke="black" d="M637.886,-624.469C582.073,-676.759 419.32,-829.238 363.826,-881.228"/>
</g>
<!-- SidebarsController -->
<g id="node22" class="node"><title>SidebarsController</title>
<ellipse fill="none" stroke="black" cx="413.07" cy="-451.994" rx="83.4806" ry="18"/>
<text text-anchor="middle" x="413.07" y="-446.394" font-family="Times,serif" font-size="14.00">SidebarsController</text>
</g>
<!-- ApplicationController&#45;&gt;SidebarsController -->
<g id="edge40" class="edge"><title>ApplicationController&#45;&gt;SidebarsController</title>
<path fill="none" stroke="black" d="M629.427,-589.192C582.344,-559.335 486.855,-498.783 440.097,-469.133"/>
</g>
<!-- StatsController -->
<g id="node23" class="node"><title>StatsController</title>
<ellipse fill="none" stroke="black" cx="265.311" cy="-294.97" rx="69.2665" ry="18"/>
<text text-anchor="middle" x="265.311" y="-289.37" font-family="Times,serif" font-size="14.00">StatsController</text>
</g>
<!-- ApplicationController&#45;&gt;StatsController -->
<g id="edge42" class="edge"><title>ApplicationController&#45;&gt;StatsController</title>
<path fill="none" stroke="black" d="M640.774,-588.872C613.141,-558.962 554.371,-497.368 498.657,-452.033 428.772,-395.166 338.417,-338.687 293.396,-311.574"/>
</g>
<!-- TicketLocksController -->
<g id="node24" class="node"><title>TicketLocksController</title>
<ellipse fill="none" stroke="black" cx="876.565" cy="-938.743" rx="98.4913" ry="18"/>
<text text-anchor="middle" x="876.565" y="-933.143" font-family="Times,serif" font-size="14.00">TicketLocksController</text>
</g>
<!-- ApplicationController&#45;&gt;TicketLocksController -->
<g id="edge44" class="edge"><title>ApplicationController&#45;&gt;TicketLocksController</title>
<path fill="none" stroke="black" d="M669.048,-624.959C707.449,-683.024 826.133,-862.484 864.481,-920.471"/>
</g>
<!-- TicketTemplatesController -->
<g id="node25" class="node"><title>TicketTemplatesController</title>
<ellipse fill="none" stroke="black" cx="959.864" cy="-1111.91" rx="114.412" ry="18"/>
<text text-anchor="middle" x="959.864" y="-1106.31" font-family="Times,serif" font-size="14.00">TicketTemplatesController</text>
</g>
<!-- ApplicationController&#45;&gt;TicketTemplatesController -->
<g id="edge46" class="edge"><title>ApplicationController&#45;&gt;TicketTemplatesController</title>
<path fill="none" stroke="black" d="M660.352,-624.892C670.81,-677.309 705.985,-831.347 776.304,-938.727 820.349,-1005.98 895.564,-1065.8 934.634,-1094.29"/>
</g>
<!-- TicketsController -->
<g id="node26" class="node"><title>TicketsController</title>
<ellipse fill="none" stroke="black" cx="589.167" cy="-1179.01" rx="78.2299" ry="18"/>
<text text-anchor="middle" x="589.167" y="-1173.41" font-family="Times,serif" font-size="14.00">TicketsController</text>
</g>
<!-- ApplicationController&#45;&gt;TicketsController -->
<g id="edge48" class="edge"><title>ApplicationController&#45;&gt;TicketsController</title>
<path fill="none" stroke="black" d="M660.761,-624.668C670.684,-673.985 695.325,-815.134 678.983,-931.172 666.282,-1021.36 619.055,-1121.09 598.653,-1161.03"/>
</g>
<!-- UsersController -->
<g id="node27" class="node"><title>UsersController</title>
<ellipse fill="none" stroke="black" cx="696.245" cy="-18" rx="72.5828" ry="18"/>
<text text-anchor="middle" x="696.245" y="-12.4" font-family="Times,serif" font-size="14.00">UsersController</text>
</g>
<!-- ApplicationController&#45;&gt;UsersController -->
<g id="edge50" class="edge"><title>ApplicationController&#45;&gt;UsersController</title>
<path fill="none" stroke="black" d="M659.974,-588.383C669.459,-530.279 698.141,-344.275 703.479,-188.96 705.392,-133.292 700.622,-67.4587 697.932,-36.2135"/>
</g>
<!-- WidgetPlacementsController -->
<g id="node28" class="node"><title>WidgetPlacementsController</title>
<ellipse fill="none" stroke="black" cx="1105.98" cy="-958.18" rx="122.129" ry="18"/>
<text text-anchor="middle" x="1105.98" y="-952.58" font-family="Times,serif" font-size="14.00">WidgetPlacementsController</text>
</g>
<!-- ApplicationController&#45;&gt;WidgetPlacementsController -->
<g id="edge52" class="edge"><title>ApplicationController&#45;&gt;WidgetPlacementsController</title>
<path fill="none" stroke="black" d="M679.503,-624.305C756.246,-684.384 1006.55,-880.337 1083.36,-940.47"/>
</g>
<!-- WidgetsController -->
<g id="node29" class="node"><title>WidgetsController</title>
<ellipse fill="none" stroke="black" cx="594.856" cy="-931.015" rx="82.2949" ry="18"/>
<text text-anchor="middle" x="594.856" y="-925.415" font-family="Times,serif" font-size="14.00">WidgetsController</text>
</g>
<!-- ApplicationController&#45;&gt;WidgetsController -->
<g id="edge54" class="edge"><title>ApplicationController&#45;&gt;WidgetsController</title>
<path fill="none" stroke="black" d="M653.412,-625C642.487,-682.095 609.205,-856.027 598.332,-912.847"/>
</g>
</g>
</svg>
