<?xml version="1.0" encoding="UTF-8" standalone="no"?>
<!DOCTYPE svg PUBLIC "-//W3C//DTD SVG 1.1//EN"
 "http://www.w3.org/Graphics/SVG/1.1/DTD/svg11.dtd">
<!-- Generated by graphviz version 2.28.0 (20120503.1651)
 -->
<!-- Title: models_diagram Pages: 1 -->
<svg width="2333pt" height="406pt"
 viewBox="0.00 0.00 2333.00 406.00" xmlns="http://www.w3.org/2000/svg" xmlns:xlink="http://www.w3.org/1999/xlink">
<g id="graph1" class="graph" transform="scale(1 1) rotate(0) translate(4 402)">
<title>models_diagram</title>
<polygon fill="white" stroke="white" points="-4,5 -4,-402 2330,-402 2330,5 -4,5"/>
<!-- _diagram_info -->
<g id="node1" class="node"><title>_diagram_info</title>
<text text-anchor="start" x="468.312" y="-381" font-family="Times,serif" font-size="13.00">Models diagram</text>
<text text-anchor="start" x="468.312" y="-365.4" font-family="Times,serif" font-size="13.00">Date: Oct 09 2012 &#45; 13:44</text>
<text text-anchor="start" x="468.312" y="-349.8" font-family="Times,serif" font-size="13.00">Migration version: 20121009015824</text>
<text text-anchor="start" x="468.312" y="-334.2" font-family="Times,serif" font-size="13.00">Generated by RailRoady 1.1.0</text>
<text text-anchor="start" x="468.312" y="-318.6" font-family="Times,serif" font-size="13.00">http://railroady.prestonlee.com</text>
</g>
<!-- Account -->
<g id="node2" class="node"><title>Account</title>
<ellipse fill="none" stroke="black" cx="729" cy="-355" rx="43.1305" ry="18"/>
<text text-anchor="middle" x="729" y="-349.4" font-family="Times,serif" font-size="14.00">Account</text>
</g>
<!-- Artist -->
<g id="node5" class="node"><title>Artist</title>
<ellipse fill="none" stroke="black" cx="368" cy="-256" rx="33.0501" ry="18"/>
<text text-anchor="middle" x="368" y="-250.4" font-family="Times,serif" font-size="14.00">Artist</text>
</g>
<!-- Account&#45;&gt;Artist -->
<g id="edge4" class="edge"><title>Account&#45;&gt;Artist</title>
<path fill="none" stroke="#205cfc" d="M707.698,-332.433C698.68,-324.633 687.584,-316.617 676,-312 591.861,-278.464 561.517,-313.202 473,-294 448.976,-288.789 422.906,-279.623 402.753,-271.718"/>
<ellipse fill="none" stroke="#205cfc" cx="710.908" cy="-335.339" rx="4.00002" ry="4.00002"/>
<polygon fill="#205cfc" stroke="#205cfc" points="402.653,-271.678 395.042,-263.784 398.011,-269.82 393.369,-267.961 393.369,-267.961 393.369,-267.961 398.011,-269.82 391.697,-272.139 402.653,-271.678 402.653,-271.678"/>
</g>
<!-- Chart -->
<g id="node6" class="node"><title>Chart</title>
<ellipse fill="none" stroke="black" cx="284" cy="-256" rx="32.2368" ry="18"/>
<text text-anchor="middle" x="284" y="-250.4" font-family="Times,serif" font-size="14.00">Chart</text>
</g>
<!-- Account&#45;&gt;Chart -->
<g id="edge6" class="edge"><title>Account&#45;&gt;Chart</title>
<path fill="none" stroke="#8f478f" d="M707.707,-332.411C698.69,-324.608 687.593,-316.596 676,-312 632.047,-294.576 510.972,-299.393 464,-294 402.43,-286.931 385.823,-290.188 326,-274 323.385,-273.292 320.714,-272.468 318.048,-271.57"/>
<ellipse fill="none" stroke="#8f478f" cx="710.917" cy="-335.319" rx="4.00002" ry="4.00002"/>
<polygon fill="#8f478f" stroke="#8f478f" points="317.922,-271.523 310.084,-263.854 313.228,-269.801 308.534,-268.079 308.534,-268.079 308.534,-268.079 313.228,-269.801 306.984,-272.303 317.922,-271.523 317.922,-271.523"/>
</g>
<!-- CustomerImport -->
<g id="node11" class="node"><title>CustomerImport</title>
<ellipse fill="none" stroke="black" cx="766" cy="-256" rx="74.3094" ry="18"/>
<text text-anchor="middle" x="766" y="-250.4" font-family="Times,serif" font-size="14.00">CustomerImport</text>
</g>
<!-- Account&#45;&gt;CustomerImport -->
<g id="edge24" class="edge"><title>Account&#45;&gt;CustomerImport</title>
<path fill="none" stroke="#49e3cb" d="M738.317,-329.574C743.689,-315.492 750.444,-297.782 755.936,-283.383"/>
<ellipse fill="none" stroke="#49e3cb" cx="736.871" cy="-333.367" rx="4.00001" ry="4.00001"/>
<polygon fill="#49e3cb" stroke="#49e3cb" points="755.941,-283.371 763.709,-275.632 757.723,-278.7 759.505,-274.028 759.505,-274.028 759.505,-274.028 757.723,-278.7 755.3,-272.424 755.941,-283.371 755.941,-283.371"/>
</g>
<!-- Event -->
<g id="node12" class="node"><title>Event</title>
<ellipse fill="none" stroke="black" cx="351" cy="-166" rx="33.3419" ry="18"/>
<text text-anchor="middle" x="351" y="-160.4" font-family="Times,serif" font-size="14.00">Event</text>
</g>
<!-- Account&#45;&gt;Event -->
<g id="edge8" class="edge"><title>Account&#45;&gt;Event</title>
<path fill="none" stroke="#65900e" d="M707.649,-332.553C698.624,-324.77 687.537,-316.734 676,-312 607.754,-283.996 572.932,-334.077 511,-294 471.195,-268.242 494.149,-231.46 457,-202 435.852,-185.229 424.615,-192.507 399,-184 395.238,-182.75 391.321,-181.417 387.418,-180.068"/>
<ellipse fill="none" stroke="#65900e" cx="710.861" cy="-335.447" rx="4.00002" ry="4.00002"/>
<polygon fill="#65900e" stroke="#65900e" points="387.285,-180.021 379.332,-172.471 382.565,-178.369 377.846,-176.718 377.846,-176.718 377.846,-176.718 382.565,-178.369 376.36,-180.966 387.285,-180.021 387.285,-180.021"/>
</g>
<!-- Image -->
<g id="node13" class="node"><title>Image</title>
<ellipse fill="none" stroke="black" cx="949" cy="-256" rx="35.2475" ry="18"/>
<text text-anchor="middle" x="949" y="-250.4" font-family="Times,serif" font-size="14.00">Image</text>
</g>
<!-- Account&#45;&gt;Image -->
<g id="edge18" class="edge"><title>Account&#45;&gt;Image</title>
<path fill="none" stroke="#3d0b30" d="M765.177,-338.049C806.408,-319.87 873.337,-290.361 914.05,-272.41"/>
<ellipse fill="none" stroke="#3d0b30" cx="761.421" cy="-339.705" rx="4.00002" ry="4.00002"/>
<polygon fill="#3d0b30" stroke="#3d0b30" points="914.159,-272.362 925.124,-272.445 918.734,-270.345 923.309,-268.327 923.309,-268.327 923.309,-268.327 918.734,-270.345 921.494,-264.21 914.159,-272.362 914.159,-272.362"/>
</g>
<!-- Order -->
<g id="node14" class="node"><title>Order</title>
<ellipse fill="none" stroke="black" cx="475" cy="-166" rx="33.3348" ry="18"/>
<text text-anchor="middle" x="475" y="-160.4" font-family="Times,serif" font-size="14.00">Order</text>
</g>
<!-- Account&#45;&gt;Order -->
<g id="edge12" class="edge"><title>Account&#45;&gt;Order</title>
<path fill="none" stroke="#4e5bc6" d="M704.541,-333.173C695.783,-326.109 685.68,-318.394 676,-312 646.462,-292.49 634.438,-295.081 606,-274 569.392,-246.862 568.98,-229.966 533,-202 524.868,-195.679 515.512,-189.587 506.721,-184.306"/>
<ellipse fill="none" stroke="#4e5bc6" cx="707.851" cy="-335.882" rx="4.00002" ry="4.00002"/>
<polygon fill="#4e5bc6" stroke="#4e5bc6" points="506.476,-184.163 500.108,-175.236 502.158,-181.643 497.839,-179.122 497.839,-179.122 497.839,-179.122 502.158,-181.643 495.571,-183.008 506.476,-184.163 506.476,-184.163"/>
</g>
<!-- Page -->
<g id="node15" class="node"><title>Page</title>
<ellipse fill="none" stroke="black" cx="1281" cy="-166" rx="29.216" ry="18"/>
<text text-anchor="middle" x="1281" y="-160.4" font-family="Times,serif" font-size="14.00">Page</text>
</g>
<!-- Account&#45;&gt;Page -->
<g id="edge14" class="edge"><title>Account&#45;&gt;Page</title>
<path fill="none" stroke="#7d93ae" d="M771.518,-341.845C823.868,-326.713 915.38,-299.713 993,-274 1060.26,-251.718 1076.37,-244.107 1143,-220 1187.03,-204.071 1198.52,-201.362 1242,-184 1244.2,-183.122 1246.46,-182.197 1248.73,-181.251"/>
<ellipse fill="none" stroke="#7d93ae" cx="767.617" cy="-342.971" rx="4.00001" ry="4.00001"/>
<polygon fill="#7d93ae" stroke="#7d93ae" points="1248.8,-181.221 1259.76,-181.448 1253.4,-179.264 1258,-177.307 1258,-177.307 1258,-177.307 1253.4,-179.264 1256.24,-173.166 1248.8,-181.221 1248.8,-181.221"/>
</g>
<!-- Sidebar -->
<g id="node20" class="node"><title>Sidebar</title>
<ellipse fill="none" stroke="black" cx="1357" cy="-256" rx="40.303" ry="18"/>
<text text-anchor="middle" x="1357" y="-250.4" font-family="Times,serif" font-size="14.00">Sidebar</text>
</g>
<!-- Account&#45;&gt;Sidebar -->
<g id="edge16" class="edge"><title>Account&#45;&gt;Sidebar</title>
<path fill="none" stroke="#d099aa" d="M779.4,-350.366C869.201,-343.339 1062.53,-325.718 1223,-294 1254.49,-287.776 1289.43,-278.031 1315.74,-270.105"/>
<ellipse fill="none" stroke="#d099aa" cx="775.285" cy="-350.684" rx="4" ry="4"/>
<polygon fill="#d099aa" stroke="#d099aa" points="1315.8,-270.084 1326.68,-271.471 1320.59,-268.625 1325.37,-267.167 1325.37,-267.167 1325.37,-267.167 1320.59,-268.625 1324.06,-262.863 1315.8,-270.084 1315.8,-270.084"/>
</g>
<!-- Ticket -->
<g id="node21" class="node"><title>Ticket</title>
<ellipse fill="none" stroke="black" cx="327" cy="-18" rx="35.0524" ry="18"/>
<text text-anchor="middle" x="327" y="-12.4" font-family="Times,serif" font-size="14.00">Ticket</text>
</g>
<!-- Account&#45;&gt;Ticket -->
<g id="edge10" class="edge"><title>Account&#45;&gt;Ticket</title>
<path fill="none" stroke="#52a4cf" d="M707.769,-332.25C698.761,-324.425 687.654,-316.439 676,-312 605.577,-285.175 0,-332.359 0,-257 0,-257 0,-257 0,-91 0,-34.0348 191.662,-22.0924 281.518,-19.6236"/>
<ellipse fill="none" stroke="#52a4cf" cx="710.978" cy="-335.173" rx="4.00002" ry="4.00002"/>
<polygon fill="#52a4cf" stroke="#52a4cf" points="281.698,-19.6193 291.806,-23.8714 286.696,-19.496 291.695,-19.3727 291.695,-19.3727 291.695,-19.3727 286.696,-19.496 291.584,-14.8741 281.698,-19.6193 281.698,-19.6193"/>
</g>
<!-- TicketTemplate -->
<g id="node23" class="node"><title>TicketTemplate</title>
<ellipse fill="none" stroke="black" cx="1551" cy="-256" rx="71.2351" ry="18"/>
<text text-anchor="middle" x="1551" y="-250.4" font-family="Times,serif" font-size="14.00">TicketTemplate</text>
</g>
<!-- Account&#45;&gt;TicketTemplate -->
<g id="edge22" class="edge"><title>Account&#45;&gt;TicketTemplate</title>
<path fill="none" stroke="#4d40a2" d="M779.306,-350.014C944.096,-336.944 1457.64,-296.098 1466,-294 1481.88,-290.015 1498.56,-283.355 1512.9,-276.775"/>
<ellipse fill="none" stroke="#4d40a2" cx="775.25" cy="-350.336" rx="4" ry="4"/>
<polygon fill="#4d40a2" stroke="#4d40a2" points="1512.91,-276.77 1523.87,-276.56 1517.43,-274.631 1521.95,-272.492 1521.95,-272.492 1521.95,-272.492 1517.43,-274.631 1520.02,-268.425 1512.91,-276.77 1512.91,-276.77"/>
</g>
<!-- User -->
<g id="node24" class="node"><title>User</title>
<ellipse fill="none" stroke="black" cx="644" cy="-256" rx="28.9087" ry="18"/>
<text text-anchor="middle" x="644" y="-250.4" font-family="Times,serif" font-size="14.00">User</text>
</g>
<!-- Account&#45;&gt;User -->
<g id="edge2" class="edge"><title>Account&#45;&gt;User</title>
<path fill="none" stroke="#2924b9" d="M709.008,-331.186C695.449,-315.712 677.592,-295.335 664.026,-279.853"/>
<ellipse fill="none" stroke="#2924b9" cx="711.945" cy="-334.537" rx="4.00002" ry="4.00002"/>
<polygon fill="#2924b9" stroke="#2924b9" points="663.958,-279.776 660.752,-269.289 660.663,-276.015 657.367,-272.255 657.367,-272.255 657.367,-272.255 660.663,-276.015 653.983,-275.22 663.958,-279.776 663.958,-279.776"/>
</g>
<!-- Widget -->
<g id="node25" class="node"><title>Widget</title>
<ellipse fill="none" stroke="black" cx="1469" cy="-166" rx="39.1177" ry="18"/>
<text text-anchor="middle" x="1469" y="-160.4" font-family="Times,serif" font-size="14.00">Widget</text>
</g>
<!-- Account&#45;&gt;Widget -->
<g id="edge20" class="edge"><title>Account&#45;&gt;Widget</title>
<path fill="none" stroke="#742694" d="M779.533,-350.618C927.666,-340.346 1353.72,-308.123 1406,-274 1434.56,-255.361 1451.88,-218.895 1460.95,-193.755"/>
<ellipse fill="none" stroke="#742694" cx="775.424" cy="-350.901" rx="4" ry="4"/>
<polygon fill="#742694" stroke="#742694" points="1461.01,-193.553 1468.49,-185.532 1462.62,-188.819 1464.23,-184.085 1464.23,-184.085 1464.23,-184.085 1462.62,-188.819 1459.97,-182.637 1461.01,-193.553 1461.01,-193.553"/>
</g>
<!-- Category -->
<g id="node40" class="node"><title>Category</title>
<ellipse fill="none" stroke="black" cx="401" cy="-92" rx="46.1519" ry="18"/>
<text text-anchor="middle" x="401" y="-86.4" font-family="Times,serif" font-size="14.00">Category</text>
</g>
<!-- Account&#45;&gt;Category -->
<g id="edge26" class="edge"><title>Account&#45;&gt;Category</title>
<path fill="none" stroke="#a0a9fe" d="M705.778,-332.806C696.922,-325.499 686.439,-317.721 676,-312 630.642,-287.14 611.092,-299.34 566,-274 522.245,-249.411 522.342,-227.31 479,-202 459.684,-190.72 447.518,-200.11 432,-184 415.413,-166.78 407.682,-140.337 404.09,-120.385"/>
<ellipse fill="none" stroke="#a0a9fe" cx="708.863" cy="-335.422" rx="4.00002" ry="4.00002"/>
<polygon fill="#a0a9fe" stroke="#a0a9fe" points="404.066,-120.229 406.974,-109.655 403.297,-115.288 402.527,-110.348 402.527,-110.348 402.527,-110.348 403.297,-115.288 398.081,-111.04 404.066,-120.229 404.066,-120.229"/>
</g>
<!-- PaymentGateway -->
<g id="node42" class="node"><title>PaymentGateway</title>
<ellipse fill="none" stroke="black" cx="1719" cy="-256" rx="79.2238" ry="18"/>
<text text-anchor="middle" x="1719" y="-250.4" font-family="Times,serif" font-size="14.00">PaymentGateway</text>
</g>
<!-- Account&#45;&gt;PaymentGateway -->
<g id="edge28" class="edge"><title>Account&#45;&gt;PaymentGateway</title>
<path fill="none" stroke="#08803a" d="M779.268,-350.043C945.27,-336.971 1466.42,-295.893 1484,-294 1549.56,-286.941 1565.94,-284.702 1631,-274 1638.33,-272.794 1645.98,-271.447 1653.59,-270.054"/>
<ellipse fill="none" stroke="#08803a" cx="775.156" cy="-350.367" rx="4" ry="4"/>
<ellipse fill="#08803a" stroke="#08803a" cx="1657.87" cy="-269.258" rx="4.00001" ry="4.00001"/>
</g>
<!-- Address -->
<g id="node3" class="node"><title>Address</title>
<ellipse fill="none" stroke="black" cx="569" cy="-166" rx="42.5278" ry="18"/>
<text text-anchor="middle" x="569" y="-160.4" font-family="Times,serif" font-size="14.00">Address</text>
</g>
<!-- Address&#45;&gt;User -->
<g id="edge30" class="edge"><title>Address&#45;&gt;User</title>
<path fill="none" stroke="#f79751" d="M595.842,-188.039C600,-192.637 604.143,-197.479 608,-202 616.321,-211.754 625.484,-222.538 632.715,-231.818"/>
<ellipse fill="none" stroke="#f79751" cx="592.915" cy="-184.9" rx="4.00002" ry="4.00002"/>
<ellipse fill="#f79751" stroke="#f79751" cx="635.186" cy="-235.084" rx="4.00002" ry="4.00002"/>
</g>
<!-- Area -->
<g id="node4" class="node"><title>Area</title>
<ellipse fill="none" stroke="black" cx="221" cy="-92" rx="29.2021" ry="18"/>
<text text-anchor="middle" x="221" y="-86.4" font-family="Times,serif" font-size="14.00">Area</text>
</g>
<!-- Area&#45;&gt;Ticket -->
<g id="edge32" class="edge"><title>Area&#45;&gt;Ticket</title>
<path fill="none" stroke="#a8d735" d="M246.944,-73.3776C262.496,-62.8141 282.295,-49.366 298.311,-38.4865"/>
<ellipse fill="none" stroke="#a8d735" cx="243.26" cy="-75.8803" rx="4.00002" ry="4.00002"/>
<polygon fill="#a8d735" stroke="#a8d735" points="298.498,-38.3602 309.298,-36.4638 302.634,-35.5508 306.77,-32.7413 306.77,-32.7413 306.77,-32.7413 302.634,-35.5508 304.241,-29.0188 298.498,-38.3602 298.498,-38.3602"/>
</g>
<!-- Artist&#45;&gt;Event -->
<g id="edge38" class="edge"><title>Artist&#45;&gt;Event</title>
<path fill="none" stroke="#8e5723" d="M362.816,-228.167C360.707,-217.249 358.275,-204.659 356.168,-193.75"/>
<polygon fill="#8e5723" stroke="#8e5723" points="362.825,-228.214 360.304,-238.886 363.774,-233.123 364.722,-238.033 364.722,-238.033 364.722,-238.033 363.774,-233.123 369.141,-237.179 362.825,-228.214 362.825,-228.214"/>
<polygon fill="#8e5723" stroke="#8e5723" points="356.165,-193.734 358.686,-183.062 355.216,-188.824 354.268,-183.915 354.268,-183.915 354.268,-183.915 355.216,-188.824 349.849,-184.769 356.165,-193.734 356.165,-193.734"/>
</g>
<!-- Events -->
<g id="node46" class="node"><title>Events</title>
<ellipse fill="none" stroke="black" cx="212" cy="-166" rx="36.9811" ry="18"/>
<text text-anchor="middle" x="212" y="-160.4" font-family="Times,serif" font-size="14.00">Events</text>
</g>
<!-- Artist&#45;&gt;Events -->
<g id="edge34" class="edge"><title>Artist&#45;&gt;Events</title>
<path fill="none" stroke="#b47b55" d="M336,-240.23C323.514,-234.237 309.175,-227.069 296.469,-220 277.832,-209.632 257.572,-196.969 241.567,-186.622"/>
<ellipse fill="none" stroke="#b47b55" cx="339.891" cy="-242.08" rx="4.00002" ry="4.00002"/>
<polygon fill="#b47b55" stroke="#b47b55" points="241.53,-186.598 235.606,-177.37 237.34,-183.869 233.15,-181.14 233.15,-181.14 233.15,-181.14 237.34,-183.869 230.694,-184.911 241.53,-186.598 241.53,-186.598"/>
<text text-anchor="middle" x="325.766" y="-205.4" font-family="Times,serif" font-size="14.00">headliners</text>
</g>
<!-- Artist&#45;&gt;Events -->
<g id="edge36" class="edge"><title>Artist&#45;&gt;Events</title>
<path fill="none" stroke="#2a8187" d="M335.696,-241.132C332.131,-239.932 328.518,-238.852 325,-238 285.655,-228.466 170.892,-250.007 143.717,-220 129.878,-204.72 150.555,-190.577 172.688,-180.751"/>
<ellipse fill="none" stroke="#2a8187" cx="339.608" cy="-242.549" rx="4.00001" ry="4.00001"/>
<polygon fill="#2a8187" stroke="#2a8187" points="172.932,-180.65 183.893,-180.969 177.55,-178.731 182.167,-176.813 182.167,-176.813 182.167,-176.813 177.55,-178.731 180.441,-172.657 172.932,-180.65 172.932,-180.65"/>
<text text-anchor="middle" x="204.642" y="-205.4" font-family="Times,serif" font-size="14.00">secondary_headliners</text>
</g>
<!-- Chart&#45;&gt;Event -->
<g id="edge42" class="edge"><title>Chart&#45;&gt;Event</title>
<path fill="none" stroke="#6f1627" d="M301.873,-232.935C305.267,-228.668 308.767,-224.213 312,-220 319.5,-210.228 327.601,-199.285 334.466,-189.891"/>
<ellipse fill="none" stroke="#6f1627" cx="299.179" cy="-236.302" rx="4.00002" ry="4.00002"/>
<ellipse fill="#6f1627" stroke="#6f1627" cx="336.865" cy="-186.597" rx="4.00002" ry="4.00002"/>
</g>
<!-- Section -->
<g id="node19" class="node"><title>Section</title>
<ellipse fill="none" stroke="black" cx="76" cy="-166" rx="40.0039" ry="18"/>
<text text-anchor="middle" x="76" y="-160.4" font-family="Times,serif" font-size="14.00">Section</text>
</g>
<!-- Chart&#45;&gt;Section -->
<g id="edge40" class="edge"><title>Chart&#45;&gt;Section</title>
<path fill="none" stroke="#57bc34" d="M244.439,-250.983C213.529,-246.614 170.22,-237.723 136,-220 121.699,-212.593 108.052,-201.033 97.396,-190.597"/>
<ellipse fill="none" stroke="#57bc34" cx="248.449" cy="-251.519" rx="4.00001" ry="4.00001"/>
<polygon fill="#57bc34" stroke="#57bc34" points="97.2076,-190.405 93.4093,-180.118 93.7035,-186.838 90.1993,-183.272 90.1993,-183.272 90.1993,-183.272 93.7035,-186.838 86.9893,-186.426 97.2076,-190.405 97.2076,-190.405"/>
</g>
<!-- Checkin -->
<g id="node7" class="node"><title>Checkin</title>
<ellipse fill="none" stroke="black" cx="1314" cy="-355" rx="43.3283" ry="18"/>
<text text-anchor="middle" x="1314" y="-349.4" font-family="Times,serif" font-size="14.00">Checkin</text>
</g>
<!-- Ckeditor::Asset -->
<g id="node8" class="node"><title>Ckeditor::Asset</title>
<ellipse fill="none" stroke="black" cx="2029" cy="-355" rx="71.4843" ry="18"/>
<text text-anchor="middle" x="2029" y="-349.4" font-family="Times,serif" font-size="14.00">Ckeditor::Asset</text>
</g>
<!-- Ckeditor::AttachmentFile -->
<g id="node9" class="node"><title>Ckeditor::AttachmentFile</title>
<ellipse fill="none" stroke="black" cx="1926" cy="-256" rx="109.906" ry="18"/>
<text text-anchor="middle" x="1926" y="-250.4" font-family="Times,serif" font-size="14.00">Ckeditor::AttachmentFile</text>
</g>
<!-- Ckeditor::Asset&#45;&gt;Ckeditor::AttachmentFile -->
<g id="edge44" class="edge"><title>Ckeditor::Asset&#45;&gt;Ckeditor::AttachmentFile</title>
<path fill="none" stroke="black" d="M2011.53,-337.545C1992.7,-319.816 1962.9,-291.747 1943.9,-273.861"/>
</g>
<!-- Ckeditor::Picture -->
<g id="node10" class="node"><title>Ckeditor::Picture</title>
<ellipse fill="none" stroke="black" cx="2132" cy="-256" rx="77.3258" ry="18"/>
<text text-anchor="middle" x="2132" y="-250.4" font-family="Times,serif" font-size="14.00">Ckeditor::Picture</text>
</g>
<!-- Ckeditor::Asset&#45;&gt;Ckeditor::Picture -->
<g id="edge46" class="edge"><title>Ckeditor::Asset&#45;&gt;Ckeditor::Picture</title>
<path fill="none" stroke="black" d="M2046.47,-337.545C2065.41,-319.708 2095.47,-291.404 2114.44,-273.535"/>
</g>
<!-- Event&#45;&gt;Artist -->
<g id="edge50" class="edge"><title>Event&#45;&gt;Artist</title>
<path fill="none" stroke="#ed71b0" d="M359.969,-193.709C360.73,-196.489 361.426,-199.289 362,-202 363.753,-210.281 365.019,-219.405 365.923,-227.715"/>
<polygon fill="#ed71b0" stroke="#ed71b0" points="359.905,-193.495 361.346,-182.624 358.47,-188.705 357.035,-183.916 357.035,-183.916 357.035,-183.916 358.47,-188.705 352.725,-185.207 359.905,-193.495 359.905,-193.495"/>
<polygon fill="#ed71b0" stroke="#ed71b0" points="365.924,-227.726 362.403,-238.111 366.403,-232.703 366.882,-237.68 366.882,-237.68 366.882,-237.68 366.403,-232.703 371.362,-237.249 365.924,-227.726 365.924,-227.726"/>
<text text-anchor="middle" x="409.328" y="-205.4" font-family="Times,serif" font-size="14.00">supporting_acts</text>
</g>
<!-- Event&#45;&gt;Ticket -->
<g id="edge48" class="edge"><title>Event&#45;&gt;Ticket</title>
<path fill="none" stroke="#a245f6" d="M346.857,-139.8C342.569,-113.712 335.891,-73.0897 331.482,-46.2647"/>
<ellipse fill="none" stroke="#a245f6" cx="347.551" cy="-144.019" rx="4.00001" ry="4.00001"/>
<polygon fill="#a245f6" stroke="#a245f6" points="331.479,-46.2454 334.297,-35.6479 330.668,-41.3116 329.857,-36.3779 329.857,-36.3779 329.857,-36.3779 330.668,-41.3116 325.416,-37.1078 331.479,-46.2454 331.479,-46.2454"/>
</g>
<!-- Event&#45;&gt;Category -->
<g id="edge52" class="edge"><title>Event&#45;&gt;Category</title>
<path fill="none" stroke="#255fdf" d="M366.715,-142.37C372.113,-134.597 378.185,-125.853 383.702,-117.909"/>
<ellipse fill="none" stroke="#255fdf" cx="364.378" cy="-145.735" rx="4.00002" ry="4.00002"/>
<polygon fill="#255fdf" stroke="#255fdf" points="383.709,-117.899 393.109,-112.252 386.561,-113.792 389.413,-109.685 389.413,-109.685 389.413,-109.685 386.561,-113.792 385.717,-107.118 383.709,-117.899 383.709,-117.899"/>
</g>
<!-- ActsAsTaggableOn::Tagging -->
<g id="node57" class="node"><title>ActsAsTaggableOn::Tagging</title>
<ellipse fill="none" stroke="black" cx="879" cy="-166" rx="123.097" ry="18"/>
<text text-anchor="middle" x="879" y="-160.4" font-family="Times,serif" font-size="14.00">ActsAsTaggableOn::Tagging</text>
</g>
<!-- Image&#45;&gt;ActsAsTaggableOn::Tagging -->
<g id="edge54" class="edge"><title>Image&#45;&gt;ActsAsTaggableOn::Tagging</title>
<path fill="none" stroke="#260fa8" d="M910.492,-244.381C898.504,-239.076 886.595,-231.292 879.559,-220 874.853,-212.449 873.623,-203.041 873.913,-194.257"/>
<ellipse fill="none" stroke="#260fa8" cx="914.212" cy="-245.879" rx="4.00002" ry="4.00002"/>
<polygon fill="#260fa8" stroke="#260fa8" points="873.94,-193.972 879.37,-184.445 874.415,-188.995 874.891,-184.017 874.891,-184.017 874.891,-184.017 874.415,-188.995 870.411,-183.59 873.94,-193.972 873.94,-193.972"/>
<text text-anchor="middle" x="903.721" y="-205.4" font-family="Times,serif" font-size="14.00">taggings</text>
</g>
<!-- Image&#45;&gt;ActsAsTaggableOn::Tagging -->
<g id="edge58" class="edge"><title>Image&#45;&gt;ActsAsTaggableOn::Tagging</title>
<path fill="none" stroke="#cb5853" d="M941.946,-230.347C938.452,-220.859 933.549,-210.316 927,-202 923.57,-197.645 919.465,-193.576 915.118,-189.864"/>
<ellipse fill="none" stroke="#cb5853" cx="943.265" cy="-234.212" rx="4.00001" ry="4.00001"/>
<polygon fill="#cb5853" stroke="#cb5853" points="914.991,-189.765 909.909,-180.048 911.06,-186.675 907.129,-183.586 907.129,-183.586 907.129,-183.586 911.06,-186.675 904.348,-187.124 914.991,-189.765 914.991,-189.765"/>
<text text-anchor="middle" x="973.772" y="-205.4" font-family="Times,serif" font-size="14.00">tag_taggings</text>
</g>
<!-- ActsAsTaggableOn::Tag -->
<g id="node59" class="node"><title>ActsAsTaggableOn::Tag</title>
<ellipse fill="none" stroke="black" cx="1127" cy="-166" rx="106.344" ry="18"/>
<text text-anchor="middle" x="1127" y="-160.4" font-family="Times,serif" font-size="14.00">ActsAsTaggableOn::Tag</text>
</g>
<!-- Image&#45;&gt;ActsAsTaggableOn::Tag -->
<g id="edge56" class="edge"><title>Image&#45;&gt;ActsAsTaggableOn::Tag</title>
<path fill="none" stroke="#b177b9" d="M981.1,-237.185C1000.47,-226.619 1025.74,-213.155 1048.57,-202 1058.73,-197.039 1069.74,-191.948 1080.22,-187.238"/>
<polygon fill="#b177b9" stroke="#b177b9" points="980.872,-237.311 969.94,-238.17 976.487,-239.714 972.102,-242.117 972.102,-242.117 972.102,-242.117 976.487,-239.714 974.265,-246.063 980.872,-237.311 980.872,-237.311"/>
<polygon fill="#b177b9" stroke="#b177b9" points="1080.52,-187.105 1091.48,-187.145 1085.09,-185.07 1089.65,-183.034 1089.65,-183.034 1089.65,-183.034 1085.09,-185.07 1087.82,-178.924 1080.52,-187.105 1080.52,-187.105"/>
<text text-anchor="middle" x="1076.21" y="-205.4" font-family="Times,serif" font-size="14.00">base_tags</text>
</g>
<!-- Image&#45;&gt;ActsAsTaggableOn::Tag -->
<g id="edge60" class="edge"><title>Image&#45;&gt;ActsAsTaggableOn::Tag</title>
<path fill="none" stroke="#922ea1" d="M994.757,-255.054C1028.12,-252.81 1072.62,-244.795 1103,-220 1111.19,-213.316 1116.69,-203.24 1120.34,-193.663"/>
<polygon fill="#922ea1" stroke="#922ea1" points="994.335,-255.076 984.116,-251.1 989.342,-255.335 984.349,-255.594 984.349,-255.594 984.349,-255.594 989.342,-255.335 984.582,-260.088 994.335,-255.076 994.335,-255.076"/>
<polygon fill="#922ea1" stroke="#922ea1" points="1120.38,-193.527 1127.78,-185.428 1121.94,-188.776 1123.5,-184.025 1123.5,-184.025 1123.5,-184.025 1121.94,-188.776 1119.23,-182.622 1120.38,-193.527 1120.38,-193.527"/>
<text text-anchor="middle" x="1128.28" y="-205.4" font-family="Times,serif" font-size="14.00">tags</text>
</g>
<!-- Order&#45;&gt;Ticket -->
<g id="edge62" class="edge"><title>Order&#45;&gt;Ticket</title>
<path fill="none" stroke="#464f44" d="M475.793,-139.889C475.123,-119.953 471.133,-92.455 456,-74 434.596,-47.8966 398.536,-33.9352 369.974,-26.6204"/>
<ellipse fill="none" stroke="#464f44" cx="475.847" cy="-143.922" rx="4" ry="4"/>
<polygon fill="#464f44" stroke="#464f44" points="369.95,-26.6147 361.262,-19.9234 365.085,-25.458 360.221,-24.3013 360.221,-24.3013 360.221,-24.3013 365.085,-25.458 359.18,-28.6793 369.95,-26.6147 369.95,-26.6147"/>
</g>
<!-- Page&#45;&gt;Page -->
<g id="edge64" class="edge"><title>Page&#45;&gt;Page</title>
<path fill="none" stroke="#be63c3" d="M1316.91,-172.373C1323.43,-171.561 1328,-169.437 1328,-166 1328,-162.862 1324.19,-160.819 1318.57,-159.869"/>
<ellipse fill="none" stroke="#be63c3" cx="1312.51" cy="-172.557" rx="4" ry="4"/>
<polygon fill="#be63c3" stroke="#be63c3" points="1318.5,-159.865 1308.78,-154.784 1313.51,-159.571 1308.52,-159.276 1308.52,-159.276 1308.52,-159.276 1313.51,-159.571 1308.25,-163.769 1318.5,-159.865 1318.5,-159.865"/>
<text text-anchor="middle" x="1350.93" y="-160.4" font-family="Times,serif" font-size="14.00">children</text>
</g>
<!-- PaymentMethod -->
<g id="node16" class="node"><title>PaymentMethod</title>
<polygon fill="none" stroke="black" points="2226.91,-373 2119.09,-373 2119.09,-337 2226.91,-337 2226.91,-373"/>
<text text-anchor="middle" x="2173" y="-349.4" font-family="Times,serif" font-size="14.00">PaymentMethod</text>
</g>
<!-- Phone -->
<g id="node17" class="node"><title>Phone</title>
<ellipse fill="none" stroke="black" cx="665" cy="-166" rx="35.2688" ry="18"/>
<text text-anchor="middle" x="665" y="-160.4" font-family="Times,serif" font-size="14.00">Phone</text>
</g>
<!-- Phone&#45;&gt;User -->
<g id="edge66" class="edge"><title>Phone&#45;&gt;User</title>
<path fill="none" stroke="#230a65" d="M665.146,-192.259C663.029,-204.473 659.518,-219.057 655.787,-231.088"/>
<ellipse fill="none" stroke="#230a65" cx="665.768" cy="-188.196" rx="4.00001" ry="4.00001"/>
<ellipse fill="#230a65" stroke="#230a65" cx="654.472" cy="-235.062" rx="4.00001" ry="4.00001"/>
</g>
<!-- Price -->
<g id="node18" class="node"><title>Price</title>
<ellipse fill="none" stroke="black" cx="59" cy="-256" rx="30.32" ry="18"/>
<text text-anchor="middle" x="59" y="-250.4" font-family="Times,serif" font-size="14.00">Price</text>
</g>
<!-- Price&#45;&gt;Section -->
<g id="edge68" class="edge"><title>Price&#45;&gt;Section</title>
<path fill="none" stroke="#6e3aa7" d="M60.8732,-229.638C61.7868,-220.83 63.1106,-210.925 65,-202 65.7123,-198.635 66.6136,-195.132 67.5924,-191.7"/>
<ellipse fill="none" stroke="#6e3aa7" cx="60.4919" cy="-233.698" rx="4" ry="4"/>
<ellipse fill="#6e3aa7" stroke="#6e3aa7" cx="68.7985" cy="-187.742" rx="4.00001" ry="4.00001"/>
</g>
<!-- Section&#45;&gt;Area -->
<g id="edge70" class="edge"><title>Section&#45;&gt;Area</title>
<path fill="none" stroke="#74cc72" d="M109.345,-148.442C133.418,-136.489 165.718,-120.451 189.383,-108.699"/>
<ellipse fill="none" stroke="#74cc72" cx="105.506" cy="-150.349" rx="4.00002" ry="4.00002"/>
<polygon fill="#74cc72" stroke="#74cc72" points="189.673,-108.556 200.631,-108.139 194.151,-106.332 198.629,-104.108 198.629,-104.108 198.629,-104.108 194.151,-106.332 196.628,-100.078 189.673,-108.556 189.673,-108.556"/>
</g>
<!-- Sidebar&#45;&gt;Page -->
<g id="edge76" class="edge"><title>Sidebar&#45;&gt;Page</title>
<path fill="none" stroke="#5ea2ce" d="M1337.51,-232.428C1326.22,-219.358 1312.05,-202.951 1300.72,-189.837"/>
<ellipse fill="none" stroke="#5ea2ce" cx="1340.45" cy="-235.832" rx="4.00002" ry="4.00002"/>
<polygon fill="#5ea2ce" stroke="#5ea2ce" points="1300.63,-189.724 1297.49,-179.215 1297.36,-185.94 1294.09,-182.156 1294.09,-182.156 1294.09,-182.156 1297.36,-185.94 1290.68,-185.097 1300.63,-189.724 1300.63,-189.724"/>
</g>
<!-- Sidebar&#45;&gt;Widget -->
<g id="edge74" class="edge"><title>Sidebar&#45;&gt;Widget</title>
<path fill="none" stroke="#5411e9" d="M1389.75,-236.059C1397.57,-231.122 1405.75,-225.605 1413,-220 1424.81,-210.865 1436.97,-199.626 1446.92,-189.852"/>
<polygon fill="#5411e9" stroke="#5411e9" points="1389.65,-236.119 1378.77,-237.528 1385.39,-238.74 1381.13,-241.361 1381.13,-241.361 1381.13,-241.361 1385.39,-238.74 1383.49,-245.193 1389.65,-236.119 1389.65,-236.119"/>
<polygon fill="#5411e9" stroke="#5411e9" points="1446.98,-189.789 1457.24,-185.907 1450.52,-186.256 1454.06,-182.723 1454.06,-182.723 1454.06,-182.723 1450.52,-186.256 1450.88,-179.539 1446.98,-189.789 1446.98,-189.789"/>
</g>
<!-- WidgetPlacement -->
<g id="node26" class="node"><title>WidgetPlacement</title>
<ellipse fill="none" stroke="black" cx="1425" cy="-92" rx="78.9508" ry="18"/>
<text text-anchor="middle" x="1425" y="-86.4" font-family="Times,serif" font-size="14.00">WidgetPlacement</text>
</g>
<!-- Sidebar&#45;&gt;WidgetPlacement -->
<g id="edge72" class="edge"><title>Sidebar&#45;&gt;WidgetPlacement</title>
<path fill="none" stroke="#d1d6ee" d="M1367.14,-230.851C1379.64,-201.058 1400.84,-150.568 1413.81,-119.663"/>
<ellipse fill="none" stroke="#d1d6ee" cx="1365.57" cy="-234.585" rx="4.00002" ry="4.00002"/>
<polygon fill="#d1d6ee" stroke="#d1d6ee" points="1413.84,-119.589 1421.86,-112.11 1415.77,-114.978 1417.71,-110.368 1417.71,-110.368 1417.71,-110.368 1415.77,-114.978 1413.56,-108.626 1413.84,-119.589 1413.84,-119.589"/>
</g>
<!-- TicketLock -->
<g id="node22" class="node"><title>TicketLock</title>
<polygon fill="none" stroke="black" points="2325.03,-373 2244.97,-373 2244.97,-337 2325.03,-337 2325.03,-373"/>
<text text-anchor="middle" x="2285" y="-349.4" font-family="Times,serif" font-size="14.00">TicketLock</text>
</g>
<!-- User&#45;&gt;Address -->
<g id="edge80" class="edge"><title>User&#45;&gt;Address</title>
<path fill="none" stroke="#f36d72" d="M619.881,-235.986C610.324,-225.881 599.602,-213.255 590,-202 587.273,-198.804 584.403,-195.446 581.641,-192.128"/>
<ellipse fill="none" stroke="#f36d72" cx="622.869" cy="-239.052" rx="4.00002" ry="4.00002"/>
<polygon fill="#f36d72" stroke="#f36d72" points="581.421,-191.857 578.64,-181.249 578.28,-187.966 575.139,-184.076 575.139,-184.076 575.139,-184.076 578.28,-187.966 571.638,-186.903 581.421,-191.857 581.421,-191.857"/>
</g>
<!-- User&#45;&gt;Order -->
<g id="edge78" class="edge"><title>User&#45;&gt;Order</title>
<path fill="none" stroke="#79b539" d="M620.789,-236.066C604.394,-222.958 583.684,-207.004 574,-202 550.399,-189.804 541.999,-192.991 517,-184 514.752,-183.191 512.445,-182.335 510.127,-181.454"/>
<ellipse fill="none" stroke="#79b539" cx="623.937" cy="-238.597" rx="4.00002" ry="4.00002"/>
<polygon fill="#79b539" stroke="#79b539" points="509.958,-181.388 502.279,-173.56 505.3,-179.57 500.642,-177.752 500.642,-177.752 500.642,-177.752 505.3,-179.57 499.006,-181.944 509.958,-181.388 509.958,-181.388"/>
</g>
<!-- User&#45;&gt;Phone -->
<g id="edge82" class="edge"><title>User&#45;&gt;Phone</title>
<path fill="none" stroke="#07939b" d="M643.922,-229.351C645.906,-218.015 649.07,-204.697 652.489,-193.288"/>
<ellipse fill="none" stroke="#07939b" cx="643.256" cy="-233.661" rx="4.00001" ry="4.00001"/>
<polygon fill="#07939b" stroke="#07939b" points="652.591,-192.971 659.953,-184.843 654.132,-188.214 655.672,-183.457 655.672,-183.457 655.672,-183.457 654.132,-188.214 651.391,-182.07 652.591,-192.971 652.591,-192.971"/>
</g>
<!-- User&#45;&gt;Ticket -->
<g id="edge84" class="edge"><title>User&#45;&gt;Ticket</title>
<path fill="none" stroke="#9eec64" d="M670.205,-235.518C696.293,-213.697 729.689,-177.518 709,-148 631.944,-38.0595 455.929,-20.4462 372.489,-18.5266"/>
<polygon fill="#9eec64" stroke="#9eec64" points="670.194,-235.527 659.585,-238.304 666.302,-238.666 662.411,-241.806 662.411,-241.806 662.411,-241.806 666.302,-238.666 665.237,-245.308 670.194,-235.527 670.194,-235.527"/>
<polygon fill="#9eec64" stroke="#9eec64" points="372.304,-18.5237 362.379,-13.861 367.305,-18.4421 362.306,-18.3604 362.306,-18.3604 362.306,-18.3604 367.305,-18.4421 362.232,-22.8598 372.304,-18.5237 372.304,-18.5237"/>
</g>
<!-- Widget&#45;&gt;WidgetPlacement -->
<g id="edge86" class="edge"><title>Widget&#45;&gt;WidgetPlacement</title>
<path fill="none" stroke="#dbef56" d="M1454.46,-141.213C1450.09,-134.064 1445.28,-126.187 1440.83,-118.908"/>
<ellipse fill="none" stroke="#dbef56" cx="1456.71" cy="-144.888" rx="4.00002" ry="4.00002"/>
<polygon fill="#dbef56" stroke="#dbef56" points="1440.67,-118.641 1439.3,-107.762 1438.06,-114.375 1435.46,-110.109 1435.46,-110.109 1435.46,-110.109 1438.06,-114.375 1431.62,-112.455 1440.67,-118.641 1440.67,-118.641"/>
</g>
</g>
</svg>
