<?xml version="1.0" encoding="UTF-8" standalone="no"?>
<!DOCTYPE svg PUBLIC "-//W3C//DTD SVG 1.1//EN"
 "http://www.w3.org/Graphics/SVG/1.1/DTD/svg11.dtd">
<!-- Generated by graphviz version 2.28.0 (20120503.1651)
 -->
<!-- Title: models_diagram Pages: 1 -->
<svg width="1557pt" height="332pt"
 viewBox="0.00 0.00 1556.59 332.00" xmlns="http://www.w3.org/2000/svg" xmlns:xlink="http://www.w3.org/1999/xlink">
<g id="graph1" class="graph" transform="scale(1 1) rotate(0) translate(4 328)">
<title>models_diagram</title>
<polygon fill="white" stroke="white" points="-4,5 -4,-328 1553.59,-328 1553.59,5 -4,5"/>
<!-- _diagram_info -->
<g id="node1" class="node"><title>_diagram_info</title>
<text text-anchor="start" x="239.899" y="-307" font-family="Times,serif" font-size="13.00">Models diagram</text>
<text text-anchor="start" x="239.899" y="-291.4" font-family="Times,serif" font-size="13.00">Date: Sep 18 2012 &#45; 17:51</text>
<text text-anchor="start" x="239.899" y="-275.8" font-family="Times,serif" font-size="13.00">Migration version: 20120918012421</text>
<text text-anchor="start" x="239.899" y="-260.2" font-family="Times,serif" font-size="13.00">Generated by RailRoady 1.1.0</text>
<text text-anchor="start" x="239.899" y="-244.6" font-family="Times,serif" font-size="13.00">http://railroady.prestonlee.com</text>
</g>
<!-- Account -->
<g id="node2" class="node"><title>Account</title>
<ellipse fill="none" stroke="black" cx="500.587" cy="-281" rx="43.1305" ry="18"/>
<text text-anchor="middle" x="500.587" y="-275.4" font-family="Times,serif" font-size="14.00">Account</text>
</g>
<!-- Artist -->
<g id="node5" class="node"><title>Artist</title>
<ellipse fill="none" stroke="black" cx="82.5866" cy="-182" rx="33.0501" ry="18"/>
<text text-anchor="middle" x="82.5866" y="-176.4" font-family="Times,serif" font-size="14.00">Artist</text>
</g>
<!-- Account&#45;&gt;Artist -->
<g id="edge4" class="edge"><title>Account&#45;&gt;Artist</title>
<path fill="none" stroke="#47056e" d="M479.318,-258.347C470.305,-250.535 459.204,-242.533 447.587,-238 346.699,-198.634 311.05,-239.836 204.587,-220 175.267,-214.537 143.011,-204.574 119.034,-196.362"/>
<ellipse fill="none" stroke="#47056e" cx="482.528" cy="-261.261" rx="4.00002" ry="4.00002"/>
<polygon fill="#47056e" stroke="#47056e" points="118.74,-196.259 110.779,-188.718 114.019,-194.613 109.298,-192.968 109.298,-192.968 109.298,-192.968 114.019,-194.613 107.816,-197.217 118.74,-196.259 118.74,-196.259"/>
</g>
<!-- Chart -->
<g id="node6" class="node"><title>Chart</title>
<ellipse fill="none" stroke="black" cx="701.587" cy="-182" rx="32.2368" ry="18"/>
<text text-anchor="middle" x="701.587" y="-176.4" font-family="Times,serif" font-size="14.00">Chart</text>
</g>
<!-- Account&#45;&gt;Chart -->
<g id="edge6" class="edge"><title>Account&#45;&gt;Chart</title>
<path fill="none" stroke="#2423fc" d="M534.995,-263.395C572.446,-245.321 631.897,-216.631 668.728,-198.857"/>
<ellipse fill="none" stroke="#2423fc" cx="531.297" cy="-265.18" rx="4.00002" ry="4.00002"/>
<polygon fill="#2423fc" stroke="#2423fc" points="669.022,-198.715 679.984,-198.422 673.525,-196.542 678.028,-194.369 678.028,-194.369 678.028,-194.369 673.525,-196.542 676.072,-190.316 669.022,-198.715 669.022,-198.715"/>
</g>
<!-- CustomerImport -->
<g id="node11" class="node"><title>CustomerImport</title>
<ellipse fill="none" stroke="black" cx="321.587" cy="-182" rx="74.3094" ry="18"/>
<text text-anchor="middle" x="321.587" y="-176.4" font-family="Times,serif" font-size="14.00">CustomerImport</text>
</g>
<!-- Account&#45;&gt;CustomerImport -->
<g id="edge18" class="edge"><title>Account&#45;&gt;CustomerImport</title>
<path fill="none" stroke="#171c20" d="M477.108,-259.252C468.226,-251.991 457.791,-244.129 447.587,-238 423.488,-223.527 394.895,-210.73 371.044,-201.13"/>
<ellipse fill="none" stroke="#171c20" cx="480.205" cy="-261.837" rx="4.00002" ry="4.00002"/>
<polygon fill="#171c20" stroke="#171c20" points="370.778,-201.025 363.134,-193.163 366.129,-199.187 361.479,-197.348 361.479,-197.348 361.479,-197.348 366.129,-199.187 359.824,-201.533 370.778,-201.025 370.778,-201.025"/>
</g>
<!-- Event -->
<g id="node12" class="node"><title>Event</title>
<ellipse fill="none" stroke="black" cx="597.587" cy="-92" rx="33.3419" ry="18"/>
<text text-anchor="middle" x="597.587" y="-86.4" font-family="Times,serif" font-size="14.00">Event</text>
</g>
<!-- Account&#45;&gt;Event -->
<g id="edge8" class="edge"><title>Account&#45;&gt;Event</title>
<path fill="none" stroke="#fa3e3c" d="M500.042,-254.63C500.556,-230.04 504.171,-192.397 519.587,-164 531.044,-142.895 551.231,-124.781 568.198,-112.132"/>
<ellipse fill="none" stroke="#fa3e3c" cx="500.008" cy="-258.747" rx="4" ry="4"/>
<polygon fill="#fa3e3c" stroke="#fa3e3c" points="568.586,-111.855 579.335,-109.687 572.65,-108.942 576.714,-106.029 576.714,-106.029 576.714,-106.029 572.65,-108.942 574.092,-102.371 568.586,-111.855 568.586,-111.855"/>
</g>
<!-- Order -->
<g id="node13" class="node"><title>Order</title>
<ellipse fill="none" stroke="black" cx="282.587" cy="-92" rx="33.3348" ry="18"/>
<text text-anchor="middle" x="282.587" y="-86.4" font-family="Times,serif" font-size="14.00">Order</text>
</g>
<!-- Account&#45;&gt;Order -->
<g id="edge12" class="edge"><title>Account&#45;&gt;Order</title>
<path fill="none" stroke="#913f52" d="M478.645,-258.616C469.673,-250.997 458.778,-243.059 447.587,-238 361.159,-198.929 298.391,-272.795 237.587,-200 216.785,-175.096 239.952,-139.191 260.008,-115.975"/>
<ellipse fill="none" stroke="#913f52" cx="481.816" cy="-261.414" rx="4.00002" ry="4.00002"/>
<polygon fill="#913f52" stroke="#913f52" points="260.201,-115.76 270.238,-111.343 263.548,-112.046 266.895,-108.331 266.895,-108.331 266.895,-108.331 263.548,-112.046 263.551,-105.319 260.201,-115.76 260.201,-115.76"/>
</g>
<!-- Page -->
<g id="node14" class="node"><title>Page</title>
<ellipse fill="none" stroke="black" cx="558.587" cy="-182" rx="29.216" ry="18"/>
<text text-anchor="middle" x="558.587" y="-176.4" font-family="Times,serif" font-size="14.00">Page</text>
</g>
<!-- Account&#45;&gt;Page -->
<g id="edge14" class="edge"><title>Account&#45;&gt;Page</title>
<path fill="none" stroke="#fc39bc" d="M514.995,-255.904C523.778,-241.215 534.975,-222.488 543.822,-207.692"/>
<ellipse fill="none" stroke="#fc39bc" cx="512.742" cy="-259.671" rx="4.00002" ry="4.00002"/>
<polygon fill="#fc39bc" stroke="#fc39bc" points="543.853,-207.641 552.847,-201.368 546.419,-203.35 548.985,-199.058 548.985,-199.058 548.985,-199.058 546.419,-203.35 545.122,-196.749 543.853,-207.641 543.853,-207.641"/>
</g>
<!-- Ticket -->
<g id="node19" class="node"><title>Ticket</title>
<ellipse fill="none" stroke="black" cx="479.587" cy="-18" rx="35.0524" ry="18"/>
<text text-anchor="middle" x="479.587" y="-12.4" font-family="Times,serif" font-size="14.00">Ticket</text>
</g>
<!-- Account&#45;&gt;Ticket -->
<g id="edge10" class="edge"><title>Account&#45;&gt;Ticket</title>
<path fill="none" stroke="#10c2a6" d="M548.25,-272.19C652.469,-254.892 892.266,-213.788 903.587,-200 913.739,-187.634 912.891,-177.016 903.587,-164 815.241,-40.4186 614.98,-21.0019 524.936,-18.7444"/>
<ellipse fill="none" stroke="#10c2a6" cx="544.035" cy="-272.888" rx="4.00001" ry="4.00001"/>
<polygon fill="#10c2a6" stroke="#10c2a6" points="524.77,-18.7414 514.858,-14.0524 519.771,-18.6465 514.772,-18.5516 514.772,-18.5516 514.772,-18.5516 519.771,-18.6465 514.687,-23.0507 524.77,-18.7414 524.77,-18.7414"/>
</g>
<!-- TicketTemplate -->
<g id="node21" class="node"><title>TicketTemplate</title>
<ellipse fill="none" stroke="black" cx="823.587" cy="-182" rx="71.2351" ry="18"/>
<text text-anchor="middle" x="823.587" y="-176.4" font-family="Times,serif" font-size="14.00">TicketTemplate</text>
</g>
<!-- Account&#45;&gt;TicketTemplate -->
<g id="edge16" class="edge"><title>Account&#45;&gt;TicketTemplate</title>
<path fill="none" stroke="#e961d3" d="M542.788,-267.327C601.024,-249.838 706.045,-218.299 769.832,-199.143"/>
<ellipse fill="none" stroke="#e961d3" cx="538.678" cy="-268.561" rx="4.00001" ry="4.00001"/>
<polygon fill="#e961d3" stroke="#e961d3" points="770.125,-199.055 780.996,-200.489 774.913,-197.617 779.702,-196.179 779.702,-196.179 779.702,-196.179 774.913,-197.617 778.408,-191.869 770.125,-199.055 770.125,-199.055"/>
</g>
<!-- User -->
<g id="node22" class="node"><title>User</title>
<ellipse fill="none" stroke="black" cx="443.587" cy="-182" rx="28.9087" ry="18"/>
<text text-anchor="middle" x="443.587" y="-176.4" font-family="Times,serif" font-size="14.00">User</text>
</g>
<!-- Account&#45;&gt;User -->
<g id="edge2" class="edge"><title>Account&#45;&gt;User</title>
<path fill="none" stroke="#7a83a5" d="M486.427,-255.904C477.795,-241.215 466.791,-222.488 458.096,-207.692"/>
<ellipse fill="none" stroke="#7a83a5" cx="488.631" cy="-259.655" rx="4.00002" ry="4.00002"/>
<polygon fill="#7a83a5" stroke="#7a83a5" points="458.089,-207.68 456.903,-196.779 455.556,-203.369 453.023,-199.058 453.023,-199.058 453.023,-199.058 455.556,-203.369 449.143,-201.338 458.089,-207.68 458.089,-207.68"/>
</g>
<!-- Address -->
<g id="node3" class="node"><title>Address</title>
<ellipse fill="none" stroke="black" cx="503.587" cy="-92" rx="42.5278" ry="18"/>
<text text-anchor="middle" x="503.587" y="-86.4" font-family="Times,serif" font-size="14.00">Address</text>
</g>
<!-- Address&#45;&gt;User -->
<g id="edge20" class="edge"><title>Address&#45;&gt;User</title>
<path fill="none" stroke="#444bab" d="M493.287,-117.038C485.107,-130.428 473.768,-146.948 463.877,-159.844"/>
<ellipse fill="none" stroke="#444bab" cx="495.439" cy="-113.405" rx="4.00002" ry="4.00002"/>
<ellipse fill="#444bab" stroke="#444bab" cx="461.135" cy="-163.326" rx="4.00002" ry="4.00002"/>
</g>
<!-- Area -->
<g id="node4" class="node"><title>Area</title>
<ellipse fill="none" stroke="black" cx="990.587" cy="-18" rx="29.2021" ry="18"/>
<text text-anchor="middle" x="990.587" y="-12.4" font-family="Times,serif" font-size="14.00">Area</text>
</g>
<!-- Events -->
<g id="node34" class="node"><title>Events</title>
<ellipse fill="none" stroke="black" cx="42.5866" cy="-92" rx="36.9811" ry="18"/>
<text text-anchor="middle" x="42.5866" y="-86.4" font-family="Times,serif" font-size="14.00">Events</text>
</g>
<!-- Artist&#45;&gt;Events -->
<g id="edge22" class="edge"><title>Artist&#45;&gt;Events</title>
<path fill="none" stroke="#9770ed" d="M43.6285,-173.491C28.2864,-168.421 12.1809,-159.986 3.05531,-146 -4.16261,-134.938 3.09535,-123.112 13.2739,-113.444"/>
<ellipse fill="none" stroke="#9770ed" cx="47.7072" cy="-174.705" rx="4.00001" ry="4.00001"/>
<polygon fill="#9770ed" stroke="#9770ed" points="13.4259,-113.314 23.9556,-110.252 17.2312,-110.071 21.0364,-106.827 21.0364,-106.827 21.0364,-106.827 17.2312,-110.071 18.1173,-103.403 13.4259,-113.314 13.4259,-113.314"/>
<text text-anchor="middle" x="32.3522" y="-131.4" font-family="Times,serif" font-size="14.00">headliners</text>
</g>
<!-- Artist&#45;&gt;Events -->
<g id="edge24" class="edge"><title>Artist&#45;&gt;Events</title>
<path fill="none" stroke="#fd7964" d="M72.9326,-156.57C69.2308,-147.524 64.8657,-137.227 60.5866,-128 59.178,-124.963 57.6492,-121.806 56.0977,-118.686"/>
<ellipse fill="none" stroke="#fd7964" cx="74.4954" cy="-160.431" rx="4.00001" ry="4.00001"/>
<polygon fill="#fd7964" stroke="#fd7964" points="56.0082,-118.51 55.484,-107.557 53.7408,-114.054 51.4733,-109.598 51.4733,-109.598 51.4733,-109.598 53.7408,-114.054 47.4626,-111.638 56.0082,-118.51 56.0082,-118.51"/>
<text text-anchor="middle" x="129.228" y="-131.4" font-family="Times,serif" font-size="14.00">secondary_headliners</text>
</g>
<!-- Chart&#45;&gt;Event -->
<g id="edge28" class="edge"><title>Chart&#45;&gt;Event</title>
<path fill="none" stroke="#80d1a9" d="M678.201,-161.212C661.208,-146.834 638.295,-127.446 621.24,-113.014"/>
<ellipse fill="none" stroke="#80d1a9" cx="681.36" cy="-163.885" rx="4.00002" ry="4.00002"/>
<ellipse fill="#80d1a9" stroke="#80d1a9" cx="617.839" cy="-110.137" rx="4.00002" ry="4.00002"/>
</g>
<!-- Section -->
<g id="node18" class="node"><title>Section</title>
<ellipse fill="none" stroke="black" cx="990.587" cy="-92" rx="40.0039" ry="18"/>
<text text-anchor="middle" x="990.587" y="-86.4" font-family="Times,serif" font-size="14.00">Section</text>
</g>
<!-- Chart&#45;&gt;Section -->
<g id="edge26" class="edge"><title>Chart&#45;&gt;Section</title>
<path fill="none" stroke="#b8d69a" d="M734.37,-167.348C737.47,-166.173 740.577,-165.038 743.587,-164 813.627,-139.833 896.732,-117.144 946.482,-104.184"/>
<ellipse fill="none" stroke="#b8d69a" cx="730.471" cy="-168.867" rx="4.00001" ry="4.00001"/>
<polygon fill="#b8d69a" stroke="#b8d69a" points="946.593,-104.155 957.402,-106.003 951.433,-102.901 956.274,-101.647 956.274,-101.647 956.274,-101.647 951.433,-102.901 955.145,-97.2907 946.593,-104.155 946.593,-104.155"/>
</g>
<!-- Checkin -->
<g id="node7" class="node"><title>Checkin</title>
<polygon fill="none" stroke="black" points="842.58,-299 780.593,-299 780.593,-263 842.58,-263 842.58,-299"/>
<text text-anchor="middle" x="811.587" y="-275.4" font-family="Times,serif" font-size="14.00">Checkin</text>
</g>
<!-- Ckeditor::Asset -->
<g id="node8" class="node"><title>Ckeditor::Asset</title>
<ellipse fill="none" stroke="black" cx="1252.59" cy="-281" rx="71.4843" ry="18"/>
<text text-anchor="middle" x="1252.59" y="-275.4" font-family="Times,serif" font-size="14.00">Ckeditor::Asset</text>
</g>
<!-- Ckeditor::AttachmentFile -->
<g id="node9" class="node"><title>Ckeditor::AttachmentFile</title>
<ellipse fill="none" stroke="black" cx="1149.59" cy="-182" rx="109.906" ry="18"/>
<text text-anchor="middle" x="1149.59" y="-176.4" font-family="Times,serif" font-size="14.00">Ckeditor::AttachmentFile</text>
</g>
<!-- Ckeditor::Asset&#45;&gt;Ckeditor::AttachmentFile -->
<g id="edge30" class="edge"><title>Ckeditor::Asset&#45;&gt;Ckeditor::AttachmentFile</title>
<path fill="none" stroke="black" d="M1235.11,-263.545C1216.29,-245.816 1186.48,-217.747 1167.49,-199.861"/>
</g>
<!-- Ckeditor::Picture -->
<g id="node10" class="node"><title>Ckeditor::Picture</title>
<ellipse fill="none" stroke="black" cx="1355.59" cy="-182" rx="77.3258" ry="18"/>
<text text-anchor="middle" x="1355.59" y="-176.4" font-family="Times,serif" font-size="14.00">Ckeditor::Picture</text>
</g>
<!-- Ckeditor::Asset&#45;&gt;Ckeditor::Picture -->
<g id="edge32" class="edge"><title>Ckeditor::Asset&#45;&gt;Ckeditor::Picture</title>
<path fill="none" stroke="black" d="M1270.06,-263.545C1289,-245.708 1319.05,-217.404 1338.03,-199.535"/>
</g>
<!-- Event&#45;&gt;Ticket -->
<g id="edge34" class="edge"><title>Event&#45;&gt;Ticket</title>
<path fill="none" stroke="#ad8d43" d="M569.192,-73.6747C551.515,-62.8888 528.77,-49.01 510.618,-37.9347"/>
<ellipse fill="none" stroke="#ad8d43" cx="572.803" cy="-75.8779" rx="4.00002" ry="4.00002"/>
<polygon fill="#ad8d43" stroke="#ad8d43" points="510.133,-37.6385 503.941,-28.5885 505.865,-35.0342 501.597,-32.4299 501.597,-32.4299 501.597,-32.4299 505.865,-35.0342 499.253,-36.2712 510.133,-37.6385 510.133,-37.6385"/>
</g>
<!-- Order&#45;&gt;Ticket -->
<g id="edge36" class="edge"><title>Order&#45;&gt;Ticket</title>
<path fill="none" stroke="#7ea4c1" d="M315.966,-77.6769C319.212,-76.4196 322.459,-75.1763 325.587,-74 364.91,-59.2095 410.231,-43.14 441.475,-32.2126"/>
<ellipse fill="none" stroke="#7ea4c1" cx="312.18" cy="-79.1558" rx="4.00001" ry="4.00001"/>
<polygon fill="#7ea4c1" stroke="#7ea4c1" points="441.658,-32.1489 452.582,-33.1022 446.378,-30.5012 451.099,-28.8535 451.099,-28.8535 451.099,-28.8535 446.378,-30.5012 449.616,-24.6049 441.658,-32.1489 441.658,-32.1489"/>
</g>
<!-- Page&#45;&gt;Page -->
<g id="edge38" class="edge"><title>Page&#45;&gt;Page</title>
<path fill="none" stroke="#e79b8b" d="M594.498,-188.373C601.018,-187.561 605.587,-185.437 605.587,-182 605.587,-178.862 601.778,-176.819 596.153,-175.869"/>
<ellipse fill="none" stroke="#e79b8b" cx="590.101" cy="-188.557" rx="4" ry="4"/>
<polygon fill="#e79b8b" stroke="#e79b8b" points="596.087,-175.865 586.369,-170.784 591.095,-175.571 586.104,-175.276 586.104,-175.276 586.104,-175.276 591.095,-175.571 585.839,-179.769 596.087,-175.865 596.087,-175.865"/>
<text text-anchor="middle" x="628.521" y="-176.4" font-family="Times,serif" font-size="14.00">children</text>
</g>
<!-- PaymentMethod -->
<g id="node15" class="node"><title>PaymentMethod</title>
<polygon fill="none" stroke="black" points="1450.5,-299 1342.68,-299 1342.68,-263 1450.5,-263 1450.5,-299"/>
<text text-anchor="middle" x="1396.59" y="-275.4" font-family="Times,serif" font-size="14.00">PaymentMethod</text>
</g>
<!-- Phone -->
<g id="node16" class="node"><title>Phone</title>
<ellipse fill="none" stroke="black" cx="369.587" cy="-92" rx="35.2688" ry="18"/>
<text text-anchor="middle" x="369.587" y="-86.4" font-family="Times,serif" font-size="14.00">Phone</text>
</g>
<!-- Phone&#45;&gt;User -->
<g id="edge40" class="edge"><title>Phone&#45;&gt;User</title>
<path fill="none" stroke="#1ec5f1" d="M392.991,-113.885C405.289,-127.143 419.784,-144.311 430.233,-157.964"/>
<ellipse fill="none" stroke="#1ec5f1" cx="389.908" cy="-110.628" rx="4.00002" ry="4.00002"/>
<ellipse fill="#1ec5f1" stroke="#1ec5f1" cx="432.684" cy="-161.244" rx="4.00002" ry="4.00002"/>
</g>
<!-- Price -->
<g id="node17" class="node"><title>Price</title>
<ellipse fill="none" stroke="black" cx="990.587" cy="-182" rx="30.32" ry="18"/>
<text text-anchor="middle" x="990.587" y="-176.4" font-family="Times,serif" font-size="14.00">Price</text>
</g>
<!-- Price&#45;&gt;Section -->
<g id="edge42" class="edge"><title>Price&#45;&gt;Section</title>
<path fill="none" stroke="#b12898" d="M990.587,-155.462C990.587,-143.712 990.587,-129.816 990.587,-118.118"/>
<ellipse fill="none" stroke="#b12898" cx="990.587" cy="-159.614" rx="4" ry="4"/>
<ellipse fill="#b12898" stroke="#b12898" cx="990.587" cy="-114.05" rx="4" ry="4"/>
</g>
<!-- Section&#45;&gt;Area -->
<g id="edge44" class="edge"><title>Section&#45;&gt;Area</title>
<path fill="none" stroke="#72ca80" d="M990.587,-65.7923C990.587,-59.5805 990.587,-52.8963 990.587,-46.5786"/>
<ellipse fill="none" stroke="#72ca80" cx="990.587" cy="-69.937" rx="4" ry="4"/>
<polygon fill="#72ca80" stroke="#72ca80" points="990.587,-46.4407 995.087,-36.4406 990.587,-41.4407 990.587,-36.4407 990.587,-36.4407 990.587,-36.4407 990.587,-41.4407 986.087,-36.4407 990.587,-46.4407 990.587,-46.4407"/>
</g>
<!-- TicketLock -->
<g id="node20" class="node"><title>TicketLock</title>
<polygon fill="none" stroke="black" points="1548.62,-299 1468.56,-299 1468.56,-263 1548.62,-263 1548.62,-299"/>
<text text-anchor="middle" x="1508.59" y="-275.4" font-family="Times,serif" font-size="14.00">TicketLock</text>
</g>
<!-- User&#45;&gt;Address -->
<g id="edge48" class="edge"><title>User&#45;&gt;Address</title>
<path fill="none" stroke="#aa672e" d="M453.94,-156.874C461.56,-144.409 471.903,-129.25 481.265,-116.828"/>
<ellipse fill="none" stroke="#aa672e" cx="451.737" cy="-160.592" rx="4.00002" ry="4.00002"/>
<polygon fill="#aa672e" stroke="#aa672e" points="481.415,-116.634 491.1,-111.491 484.479,-112.684 487.544,-108.733 487.544,-108.733 487.544,-108.733 484.479,-112.684 483.988,-105.975 481.415,-116.634 481.415,-116.634"/>
</g>
<!-- User&#45;&gt;Order -->
<g id="edge46" class="edge"><title>User&#45;&gt;Order</title>
<path fill="none" stroke="#ae3395" d="M415.382,-165.584C387.106,-150.129 343.654,-126.379 314.222,-110.291"/>
<ellipse fill="none" stroke="#ae3395" cx="419.029" cy="-167.577" rx="4.00002" ry="4.00002"/>
<polygon fill="#ae3395" stroke="#ae3395" points="313.97,-110.154 307.354,-101.409 309.583,-107.756 305.196,-105.358 305.196,-105.358 305.196,-105.358 309.583,-107.756 303.037,-109.306 313.97,-110.154 313.97,-110.154"/>
</g>
<!-- User&#45;&gt;Phone -->
<g id="edge50" class="edge"><title>User&#45;&gt;Phone</title>
<path fill="none" stroke="#983af5" d="M421.003,-160.998C408.984,-148.109 394.697,-131.262 384.114,-117.562"/>
<ellipse fill="none" stroke="#983af5" cx="423.825" cy="-163.964" rx="4.00002" ry="4.00002"/>
<polygon fill="#983af5" stroke="#983af5" points="384.065,-117.497 381.655,-106.799 381.061,-113.499 378.058,-109.502 378.058,-109.502 378.058,-109.502 381.061,-113.499 374.46,-112.205 384.065,-117.497 384.065,-117.497"/>
</g>
<!-- User&#45;&gt;Ticket -->
<g id="edge52" class="edge"><title>User&#45;&gt;Ticket</title>
<path fill="none" stroke="#46e399" d="M442.69,-153.73C442.664,-131.798 444.203,-100.396 451.587,-74 454.414,-63.8909 459.179,-53.4643 463.983,-44.4436"/>
<polygon fill="#46e399" stroke="#46e399" points="442.693,-153.967 438.318,-164.022 442.755,-158.966 442.817,-163.966 442.817,-163.966 442.817,-163.966 442.755,-158.966 447.317,-163.91 442.693,-153.967 442.693,-153.967"/>
<polygon fill="#46e399" stroke="#46e399" points="464.036,-44.3483 472.85,-37.8241 466.48,-39.9863 468.924,-35.6244 468.924,-35.6244 468.924,-35.6244 466.48,-39.9863 464.999,-33.4247 464.036,-44.3483 464.036,-44.3483"/>
</g>
</g>
</svg>
