<?xml version="1.0" encoding="UTF-8" standalone="no"?>
<!DOCTYPE svg PUBLIC "-//W3C//DTD SVG 1.1//EN"
 "http://www.w3.org/Graphics/SVG/1.1/DTD/svg11.dtd">
<!-- Generated by graphviz version 2.28.0 (20120503.1651)
 -->
<!-- Title: models_diagram Pages: 1 -->
<svg width="2125pt" height="422pt"
 viewBox="0.00 0.00 2124.59 422.00" xmlns="http://www.w3.org/2000/svg" xmlns:xlink="http://www.w3.org/1999/xlink">
<g id="graph1" class="graph" transform="scale(1 1) rotate(0) translate(4 418)">
<title>models_diagram</title>
<polygon fill="white" stroke="white" points="-4,5 -4,-418 2121.59,-418 2121.59,5 -4,5"/>
<!-- _diagram_info -->
<g id="node1" class="node"><title>_diagram_info</title>
<text text-anchor="start" x="461.899" y="-397" font-family="Times,serif" font-size="13.00">Models diagram</text>
<text text-anchor="start" x="461.899" y="-381.4" font-family="Times,serif" font-size="13.00">Date: Oct 17 2012 &#45; 13:11</text>
<text text-anchor="start" x="461.899" y="-365.8" font-family="Times,serif" font-size="13.00">Migration version: 20121017135151</text>
<text text-anchor="start" x="461.899" y="-350.2" font-family="Times,serif" font-size="13.00">Generated by RailRoady 1.1.0</text>
<text text-anchor="start" x="461.899" y="-334.6" font-family="Times,serif" font-size="13.00">http://railroady.prestonlee.com</text>
</g>
<!-- Account -->
<g id="node2" class="node"><title>Account</title>
<ellipse fill="none" stroke="black" cx="722.587" cy="-371" rx="43.1305" ry="18"/>
<text text-anchor="middle" x="722.587" y="-365.4" font-family="Times,serif" font-size="14.00">Account</text>
</g>
<!-- Artist -->
<g id="node5" class="node"><title>Artist</title>
<ellipse fill="none" stroke="black" cx="82.5866" cy="-108" rx="33.0501" ry="18"/>
<text text-anchor="middle" x="82.5866" y="-102.4" font-family="Times,serif" font-size="14.00">Artist</text>
</g>
<!-- Account&#45;&gt;Artist -->
<g id="edge4" class="edge"><title>Account&#45;&gt;Artist</title>
<path fill="none" stroke="#e12541" d="M701.38,-348.185C692.376,-340.35 681.264,-332.375 669.587,-328 611.393,-306.197 156.494,-332.955 111.587,-290 69.8756,-250.102 72.7111,-175.886 77.909,-136.006"/>
<ellipse fill="none" stroke="#e12541" cx="704.589" cy="-351.114" rx="4.00002" ry="4.00002"/>
<polygon fill="#e12541" stroke="#e12541" points="77.9312,-135.852 83.8192,-126.601 78.6485,-130.904 79.3658,-125.955 79.3658,-125.955 79.3658,-125.955 78.6485,-130.904 74.9123,-125.31 77.9312,-135.852 77.9312,-135.852"/>
</g>
<!-- Carousel -->
<g id="node6" class="node"><title>Carousel</title>
<ellipse fill="none" stroke="black" cx="770.587" cy="-272" rx="45.0468" ry="18"/>
<text text-anchor="middle" x="770.587" y="-266.4" font-family="Times,serif" font-size="14.00">Carousel</text>
</g>
<!-- Account&#45;&gt;Carousel -->
<g id="edge28" class="edge"><title>Account&#45;&gt;Carousel</title>
<path fill="none" stroke="#abb4ad" d="M734.698,-345.525C741.713,-331.348 750.542,-313.507 757.687,-299.068"/>
<ellipse fill="none" stroke="#abb4ad" cx="732.722" cy="-349.519" rx="4.00002" ry="4.00002"/>
<polygon fill="#abb4ad" stroke="#abb4ad" points="757.886,-298.665 766.355,-291.698 760.104,-294.184 762.321,-289.702 762.321,-289.702 762.321,-289.702 760.104,-294.184 758.288,-287.707 757.886,-298.665 757.886,-298.665"/>
</g>
<!-- Chart -->
<g id="node8" class="node"><title>Chart</title>
<ellipse fill="none" stroke="black" cx="244.587" cy="-272" rx="32.2368" ry="18"/>
<text text-anchor="middle" x="244.587" y="-266.4" font-family="Times,serif" font-size="14.00">Chart</text>
</g>
<!-- Account&#45;&gt;Chart -->
<g id="edge6" class="edge"><title>Account&#45;&gt;Chart</title>
<path fill="none" stroke="#c752f9" d="M701.378,-348.191C692.373,-340.357 681.262,-332.381 669.587,-328 591.268,-298.612 372.244,-338.471 293.587,-310 284.165,-306.59 275.055,-300.695 267.3,-294.601"/>
<ellipse fill="none" stroke="#c752f9" cx="704.587" cy="-351.119" rx="4.00002" ry="4.00002"/>
<polygon fill="#c752f9" stroke="#c752f9" points="267.12,-294.45 262.359,-284.572 263.292,-291.233 259.464,-288.017 259.464,-288.017 259.464,-288.017 263.292,-291.233 256.569,-291.462 267.12,-294.45 267.12,-294.45"/>
</g>
<!-- CustomerImport -->
<g id="node13" class="node"><title>CustomerImport</title>
<ellipse fill="none" stroke="black" cx="908.587" cy="-272" rx="74.3094" ry="18"/>
<text text-anchor="middle" x="908.587" y="-266.4" font-family="Times,serif" font-size="14.00">CustomerImport</text>
</g>
<!-- Account&#45;&gt;CustomerImport -->
<g id="edge24" class="edge"><title>Account&#45;&gt;CustomerImport</title>
<path fill="none" stroke="#48f142" d="M755.577,-352.795C787.452,-336.173 835.74,-310.99 869.52,-293.373"/>
<ellipse fill="none" stroke="#48f142" cx="751.996" cy="-354.663" rx="4.00002" ry="4.00002"/>
<polygon fill="#48f142" stroke="#48f142" points="869.771,-293.242 880.719,-292.608 874.205,-290.93 878.638,-288.618 878.638,-288.618 878.638,-288.618 874.205,-290.93 876.557,-284.628 869.771,-293.242 869.771,-293.242"/>
</g>
<!-- Event -->
<g id="node14" class="node"><title>Event</title>
<ellipse fill="none" stroke="black" cx="244.587" cy="-198" rx="33.3419" ry="18"/>
<text text-anchor="middle" x="244.587" y="-192.4" font-family="Times,serif" font-size="14.00">Event</text>
</g>
<!-- Account&#45;&gt;Event -->
<g id="edge8" class="edge"><title>Account&#45;&gt;Event</title>
<path fill="none" stroke="#d364d3" d="M701.349,-348.267C692.34,-340.444 681.234,-332.455 669.587,-328 546.071,-280.756 499.538,-347.031 372.587,-310 324.477,-295.967 283.709,-251.448 261.82,-223.237"/>
<ellipse fill="none" stroke="#d364d3" cx="704.558" cy="-351.188" rx="4.00002" ry="4.00002"/>
<polygon fill="#d364d3" stroke="#d364d3" points="261.67,-223.039 259.237,-212.346 258.658,-219.048 255.646,-215.057 255.646,-215.057 255.646,-215.057 258.658,-219.048 252.054,-217.768 261.67,-223.039 261.67,-223.039"/>
</g>
<!-- Image -->
<g id="node15" class="node"><title>Image</title>
<ellipse fill="none" stroke="black" cx="783.587" cy="-108" rx="35.2475" ry="18"/>
<text text-anchor="middle" x="783.587" y="-102.4" font-family="Times,serif" font-size="14.00">Image</text>
</g>
<!-- Account&#45;&gt;Image -->
<g id="edge18" class="edge"><title>Account&#45;&gt;Image</title>
<path fill="none" stroke="#37cdfb" d="M715.707,-345.105C706.7,-307.737 694.494,-235.602 716.587,-180 724.56,-159.933 741.192,-142.254 755.889,-129.557"/>
<ellipse fill="none" stroke="#37cdfb" cx="716.706" cy="-349.085" rx="4.00001" ry="4.00001"/>
<polygon fill="#37cdfb" stroke="#37cdfb" points="756.078,-129.401 766.654,-126.501 759.933,-126.216 763.788,-123.032 763.788,-123.032 763.788,-123.032 759.933,-126.216 760.922,-119.562 756.078,-129.401 756.078,-129.401"/>
</g>
<!-- Order -->
<g id="node16" class="node"><title>Order</title>
<ellipse fill="none" stroke="black" cx="329.587" cy="-198" rx="33.3348" ry="18"/>
<text text-anchor="middle" x="329.587" y="-192.4" font-family="Times,serif" font-size="14.00">Order</text>
</g>
<!-- Account&#45;&gt;Order -->
<g id="edge12" class="edge"><title>Account&#45;&gt;Order</title>
<path fill="none" stroke="#86f585" d="M701.347,-348.273C692.338,-340.451 681.232,-332.461 669.587,-328 608.877,-304.743 430.795,-347.355 377.587,-310 350.251,-290.809 338.353,-252.606 333.263,-226.43"/>
<ellipse fill="none" stroke="#86f585" cx="704.556" cy="-351.194" rx="4.00002" ry="4.00002"/>
<polygon fill="#86f585" stroke="#86f585" points="333.228,-226.23 335.958,-215.61 332.376,-221.304 331.524,-216.377 331.524,-216.377 331.524,-216.377 332.376,-221.304 327.089,-217.144 333.228,-226.23 333.228,-226.23"/>
</g>
<!-- Page -->
<g id="node17" class="node"><title>Page</title>
<ellipse fill="none" stroke="black" cx="925.587" cy="-198" rx="29.216" ry="18"/>
<text text-anchor="middle" x="925.587" y="-192.4" font-family="Times,serif" font-size="14.00">Page</text>
</g>
<!-- Account&#45;&gt;Page -->
<g id="edge14" class="edge"><title>Account&#45;&gt;Page</title>
<path fill="none" stroke="#2f0cd0" d="M770.82,-362.645C840.824,-350.874 965.133,-325.466 991.587,-290 1001.15,-277.175 998.373,-268.489 991.587,-254 984.165,-238.155 969.687,-225.283 956.178,-215.986"/>
<ellipse fill="none" stroke="#2f0cd0" cx="766.508" cy="-363.36" rx="4.00001" ry="4.00001"/>
<polygon fill="#2f0cd0" stroke="#2f0cd0" points="955.925,-215.823 949.966,-206.618 951.725,-213.11 947.524,-210.398 947.524,-210.398 947.524,-210.398 951.725,-213.11 945.083,-214.178 955.925,-215.823 955.925,-215.823"/>
</g>
<!-- Sidebar -->
<g id="node22" class="node"><title>Sidebar</title>
<ellipse fill="none" stroke="black" cx="1080.59" cy="-272" rx="40.303" ry="18"/>
<text text-anchor="middle" x="1080.59" y="-266.4" font-family="Times,serif" font-size="14.00">Sidebar</text>
</g>
<!-- Account&#45;&gt;Sidebar -->
<g id="edge16" class="edge"><title>Account&#45;&gt;Sidebar</title>
<path fill="none" stroke="#336ac5" d="M773.053,-366.143C834.672,-360.067 941.11,-345.104 1025.59,-310 1035.21,-306.001 1044.91,-300.203 1053.42,-294.377"/>
<ellipse fill="none" stroke="#336ac5" cx="769.012" cy="-366.529" rx="4" ry="4"/>
<polygon fill="#336ac5" stroke="#336ac5" points="1053.68,-294.191 1064.43,-292.031 1057.75,-291.281 1061.81,-288.371 1061.81,-288.371 1061.81,-288.371 1057.75,-291.281 1059.19,-284.712 1053.68,-294.191 1053.68,-294.191"/>
</g>
<!-- Theme -->
<g id="node23" class="node"><title>Theme</title>
<ellipse fill="none" stroke="black" cx="1215.59" cy="-272" rx="37.2739" ry="18"/>
<text text-anchor="middle" x="1215.59" y="-266.4" font-family="Times,serif" font-size="14.00">Theme</text>
</g>
<!-- Account&#45;&gt;Theme -->
<g id="edge30" class="edge"><title>Account&#45;&gt;Theme</title>
<path fill="none" stroke="#8bd970" d="M774.413,-370.854C858.947,-370.538 1030.43,-362.693 1163.59,-310 1173.07,-306.248 1182.45,-300.412 1190.58,-294.475"/>
<ellipse fill="none" stroke="#8bd970" cx="770.262" cy="-370.858" rx="4" ry="4"/>
<polygon fill="#8bd970" stroke="#8bd970" points="1190.63,-294.436 1201.3,-291.9 1194.6,-291.385 1198.56,-288.335 1198.56,-288.335 1198.56,-288.335 1194.6,-291.385 1195.81,-284.769 1190.63,-294.436 1190.63,-294.436"/>
</g>
<!-- Ticket -->
<g id="node24" class="node"><title>Ticket</title>
<ellipse fill="none" stroke="black" cx="391.587" cy="-18" rx="35.0524" ry="18"/>
<text text-anchor="middle" x="391.587" y="-12.4" font-family="Times,serif" font-size="14.00">Ticket</text>
</g>
<!-- Account&#45;&gt;Ticket -->
<g id="edge10" class="edge"><title>Account&#45;&gt;Ticket</title>
<path fill="none" stroke="#0d70e2" d="M698.496,-348.732C680.712,-330.587 659.587,-302.768 659.587,-273 659.587,-273 659.587,-273 659.587,-107 659.587,-60.4619 511.867,-34.5208 435.769,-24.2448"/>
<ellipse fill="none" stroke="#0d70e2" cx="701.513" cy="-351.698" rx="4.00002" ry="4.00002"/>
<polygon fill="#0d70e2" stroke="#0d70e2" points="435.444,-24.2021 426.116,-18.4366 430.486,-23.5502 425.529,-22.8982 425.529,-22.8982 425.529,-22.8982 430.486,-23.5502 424.942,-27.3598 435.444,-24.2021 435.444,-24.2021"/>
</g>
<!-- TicketTemplate -->
<g id="node26" class="node"><title>TicketTemplate</title>
<ellipse fill="none" stroke="black" cx="1342.59" cy="-272" rx="71.2351" ry="18"/>
<text text-anchor="middle" x="1342.59" y="-266.4" font-family="Times,serif" font-size="14.00">TicketTemplate</text>
</g>
<!-- Account&#45;&gt;TicketTemplate -->
<g id="edge22" class="edge"><title>Account&#45;&gt;TicketTemplate</title>
<path fill="none" stroke="#bf1623" d="M772.482,-364.981C856.745,-356.162 1032.45,-336.299 1179.59,-310 1214.51,-303.757 1253.26,-295.037 1284.21,-287.631"/>
<ellipse fill="none" stroke="#bf1623" cx="768.352" cy="-365.41" rx="4" ry="4"/>
<polygon fill="#bf1623" stroke="#bf1623" points="1284.25,-287.622 1295.02,-289.652 1289.11,-286.449 1293.97,-285.277 1293.97,-285.277 1293.97,-285.277 1289.11,-286.449 1292.91,-280.903 1284.25,-287.622 1284.25,-287.622"/>
</g>
<!-- User -->
<g id="node27" class="node"><title>User</title>
<ellipse fill="none" stroke="black" cx="500.587" cy="-272" rx="28.9087" ry="18"/>
<text text-anchor="middle" x="500.587" y="-266.4" font-family="Times,serif" font-size="14.00">User</text>
</g>
<!-- Account&#45;&gt;User -->
<g id="edge2" class="edge"><title>Account&#45;&gt;User</title>
<path fill="none" stroke="#e024d0" d="M699.84,-349.051C690.904,-341.632 680.243,-333.716 669.587,-328 626.898,-305.1 573.006,-289.602 537.708,-281.04"/>
<ellipse fill="none" stroke="#e024d0" cx="702.977" cy="-351.73" rx="4.00002" ry="4.00002"/>
<polygon fill="#e024d0" stroke="#e024d0" points="537.559,-281.005 528.861,-274.327 532.693,-279.856 527.827,-278.707 527.827,-278.707 527.827,-278.707 532.693,-279.856 526.793,-283.086 537.559,-281.005 537.559,-281.005"/>
</g>
<!-- Widget -->
<g id="node28" class="node"><title>Widget</title>
<ellipse fill="none" stroke="black" cx="1075.59" cy="-198" rx="39.1177" ry="18"/>
<text text-anchor="middle" x="1075.59" y="-192.4" font-family="Times,serif" font-size="14.00">Widget</text>
</g>
<!-- Account&#45;&gt;Widget -->
<g id="edge20" class="edge"><title>Account&#45;&gt;Widget</title>
<path fill="none" stroke="#d7b490" d="M773.783,-367.866C873.058,-362.527 1085.84,-344.81 1129.59,-290 1147.24,-267.878 1124.09,-239.421 1102.85,-220.268"/>
<ellipse fill="none" stroke="#d7b490" cx="769.681" cy="-368.08" rx="4" ry="4"/>
<polygon fill="#d7b490" stroke="#d7b490" points="1102.76,-220.193 1098.13,-210.254 1098.97,-216.927 1095.19,-213.661 1095.19,-213.661 1095.19,-213.661 1098.97,-216.927 1092.25,-217.069 1102.76,-220.193 1102.76,-220.193"/>
</g>
<!-- Category -->
<g id="node43" class="node"><title>Category</title>
<ellipse fill="none" stroke="black" cx="317.587" cy="-108" rx="46.1519" ry="18"/>
<text text-anchor="middle" x="317.587" y="-102.4" font-family="Times,serif" font-size="14.00">Category</text>
</g>
<!-- Account&#45;&gt;Category -->
<g id="edge26" class="edge"><title>Account&#45;&gt;Category</title>
<path fill="none" stroke="#6ae788" d="M700.638,-348.63C691.665,-341.013 680.771,-333.073 669.587,-328 584.403,-289.361 542.888,-337.968 462.587,-290 454.129,-284.948 373.828,-181.797 336.497,-133.52"/>
<ellipse fill="none" stroke="#6ae788" cx="703.809" cy="-351.428" rx="4.00002" ry="4.00002"/>
<polygon fill="#6ae788" stroke="#6ae788" points="336.377,-133.364 333.823,-122.7 333.32,-129.408 330.262,-125.451 330.262,-125.451 330.262,-125.451 333.32,-129.408 326.702,-128.203 336.377,-133.364 336.377,-133.364"/>
</g>
<!-- PaymentGateway -->
<g id="node47" class="node"><title>PaymentGateway</title>
<ellipse fill="none" stroke="black" cx="1510.59" cy="-272" rx="79.2238" ry="18"/>
<text text-anchor="middle" x="1510.59" y="-266.4" font-family="Times,serif" font-size="14.00">PaymentGateway</text>
</g>
<!-- Account&#45;&gt;PaymentGateway -->
<g id="edge32" class="edge"><title>Account&#45;&gt;PaymentGateway</title>
<path fill="none" stroke="#f91d76" d="M772.526,-365.625C887.559,-355.258 1179.95,-327.244 1422.59,-290 1430.04,-288.856 1437.83,-287.535 1445.55,-286.147"/>
<ellipse fill="none" stroke="#f91d76" cx="768.538" cy="-365.983" rx="4" ry="4"/>
<ellipse fill="#f91d76" stroke="#f91d76" cx="1449.96" cy="-285.339" rx="4.00001" ry="4.00001"/>
</g>
<!-- Address -->
<g id="node3" class="node"><title>Address</title>
<ellipse fill="none" stroke="black" cx="500.587" cy="-198" rx="42.5278" ry="18"/>
<text text-anchor="middle" x="500.587" y="-192.4" font-family="Times,serif" font-size="14.00">Address</text>
</g>
<!-- Address&#45;&gt;User -->
<g id="edge34" class="edge"><title>Address&#45;&gt;User</title>
<path fill="none" stroke="#8abd76" d="M507.057,-224.171C507.438,-231.353 507.429,-239.169 507.031,-246.321"/>
<ellipse fill="none" stroke="#8abd76" cx="506.741" cy="-220.097" rx="4" ry="4"/>
<ellipse fill="#8abd76" stroke="#8abd76" cx="506.709" cy="-250.314" rx="4" ry="4"/>
</g>
<!-- Area -->
<g id="node4" class="node"><title>Area</title>
<ellipse fill="none" stroke="black" cx="174.587" cy="-108" rx="29.2021" ry="18"/>
<text text-anchor="middle" x="174.587" y="-102.4" font-family="Times,serif" font-size="14.00">Area</text>
</g>
<!-- Area&#45;&gt;Ticket -->
<g id="edge36" class="edge"><title>Area&#45;&gt;Ticket</title>
<path fill="none" stroke="#d93296" d="M192.748,-85.703C203.297,-74.6458 217.466,-61.8434 232.587,-54 268.358,-35.4441 313.6,-26.7009 346.67,-22.5959"/>
<ellipse fill="none" stroke="#d93296" cx="189.991" cy="-88.686" rx="4.00002" ry="4.00002"/>
<polygon fill="#d93296" stroke="#d93296" points="347.017,-22.5564 357.464,-25.8904 351.985,-21.988 356.952,-21.4196 356.952,-21.4196 356.952,-21.4196 351.985,-21.988 356.441,-16.9487 347.017,-22.5564 347.017,-22.5564"/>
</g>
<!-- Events -->
<g id="node51" class="node"><title>Events</title>
<ellipse fill="none" stroke="black" cx="42.5866" cy="-18" rx="36.9811" ry="18"/>
<text text-anchor="middle" x="42.5866" y="-12.4" font-family="Times,serif" font-size="14.00">Events</text>
</g>
<!-- Artist&#45;&gt;Events -->
<g id="edge38" class="edge"><title>Artist&#45;&gt;Events</title>
<path fill="none" stroke="#870476" d="M43.6285,-99.4906C28.2864,-94.4212 12.1809,-85.9862 3.05531,-72 -4.16261,-60.9376 3.09535,-49.1118 13.2739,-39.444"/>
<ellipse fill="none" stroke="#870476" cx="47.7072" cy="-100.705" rx="4.00001" ry="4.00001"/>
<polygon fill="#870476" stroke="#870476" points="13.4259,-39.3144 23.9556,-36.2522 17.2312,-36.071 21.0364,-32.8275 21.0364,-32.8275 21.0364,-32.8275 17.2312,-36.071 18.1173,-29.4027 13.4259,-39.3144 13.4259,-39.3144"/>
<text text-anchor="middle" x="32.3522" y="-57.4" font-family="Times,serif" font-size="14.00">headliners</text>
</g>
<!-- Artist&#45;&gt;Events -->
<g id="edge40" class="edge"><title>Artist&#45;&gt;Events</title>
<path fill="none" stroke="#33f23b" d="M72.9326,-82.57C69.2308,-73.5241 64.8657,-63.2273 60.5866,-54 59.178,-50.9626 57.6492,-47.8057 56.0977,-44.6863"/>
<ellipse fill="none" stroke="#33f23b" cx="74.4954" cy="-86.4311" rx="4.00001" ry="4.00001"/>
<polygon fill="#33f23b" stroke="#33f23b" points="56.0082,-44.5103 55.484,-33.557 53.7408,-40.054 51.4733,-35.5977 51.4733,-35.5977 51.4733,-35.5977 53.7408,-40.054 47.4626,-37.6384 56.0082,-44.5103 56.0082,-44.5103"/>
<text text-anchor="middle" x="129.228" y="-57.4" font-family="Times,serif" font-size="14.00">secondary_headliners</text>
</g>
<!-- CarouselItem -->
<g id="node7" class="node"><title>CarouselItem</title>
<ellipse fill="none" stroke="black" cx="788.587" cy="-198" rx="63.0907" ry="18"/>
<text text-anchor="middle" x="788.587" y="-192.4" font-family="Times,serif" font-size="14.00">CarouselItem</text>
</g>
<!-- Carousel&#45;&gt;CarouselItem -->
<g id="edge42" class="edge"><title>Carousel&#45;&gt;CarouselItem</title>
<path fill="none" stroke="#1ca49b" d="M776.815,-246.086C778.418,-239.674 780.151,-232.742 781.782,-226.219"/>
<ellipse fill="none" stroke="#1ca49b" cx="775.822" cy="-250.056" rx="4.00001" ry="4.00001"/>
<polygon fill="#1ca49b" stroke="#1ca49b" points="781.801,-226.142 788.592,-217.532 783.014,-221.291 784.226,-216.441 784.226,-216.441 784.226,-216.441 783.014,-221.291 779.861,-215.349 781.801,-226.142 781.801,-226.142"/>
</g>
<!-- CarouselItem&#45;&gt;Image -->
<g id="edge44" class="edge"><title>CarouselItem&#45;&gt;Image</title>
<path fill="none" stroke="#386b01" d="M787.136,-171.462C786.468,-159.712 785.678,-145.816 785.014,-134.118"/>
<ellipse fill="none" stroke="#386b01" cx="787.372" cy="-175.62" rx="4" ry="4"/>
<ellipse fill="#386b01" stroke="#386b01" cx="784.782" cy="-130.044" rx="4" ry="4"/>
</g>
<!-- Chart&#45;&gt;Event -->
<g id="edge48" class="edge"><title>Chart&#45;&gt;Event</title>
<path fill="none" stroke="#1d977d" d="M244.587,-245.792C244.587,-238.974 244.587,-231.588 244.587,-224.741"/>
<ellipse fill="none" stroke="#1d977d" cx="244.587" cy="-249.937" rx="4" ry="4"/>
<ellipse fill="#1d977d" stroke="#1d977d" cx="244.587" cy="-220.441" rx="4" ry="4"/>
</g>
<!-- Section -->
<g id="node21" class="node"><title>Section</title>
<ellipse fill="none" stroke="black" cx="151.587" cy="-198" rx="40.0039" ry="18"/>
<text text-anchor="middle" x="151.587" y="-192.4" font-family="Times,serif" font-size="14.00">Section</text>
</g>
<!-- Chart&#45;&gt;Section -->
<g id="edge46" class="edge"><title>Chart&#45;&gt;Section</title>
<path fill="none" stroke="#700dc7" d="M219.5,-251.578C206.96,-241.87 191.762,-230.104 178.926,-220.166"/>
<ellipse fill="none" stroke="#700dc7" cx="223.05" cy="-254.326" rx="4.00002" ry="4.00002"/>
<polygon fill="#700dc7" stroke="#700dc7" points="178.79,-220.061 173.637,-210.381 174.836,-217 170.883,-213.939 170.883,-213.939 170.883,-213.939 174.836,-217 168.128,-217.497 178.79,-220.061 178.79,-220.061"/>
</g>
<!-- Checkin -->
<g id="node9" class="node"><title>Checkin</title>
<ellipse fill="none" stroke="black" cx="1206.59" cy="-371" rx="43.3283" ry="18"/>
<text text-anchor="middle" x="1206.59" y="-365.4" font-family="Times,serif" font-size="14.00">Checkin</text>
</g>
<!-- Ckeditor::Asset -->
<g id="node10" class="node"><title>Ckeditor::Asset</title>
<ellipse fill="none" stroke="black" cx="1820.59" cy="-371" rx="71.4843" ry="18"/>
<text text-anchor="middle" x="1820.59" y="-365.4" font-family="Times,serif" font-size="14.00">Ckeditor::Asset</text>
</g>
<!-- Ckeditor::AttachmentFile -->
<g id="node11" class="node"><title>Ckeditor::AttachmentFile</title>
<ellipse fill="none" stroke="black" cx="1717.59" cy="-272" rx="109.906" ry="18"/>
<text text-anchor="middle" x="1717.59" y="-266.4" font-family="Times,serif" font-size="14.00">Ckeditor::AttachmentFile</text>
</g>
<!-- Ckeditor::Asset&#45;&gt;Ckeditor::AttachmentFile -->
<g id="edge50" class="edge"><title>Ckeditor::Asset&#45;&gt;Ckeditor::AttachmentFile</title>
<path fill="none" stroke="black" d="M1803.11,-353.545C1784.29,-335.816 1754.48,-307.747 1735.49,-289.861"/>
</g>
<!-- Ckeditor::Picture -->
<g id="node12" class="node"><title>Ckeditor::Picture</title>
<ellipse fill="none" stroke="black" cx="1923.59" cy="-272" rx="77.3258" ry="18"/>
<text text-anchor="middle" x="1923.59" y="-266.4" font-family="Times,serif" font-size="14.00">Ckeditor::Picture</text>
</g>
<!-- Ckeditor::Asset&#45;&gt;Ckeditor::Picture -->
<g id="edge52" class="edge"><title>Ckeditor::Asset&#45;&gt;Ckeditor::Picture</title>
<path fill="none" stroke="black" d="M1838.06,-353.545C1857,-335.708 1887.05,-307.404 1906.03,-289.535"/>
</g>
<!-- Event&#45;&gt;Artist -->
<g id="edge56" class="edge"><title>Event&#45;&gt;Artist</title>
<path fill="none" stroke="#a5e869" d="M209.035,-183.017C206.185,-181.972 203.343,-180.954 200.587,-180 174.818,-171.081 165.685,-175.392 141.931,-162 127.794,-154.03 114.134,-142.213 103.491,-131.758"/>
<polygon fill="#a5e869" stroke="#a5e869" points="209.279,-183.109 217.059,-190.837 213.96,-184.867 218.641,-186.625 218.641,-186.625 218.641,-186.625 213.96,-184.867 220.223,-182.412 209.279,-183.109 209.279,-183.109"/>
<polygon fill="#a5e869" stroke="#a5e869" points="103.324,-131.589 99.5178,-121.305 99.8173,-128.025 96.3103,-124.461 96.3103,-124.461 96.3103,-124.461 99.8173,-128.025 93.1028,-127.617 103.324,-131.589 103.324,-131.589"/>
<text text-anchor="middle" x="186.914" y="-147.4" font-family="Times,serif" font-size="14.00">supporting_acts</text>
</g>
<!-- Event&#45;&gt;Ticket -->
<g id="edge54" class="edge"><title>Event&#45;&gt;Ticket</title>
<path fill="none" stroke="#707cfc" d="M242.895,-171.682C242.622,-148.394 245.595,-113.944 262.587,-90 283.986,-59.8437 322.388,-41.0984 351.746,-30.4966"/>
<ellipse fill="none" stroke="#707cfc" cx="243.009" cy="-175.718" rx="4" ry="4"/>
<polygon fill="#707cfc" stroke="#707cfc" points="351.86,-30.4575 362.78,-31.4647 356.589,-28.8331 361.318,-27.2088 361.318,-27.2088 361.318,-27.2088 356.589,-28.8331 359.856,-22.9528 351.86,-30.4575 351.86,-30.4575"/>
</g>
<!-- Event&#45;&gt;Category -->
<g id="edge58" class="edge"><title>Event&#45;&gt;Category</title>
<path fill="none" stroke="#718d86" d="M262.826,-175.013C273.376,-162.295 286.668,-146.272 297.514,-133.197"/>
<ellipse fill="none" stroke="#718d86" cx="260.191" cy="-178.189" rx="4.00002" ry="4.00002"/>
<polygon fill="#718d86" stroke="#718d86" points="297.521,-133.189 307.369,-128.366 300.713,-129.341 303.905,-125.492 303.905,-125.492 303.905,-125.492 300.713,-129.341 300.442,-122.619 297.521,-133.189 297.521,-133.189"/>
</g>
<!-- ActsAsTaggableOn::Tagging -->
<g id="node63" class="node"><title>ActsAsTaggableOn::Tagging</title>
<ellipse fill="none" stroke="black" cx="701.587" cy="-18" rx="123.097" ry="18"/>
<text text-anchor="middle" x="701.587" y="-12.4" font-family="Times,serif" font-size="14.00">ActsAsTaggableOn::Tagging</text>
</g>
<!-- Image&#45;&gt;ActsAsTaggableOn::Tagging -->
<g id="edge60" class="edge"><title>Image&#45;&gt;ActsAsTaggableOn::Tagging</title>
<path fill="none" stroke="#9d3e52" d="M745.484,-95.9417C733.154,-90.5832 720.516,-82.8768 712.145,-72 706.552,-64.7322 703.69,-55.2873 702.29,-46.3875"/>
<ellipse fill="none" stroke="#9d3e52" cx="749.366" cy="-97.4957" rx="4.00001" ry="4.00001"/>
<polygon fill="#9d3e52" stroke="#9d3e52" points="702.281,-46.2992 705.717,-35.8857 701.761,-41.3263 701.242,-36.3534 701.242,-36.3534 701.242,-36.3534 701.761,-41.3263 696.766,-36.8211 702.281,-46.2992 702.281,-46.2992"/>
<text text-anchor="middle" x="736.307" y="-57.4" font-family="Times,serif" font-size="14.00">taggings</text>
</g>
<!-- Image&#45;&gt;ActsAsTaggableOn::Tagging -->
<g id="edge64" class="edge"><title>Image&#45;&gt;ActsAsTaggableOn::Tagging</title>
<path fill="none" stroke="#c922c9" d="M775.876,-82.0456C772.061,-72.5149 766.716,-62.0221 759.587,-54 755.331,-49.2116 750.261,-44.8764 744.915,-41.0183"/>
<ellipse fill="none" stroke="#c922c9" cx="777.338" cy="-85.9982" rx="4.00001" ry="4.00001"/>
<polygon fill="#c922c9" stroke="#c922c9" points="744.701,-40.8764 738.852,-31.6008 740.533,-38.114 736.366,-35.3517 736.366,-35.3517 736.366,-35.3517 740.533,-38.114 733.88,-39.1027 744.701,-40.8764 744.701,-40.8764"/>
<text text-anchor="middle" x="807.359" y="-57.4" font-family="Times,serif" font-size="14.00">tag_taggings</text>
</g>
<!-- ActsAsTaggableOn::Tag -->
<g id="node65" class="node"><title>ActsAsTaggableOn::Tag</title>
<ellipse fill="none" stroke="black" cx="949.587" cy="-18" rx="106.344" ry="18"/>
<text text-anchor="middle" x="949.587" y="-12.4" font-family="Times,serif" font-size="14.00">ActsAsTaggableOn::Tag</text>
</g>
<!-- Image&#45;&gt;ActsAsTaggableOn::Tag -->
<g id="edge62" class="edge"><title>Image&#45;&gt;ActsAsTaggableOn::Tag</title>
<path fill="none" stroke="#66f00e" d="M828.267,-103.87C856.248,-99.972 891.766,-91.2869 917.587,-72 926.788,-65.127 933.883,-54.7581 939.027,-45.009"/>
<polygon fill="#66f00e" stroke="#66f00e" points="828.255,-103.871 817.778,-100.634 823.293,-104.486 818.331,-105.1 818.331,-105.1 818.331,-105.1 823.293,-104.486 818.884,-109.566 828.255,-103.871 828.255,-103.871"/>
<polygon fill="#66f00e" stroke="#66f00e" points="939.032,-44.9982 947.422,-37.9365 941.199,-40.4922 943.366,-35.9862 943.366,-35.9862 943.366,-35.9862 941.199,-40.4922 939.311,-34.0358 939.032,-44.9982 939.032,-44.9982"/>
<text text-anchor="middle" x="960.8" y="-57.4" font-family="Times,serif" font-size="14.00">base_tags</text>
</g>
<!-- Image&#45;&gt;ActsAsTaggableOn::Tag -->
<g id="edge66" class="edge"><title>Image&#45;&gt;ActsAsTaggableOn::Tag</title>
<path fill="none" stroke="#c69b3a" d="M816.169,-89.7271C843.067,-75.4679 881.339,-55.1795 909.999,-39.9861"/>
<polygon fill="#c69b3a" stroke="#c69b3a" points="815.854,-89.8946 804.911,-90.6025 811.436,-92.2365 807.018,-94.5784 807.018,-94.5784 807.018,-94.5784 811.436,-92.2365 809.126,-98.5543 815.854,-89.8946 815.854,-89.8946"/>
<polygon fill="#c69b3a" stroke="#c69b3a" points="910.105,-39.9301 921.048,-39.2222 914.522,-37.5882 918.94,-35.2463 918.94,-35.2463 918.94,-35.2463 914.522,-37.5882 916.832,-31.2704 910.105,-39.9301 910.105,-39.9301"/>
<text text-anchor="middle" x="892.862" y="-57.4" font-family="Times,serif" font-size="14.00">tags</text>
</g>
<!-- Order&#45;&gt;Ticket -->
<g id="edge68" class="edge"><title>Order&#45;&gt;Ticket</title>
<path fill="none" stroke="#481137" d="M346.268,-174.363C355.381,-160.939 366.1,-143.227 372.587,-126 382.414,-99.9014 387.228,-68.2691 389.54,-46.1943"/>
<ellipse fill="none" stroke="#481137" cx="343.962" cy="-177.682" rx="4.00002" ry="4.00002"/>
<polygon fill="#481137" stroke="#481137" points="389.545,-46.147 394.966,-36.6149 390.015,-41.1692 390.486,-36.1914 390.486,-36.1914 390.486,-36.1914 390.015,-41.1692 386.006,-35.7679 389.545,-46.147 389.545,-46.147"/>
</g>
<!-- Page&#45;&gt;Page -->
<g id="edge70" class="edge"><title>Page&#45;&gt;Page</title>
<path fill="none" stroke="#6f6113" d="M961.498,-204.373C968.018,-203.561 972.587,-201.437 972.587,-198 972.587,-194.862 968.778,-192.819 963.153,-191.869"/>
<ellipse fill="none" stroke="#6f6113" cx="957.101" cy="-204.557" rx="4" ry="4"/>
<polygon fill="#6f6113" stroke="#6f6113" points="963.087,-191.865 953.369,-186.784 958.095,-191.571 953.104,-191.276 953.104,-191.276 953.104,-191.276 958.095,-191.571 952.839,-195.769 963.087,-191.865 963.087,-191.865"/>
<text text-anchor="middle" x="995.521" y="-192.4" font-family="Times,serif" font-size="14.00">children</text>
</g>
<!-- PaymentMethod -->
<g id="node18" class="node"><title>PaymentMethod</title>
<polygon fill="none" stroke="black" points="2018.5,-389 1910.68,-389 1910.68,-353 2018.5,-353 2018.5,-389"/>
<text text-anchor="middle" x="1964.59" y="-365.4" font-family="Times,serif" font-size="14.00">PaymentMethod</text>
</g>
<!-- Phone -->
<g id="node19" class="node"><title>Phone</title>
<ellipse fill="none" stroke="black" cx="596.587" cy="-198" rx="35.2688" ry="18"/>
<text text-anchor="middle" x="596.587" y="-192.4" font-family="Times,serif" font-size="14.00">Phone</text>
</g>
<!-- Phone&#45;&gt;User -->
<g id="edge72" class="edge"><title>Phone&#45;&gt;User</title>
<path fill="none" stroke="#8c9f9b" d="M575.227,-219.649C561.343,-230.726 543.259,-244.19 528.291,-254.551"/>
<ellipse fill="none" stroke="#8c9f9b" cx="578.565" cy="-216.944" rx="4.00002" ry="4.00002"/>
<ellipse fill="#8c9f9b" stroke="#8c9f9b" cx="524.91" cy="-256.857" rx="4.00002" ry="4.00002"/>
</g>
<!-- Price -->
<g id="node20" class="node"><title>Price</title>
<ellipse fill="none" stroke="black" cx="151.587" cy="-272" rx="30.32" ry="18"/>
<text text-anchor="middle" x="151.587" y="-266.4" font-family="Times,serif" font-size="14.00">Price</text>
</g>
<!-- Price&#45;&gt;Section -->
<g id="edge74" class="edge"><title>Price&#45;&gt;Section</title>
<path fill="none" stroke="#619582" d="M151.587,-245.792C151.587,-238.974 151.587,-231.588 151.587,-224.741"/>
<ellipse fill="none" stroke="#619582" cx="151.587" cy="-249.937" rx="4" ry="4"/>
<ellipse fill="#619582" stroke="#619582" cx="151.587" cy="-220.441" rx="4" ry="4"/>
</g>
<!-- Section&#45;&gt;Area -->
<g id="edge76" class="edge"><title>Section&#45;&gt;Area</title>
<path fill="none" stroke="#ea8632" d="M128.488,-175.488C121.028,-165.902 115.97,-154.44 121.587,-144 126.114,-135.585 133.649,-128.857 141.637,-123.637"/>
<ellipse fill="none" stroke="#ea8632" cx="131.319" cy="-178.763" rx="4.00002" ry="4.00002"/>
<polygon fill="#ea8632" stroke="#ea8632" points="141.72,-123.589 152.626,-122.446 146.041,-121.073 150.362,-118.558 150.362,-118.558 150.362,-118.558 146.041,-121.073 148.097,-114.669 141.72,-123.589 141.72,-123.589"/>
</g>
<!-- Sidebar&#45;&gt;Page -->
<g id="edge82" class="edge"><title>Sidebar&#45;&gt;Page</title>
<path fill="none" stroke="#3fa44e" d="M1054.42,-251.406C1045.56,-245.319 1035.41,-238.922 1025.59,-234 1005.14,-223.757 980.967,-215.208 961.51,-209.123"/>
<ellipse fill="none" stroke="#3fa44e" cx="1057.95" cy="-253.887" rx="4.00002" ry="4.00002"/>
<polygon fill="#3fa44e" stroke="#3fa44e" points="961.377,-209.083 953.121,-201.865 956.593,-207.627 951.81,-206.17 951.81,-206.17 951.81,-206.17 956.593,-207.627 950.499,-210.475 961.377,-209.083 961.377,-209.083"/>
</g>
<!-- Sidebar&#45;&gt;Widget -->
<g id="edge80" class="edge"><title>Sidebar&#45;&gt;Widget</title>
<path fill="none" stroke="#5c9c6f" d="M1078.69,-243.719C1078.3,-238.145 1077.9,-232.274 1077.51,-226.686"/>
<polygon fill="#5c9c6f" stroke="#5c9c6f" points="1078.71,-243.961 1074.91,-254.249 1079.06,-248.949 1079.4,-253.937 1079.4,-253.937 1079.4,-253.937 1079.06,-248.949 1083.89,-253.625 1078.71,-243.961 1078.71,-243.961"/>
<polygon fill="#5c9c6f" stroke="#5c9c6f" points="1077.49,-226.417 1081.29,-216.129 1077.14,-221.429 1076.8,-216.441 1076.8,-216.441 1076.8,-216.441 1077.14,-221.429 1072.31,-216.752 1077.49,-226.417 1077.49,-226.417"/>
</g>
<!-- WidgetPlacement -->
<g id="node29" class="node"><title>WidgetPlacement</title>
<ellipse fill="none" stroke="black" cx="1125.59" cy="-108" rx="78.9508" ry="18"/>
<text text-anchor="middle" x="1125.59" y="-102.4" font-family="Times,serif" font-size="14.00">WidgetPlacement</text>
</g>
<!-- Sidebar&#45;&gt;WidgetPlacement -->
<g id="edge78" class="edge"><title>Sidebar&#45;&gt;WidgetPlacement</title>
<path fill="none" stroke="#1f6042" d="M1102.86,-249.279C1110.99,-239.889 1119.24,-228.25 1123.59,-216 1132.77,-190.119 1132.02,-158.453 1129.74,-136.311"/>
<ellipse fill="none" stroke="#1f6042" cx="1100" cy="-252.438" rx="4.00002" ry="4.00002"/>
<polygon fill="#1f6042" stroke="#1f6042" points="1129.73,-136.202 1133,-125.737 1129.13,-131.238 1128.54,-126.273 1128.54,-126.273 1128.54,-126.273 1129.13,-131.238 1124.07,-126.81 1129.73,-136.202 1129.73,-136.202"/>
</g>
<!-- Version -->
<g id="node77" class="node"><title>Version</title>
<ellipse fill="none" stroke="black" cx="1215.59" cy="-198" rx="40.31" ry="18"/>
<text text-anchor="middle" x="1215.59" y="-192.4" font-family="Times,serif" font-size="14.00">Version</text>
</g>
<!-- Theme&#45;&gt;Version -->
<g id="edge84" class="edge"><title>Theme&#45;&gt;Version</title>
<path fill="none" stroke="#68f5af" d="M1215.59,-245.792C1215.59,-239.58 1215.59,-232.896 1215.59,-226.579"/>
<ellipse fill="none" stroke="#68f5af" cx="1215.59" cy="-249.937" rx="4" ry="4"/>
<polygon fill="#68f5af" stroke="#68f5af" points="1215.59,-226.441 1220.09,-216.441 1215.59,-221.441 1215.59,-216.441 1215.59,-216.441 1215.59,-216.441 1215.59,-221.441 1211.09,-216.441 1215.59,-226.441 1215.59,-226.441"/>
</g>
<!-- TicketLock -->
<g id="node25" class="node"><title>TicketLock</title>
<polygon fill="none" stroke="black" points="2116.62,-389 2036.56,-389 2036.56,-353 2116.62,-353 2116.62,-389"/>
<text text-anchor="middle" x="2076.59" y="-365.4" font-family="Times,serif" font-size="14.00">TicketLock</text>
</g>
<!-- User&#45;&gt;Address -->
<g id="edge88" class="edge"><title>User&#45;&gt;Address</title>
<path fill="none" stroke="#85ced8" d="M494.142,-246.321C493.787,-239.946 493.741,-233.044 494.005,-226.533"/>
<ellipse fill="none" stroke="#85ced8" cx="494.464" cy="-250.314" rx="4" ry="4"/>
<polygon fill="#85ced8" stroke="#85ced8" points="494.037,-226.084 499.231,-216.426 494.389,-221.096 494.742,-216.109 494.742,-216.109 494.742,-216.109 494.389,-221.096 490.253,-215.791 494.037,-226.084 494.037,-226.084"/>
</g>
<!-- User&#45;&gt;Order -->
<g id="edge86" class="edge"><title>User&#45;&gt;Order</title>
<path fill="none" stroke="#515dda" d="M469.644,-257.972C440.003,-245.491 395.339,-226.685 364.453,-213.681"/>
<ellipse fill="none" stroke="#515dda" cx="473.482" cy="-259.587" rx="4.00002" ry="4.00002"/>
<polygon fill="#515dda" stroke="#515dda" points="364.163,-213.558 356.692,-205.53 359.554,-211.618 354.946,-209.678 354.946,-209.678 354.946,-209.678 359.554,-211.618 353.2,-213.825 364.163,-213.558 364.163,-213.558"/>
</g>
<!-- User&#45;&gt;Phone -->
<g id="edge90" class="edge"><title>User&#45;&gt;Phone</title>
<path fill="none" stroke="#c8ae05" d="M521.187,-250.958C534.207,-240.536 551.126,-227.877 565.702,-217.664"/>
<ellipse fill="none" stroke="#c8ae05" cx="517.989" cy="-253.558" rx="4.00002" ry="4.00002"/>
<polygon fill="#c8ae05" stroke="#c8ae05" points="565.732,-217.643 576.519,-215.674 569.849,-214.806 573.966,-211.968 573.966,-211.968 573.966,-211.968 569.849,-214.806 571.412,-208.263 565.732,-217.643 565.732,-217.643"/>
</g>
<!-- User&#45;&gt;Ticket -->
<g id="edge92" class="edge"><title>User&#45;&gt;Ticket</title>
<path fill="none" stroke="#389743" d="M476.265,-250.103C466.463,-240.568 455.793,-228.601 448.587,-216 447.502,-214.103 414.53,-99.1598 399.239,-45.7478"/>
<polygon fill="#389743" stroke="#389743" points="476.549,-250.367 480.787,-260.482 480.203,-253.78 483.858,-257.193 483.858,-257.193 483.858,-257.193 480.203,-253.78 486.929,-253.904 476.549,-250.367 476.549,-250.367"/>
<polygon fill="#389743" stroke="#389743" points="399.183,-45.5515 400.757,-34.6992 397.807,-40.7445 396.431,-35.9376 396.431,-35.9376 396.431,-35.9376 397.807,-40.7445 392.104,-37.1759 399.183,-45.5515 399.183,-45.5515"/>
</g>
<!-- Widget&#45;&gt;WidgetPlacement -->
<g id="edge94" class="edge"><title>Widget&#45;&gt;WidgetPlacement</title>
<path fill="none" stroke="#c87c2e" d="M1088.95,-173.485C1095.71,-161.588 1103.93,-147.117 1110.87,-134.901"/>
<ellipse fill="none" stroke="#c87c2e" cx="1086.97" cy="-176.97" rx="4.00002" ry="4.00002"/>
<polygon fill="#c87c2e" stroke="#c87c2e" points="1110.94,-134.773 1119.8,-128.301 1113.41,-130.425 1115.88,-126.078 1115.88,-126.078 1115.88,-126.078 1113.41,-130.425 1111.97,-123.855 1110.94,-134.773 1110.94,-134.773"/>
</g>
</g>
</svg>
