<?xml version="1.0" encoding="UTF-8" standalone="no"?>
<!DOCTYPE svg PUBLIC "-//W3C//DTD SVG 1.1//EN"
 "http://www.w3.org/Graphics/SVG/1.1/DTD/svg11.dtd">
<!-- Generated by graphviz version 2.28.0 (20120503.1651)
 -->
<!-- Title: models_diagram Pages: 1 -->
<svg width="2257pt" height="586pt"
 viewBox="0.00 0.00 2257.20 586.00" xmlns="http://www.w3.org/2000/svg" xmlns:xlink="http://www.w3.org/1999/xlink">
<g id="graph1" class="graph" transform="scale(1 1) rotate(0) translate(4 582)">
<title>models_diagram</title>
<polygon fill="white" stroke="white" points="-4,5 -4,-582 2254.2,-582 2254.2,5 -4,5"/>
<!-- _diagram_info -->
<g id="node1" class="node"><title>_diagram_info</title>
<text text-anchor="start" x="593.509" y="-561" font-family="Times,serif" font-size="13.00">Models diagram</text>
<text text-anchor="start" x="593.509" y="-545.4" font-family="Times,serif" font-size="13.00">Date: Dec 12 2012 &#45; 14:50</text>
<text text-anchor="start" x="593.509" y="-529.8" font-family="Times,serif" font-size="13.00">Migration version: 20121207212540</text>
<text text-anchor="start" x="593.509" y="-514.2" font-family="Times,serif" font-size="13.00">Generated by RailRoady 1.1.0</text>
<text text-anchor="start" x="593.509" y="-498.6" font-family="Times,serif" font-size="13.00">http://railroady.prestonlee.com</text>
</g>
<!-- Account -->
<g id="node2" class="node"><title>Account</title>
<ellipse fill="none" stroke="black" cx="854.197" cy="-535" rx="43.1305" ry="18"/>
<text text-anchor="middle" x="854.197" y="-529.4" font-family="Times,serif" font-size="14.00">Account</text>
</g>
<!-- Artist -->
<g id="node5" class="node"><title>Artist</title>
<ellipse fill="none" stroke="black" cx="65.1969" cy="-272" rx="33.0501" ry="18"/>
<text text-anchor="middle" x="65.1969" y="-266.4" font-family="Times,serif" font-size="14.00">Artist</text>
</g>
<!-- Account&#45;&gt;Artist -->
<g id="edge4" class="edge"><title>Account&#45;&gt;Artist</title>
<path fill="none" stroke="#b09940" d="M833.274,-512.355C824.226,-504.439 813.009,-496.36 801.197,-492 700.018,-454.652 422.742,-490.739 316.197,-474 283.811,-468.912 274.467,-468.765 245.197,-454 162.33,-412.2 132.097,-402.945 80.1969,-326 75.0466,-318.364 71.6485,-308.972 69.4131,-300.226"/>
<ellipse fill="none" stroke="#b09940" cx="836.223" cy="-515.058" rx="4.00002" ry="4.00002"/>
<polygon fill="#b09940" stroke="#b09940" points="69.4019,-300.174 71.6861,-289.449 68.3448,-295.287 67.2878,-290.4 67.2878,-290.4 67.2878,-290.4 68.3448,-295.287 62.8895,-291.351 69.4019,-300.174 69.4019,-300.174"/>
</g>
<!-- Carousel -->
<g id="node6" class="node"><title>Carousel</title>
<ellipse fill="none" stroke="black" cx="854.197" cy="-436" rx="45.0468" ry="18"/>
<text text-anchor="middle" x="854.197" y="-430.4" font-family="Times,serif" font-size="14.00">Carousel</text>
</g>
<!-- Account&#45;&gt;Carousel -->
<g id="edge26" class="edge"><title>Account&#45;&gt;Carousel</title>
<path fill="none" stroke="#797d90" d="M854.197,-508.227C854.197,-494.741 854.197,-478.227 854.197,-464.496"/>
<ellipse fill="none" stroke="#797d90" cx="854.197" cy="-512.658" rx="4" ry="4"/>
<polygon fill="#797d90" stroke="#797d90" points="854.197,-464.192 858.697,-454.191 854.197,-459.192 854.197,-454.192 854.197,-454.192 854.197,-454.192 854.197,-459.192 849.697,-454.192 854.197,-464.192 854.197,-464.192"/>
</g>
<!-- Chart -->
<g id="node8" class="node"><title>Chart</title>
<ellipse fill="none" stroke="black" cx="396.197" cy="-436" rx="32.2368" ry="18"/>
<text text-anchor="middle" x="396.197" y="-430.4" font-family="Times,serif" font-size="14.00">Chart</text>
</g>
<!-- Account&#45;&gt;Chart -->
<g id="edge6" class="edge"><title>Account&#45;&gt;Chart</title>
<path fill="none" stroke="#fb0dba" d="M832.908,-512.399C823.892,-504.595 812.794,-496.584 801.197,-492 711.198,-456.424 680.045,-487.365 584.197,-474 532.399,-466.778 473.317,-454.471 435.433,-446.049"/>
<ellipse fill="none" stroke="#fb0dba" cx="836.118" cy="-515.308" rx="4.00002" ry="4.00002"/>
<polygon fill="#fb0dba" stroke="#fb0dba" points="435.091,-445.973 426.318,-439.394 430.213,-444.879 425.334,-443.784 425.334,-443.784 425.334,-443.784 430.213,-444.879 424.349,-448.175 435.091,-445.973 435.091,-445.973"/>
</g>
<!-- CustomerImport -->
<g id="node12" class="node"><title>CustomerImport</title>
<ellipse fill="none" stroke="black" cx="992.197" cy="-436" rx="74.3094" ry="18"/>
<text text-anchor="middle" x="992.197" y="-430.4" font-family="Times,serif" font-size="14.00">CustomerImport</text>
</g>
<!-- Account&#45;&gt;CustomerImport -->
<g id="edge24" class="edge"><title>Account&#45;&gt;CustomerImport</title>
<path fill="none" stroke="#a13259" d="M882.317,-514.234C905.02,-498.276 936.957,-475.828 960.552,-459.243"/>
<ellipse fill="none" stroke="#a13259" cx="878.729" cy="-516.756" rx="4.00002" ry="4.00002"/>
<polygon fill="#a13259" stroke="#a13259" points="960.653,-459.172 971.422,-457.103 964.744,-456.297 968.835,-453.421 968.835,-453.421 968.835,-453.421 964.744,-456.297 966.247,-449.74 960.653,-459.172 960.653,-459.172"/>
</g>
<!-- Event -->
<g id="node13" class="node"><title>Event</title>
<ellipse fill="none" stroke="black" cx="236.197" cy="-362" rx="33.3419" ry="18"/>
<text text-anchor="middle" x="236.197" y="-356.4" font-family="Times,serif" font-size="14.00">Event</text>
</g>
<!-- Account&#45;&gt;Event -->
<g id="edge8" class="edge"><title>Account&#45;&gt;Event</title>
<path fill="none" stroke="#043e5b" d="M832.933,-512.336C823.92,-504.523 812.818,-496.522 801.197,-492 691.982,-449.499 370.645,-521.999 275.197,-454 254.479,-439.24 244.681,-411.133 240.102,-390.043"/>
<ellipse fill="none" stroke="#043e5b" cx="836.143" cy="-515.251" rx="4.00002" ry="4.00002"/>
<polygon fill="#043e5b" stroke="#043e5b" points="240.07,-389.877 242.621,-379.212 239.135,-384.965 238.2,-380.053 238.2,-380.053 238.2,-380.053 239.135,-384.965 233.779,-380.895 240.07,-389.877 240.07,-389.877"/>
</g>
<!-- Gateway -->
<g id="node14" class="node"><title>Gateway</title>
<ellipse fill="none" stroke="black" cx="1130.2" cy="-436" rx="45.0328" ry="18"/>
<text text-anchor="middle" x="1130.2" y="-430.4" font-family="Times,serif" font-size="14.00">Gateway</text>
</g>
<!-- Account&#45;&gt;Gateway -->
<g id="edge30" class="edge"><title>Account&#45;&gt;Gateway</title>
<path fill="none" stroke="#4d618e" d="M893.883,-520.052C945.322,-501.974 1034.67,-470.574 1087.53,-451.997"/>
<ellipse fill="none" stroke="#4d618e" cx="889.901" cy="-521.452" rx="4.00001" ry="4.00001"/>
<polygon fill="#4d618e" stroke="#4d618e" points="1087.84,-451.888 1098.76,-452.817 1092.55,-450.23 1097.27,-448.572 1097.27,-448.572 1097.27,-448.572 1092.55,-450.23 1095.78,-444.326 1087.84,-451.888 1087.84,-451.888"/>
</g>
<!-- Image -->
<g id="node15" class="node"><title>Image</title>
<ellipse fill="none" stroke="black" cx="923.197" cy="-272" rx="35.2475" ry="18"/>
<text text-anchor="middle" x="923.197" y="-266.4" font-family="Times,serif" font-size="14.00">Image</text>
</g>
<!-- Account&#45;&gt;Image -->
<g id="edge18" class="edge"><title>Account&#45;&gt;Image</title>
<path fill="none" stroke="#d102dc" d="M833.683,-511.579C821.342,-496.514 806.786,-475.538 800.197,-454 795.516,-438.7 796.192,-433.491 800.197,-418 809.607,-381.597 817.509,-373.199 841.197,-344 856.755,-324.822 877.891,-306.661 894.808,-293.507"/>
<ellipse fill="none" stroke="#d102dc" cx="836.58" cy="-515.01" rx="4.00002" ry="4.00002"/>
<polygon fill="#d102dc" stroke="#d102dc" points="895.261,-293.163 905.944,-290.687 899.24,-290.135 903.218,-287.107 903.218,-287.107 903.218,-287.107 899.24,-290.135 900.493,-283.526 895.261,-293.163 895.261,-293.163"/>
</g>
<!-- Order -->
<g id="node16" class="node"><title>Order</title>
<ellipse fill="none" stroke="black" cx="558.197" cy="-272" rx="33.3348" ry="18"/>
<text text-anchor="middle" x="558.197" y="-266.4" font-family="Times,serif" font-size="14.00">Order</text>
</g>
<!-- Account&#45;&gt;Order -->
<g id="edge12" class="edge"><title>Account&#45;&gt;Order</title>
<path fill="none" stroke="#09cba8" d="M832.299,-512.517C823.333,-504.885 812.43,-496.965 801.197,-492 755.886,-471.974 732.791,-500.909 691.197,-474 625.358,-431.406 584.64,-343.461 567.546,-299.387"/>
<ellipse fill="none" stroke="#09cba8" cx="835.469" cy="-515.324" rx="4.00002" ry="4.00002"/>
<polygon fill="#09cba8" stroke="#09cba8" points="567.508,-299.286 568.191,-288.342 565.744,-294.607 563.981,-289.929 563.981,-289.929 563.981,-289.929 565.744,-294.607 559.77,-291.516 567.508,-299.286 567.508,-299.286"/>
</g>
<!-- Page -->
<g id="node19" class="node"><title>Page</title>
<ellipse fill="none" stroke="black" cx="1152.2" cy="-362" rx="29.216" ry="18"/>
<text text-anchor="middle" x="1152.2" y="-356.4" font-family="Times,serif" font-size="14.00">Page</text>
</g>
<!-- Account&#45;&gt;Page -->
<g id="edge14" class="edge"><title>Account&#45;&gt;Page</title>
<path fill="none" stroke="#c1ef8e" d="M904.118,-529.318C987.626,-520.339 1149.9,-497.609 1184.2,-454 1199.8,-434.163 1185.94,-406.147 1171.9,-386.455"/>
<ellipse fill="none" stroke="#c1ef8e" cx="900.023" cy="-529.75" rx="4" ry="4"/>
<polygon fill="#c1ef8e" stroke="#c1ef8e" points="1171.78,-386.293 1169.35,-375.601 1168.77,-382.303 1165.76,-378.313 1165.76,-378.313 1165.76,-378.313 1168.77,-382.303 1162.16,-381.025 1171.78,-386.293 1171.78,-386.293"/>
</g>
<!-- Sidebar -->
<g id="node24" class="node"><title>Sidebar</title>
<ellipse fill="none" stroke="black" cx="1272.2" cy="-436" rx="40.303" ry="18"/>
<text text-anchor="middle" x="1272.2" y="-430.4" font-family="Times,serif" font-size="14.00">Sidebar</text>
</g>
<!-- Account&#45;&gt;Sidebar -->
<g id="edge16" class="edge"><title>Account&#45;&gt;Sidebar</title>
<path fill="none" stroke="#fa1196" d="M905.457,-532.364C977.467,-528.563 1111.59,-515.937 1217.2,-474 1227.14,-470.05 1237.12,-464.087 1245.8,-458.095"/>
<ellipse fill="none" stroke="#fa1196" cx="901.408" cy="-532.566" rx="4" ry="4"/>
<polygon fill="#fa1196" stroke="#fa1196" points="1245.89,-458.03 1256.63,-455.811 1249.94,-455.098 1253.99,-452.166 1253.99,-452.166 1253.99,-452.166 1249.94,-455.098 1251.35,-448.521 1245.89,-458.03 1245.89,-458.03"/>
</g>
<!-- Theme -->
<g id="node25" class="node"><title>Theme</title>
<ellipse fill="none" stroke="black" cx="1407.2" cy="-436" rx="37.2739" ry="18"/>
<text text-anchor="middle" x="1407.2" y="-430.4" font-family="Times,serif" font-size="14.00">Theme</text>
</g>
<!-- Account&#45;&gt;Theme -->
<g id="edge28" class="edge"><title>Account&#45;&gt;Theme</title>
<path fill="none" stroke="#bb894d" d="M905.118,-531.101C1015.57,-524.299 1273.79,-505.464 1355.2,-474 1364.71,-470.324 1374.1,-464.509 1382.23,-458.568"/>
<ellipse fill="none" stroke="#bb894d" cx="901.101" cy="-531.346" rx="4" ry="4"/>
<polygon fill="#bb894d" stroke="#bb894d" points="1382.28,-458.528 1392.95,-455.978 1386.24,-455.472 1390.2,-452.416 1390.2,-452.416 1390.2,-452.416 1386.24,-455.472 1387.45,-448.854 1382.28,-458.528 1382.28,-458.528"/>
</g>
<!-- Ticket -->
<g id="node26" class="node"><title>Ticket</title>
<ellipse fill="none" stroke="black" cx="312.197" cy="-18" rx="35.0524" ry="18"/>
<text text-anchor="middle" x="312.197" y="-12.4" font-family="Times,serif" font-size="14.00">Ticket</text>
</g>
<!-- Account&#45;&gt;Ticket -->
<g id="edge10" class="edge"><title>Account&#45;&gt;Ticket</title>
<path fill="none" stroke="#fc1743" d="M828.853,-513.479C796.091,-486.724 743.197,-442.653 743.197,-437 743.197,-437 743.197,-437 743.197,-136 743.197,-56.6635 467.765,-29.4023 357.266,-21.6577"/>
<ellipse fill="none" stroke="#fc1743" cx="832.015" cy="-516.056" rx="4.00002" ry="4.00002"/>
<polygon fill="#fc1743" stroke="#fc1743" points="357.079,-21.6452 347.407,-16.4784 352.091,-21.3066 347.102,-20.9681 347.102,-20.9681 347.102,-20.9681 352.091,-21.3066 346.798,-25.4578 357.079,-21.6452 357.079,-21.6452"/>
</g>
<!-- TicketTemplate -->
<g id="node28" class="node"><title>TicketTemplate</title>
<ellipse fill="none" stroke="black" cx="1534.2" cy="-436" rx="71.2351" ry="18"/>
<text text-anchor="middle" x="1534.2" y="-430.4" font-family="Times,serif" font-size="14.00">TicketTemplate</text>
</g>
<!-- Account&#45;&gt;TicketTemplate -->
<g id="edge22" class="edge"><title>Account&#45;&gt;TicketTemplate</title>
<path fill="none" stroke="#6ea071" d="M904.381,-529.985C997.049,-522.17 1201.09,-503.09 1371.2,-474 1406.3,-467.997 1445.2,-459.247 1476.2,-451.763"/>
<ellipse fill="none" stroke="#6ea071" cx="900.285" cy="-530.328" rx="4" ry="4"/>
<polygon fill="#6ea071" stroke="#6ea071" points="1476.25,-451.75 1487.04,-453.755 1481.11,-450.566 1485.97,-449.383 1485.97,-449.383 1485.97,-449.383 1481.11,-450.566 1484.9,-445.011 1476.25,-451.75 1476.25,-451.75"/>
</g>
<!-- User -->
<g id="node29" class="node"><title>User</title>
<ellipse fill="none" stroke="black" cx="600.197" cy="-92" rx="28.9087" ry="18"/>
<text text-anchor="middle" x="600.197" y="-86.4" font-family="Times,serif" font-size="14.00">User</text>
</g>
<!-- Account&#45;&gt;User -->
<g id="edge2" class="edge"><title>Account&#45;&gt;User</title>
<path fill="none" stroke="#88102f" d="M831.657,-512.65C822.744,-505.184 812.045,-497.342 801.197,-492 771.605,-477.429 756.039,-493.17 729.197,-474 713.246,-462.608 705.197,-456.601 705.197,-437 705.197,-437 705.197,-437 705.197,-226 705.197,-176.252 659.382,-134.195 628.279,-111.374"/>
<ellipse fill="none" stroke="#88102f" cx="834.785" cy="-515.36" rx="4.00002" ry="4.00002"/>
<polygon fill="#88102f" stroke="#88102f" points="628.1,-111.247 622.552,-101.788 624.023,-108.352 619.947,-105.457 619.947,-105.457 619.947,-105.457 624.023,-108.352 617.341,-109.126 628.1,-111.247 628.1,-111.247"/>
</g>
<!-- Widget -->
<g id="node30" class="node"><title>Widget</title>
<ellipse fill="none" stroke="black" cx="1340.2" cy="-362" rx="39.1177" ry="18"/>
<text text-anchor="middle" x="1340.2" y="-356.4" font-family="Times,serif" font-size="14.00">Widget</text>
</g>
<!-- Account&#45;&gt;Widget -->
<g id="edge20" class="edge"><title>Account&#45;&gt;Widget</title>
<path fill="none" stroke="#194351" d="M905.507,-532.524C1014.53,-528.271 1263.96,-512.258 1321.2,-454 1337.5,-437.41 1341.47,-410.664 1341.82,-390.451"/>
<ellipse fill="none" stroke="#194351" cx="901.275" cy="-532.683" rx="4" ry="4"/>
<polygon fill="#194351" stroke="#194351" points="1341.82,-390.283 1346.21,-380.236 1341.77,-385.283 1341.72,-380.283 1341.72,-380.283 1341.72,-380.283 1341.77,-385.283 1337.22,-380.331 1341.82,-390.283 1341.82,-390.283"/>
</g>
<!-- Address -->
<g id="node3" class="node"><title>Address</title>
<ellipse fill="none" stroke="black" cx="558.197" cy="-182" rx="42.5278" ry="18"/>
<text text-anchor="middle" x="558.197" y="-176.4" font-family="Times,serif" font-size="14.00">Address</text>
</g>
<!-- Address&#45;&gt;User -->
<g id="edge32" class="edge"><title>Address&#45;&gt;User</title>
<path fill="none" stroke="#78d433" d="M550.379,-155.842C548.9,-146.668 548.942,-136.474 553.197,-128 557.1,-120.226 563.639,-113.741 570.617,-108.551"/>
<ellipse fill="none" stroke="#78d433" cx="551.257" cy="-159.99" rx="4.00001" ry="4.00001"/>
<ellipse fill="#78d433" stroke="#78d433" cx="574.346" cy="-106.032" rx="4.00002" ry="4.00002"/>
</g>
<!-- Area -->
<g id="node4" class="node"><title>Area</title>
<ellipse fill="none" stroke="black" cx="328.197" cy="-272" rx="29.2021" ry="18"/>
<text text-anchor="middle" x="328.197" y="-266.4" font-family="Times,serif" font-size="14.00">Area</text>
</g>
<!-- Area&#45;&gt;Ticket -->
<g id="edge34" class="edge"><title>Area&#45;&gt;Ticket</title>
<path fill="none" stroke="#632922" d="M306.759,-250.716C303.253,-246.234 300.137,-241.245 298.197,-236 270.133,-160.136 282.9,-133.429 298.197,-54 298.754,-51.1081 299.548,-48.1515 300.478,-45.2421"/>
<ellipse fill="none" stroke="#632922" cx="309.47" cy="-253.862" rx="4.00002" ry="4.00002"/>
<polygon fill="#632922" stroke="#632922" points="300.541,-45.0718 308.238,-37.2613 302.28,-40.3839 304.019,-35.6961 304.019,-35.6961 304.019,-35.6961 302.28,-40.3839 299.8,-34.1309 300.541,-45.0718 300.541,-45.0718"/>
</g>
<!-- Events -->
<g id="node50" class="node"><title>Events</title>
<ellipse fill="none" stroke="black" cx="42.1969" cy="-182" rx="36.9811" ry="18"/>
<text text-anchor="middle" x="42.1969" y="-176.4" font-family="Times,serif" font-size="14.00">Events</text>
</g>
<!-- Artist&#45;&gt;Events -->
<g id="edge36" class="edge"><title>Artist&#45;&gt;Events</title>
<path fill="none" stroke="#e0cf01" d="M29.4884,-259.127C18.9828,-253.781 8.69819,-246.29 2.66562,-236 -3.96818,-224.685 3.19576,-212.911 13.1618,-203.343"/>
<ellipse fill="none" stroke="#e0cf01" cx="33.1186" cy="-260.811" rx="4.00002" ry="4.00002"/>
<polygon fill="#e0cf01" stroke="#e0cf01" points="13.1786,-203.329 23.6929,-200.214 16.9676,-200.067 20.7567,-196.804 20.7567,-196.804 20.7567,-196.804 16.9676,-200.067 17.8205,-193.394 13.1786,-203.329 13.1786,-203.329"/>
<text text-anchor="middle" x="31.9625" y="-221.4" font-family="Times,serif" font-size="14.00">headliners</text>
</g>
<!-- Artist&#45;&gt;Events -->
<g id="edge38" class="edge"><title>Artist&#45;&gt;Events</title>
<path fill="none" stroke="#fecb14" d="M64.7805,-245.834C64.1226,-236.905 62.7921,-226.873 60.1969,-218 59.305,-214.95 58.1432,-211.854 56.839,-208.828"/>
<ellipse fill="none" stroke="#fecb14" cx="65.0068" cy="-249.989" rx="4" ry="4"/>
<polygon fill="#fecb14" stroke="#fecb14" points="56.7031,-208.548 56.3936,-197.586 54.5234,-204.048 52.3437,-199.548 52.3437,-199.548 52.3437,-199.548 54.5234,-204.048 48.2938,-201.51 56.7031,-208.548 56.7031,-208.548"/>
<text text-anchor="middle" x="124.838" y="-221.4" font-family="Times,serif" font-size="14.00">secondary_headliners</text>
</g>
<!-- CarouselItem -->
<g id="node7" class="node"><title>CarouselItem</title>
<ellipse fill="none" stroke="black" cx="913.197" cy="-362" rx="63.0907" ry="18"/>
<text text-anchor="middle" x="913.197" y="-356.4" font-family="Times,serif" font-size="14.00">CarouselItem</text>
</g>
<!-- Carousel&#45;&gt;CarouselItem -->
<g id="edge40" class="edge"><title>Carousel&#45;&gt;CarouselItem</title>
<path fill="none" stroke="#6a8233" d="M872.747,-412.362C879.165,-404.531 886.388,-395.716 892.936,-387.726"/>
<ellipse fill="none" stroke="#6a8233" cx="870.12" cy="-415.568" rx="4.00002" ry="4.00002"/>
<polygon fill="#6a8233" stroke="#6a8233" points="893.114,-387.508 902.933,-382.625 896.283,-383.64 899.452,-379.773 899.452,-379.773 899.452,-379.773 896.283,-383.64 895.972,-376.921 893.114,-387.508 893.114,-387.508"/>
</g>
<!-- CarouselItem&#45;&gt;Image -->
<g id="edge42" class="edge"><title>CarouselItem&#45;&gt;Image</title>
<path fill="none" stroke="#05f3c4" d="M916.099,-335.462C917.434,-323.712 919.013,-309.816 920.343,-298.118"/>
<ellipse fill="none" stroke="#05f3c4" cx="915.624" cy="-339.64" rx="4.00001" ry="4.00001"/>
<ellipse fill="#05f3c4" stroke="#05f3c4" cx="920.808" cy="-294.025" rx="4.00001" ry="4.00001"/>
</g>
<!-- Chart&#45;&gt;Area -->
<g id="edge46" class="edge"><title>Chart&#45;&gt;Area</title>
<path fill="none" stroke="#acd35e" d="M393.397,-407.841C390.802,-389.29 385.967,-364.46 377.197,-344 369.84,-326.836 358.025,-309.549 347.84,-296.33"/>
<polygon fill="#acd35e" stroke="#acd35e" points="393.422,-408.037 390.214,-418.523 394.05,-412.997 394.678,-417.957 394.678,-417.957 394.678,-417.957 394.05,-412.997 399.143,-417.392 393.422,-408.037 393.422,-408.037"/>
<polygon fill="#acd35e" stroke="#acd35e" points="347.663,-296.106 344.971,-285.476 344.555,-292.189 341.446,-288.273 341.446,-288.273 341.446,-288.273 344.555,-292.189 337.921,-291.07 347.663,-296.106 347.663,-296.106"/>
</g>
<!-- Chart&#45;&gt;Event -->
<g id="edge48" class="edge"><title>Chart&#45;&gt;Event</title>
<path fill="none" stroke="#fbad7e" d="M364.509,-420.74C336.725,-408.238 296.511,-390.141 268.535,-377.552"/>
<ellipse fill="none" stroke="#fbad7e" cx="368.249" cy="-422.423" rx="4.00002" ry="4.00002"/>
<ellipse fill="#fbad7e" stroke="#fbad7e" cx="264.638" cy="-375.798" rx="4.00002" ry="4.00002"/>
</g>
<!-- Section -->
<g id="node23" class="node"><title>Section</title>
<ellipse fill="none" stroke="black" cx="328.197" cy="-362" rx="40.0039" ry="18"/>
<text text-anchor="middle" x="328.197" y="-356.4" font-family="Times,serif" font-size="14.00">Section</text>
</g>
<!-- Chart&#45;&gt;Section -->
<g id="edge44" class="edge"><title>Chart&#45;&gt;Section</title>
<path fill="none" stroke="#d0a4b9" d="M376.148,-413.771C367.953,-405.094 358.449,-395.032 350.075,-386.165"/>
<ellipse fill="none" stroke="#d0a4b9" cx="379.029" cy="-416.823" rx="4.00002" ry="4.00002"/>
<polygon fill="#d0a4b9" stroke="#d0a4b9" points="349.933,-386.015 346.339,-375.655 346.5,-382.38 343.067,-378.745 343.067,-378.745 343.067,-378.745 346.5,-382.38 339.796,-381.835 349.933,-386.015 349.933,-386.015"/>
</g>
<!-- Ckeditor::Asset -->
<g id="node9" class="node"><title>Ckeditor::Asset</title>
<ellipse fill="none" stroke="black" cx="1836.2" cy="-535" rx="71.4843" ry="18"/>
<text text-anchor="middle" x="1836.2" y="-529.4" font-family="Times,serif" font-size="14.00">Ckeditor::Asset</text>
</g>
<!-- Ckeditor::AttachmentFile -->
<g id="node10" class="node"><title>Ckeditor::AttachmentFile</title>
<ellipse fill="none" stroke="black" cx="1733.2" cy="-436" rx="109.906" ry="18"/>
<text text-anchor="middle" x="1733.2" y="-430.4" font-family="Times,serif" font-size="14.00">Ckeditor::AttachmentFile</text>
</g>
<!-- Ckeditor::Asset&#45;&gt;Ckeditor::AttachmentFile -->
<g id="edge50" class="edge"><title>Ckeditor::Asset&#45;&gt;Ckeditor::AttachmentFile</title>
<path fill="none" stroke="black" d="M1818.72,-517.545C1799.9,-499.816 1770.09,-471.747 1751.1,-453.861"/>
</g>
<!-- Ckeditor::Picture -->
<g id="node11" class="node"><title>Ckeditor::Picture</title>
<ellipse fill="none" stroke="black" cx="1939.2" cy="-436" rx="77.3258" ry="18"/>
<text text-anchor="middle" x="1939.2" y="-430.4" font-family="Times,serif" font-size="14.00">Ckeditor::Picture</text>
</g>
<!-- Ckeditor::Asset&#45;&gt;Ckeditor::Picture -->
<g id="edge52" class="edge"><title>Ckeditor::Asset&#45;&gt;Ckeditor::Picture</title>
<path fill="none" stroke="black" d="M1853.67,-517.545C1872.61,-499.708 1902.66,-471.404 1921.64,-453.535"/>
</g>
<!-- Event&#45;&gt;Artist -->
<g id="edge58" class="edge"><title>Event&#45;&gt;Artist</title>
<path fill="none" stroke="#0d77dc" d="M193.219,-357.864C164.733,-353.982 127.739,-345.317 100.542,-326 90.8386,-319.108 83.0477,-308.646 77.2759,-298.832"/>
<polygon fill="#0d77dc" stroke="#0d77dc" points="193.368,-357.882 202.752,-363.556 198.332,-358.485 203.295,-359.089 203.295,-359.089 203.295,-359.089 198.332,-358.485 203.838,-354.621 193.368,-357.882 193.368,-357.882"/>
<polygon fill="#0d77dc" stroke="#0d77dc" points="77.1251,-298.554 76.3215,-287.617 74.7447,-294.157 72.3642,-289.76 72.3642,-289.76 72.3642,-289.76 74.7447,-294.157 68.4069,-291.902 77.1251,-298.554 77.1251,-298.554"/>
<text text-anchor="middle" x="145.525" y="-311.4" font-family="Times,serif" font-size="14.00">supporting_acts</text>
</g>
<!-- Event&#45;&gt;Order -->
<g id="edge56" class="edge"><title>Event&#45;&gt;Order</title>
<path fill="none" stroke="#ae7d3e" d="M271.375,-346.675C274.008,-345.731 276.636,-344.828 279.197,-344 362.741,-316.977 463.011,-293.607 517.708,-281.602"/>
<polygon fill="#ae7d3e" stroke="#ae7d3e" points="271.29,-346.707 260.348,-345.998 266.608,-348.46 261.925,-350.212 261.925,-350.212 261.925,-350.212 266.608,-348.46 263.502,-354.427 271.29,-346.707 271.29,-346.707"/>
<polygon fill="#ae7d3e" stroke="#ae7d3e" points="517.928,-281.554 528.657,-283.821 522.813,-280.489 527.698,-279.424 527.698,-279.424 527.698,-279.424 522.813,-280.489 526.74,-275.027 517.928,-281.554 517.928,-281.554"/>
</g>
<!-- Event&#45;&gt;Ticket -->
<g id="edge54" class="edge"><title>Event&#45;&gt;Ticket</title>
<path fill="none" stroke="#35172b" d="M236.197,-335.721C236.197,-318.133 236.197,-294.138 236.197,-273 236.197,-273 236.197,-273 236.197,-91 236.197,-66.3014 257.612,-47.5363 277.706,-35.3649"/>
<ellipse fill="none" stroke="#35172b" cx="236.197" cy="-339.801" rx="4" ry="4"/>
<polygon fill="#35172b" stroke="#35172b" points="277.768,-35.3298 288.687,-34.3111 282.117,-32.8632 286.467,-30.3967 286.467,-30.3967 286.467,-30.3967 282.117,-32.8632 284.247,-26.4823 277.768,-35.3298 277.768,-35.3298"/>
</g>
<!-- Category -->
<g id="node63" class="node"><title>Category</title>
<ellipse fill="none" stroke="black" cx="162.197" cy="-272" rx="46.1519" ry="18"/>
<text text-anchor="middle" x="162.197" y="-266.4" font-family="Times,serif" font-size="14.00">Category</text>
</g>
<!-- Event&#45;&gt;Category -->
<g id="edge60" class="edge"><title>Event&#45;&gt;Category</title>
<path fill="none" stroke="#97b01d" d="M217.708,-339.013C207.013,-326.295 193.539,-310.272 182.544,-297.197"/>
<ellipse fill="none" stroke="#97b01d" cx="220.393" cy="-342.206" rx="4.00002" ry="4.00002"/>
<polygon fill="#97b01d" stroke="#97b01d" points="182.502,-297.146 179.51,-286.596 179.284,-293.319 176.065,-289.492 176.065,-289.492 176.065,-289.492 179.284,-293.319 172.621,-292.389 182.502,-297.146 182.502,-297.146"/>
</g>
<!-- ActsAsTaggableOn::Tagging -->
<g id="node65" class="node"><title>ActsAsTaggableOn::Tagging</title>
<ellipse fill="none" stroke="black" cx="894.197" cy="-182" rx="123.097" ry="18"/>
<text text-anchor="middle" x="894.197" y="-176.4" font-family="Times,serif" font-size="14.00">ActsAsTaggableOn::Tagging</text>
</g>
<!-- Image&#45;&gt;ActsAsTaggableOn::Tagging -->
<g id="edge62" class="edge"><title>Image&#45;&gt;ActsAsTaggableOn::Tagging</title>
<path fill="none" stroke="#969004" d="M894.077,-252.92C888.685,-248.128 883.8,-242.457 880.755,-236 876.915,-227.854 877.767,-218.466 880.361,-209.876"/>
<ellipse fill="none" stroke="#969004" cx="897.442" cy="-255.629" rx="4.00002" ry="4.00002"/>
<polygon fill="#969004" stroke="#969004" points="880.458,-209.621 888.233,-201.888 882.244,-204.951 884.03,-200.281 884.03,-200.281 884.03,-200.281 882.244,-204.951 879.826,-198.674 880.458,-209.621 880.458,-209.621"/>
<text text-anchor="middle" x="904.918" y="-221.4" font-family="Times,serif" font-size="14.00">taggings</text>
</g>
<!-- Image&#45;&gt;ActsAsTaggableOn::Tagging -->
<g id="edge66" class="edge"><title>Image&#45;&gt;ActsAsTaggableOn::Tagging</title>
<path fill="none" stroke="#202cf2" d="M930.272,-246.179C931.666,-237.042 931.762,-226.786 928.197,-218 926.699,-214.308 924.604,-210.791 922.181,-207.51"/>
<ellipse fill="none" stroke="#202cf2" cx="929.468" cy="-250.256" rx="4.00001" ry="4.00001"/>
<polygon fill="#202cf2" stroke="#202cf2" points="922.145,-207.468 919.058,-196.946 918.893,-203.671 915.64,-199.873 915.64,-199.873 915.64,-199.873 918.893,-203.671 912.222,-202.801 922.145,-207.468 922.145,-207.468"/>
<text text-anchor="middle" x="966.969" y="-221.4" font-family="Times,serif" font-size="14.00">tag_taggings</text>
</g>
<!-- ActsAsTaggableOn::Tag -->
<g id="node67" class="node"><title>ActsAsTaggableOn::Tag</title>
<ellipse fill="none" stroke="black" cx="1142.2" cy="-182" rx="106.344" ry="18"/>
<text text-anchor="middle" x="1142.2" y="-176.4" font-family="Times,serif" font-size="14.00">ActsAsTaggableOn::Tag</text>
</g>
<!-- Image&#45;&gt;ActsAsTaggableOn::Tag -->
<g id="edge64" class="edge"><title>Image&#45;&gt;ActsAsTaggableOn::Tag</title>
<path fill="none" stroke="#f3a659" d="M959.58,-256.38C996.223,-241.656 1052.98,-218.849 1093.49,-202.571"/>
<polygon fill="#f3a659" stroke="#f3a659" points="959.329,-256.481 948.373,-256.034 954.69,-258.345 950.051,-260.209 950.051,-260.209 950.051,-260.209 954.69,-258.345 951.728,-264.385 959.329,-256.481 959.329,-256.481"/>
<polygon fill="#f3a659" stroke="#f3a659" points="1093.62,-202.518 1104.58,-202.965 1098.26,-200.654 1102.9,-198.79 1102.9,-198.79 1102.9,-198.79 1098.26,-200.654 1101.22,-194.614 1093.62,-202.518 1093.62,-202.518"/>
<text text-anchor="middle" x="1080.41" y="-221.4" font-family="Times,serif" font-size="14.00">base_tags</text>
</g>
<!-- Image&#45;&gt;ActsAsTaggableOn::Tag -->
<g id="edge68" class="edge"><title>Image&#45;&gt;ActsAsTaggableOn::Tag</title>
<path fill="none" stroke="#3e96e0" d="M967.95,-266.968C1016.04,-261.896 1088.61,-251.878 1111.2,-236 1120.58,-229.402 1127.55,-218.987 1132.48,-209.128"/>
<polygon fill="#3e96e0" stroke="#3e96e0" points="967.738,-266.99 957.333,-263.528 962.764,-267.497 957.79,-268.005 957.79,-268.005 957.79,-268.005 962.764,-267.497 958.247,-272.482 967.738,-266.99 967.738,-266.99"/>
<polygon fill="#3e96e0" stroke="#3e96e0" points="1132.49,-209.109 1140.7,-201.837 1134.54,-204.55 1136.6,-199.99 1136.6,-199.99 1136.6,-199.99 1134.54,-204.55 1132.49,-198.143 1132.49,-209.109 1132.49,-209.109"/>
<text text-anchor="middle" x="1138.47" y="-221.4" font-family="Times,serif" font-size="14.00">tags</text>
</g>
<!-- Order&#45;&gt;Address -->
<g id="edge74" class="edge"><title>Order&#45;&gt;Address</title>
<path fill="none" stroke="#290fa1" d="M558.197,-245.462C558.197,-233.712 558.197,-219.816 558.197,-208.118"/>
<ellipse fill="none" stroke="#290fa1" cx="558.197" cy="-249.614" rx="4" ry="4"/>
<ellipse fill="#290fa1" stroke="#290fa1" cx="558.197" cy="-204.05" rx="4" ry="4"/>
<text text-anchor="middle" x="579.19" y="-221.4" font-family="Times,serif" font-size="14.00">address</text>
</g>
<!-- OrderTransaction -->
<g id="node18" class="node"><title>OrderTransaction</title>
<ellipse fill="none" stroke="black" cx="419.197" cy="-182" rx="78.2088" ry="18"/>
<text text-anchor="middle" x="419.197" y="-176.4" font-family="Times,serif" font-size="14.00">OrderTransaction</text>
</g>
<!-- Order&#45;&gt;OrderTransaction -->
<g id="edge72" class="edge"><title>Order&#45;&gt;OrderTransaction</title>
<path fill="none" stroke="#3732b8" d="M525.53,-256.57C513.253,-250.71 499.363,-243.545 487.328,-236 473.194,-227.14 458.47,-215.965 446.342,-206.163"/>
<ellipse fill="none" stroke="#3732b8" cx="529.312" cy="-258.344" rx="4.00002" ry="4.00002"/>
<polygon fill="#3732b8" stroke="#3732b8" points="446.128,-205.987 441.255,-196.163 442.263,-202.814 438.399,-199.641 438.399,-199.641 438.399,-199.641 442.263,-202.814 435.543,-203.119 446.128,-205.987 446.128,-205.987"/>
<text text-anchor="middle" x="521.631" y="-221.4" font-family="Times,serif" font-size="14.00">transactions</text>
</g>
<!-- Phone -->
<g id="node21" class="node"><title>Phone</title>
<ellipse fill="none" stroke="black" cx="600.197" cy="-18" rx="35.2688" ry="18"/>
<text text-anchor="middle" x="600.197" y="-12.4" font-family="Times,serif" font-size="14.00">Phone</text>
</g>
<!-- Order&#45;&gt;Phone -->
<g id="edge76" class="edge"><title>Order&#45;&gt;Phone</title>
<path fill="none" stroke="#674961" d="M592.718,-257.872C603.337,-252.443 614.297,-245.22 622.197,-236 633.265,-223.082 631.985,-216.705 635.197,-200 645.772,-144.991 654.874,-127.476 638.197,-74 634.471,-62.0529 627.142,-50.4125 619.907,-40.9399"/>
<ellipse fill="none" stroke="#674961" cx="589.071" cy="-259.618" rx="4.00002" ry="4.00002"/>
<ellipse fill="#674961" stroke="#674961" cx="617.209" cy="-37.5735" rx="4.00002" ry="4.00002"/>
</g>
<!-- Order&#45;&gt;Ticket -->
<g id="edge70" class="edge"><title>Order&#45;&gt;Ticket</title>
<path fill="none" stroke="#845bb6" d="M516.567,-270.89C464.446,-268.299 376.515,-255.345 331.197,-200 295.243,-156.091 300.387,-84.697 306.659,-46.0003"/>
<ellipse fill="none" stroke="#845bb6" cx="520.616" cy="-271.057" rx="4" ry="4"/>
<polygon fill="#845bb6" stroke="#845bb6" points="306.685,-45.8505 312.856,-36.7855 307.555,-40.9267 308.424,-36.0029 308.424,-36.0029 308.424,-36.0029 307.555,-40.9267 303.993,-35.2203 306.685,-45.8505 306.685,-45.8505"/>
</g>
<!-- OrderPurchase -->
<g id="node17" class="node"><title>OrderPurchase</title>
<polygon fill="none" stroke="black" points="2024.59,-553 1925.81,-553 1925.81,-517 2024.59,-517 2024.59,-553"/>
<text text-anchor="middle" x="1975.2" y="-529.4" font-family="Times,serif" font-size="14.00">OrderPurchase</text>
</g>
<!-- Page&#45;&gt;Page -->
<g id="edge78" class="edge"><title>Page&#45;&gt;Page</title>
<path fill="none" stroke="#bb534a" d="M1188.11,-368.373C1194.63,-367.561 1199.2,-365.437 1199.2,-362 1199.2,-358.862 1195.39,-356.819 1189.76,-355.869"/>
<ellipse fill="none" stroke="#bb534a" cx="1183.71" cy="-368.557" rx="4" ry="4"/>
<polygon fill="#bb534a" stroke="#bb534a" points="1189.7,-355.865 1179.98,-350.784 1184.71,-355.571 1179.71,-355.276 1179.71,-355.276 1179.71,-355.276 1184.71,-355.571 1179.45,-359.769 1189.7,-355.865 1189.7,-355.865"/>
<text text-anchor="middle" x="1222.13" y="-356.4" font-family="Times,serif" font-size="14.00">children</text>
</g>
<!-- PaymentMethod -->
<g id="node20" class="node"><title>PaymentMethod</title>
<polygon fill="none" stroke="black" points="2151.11,-553 2043.29,-553 2043.29,-517 2151.11,-517 2151.11,-553"/>
<text text-anchor="middle" x="2097.2" y="-529.4" font-family="Times,serif" font-size="14.00">PaymentMethod</text>
</g>
<!-- Phone&#45;&gt;User -->
<g id="edge80" class="edge"><title>Phone&#45;&gt;User</title>
<path fill="none" stroke="#541fc9" d="M606.668,-44.1706C607.049,-51.3526 607.04,-59.1686 606.641,-66.3208"/>
<ellipse fill="none" stroke="#541fc9" cx="606.351" cy="-40.0966" rx="4" ry="4"/>
<ellipse fill="#541fc9" stroke="#541fc9" cx="606.319" cy="-70.3137" rx="4" ry="4"/>
</g>
<!-- Price -->
<g id="node22" class="node"><title>Price</title>
<ellipse fill="none" stroke="black" cx="315.197" cy="-436" rx="30.32" ry="18"/>
<text text-anchor="middle" x="315.197" y="-430.4" font-family="Times,serif" font-size="14.00">Price</text>
</g>
<!-- Price&#45;&gt;Section -->
<g id="edge82" class="edge"><title>Price&#45;&gt;Section</title>
<path fill="none" stroke="#9f41de" d="M319.748,-409.792C320.979,-402.974 322.313,-395.588 323.549,-388.741"/>
<ellipse fill="none" stroke="#9f41de" cx="318.988" cy="-414.001" rx="4.00001" ry="4.00001"/>
<ellipse fill="#9f41de" stroke="#9f41de" cx="324.337" cy="-384.377" rx="4.00001" ry="4.00001"/>
</g>
<!-- Section&#45;&gt;Area -->
<g id="edge84" class="edge"><title>Section&#45;&gt;Area</title>
<path fill="none" stroke="#1794b4" d="M328.197,-335.462C328.197,-324.397 328.197,-311.428 328.197,-300.184"/>
<ellipse fill="none" stroke="#1794b4" cx="328.197" cy="-339.614" rx="4" ry="4"/>
<polygon fill="#1794b4" stroke="#1794b4" points="328.197,-300.05 332.697,-290.05 328.197,-295.05 328.197,-290.05 328.197,-290.05 328.197,-290.05 328.197,-295.05 323.697,-290.05 328.197,-300.05 328.197,-300.05"/>
</g>
<!-- Sidebar&#45;&gt;Page -->
<g id="edge90" class="edge"><title>Sidebar&#45;&gt;Page</title>
<path fill="none" stroke="#0bd346" d="M1244.87,-415.849C1236.15,-409.941 1226.37,-403.537 1217.2,-398 1206.33,-391.443 1194.15,-384.723 1183.3,-378.947"/>
<ellipse fill="none" stroke="#0bd346" cx="1248.31" cy="-418.198" rx="4.00002" ry="4.00002"/>
<polygon fill="#0bd346" stroke="#0bd346" points="1183.01,-378.798 1176.26,-370.159 1178.59,-376.47 1174.16,-374.142 1174.16,-374.142 1174.16,-374.142 1178.59,-376.47 1172.07,-378.124 1183.01,-378.798 1183.01,-378.798"/>
</g>
<!-- Sidebar&#45;&gt;Widget -->
<g id="edge88" class="edge"><title>Sidebar&#45;&gt;Widget</title>
<path fill="none" stroke="#5194c9" d="M1294.3,-411.602C1301.87,-403.585 1310.34,-394.614 1317.92,-386.582"/>
<polygon fill="#5194c9" stroke="#5194c9" points="1294.15,-411.751 1284.02,-415.931 1290.72,-415.386 1287.29,-419.021 1287.29,-419.021 1287.29,-419.021 1290.72,-415.386 1290.56,-422.111 1294.15,-411.751 1294.15,-411.751"/>
<polygon fill="#5194c9" stroke="#5194c9" points="1318.28,-386.205 1328.42,-382.024 1321.71,-382.57 1325.15,-378.934 1325.15,-378.934 1325.15,-378.934 1321.71,-382.57 1321.88,-375.845 1318.28,-386.205 1318.28,-386.205"/>
</g>
<!-- WidgetPlacement -->
<g id="node31" class="node"><title>WidgetPlacement</title>
<ellipse fill="none" stroke="black" cx="1296.2" cy="-272" rx="78.9508" ry="18"/>
<text text-anchor="middle" x="1296.2" y="-266.4" font-family="Times,serif" font-size="14.00">WidgetPlacement</text>
</g>
<!-- Sidebar&#45;&gt;WidgetPlacement -->
<g id="edge86" class="edge"><title>Sidebar&#45;&gt;WidgetPlacement</title>
<path fill="none" stroke="#72a7f1" d="M1275.95,-409.676C1280.35,-379.94 1287.63,-330.807 1292.16,-300.258"/>
<ellipse fill="none" stroke="#72a7f1" cx="1275.31" cy="-414.013" rx="4.00001" ry="4.00001"/>
<polygon fill="#72a7f1" stroke="#72a7f1" points="1292.17,-300.182 1298.09,-290.95 1292.9,-295.236 1293.64,-290.29 1293.64,-290.29 1293.64,-290.29 1292.9,-295.236 1289.18,-289.631 1292.17,-300.182 1292.17,-300.182"/>
</g>
<!-- Version -->
<g id="node82" class="node"><title>Version</title>
<ellipse fill="none" stroke="black" cx="1438.2" cy="-362" rx="40.31" ry="18"/>
<text text-anchor="middle" x="1438.2" y="-356.4" font-family="Times,serif" font-size="14.00">Version</text>
</g>
<!-- Theme&#45;&gt;Version -->
<g id="edge92" class="edge"><title>Theme&#45;&gt;Version</title>
<path fill="none" stroke="#51182c" d="M1417.57,-410.916C1420.55,-403.975 1423.83,-396.368 1426.87,-389.3"/>
<ellipse fill="none" stroke="#51182c" cx="1415.97" cy="-414.627" rx="4.00002" ry="4.00002"/>
<polygon fill="#51182c" stroke="#51182c" points="1426.88,-389.293 1434.96,-381.888 1428.85,-384.701 1430.83,-380.109 1430.83,-380.109 1430.83,-380.109 1428.85,-384.701 1426.7,-378.329 1426.88,-389.293 1426.88,-389.293"/>
</g>
<!-- TicketLock -->
<g id="node27" class="node"><title>TicketLock</title>
<polygon fill="none" stroke="black" points="2249.23,-553 2169.17,-553 2169.17,-517 2249.23,-517 2249.23,-553"/>
<text text-anchor="middle" x="2209.2" y="-529.4" font-family="Times,serif" font-size="14.00">TicketLock</text>
</g>
<!-- User&#45;&gt;Address -->
<g id="edge96" class="edge"><title>User&#45;&gt;Address</title>
<path fill="none" stroke="#33a411" d="M581.56,-114.566C578.467,-118.831 575.52,-123.413 573.211,-128 568.864,-136.633 565.61,-146.709 563.262,-155.744"/>
<ellipse fill="none" stroke="#33a411" cx="584.034" cy="-111.343" rx="4.00002" ry="4.00002"/>
<ellipse fill="#33a411" stroke="#33a411" cx="562.291" cy="-159.789" rx="4.00001" ry="4.00001"/>
<text text-anchor="middle" x="595.19" y="-131.4" font-family="Times,serif" font-size="14.00">address</text>
</g>
<!-- User&#45;&gt;Order -->
<g id="edge94" class="edge"><title>User&#45;&gt;Order</title>
<path fill="none" stroke="#0b0712" d="M611.948,-116.942C613.289,-120.572 614.444,-124.331 615.197,-128 624.907,-175.309 627.922,-194.513 603.197,-236 599.588,-242.055 594.505,-247.45 589.046,-252.083"/>
<ellipse fill="none" stroke="#0b0712" cx="610.32" cy="-112.986" rx="4.00001" ry="4.00001"/>
<polygon fill="#0b0712" stroke="#0b0712" points="588.848,-252.235 578.173,-254.742 584.878,-255.275 580.909,-258.315 580.909,-258.315 580.909,-258.315 584.878,-255.275 583.645,-261.888 588.848,-252.235 588.848,-252.235"/>
</g>
<!-- User&#45;&gt;Phone -->
<g id="edge98" class="edge"><title>User&#45;&gt;Phone</title>
<path fill="none" stroke="#998ca3" d="M593.753,-66.3208C593.354,-59.1686 593.345,-51.3526 593.726,-44.1706"/>
<ellipse fill="none" stroke="#998ca3" cx="594.075" cy="-70.3137" rx="4" ry="4"/>
<ellipse fill="#998ca3" stroke="#998ca3" cx="594.042" cy="-40.0966" rx="4" ry="4"/>
</g>
<!-- User&#45;&gt;Ticket -->
<g id="edge100" class="edge"><title>User&#45;&gt;Ticket</title>
<path fill="none" stroke="#a91305" d="M563.913,-81.929C510.072,-68.4687 409.336,-43.2848 352.999,-29.2006"/>
<polygon fill="#a91305" stroke="#a91305" points="563.917,-81.93 572.527,-88.7211 568.768,-83.1428 573.619,-84.3555 573.619,-84.3555 573.619,-84.3555 568.768,-83.1428 574.71,-79.9898 563.917,-81.93 563.917,-81.93"/>
<polygon fill="#a91305" stroke="#a91305" points="352.719,-29.1307 344.109,-22.3396 347.869,-27.918 343.018,-26.7053 343.018,-26.7053 343.018,-26.7053 347.869,-27.918 341.926,-31.0709 352.719,-29.1307 352.719,-29.1307"/>
</g>
<!-- Widget&#45;&gt;WidgetPlacement -->
<g id="edge102" class="edge"><title>Widget&#45;&gt;WidgetPlacement</title>
<path fill="none" stroke="#bf157d" d="M1328.02,-336.654C1322.16,-324.929 1315.13,-310.86 1309.16,-298.934"/>
<ellipse fill="none" stroke="#bf157d" cx="1329.92" cy="-340.455" rx="4.00002" ry="4.00002"/>
<polygon fill="#bf157d" stroke="#bf157d" points="1309.13,-298.859 1308.68,-287.903 1306.89,-294.387 1304.65,-289.915 1304.65,-289.915 1304.65,-289.915 1306.89,-294.387 1300.63,-291.928 1309.13,-298.859 1309.13,-298.859"/>
</g>
</g>
</svg>
