<?xml version="1.0" encoding="UTF-8" standalone="no"?>
<!DOCTYPE svg PUBLIC "-//W3C//DTD SVG 1.1//EN"
 "http://www.w3.org/Graphics/SVG/1.1/DTD/svg11.dtd">
<!-- Generated by graphviz version 2.28.0 (20120503.1651)
 -->
<!-- Title: models_diagram Pages: 1 -->
<svg width="2153pt" height="406pt"
 viewBox="0.00 0.00 2152.86 406.00" xmlns="http://www.w3.org/2000/svg" xmlns:xlink="http://www.w3.org/1999/xlink">
<g id="graph1" class="graph" transform="scale(1 1) rotate(0) translate(4 402)">
<title>models_diagram</title>
<polygon fill="white" stroke="white" points="-4,5 -4,-402 2149.86,-402 2149.86,5 -4,5"/>
<!-- _diagram_info -->
<g id="node1" class="node"><title>_diagram_info</title>
<text text-anchor="start" x="540.169" y="-381" font-family="Times,serif" font-size="13.00">Models diagram</text>
<text text-anchor="start" x="540.169" y="-365.4" font-family="Times,serif" font-size="13.00">Date: Sep 25 2012 &#45; 17:54</text>
<text text-anchor="start" x="540.169" y="-349.8" font-family="Times,serif" font-size="13.00">Migration version: 20120925200934</text>
<text text-anchor="start" x="540.169" y="-334.2" font-family="Times,serif" font-size="13.00">Generated by RailRoady 1.1.0</text>
<text text-anchor="start" x="540.169" y="-318.6" font-family="Times,serif" font-size="13.00">http://railroady.prestonlee.com</text>
</g>
<!-- Account -->
<g id="node2" class="node"><title>Account</title>
<ellipse fill="none" stroke="black" cx="800.856" cy="-355" rx="43.1305" ry="18"/>
<text text-anchor="middle" x="800.856" y="-349.4" font-family="Times,serif" font-size="14.00">Account</text>
</g>
<!-- Artist -->
<g id="node5" class="node"><title>Artist</title>
<ellipse fill="none" stroke="black" cx="151.856" cy="-256" rx="33.0501" ry="18"/>
<text text-anchor="middle" x="151.856" y="-250.4" font-family="Times,serif" font-size="14.00">Artist</text>
</g>
<!-- Account&#45;&gt;Artist -->
<g id="edge4" class="edge"><title>Account&#45;&gt;Artist</title>
<path fill="none" stroke="#3fbff2" d="M779.941,-332.333C770.895,-324.414 759.677,-316.339 747.856,-312 635.769,-270.854 325.036,-328.922 210.856,-294 199.172,-290.426 187.518,-283.908 177.691,-277.327"/>
<ellipse fill="none" stroke="#3fbff2" cx="782.89" cy="-335.039" rx="4.00002" ry="4.00002"/>
<polygon fill="#3fbff2" stroke="#3fbff2" points="177.398,-277.12 171.829,-267.673 173.315,-274.234 169.232,-271.348 169.232,-271.348 169.232,-271.348 173.315,-274.234 166.635,-275.022 177.398,-277.12 177.398,-277.12"/>
</g>
<!-- Chart -->
<g id="node6" class="node"><title>Chart</title>
<ellipse fill="none" stroke="black" cx="384.856" cy="-256" rx="32.2368" ry="18"/>
<text text-anchor="middle" x="384.856" y="-250.4" font-family="Times,serif" font-size="14.00">Chart</text>
</g>
<!-- Account&#45;&gt;Chart -->
<g id="edge6" class="edge"><title>Account&#45;&gt;Chart</title>
<path fill="none" stroke="#c81547" d="M779.619,-332.267C770.61,-324.444 759.504,-316.455 747.856,-312 624.341,-264.756 577.737,-331.275 450.856,-294 437.431,-290.056 423.751,-282.988 412.352,-276.078"/>
<ellipse fill="none" stroke="#c81547" cx="782.828" cy="-335.188" rx="4.00002" ry="4.00002"/>
<polygon fill="#c81547" stroke="#c81547" points="412.199,-275.981 406.155,-266.831 407.974,-273.308 403.749,-270.634 403.749,-270.634 403.749,-270.634 407.974,-273.308 401.342,-274.436 412.199,-275.981 412.199,-275.981"/>
</g>
<!-- CustomerImport -->
<g id="node11" class="node"><title>CustomerImport</title>
<ellipse fill="none" stroke="black" cx="851.856" cy="-256" rx="74.3094" ry="18"/>
<text text-anchor="middle" x="851.856" y="-250.4" font-family="Times,serif" font-size="14.00">CustomerImport</text>
</g>
<!-- Account&#45;&gt;CustomerImport -->
<g id="edge24" class="edge"><title>Account&#45;&gt;CustomerImport</title>
<path fill="none" stroke="#eb0197" d="M813.699,-329.574C821.174,-315.357 830.593,-297.442 838.203,-282.968"/>
<ellipse fill="none" stroke="#eb0197" cx="811.601" cy="-333.563" rx="4.00002" ry="4.00002"/>
<polygon fill="#eb0197" stroke="#eb0197" points="838.25,-282.879 846.887,-276.122 840.577,-278.454 842.904,-274.028 842.904,-274.028 842.904,-274.028 840.577,-278.454 838.921,-271.934 838.25,-282.879 838.25,-282.879"/>
</g>
<!-- Event -->
<g id="node12" class="node"><title>Event</title>
<ellipse fill="none" stroke="black" cx="384.856" cy="-166" rx="33.3419" ry="18"/>
<text text-anchor="middle" x="384.856" y="-160.4" font-family="Times,serif" font-size="14.00">Event</text>
</g>
<!-- Account&#45;&gt;Event -->
<g id="edge8" class="edge"><title>Account&#45;&gt;Event</title>
<path fill="none" stroke="#017354" d="M778.917,-332.611C769.945,-324.991 759.05,-317.054 747.856,-312 661.014,-272.785 624.777,-310.735 536.856,-274 486.989,-253.164 437.318,-213.799 408.927,-189.064"/>
<ellipse fill="none" stroke="#017354" cx="782.088" cy="-335.41" rx="4.00002" ry="4.00002"/>
<polygon fill="#017354" stroke="#017354" points="408.654,-188.822 404.142,-178.827 404.908,-185.51 401.162,-182.198 401.162,-182.198 401.162,-182.198 404.908,-185.51 398.181,-185.57 408.654,-188.822 408.654,-188.822"/>
</g>
<!-- Image -->
<g id="node13" class="node"><title>Image</title>
<ellipse fill="none" stroke="black" cx="979.856" cy="-256" rx="35.2475" ry="18"/>
<text text-anchor="middle" x="979.856" y="-250.4" font-family="Times,serif" font-size="14.00">Image</text>
</g>
<!-- Account&#45;&gt;Image -->
<g id="edge18" class="edge"><title>Account&#45;&gt;Image</title>
<path fill="none" stroke="#9ba0b0" d="M833.4,-336.365C865.84,-318.785 915.36,-291.95 947.674,-274.44"/>
<ellipse fill="none" stroke="#9ba0b0" cx="829.64" cy="-338.402" rx="4.00002" ry="4.00002"/>
<polygon fill="#9ba0b0" stroke="#9ba0b0" points="947.915,-274.309 958.851,-273.501 952.311,-271.927 956.707,-269.545 956.707,-269.545 956.707,-269.545 952.311,-271.927 954.563,-265.588 947.915,-274.309 947.915,-274.309"/>
</g>
<!-- Order -->
<g id="node14" class="node"><title>Order</title>
<ellipse fill="none" stroke="black" cx="661.856" cy="-166" rx="33.3348" ry="18"/>
<text text-anchor="middle" x="661.856" y="-160.4" font-family="Times,serif" font-size="14.00">Order</text>
</g>
<!-- Account&#45;&gt;Order -->
<g id="edge12" class="edge"><title>Account&#45;&gt;Order</title>
<path fill="none" stroke="#f07249" d="M783.509,-330.662C756.982,-294.974 706.596,-227.19 679.748,-191.069"/>
<ellipse fill="none" stroke="#f07249" cx="786.135" cy="-334.195" rx="4.00002" ry="4.00002"/>
<polygon fill="#f07249" stroke="#f07249" points="679.734,-191.051 677.38,-180.341 676.751,-187.038 673.769,-183.026 673.769,-183.026 673.769,-183.026 676.751,-187.038 670.157,-185.71 679.734,-191.051 679.734,-191.051"/>
</g>
<!-- Page -->
<g id="node15" class="node"><title>Page</title>
<ellipse fill="none" stroke="black" cx="1276.86" cy="-166" rx="29.216" ry="18"/>
<text text-anchor="middle" x="1276.86" y="-160.4" font-family="Times,serif" font-size="14.00">Page</text>
</g>
<!-- Account&#45;&gt;Page -->
<g id="edge14" class="edge"><title>Account&#45;&gt;Page</title>
<path fill="none" stroke="#c8d012" d="M841.312,-340.219C886.177,-324.766 960.58,-298.635 1023.86,-274 1120.01,-236.566 1143.01,-224.615 1237.86,-184 1239.9,-183.126 1242,-182.223 1244.11,-181.309"/>
<ellipse fill="none" stroke="#c8d012" cx="837.342" cy="-341.584" rx="4.00001" ry="4.00001"/>
<polygon fill="#c8d012" stroke="#c8d012" points="1244.19,-181.275 1255.16,-181.426 1248.78,-179.286 1253.37,-177.297 1253.37,-177.297 1253.37,-177.297 1248.78,-179.286 1251.58,-173.169 1244.19,-181.275 1244.19,-181.275"/>
</g>
<!-- Sidebar -->
<g id="node20" class="node"><title>Sidebar</title>
<ellipse fill="none" stroke="black" cx="1352.86" cy="-256" rx="40.303" ry="18"/>
<text text-anchor="middle" x="1352.86" y="-250.4" font-family="Times,serif" font-size="14.00">Sidebar</text>
</g>
<!-- Account&#45;&gt;Sidebar -->
<g id="edge16" class="edge"><title>Account&#45;&gt;Sidebar</title>
<path fill="none" stroke="#949430" d="M850.805,-348.959C929.719,-340.522 1087.84,-321.695 1219.86,-294 1250.71,-287.527 1284.97,-277.938 1310.99,-270.143"/>
<ellipse fill="none" stroke="#949430" cx="846.477" cy="-349.418" rx="4" ry="4"/>
<polygon fill="#949430" stroke="#949430" points="1311.32,-270.044 1322.2,-271.452 1316.11,-268.595 1320.89,-267.146 1320.89,-267.146 1320.89,-267.146 1316.11,-268.595 1319.59,-262.839 1311.32,-270.044 1311.32,-270.044"/>
</g>
<!-- Ticket -->
<g id="node21" class="node"><title>Ticket</title>
<ellipse fill="none" stroke="black" cx="384.856" cy="-18" rx="35.0524" ry="18"/>
<text text-anchor="middle" x="384.856" y="-12.4" font-family="Times,serif" font-size="14.00">Ticket</text>
</g>
<!-- Account&#45;&gt;Ticket -->
<g id="edge10" class="edge"><title>Account&#45;&gt;Ticket</title>
<path fill="none" stroke="#72dadd" d="M779.623,-332.256C770.615,-324.432 759.508,-316.445 747.856,-312 693.262,-291.174 224.856,-315.432 224.856,-257 224.856,-257 224.856,-257 224.856,-91 224.856,-40.3445 292.373,-25.1181 339.689,-20.6669"/>
<ellipse fill="none" stroke="#72dadd" cx="782.832" cy="-335.179" rx="4.00002" ry="4.00002"/>
<polygon fill="#72dadd" stroke="#72dadd" points="339.776,-20.6599 350.108,-24.3366 344.76,-20.2556 349.744,-19.8513 349.744,-19.8513 349.744,-19.8513 344.76,-20.2556 349.38,-15.3661 339.776,-20.6599 339.776,-20.6599"/>
</g>
<!-- TicketTemplate -->
<g id="node23" class="node"><title>TicketTemplate</title>
<ellipse fill="none" stroke="black" cx="1546.86" cy="-256" rx="71.2351" ry="18"/>
<text text-anchor="middle" x="1546.86" y="-250.4" font-family="Times,serif" font-size="14.00">TicketTemplate</text>
</g>
<!-- Account&#45;&gt;TicketTemplate -->
<g id="edge22" class="edge"><title>Account&#45;&gt;TicketTemplate</title>
<path fill="none" stroke="#c9720a" d="M850.181,-348.394C926.692,-339.815 1078.64,-323.243 1207.86,-312 1320.6,-302.19 1351.95,-320.973 1461.86,-294 1477.76,-290.098 1494.44,-283.456 1508.77,-276.866"/>
<ellipse fill="none" stroke="#c9720a" cx="846.097" cy="-348.853" rx="4.00001" ry="4.00001"/>
<polygon fill="#c9720a" stroke="#c9720a" points="1508.79,-276.859 1519.75,-276.639 1513.31,-274.716 1517.82,-272.573 1517.82,-272.573 1517.82,-272.573 1513.31,-274.716 1515.9,-268.507 1508.79,-276.859 1508.79,-276.859"/>
</g>
<!-- User -->
<g id="node24" class="node"><title>User</title>
<ellipse fill="none" stroke="black" cx="574.856" cy="-256" rx="28.9087" ry="18"/>
<text text-anchor="middle" x="574.856" y="-250.4" font-family="Times,serif" font-size="14.00">User</text>
</g>
<!-- Account&#45;&gt;User -->
<g id="edge2" class="edge"><title>Account&#45;&gt;User</title>
<path fill="none" stroke="#1fa8fb" d="M778.131,-333.012C769.197,-325.588 758.532,-317.68 747.856,-312 703.921,-288.623 648.362,-273.159 612.237,-264.74"/>
<ellipse fill="none" stroke="#1fa8fb" cx="781.267" cy="-335.694" rx="4.00002" ry="4.00002"/>
<polygon fill="#1fa8fb" stroke="#1fa8fb" points="611.89,-264.662 603.131,-258.063 607.013,-263.557 602.137,-262.452 602.137,-262.452 602.137,-262.452 607.013,-263.557 601.143,-266.841 611.89,-264.662 611.89,-264.662"/>
</g>
<!-- Widget -->
<g id="node25" class="node"><title>Widget</title>
<ellipse fill="none" stroke="black" cx="1464.86" cy="-166" rx="39.1177" ry="18"/>
<text text-anchor="middle" x="1464.86" y="-160.4" font-family="Times,serif" font-size="14.00">Widget</text>
</g>
<!-- Account&#45;&gt;Widget -->
<g id="edge20" class="edge"><title>Account&#45;&gt;Widget</title>
<path fill="none" stroke="#1691b6" d="M850.223,-348.616C989.819,-333.233 1378.83,-289.224 1401.86,-274 1430.31,-255.194 1447.65,-218.768 1456.75,-193.682"/>
<ellipse fill="none" stroke="#1691b6" cx="846.158" cy="-349.063" rx="4.00001" ry="4.00001"/>
<polygon fill="#1691b6" stroke="#1691b6" points="1456.82,-193.496 1464.31,-185.491 1458.44,-188.765 1460.05,-184.034 1460.05,-184.034 1460.05,-184.034 1458.44,-188.765 1455.8,-182.578 1456.82,-193.496 1456.82,-193.496"/>
</g>
<!-- Address -->
<g id="node3" class="node"><title>Address</title>
<ellipse fill="none" stroke="black" cx="478.856" cy="-166" rx="42.5278" ry="18"/>
<text text-anchor="middle" x="478.856" y="-160.4" font-family="Times,serif" font-size="14.00">Address</text>
</g>
<!-- Address&#45;&gt;User -->
<g id="edge26" class="edge"><title>Address&#45;&gt;User</title>
<path fill="none" stroke="#624b68" d="M506.371,-186.943C522.662,-200.716 542.695,-219.031 556.985,-233.191"/>
<ellipse fill="none" stroke="#624b68" cx="503.176" cy="-184.28" rx="4.00002" ry="4.00002"/>
<ellipse fill="#624b68" stroke="#624b68" cx="560.193" cy="-236.427" rx="4.00002" ry="4.00002"/>
</g>
<!-- Area -->
<g id="node4" class="node"><title>Area</title>
<ellipse fill="none" stroke="black" cx="309.856" cy="-92" rx="29.2021" ry="18"/>
<text text-anchor="middle" x="309.856" y="-86.4" font-family="Times,serif" font-size="14.00">Area</text>
</g>
<!-- Area&#45;&gt;Ticket -->
<g id="edge28" class="edge"><title>Area&#45;&gt;Ticket</title>
<path fill="none" stroke="#2dec7b" d="M331.037,-70.6664C340.531,-61.552 351.759,-50.7733 361.497,-41.4252"/>
<ellipse fill="none" stroke="#2dec7b" cx="327.919" cy="-73.6596" rx="4.00002" ry="4.00002"/>
<polygon fill="#2dec7b" stroke="#2dec7b" points="361.711,-41.2195 372.041,-37.5404 365.318,-37.7568 368.925,-34.2941 368.925,-34.2941 368.925,-34.2941 365.318,-37.7568 365.809,-31.0479 361.711,-41.2195 361.711,-41.2195"/>
</g>
<!-- Events -->
<g id="node42" class="node"><title>Events</title>
<ellipse fill="none" stroke="black" cx="79.8564" cy="-166" rx="36.9811" ry="18"/>
<text text-anchor="middle" x="79.8564" y="-160.4" font-family="Times,serif" font-size="14.00">Events</text>
</g>
<!-- Artist&#45;&gt;Events -->
<g id="edge30" class="edge"><title>Artist&#45;&gt;Events</title>
<path fill="none" stroke="#8b5d07" d="M144.885,-230.282C141.402,-220.784 136.486,-210.252 129.856,-202 125.02,-195.98 118.886,-190.551 112.584,-185.865"/>
<ellipse fill="none" stroke="#8b5d07" cx="146.197" cy="-234.155" rx="4.00001" ry="4.00001"/>
<polygon fill="#8b5d07" stroke="#8b5d07" points="112.229,-185.62 106.546,-176.242 108.111,-182.784 103.993,-179.949 103.993,-179.949 103.993,-179.949 108.111,-182.784 101.441,-183.655 112.229,-185.62 112.229,-185.62"/>
<text text-anchor="middle" x="169.622" y="-205.4" font-family="Times,serif" font-size="14.00">headliners</text>
</g>
<!-- Artist&#45;&gt;Events -->
<g id="edge32" class="edge"><title>Artist&#45;&gt;Events</title>
<path fill="none" stroke="#9b0251" d="M111.514,-250.98C72.5933,-246.169 17.6943,-236.605 4.57324,-220 -9.24985,-202.507 14.34,-188.342 38.6767,-179.072"/>
<ellipse fill="none" stroke="#9b0251" cx="115.584" cy="-251.463" rx="4.00001" ry="4.00001"/>
<polygon fill="#9b0251" stroke="#9b0251" points="38.8999,-178.993 49.8296,-179.883 43.611,-177.318 48.3221,-175.643 48.3221,-175.643 48.3221,-175.643 43.611,-177.318 46.8146,-171.403 38.8999,-178.993 38.8999,-178.993"/>
<text text-anchor="middle" x="65.498" y="-205.4" font-family="Times,serif" font-size="14.00">secondary_headliners</text>
</g>
<!-- Chart&#45;&gt;Event -->
<g id="edge36" class="edge"><title>Chart&#45;&gt;Event</title>
<path fill="none" stroke="#14af18" d="M384.856,-229.462C384.856,-217.712 384.856,-203.816 384.856,-192.118"/>
<ellipse fill="none" stroke="#14af18" cx="384.856" cy="-233.614" rx="4" ry="4"/>
<ellipse fill="#14af18" stroke="#14af18" cx="384.856" cy="-188.05" rx="4" ry="4"/>
</g>
<!-- Section -->
<g id="node19" class="node"><title>Section</title>
<ellipse fill="none" stroke="black" cx="292.856" cy="-166" rx="40.0039" ry="18"/>
<text text-anchor="middle" x="292.856" y="-160.4" font-family="Times,serif" font-size="14.00">Section</text>
</g>
<!-- Chart&#45;&gt;Section -->
<g id="edge34" class="edge"><title>Chart&#45;&gt;Section</title>
<path fill="none" stroke="#96943b" d="M363.443,-234.518C349.464,-221.146 331.194,-203.67 316.743,-189.848"/>
<ellipse fill="none" stroke="#96943b" cx="366.359" cy="-237.307" rx="4.00002" ry="4.00002"/>
<polygon fill="#96943b" stroke="#96943b" points="316.387,-189.507 312.271,-179.343 312.773,-186.051 309.16,-182.595 309.16,-182.595 309.16,-182.595 312.773,-186.051 306.05,-185.847 316.387,-189.507 316.387,-189.507"/>
</g>
<!-- Checkin -->
<g id="node7" class="node"><title>Checkin</title>
<ellipse fill="none" stroke="black" cx="1259.86" cy="-355" rx="43.3283" ry="18"/>
<text text-anchor="middle" x="1259.86" y="-349.4" font-family="Times,serif" font-size="14.00">Checkin</text>
</g>
<!-- Ckeditor::Asset -->
<g id="node8" class="node"><title>Ckeditor::Asset</title>
<ellipse fill="none" stroke="black" cx="1848.86" cy="-355" rx="71.4843" ry="18"/>
<text text-anchor="middle" x="1848.86" y="-349.4" font-family="Times,serif" font-size="14.00">Ckeditor::Asset</text>
</g>
<!-- Ckeditor::AttachmentFile -->
<g id="node9" class="node"><title>Ckeditor::AttachmentFile</title>
<ellipse fill="none" stroke="black" cx="1745.86" cy="-256" rx="109.906" ry="18"/>
<text text-anchor="middle" x="1745.86" y="-250.4" font-family="Times,serif" font-size="14.00">Ckeditor::AttachmentFile</text>
</g>
<!-- Ckeditor::Asset&#45;&gt;Ckeditor::AttachmentFile -->
<g id="edge38" class="edge"><title>Ckeditor::Asset&#45;&gt;Ckeditor::AttachmentFile</title>
<path fill="none" stroke="black" d="M1831.38,-337.545C1812.56,-319.816 1782.75,-291.747 1763.76,-273.861"/>
</g>
<!-- Ckeditor::Picture -->
<g id="node10" class="node"><title>Ckeditor::Picture</title>
<ellipse fill="none" stroke="black" cx="1951.86" cy="-256" rx="77.3258" ry="18"/>
<text text-anchor="middle" x="1951.86" y="-250.4" font-family="Times,serif" font-size="14.00">Ckeditor::Picture</text>
</g>
<!-- Ckeditor::Asset&#45;&gt;Ckeditor::Picture -->
<g id="edge40" class="edge"><title>Ckeditor::Asset&#45;&gt;Ckeditor::Picture</title>
<path fill="none" stroke="black" d="M1866.33,-337.545C1885.27,-319.708 1915.32,-291.404 1934.3,-273.535"/>
</g>
<!-- Event&#45;&gt;Ticket -->
<g id="edge42" class="edge"><title>Event&#45;&gt;Ticket</title>
<path fill="none" stroke="#996042" d="M384.856,-139.8C384.856,-113.827 384.856,-73.4489 384.856,-46.6216"/>
<ellipse fill="none" stroke="#996042" cx="384.856" cy="-143.966" rx="4" ry="4"/>
<polygon fill="#996042" stroke="#996042" points="384.857,-46.3779 389.356,-36.3778 384.856,-41.3779 384.856,-36.3779 384.856,-36.3779 384.856,-36.3779 384.856,-41.3779 380.356,-36.3779 384.857,-46.3779 384.857,-46.3779"/>
</g>
<!-- ActsAsTaggableOn::Tagging -->
<g id="node50" class="node"><title>ActsAsTaggableOn::Tagging</title>
<ellipse fill="none" stroke="black" cx="874.856" cy="-166" rx="123.097" ry="18"/>
<text text-anchor="middle" x="874.856" y="-160.4" font-family="Times,serif" font-size="14.00">ActsAsTaggableOn::Tagging</text>
</g>
<!-- Image&#45;&gt;ActsAsTaggableOn::Tagging -->
<g id="edge44" class="edge"><title>Image&#45;&gt;ActsAsTaggableOn::Tagging</title>
<path fill="none" stroke="#a78215" d="M945.229,-241.71C941.734,-240.431 938.231,-239.175 934.856,-238 909.99,-229.345 894.653,-240.727 878.415,-220 872.774,-212.799 870.97,-203.222 870.876,-194.191"/>
<ellipse fill="none" stroke="#a78215" cx="949.062" cy="-243.131" rx="4.00001" ry="4.00001"/>
<polygon fill="#a78215" stroke="#a78215" points="870.887,-194.001 875.918,-184.258 871.156,-189.008 871.425,-184.015 871.425,-184.015 871.425,-184.015 871.156,-189.008 866.932,-183.773 870.887,-194.001 870.887,-194.001"/>
<text text-anchor="middle" x="902.577" y="-205.4" font-family="Times,serif" font-size="14.00">taggings</text>
</g>
<!-- Image&#45;&gt;ActsAsTaggableOn::Tagging -->
<g id="edge48" class="edge"><title>Image&#45;&gt;ActsAsTaggableOn::Tagging</title>
<path fill="none" stroke="#8cddd9" d="M959.61,-233.458C949.798,-223.462 937.614,-211.68 925.856,-202 920.62,-197.689 914.864,-193.376 909.162,-189.322"/>
<ellipse fill="none" stroke="#8cddd9" cx="962.603" cy="-236.544" rx="4.00002" ry="4.00002"/>
<polygon fill="#8cddd9" stroke="#8cddd9" points="909.132,-189.301 903.48,-179.904 905.023,-186.451 900.915,-183.601 900.915,-183.601 900.915,-183.601 905.023,-186.451 898.35,-187.299 909.132,-189.301 909.132,-189.301"/>
<text text-anchor="middle" x="980.629" y="-205.4" font-family="Times,serif" font-size="14.00">tag_taggings</text>
</g>
<!-- ActsAsTaggableOn::Tag -->
<g id="node52" class="node"><title>ActsAsTaggableOn::Tag</title>
<ellipse fill="none" stroke="black" cx="1122.86" cy="-166" rx="106.344" ry="18"/>
<text text-anchor="middle" x="1122.86" y="-160.4" font-family="Times,serif" font-size="14.00">ActsAsTaggableOn::Tag</text>
</g>
<!-- Image&#45;&gt;ActsAsTaggableOn::Tag -->
<g id="edge46" class="edge"><title>Image&#45;&gt;ActsAsTaggableOn::Tag</title>
<path fill="none" stroke="#dafac2" d="M1003.96,-233.037C1015.9,-222.826 1030.85,-210.983 1045.43,-202 1054.28,-196.547 1064.13,-191.443 1073.75,-186.911"/>
<polygon fill="#dafac2" stroke="#dafac2" points="1003.76,-233.217 993.264,-236.401 999.99,-236.504 996.222,-239.791 996.222,-239.791 996.222,-239.791 999.99,-236.504 999.181,-243.182 1003.76,-233.217 1003.76,-233.217"/>
<polygon fill="#dafac2" stroke="#dafac2" points="1073.77,-186.901 1084.74,-186.84 1078.32,-184.824 1082.87,-182.747 1082.87,-182.747 1082.87,-182.747 1078.32,-184.824 1081,-178.653 1073.77,-186.901 1073.77,-186.901"/>
<text text-anchor="middle" x="1073.07" y="-205.4" font-family="Times,serif" font-size="14.00">base_tags</text>
</g>
<!-- Image&#45;&gt;ActsAsTaggableOn::Tag -->
<g id="edge50" class="edge"><title>Image&#45;&gt;ActsAsTaggableOn::Tag</title>
<path fill="none" stroke="#3ec2a3" d="M1024.3,-251.266C1049.08,-247.104 1079.04,-238.353 1099.86,-220 1107.67,-213.108 1112.93,-203.079 1116.43,-193.595"/>
<polygon fill="#3ec2a3" stroke="#3ec2a3" points="1024.28,-251.268 1013.73,-248.287 1019.34,-252.003 1014.39,-252.738 1014.39,-252.738 1014.39,-252.738 1019.34,-252.003 1015.05,-257.189 1024.28,-251.268 1024.28,-251.268"/>
<polygon fill="#3ec2a3" stroke="#3ec2a3" points="1116.43,-193.594 1123.75,-185.428 1117.94,-188.829 1119.46,-184.064 1119.46,-184.064 1119.46,-184.064 1117.94,-188.829 1115.17,-182.7 1116.43,-193.594 1116.43,-193.594"/>
<text text-anchor="middle" x="1124.13" y="-205.4" font-family="Times,serif" font-size="14.00">tags</text>
</g>
<!-- Order&#45;&gt;Ticket -->
<g id="edge52" class="edge"><title>Order&#45;&gt;Ticket</title>
<path fill="none" stroke="#d52803" d="M631.615,-149.06C579.187,-121.427 471.849,-64.8517 417.677,-36.2992"/>
<ellipse fill="none" stroke="#d52803" cx="635.177" cy="-150.938" rx="4.00002" ry="4.00002"/>
<polygon fill="#d52803" stroke="#d52803" points="417.365,-36.1343 410.616,-27.4906 412.941,-33.8029 408.518,-31.4715 408.518,-31.4715 408.518,-31.4715 412.941,-33.8029 406.42,-35.4524 417.365,-36.1343 417.365,-36.1343"/>
</g>
<!-- Page&#45;&gt;Page -->
<g id="edge54" class="edge"><title>Page&#45;&gt;Page</title>
<path fill="none" stroke="#f2f6ee" d="M1312.77,-172.373C1319.29,-171.561 1323.86,-169.437 1323.86,-166 1323.86,-162.862 1320.05,-160.819 1314.42,-159.869"/>
<ellipse fill="none" stroke="#f2f6ee" cx="1308.37" cy="-172.557" rx="4" ry="4"/>
<polygon fill="#f2f6ee" stroke="#f2f6ee" points="1314.36,-159.865 1304.64,-154.784 1309.37,-159.571 1304.37,-159.276 1304.37,-159.276 1304.37,-159.276 1309.37,-159.571 1304.11,-163.769 1314.36,-159.865 1314.36,-159.865"/>
<text text-anchor="middle" x="1346.79" y="-160.4" font-family="Times,serif" font-size="14.00">children</text>
</g>
<!-- PaymentMethod -->
<g id="node16" class="node"><title>PaymentMethod</title>
<polygon fill="none" stroke="black" points="2046.77,-373 1938.95,-373 1938.95,-337 2046.77,-337 2046.77,-373"/>
<text text-anchor="middle" x="1992.86" y="-349.4" font-family="Times,serif" font-size="14.00">PaymentMethod</text>
</g>
<!-- Phone -->
<g id="node17" class="node"><title>Phone</title>
<ellipse fill="none" stroke="black" cx="574.856" cy="-166" rx="35.2688" ry="18"/>
<text text-anchor="middle" x="574.856" y="-160.4" font-family="Times,serif" font-size="14.00">Phone</text>
</g>
<!-- Phone&#45;&gt;User -->
<g id="edge56" class="edge"><title>Phone&#45;&gt;User</title>
<path fill="none" stroke="#a99bf8" d="M581.017,-192.067C581.801,-203.899 581.803,-217.988 581.024,-229.832"/>
<ellipse fill="none" stroke="#a99bf8" cx="580.655" cy="-187.9" rx="4" ry="4"/>
<ellipse fill="#a99bf8" stroke="#a99bf8" cx="580.659" cy="-234.048" rx="4" ry="4"/>
</g>
<!-- Price -->
<g id="node18" class="node"><title>Price</title>
<ellipse fill="none" stroke="black" cx="292.856" cy="-256" rx="30.32" ry="18"/>
<text text-anchor="middle" x="292.856" y="-250.4" font-family="Times,serif" font-size="14.00">Price</text>
</g>
<!-- Price&#45;&gt;Section -->
<g id="edge58" class="edge"><title>Price&#45;&gt;Section</title>
<path fill="none" stroke="#89e714" d="M292.856,-229.462C292.856,-217.712 292.856,-203.816 292.856,-192.118"/>
<ellipse fill="none" stroke="#89e714" cx="292.856" cy="-233.614" rx="4" ry="4"/>
<ellipse fill="#89e714" stroke="#89e714" cx="292.856" cy="-188.05" rx="4" ry="4"/>
</g>
<!-- Section&#45;&gt;Area -->
<g id="edge60" class="edge"><title>Section&#45;&gt;Area</title>
<path fill="none" stroke="#08e3d5" d="M298.767,-139.965C300.305,-133.452 301.968,-126.41 303.526,-119.809"/>
<ellipse fill="none" stroke="#08e3d5" cx="297.804" cy="-144.044" rx="4.00001" ry="4.00001"/>
<polygon fill="#08e3d5" stroke="#08e3d5" points="303.559,-119.673 310.236,-110.975 304.708,-114.807 305.857,-109.941 305.857,-109.941 305.857,-109.941 304.708,-114.807 301.477,-108.906 303.559,-119.673 303.559,-119.673"/>
</g>
<!-- Sidebar&#45;&gt;Page -->
<g id="edge66" class="edge"><title>Sidebar&#45;&gt;Page</title>
<path fill="none" stroke="#0d6c38" d="M1333.36,-232.428C1322.07,-219.358 1307.91,-202.951 1296.58,-189.837"/>
<ellipse fill="none" stroke="#0d6c38" cx="1336.3" cy="-235.832" rx="4.00002" ry="4.00002"/>
<polygon fill="#0d6c38" stroke="#0d6c38" points="1296.48,-189.724 1293.35,-179.215 1293.21,-185.94 1289.95,-182.156 1289.95,-182.156 1289.95,-182.156 1293.21,-185.94 1286.54,-185.097 1296.48,-189.724 1296.48,-189.724"/>
</g>
<!-- Sidebar&#45;&gt;Widget -->
<g id="edge64" class="edge"><title>Sidebar&#45;&gt;Widget</title>
<path fill="none" stroke="#09c840" d="M1385.6,-236.059C1393.43,-231.122 1401.61,-225.605 1408.86,-220 1420.67,-210.865 1432.82,-199.626 1442.77,-189.852"/>
<polygon fill="#09c840" stroke="#09c840" points="1385.51,-236.119 1374.63,-237.528 1381.25,-238.74 1376.99,-241.361 1376.99,-241.361 1376.99,-241.361 1381.25,-238.74 1379.35,-245.193 1385.51,-236.119 1385.51,-236.119"/>
<polygon fill="#09c840" stroke="#09c840" points="1442.84,-189.789 1453.09,-185.907 1446.38,-186.256 1449.91,-182.723 1449.91,-182.723 1449.91,-182.723 1446.38,-186.256 1446.73,-179.539 1442.84,-189.789 1442.84,-189.789"/>
</g>
<!-- WidgetPlacement -->
<g id="node26" class="node"><title>WidgetPlacement</title>
<ellipse fill="none" stroke="black" cx="1420.86" cy="-92" rx="78.9508" ry="18"/>
<text text-anchor="middle" x="1420.86" y="-86.4" font-family="Times,serif" font-size="14.00">WidgetPlacement</text>
</g>
<!-- Sidebar&#45;&gt;WidgetPlacement -->
<g id="edge62" class="edge"><title>Sidebar&#45;&gt;WidgetPlacement</title>
<path fill="none" stroke="#55e399" d="M1362.99,-230.851C1375.5,-201.058 1396.69,-150.568 1409.66,-119.663"/>
<ellipse fill="none" stroke="#55e399" cx="1361.43" cy="-234.585" rx="4.00002" ry="4.00002"/>
<polygon fill="#55e399" stroke="#55e399" points="1409.7,-119.589 1417.72,-112.11 1411.63,-114.978 1413.57,-110.368 1413.57,-110.368 1413.57,-110.368 1411.63,-114.978 1409.42,-108.626 1409.7,-119.589 1409.7,-119.589"/>
</g>
<!-- TicketLock -->
<g id="node22" class="node"><title>TicketLock</title>
<polygon fill="none" stroke="black" points="2144.89,-373 2064.83,-373 2064.83,-337 2144.89,-337 2144.89,-373"/>
<text text-anchor="middle" x="2104.86" y="-349.4" font-family="Times,serif" font-size="14.00">TicketLock</text>
</g>
<!-- User&#45;&gt;Address -->
<g id="edge70" class="edge"><title>User&#45;&gt;Address</title>
<path fill="none" stroke="#1e73ef" d="M549.112,-236.548C533.15,-223.154 513.121,-204.927 498.434,-190.493"/>
<ellipse fill="none" stroke="#1e73ef" cx="552.651" cy="-239.469" rx="4.00002" ry="4.00002"/>
<polygon fill="#1e73ef" stroke="#1e73ef" points="498.355,-190.414 494.476,-180.157 494.823,-186.875 491.291,-183.336 491.291,-183.336 491.291,-183.336 494.823,-186.875 488.106,-186.515 498.355,-190.414 498.355,-190.414"/>
</g>
<!-- User&#45;&gt;Order -->
<g id="edge68" class="edge"><title>User&#45;&gt;Order</title>
<path fill="none" stroke="#c28cfa" d="M595.558,-234.061C608.833,-220.633 626.057,-203.211 639.622,-189.49"/>
<ellipse fill="none" stroke="#c28cfa" cx="592.427" cy="-237.227" rx="4.00002" ry="4.00002"/>
<polygon fill="#c28cfa" stroke="#c28cfa" points="639.703,-189.408 649.933,-185.461 643.218,-185.853 646.733,-182.297 646.733,-182.297 646.733,-182.297 643.218,-185.853 643.533,-179.133 639.703,-189.408 639.703,-189.408"/>
</g>
<!-- User&#45;&gt;Phone -->
<g id="edge72" class="edge"><title>User&#45;&gt;Phone</title>
<path fill="none" stroke="#3a083b" d="M568.689,-229.832C567.955,-218.677 567.915,-205.533 568.567,-194.157"/>
<ellipse fill="none" stroke="#3a083b" cx="569.054" cy="-234.048" rx="4" ry="4"/>
<polygon fill="#3a083b" stroke="#3a083b" points="568.589,-193.882 573.889,-184.282 568.997,-188.899 569.404,-183.915 569.404,-183.915 569.404,-183.915 568.997,-188.899 564.919,-183.548 568.589,-193.882 568.589,-193.882"/>
</g>
<!-- User&#45;&gt;Ticket -->
<g id="edge74" class="edge"><title>User&#45;&gt;Ticket</title>
<path fill="none" stroke="#3fce91" d="M609.977,-243.844C657.249,-226.874 732.327,-191.863 703.856,-148 643.407,-54.8682 502.588,-28.9709 429.961,-21.7712"/>
<polygon fill="#3fce91" stroke="#3fce91" points="609.804,-243.904 598.881,-242.938 605.082,-245.546 600.359,-247.188 600.359,-247.188 600.359,-247.188 605.082,-245.546 601.837,-251.438 609.804,-243.904 609.804,-243.904"/>
<polygon fill="#3fce91" stroke="#3fce91" points="429.717,-21.749 420.168,-16.3575 424.738,-21.2939 419.758,-20.8389 419.758,-20.8389 419.758,-20.8389 424.738,-21.2939 419.349,-25.3202 429.717,-21.749 429.717,-21.749"/>
</g>
<!-- Widget&#45;&gt;WidgetPlacement -->
<g id="edge76" class="edge"><title>Widget&#45;&gt;WidgetPlacement</title>
<path fill="none" stroke="#a0f603" d="M1450.32,-141.213C1445.95,-134.064 1441.14,-126.187 1436.69,-118.908"/>
<ellipse fill="none" stroke="#a0f603" cx="1452.57" cy="-144.888" rx="4.00002" ry="4.00002"/>
<polygon fill="#a0f603" stroke="#a0f603" points="1436.53,-118.641 1435.15,-107.762 1433.92,-114.375 1431.31,-110.109 1431.31,-110.109 1431.31,-110.109 1433.92,-114.375 1427.47,-112.455 1436.53,-118.641 1436.53,-118.641"/>
</g>
</g>
</svg>
