<?xml version="1.0" encoding="UTF-8" standalone="no"?>
<!DOCTYPE svg PUBLIC "-//W3C//DTD SVG 1.1//EN"
 "http://www.w3.org/Graphics/SVG/1.1/DTD/svg11.dtd">
<!-- Generated by graphviz version 2.28.0 (20120503.1651)
 -->
<!-- Title: models_diagram Pages: 1 -->
<svg width="2340pt" height="618pt"
 viewBox="0.00 0.00 2340.00 618.00" xmlns="http://www.w3.org/2000/svg" xmlns:xlink="http://www.w3.org/1999/xlink">
<g id="graph1" class="graph" transform="scale(1 1) rotate(0) translate(4 614)">
<title>models_diagram</title>
<polygon fill="white" stroke="white" points="-4,5 -4,-614 2337,-614 2337,5 -4,5"/>
<!-- _diagram_info -->
<g id="node1" class="node"><title>_diagram_info</title>
<text text-anchor="start" x="628.312" y="-593" font-family="Times,serif" font-size="13.00">Models diagram</text>
<text text-anchor="start" x="628.312" y="-577.4" font-family="Times,serif" font-size="13.00">Date: Jan 10 2013 &#45; 20:58</text>
<text text-anchor="start" x="628.312" y="-561.8" font-family="Times,serif" font-size="13.00">Migration version: 20121219230850</text>
<text text-anchor="start" x="628.312" y="-546.2" font-family="Times,serif" font-size="13.00">Generated by RailRoady 1.1.0</text>
<text text-anchor="start" x="628.312" y="-530.6" font-family="Times,serif" font-size="13.00">http://railroady.prestonlee.com</text>
</g>
<!-- Account -->
<g id="node2" class="node"><title>Account</title>
<ellipse fill="none" stroke="black" cx="889" cy="-567" rx="43.1305" ry="18"/>
<text text-anchor="middle" x="889" y="-561.4" font-family="Times,serif" font-size="14.00">Account</text>
</g>
<!-- AccountDomain -->
<g id="node3" class="node"><title>AccountDomain</title>
<ellipse fill="none" stroke="black" cx="74" cy="-452" rx="74.2954" ry="18"/>
<text text-anchor="middle" x="74" y="-446.4" font-family="Times,serif" font-size="14.00">AccountDomain</text>
</g>
<!-- Account&#45;&gt;AccountDomain -->
<g id="edge2" class="edge"><title>Account&#45;&gt;AccountDomain</title>
<path fill="none" stroke="#9bb656" d="M868.104,-544.282C859.06,-536.355 847.839,-528.289 836,-524 760.714,-496.727 187.116,-541.935 115.559,-506 103.722,-500.056 94.2228,-488.994 87.3108,-478.508"/>
<ellipse fill="none" stroke="#9bb656" cx="871.052" cy="-546.992" rx="4.00002" ry="4.00002"/>
<polygon fill="#9bb656" stroke="#9bb656" points="87.3101,-478.507 85.9645,-467.624 84.7143,-474.234 82.1185,-469.96 82.1185,-469.96 82.1185,-469.96 84.7143,-474.234 78.2724,-472.297 87.3101,-478.507 87.3101,-478.507"/>
<text text-anchor="middle" x="139.721" y="-491.4" font-family="Times,serif" font-size="14.00">domains</text>
</g>
<!-- Artist -->
<g id="node6" class="node"><title>Artist</title>
<ellipse fill="none" stroke="black" cx="172" cy="-272" rx="33.0501" ry="18"/>
<text text-anchor="middle" x="172" y="-266.4" font-family="Times,serif" font-size="14.00">Artist</text>
</g>
<!-- Account&#45;&gt;Artist -->
<g id="edge6" class="edge"><title>Account&#45;&gt;Artist</title>
<path fill="none" stroke="#58f3d9" d="M867.803,-544.161C858.799,-536.323 847.686,-528.352 836,-524 748.454,-491.399 505.665,-532.216 416,-506 330.038,-480.867 193.391,-329.527 191,-326 185.718,-318.207 181.721,-308.776 178.79,-300.043"/>
<ellipse fill="none" stroke="#58f3d9" cx="871.011" cy="-547.092" rx="4.00002" ry="4.00002"/>
<polygon fill="#58f3d9" stroke="#58f3d9" points="178.723,-299.822 180.132,-288.947 177.274,-295.037 175.825,-290.251 175.825,-290.251 175.825,-290.251 177.274,-295.037 171.518,-291.555 178.723,-299.822 178.723,-299.822"/>
</g>
<!-- Carousel -->
<g id="node7" class="node"><title>Carousel</title>
<ellipse fill="none" stroke="black" cx="937" cy="-452" rx="45.0468" ry="18"/>
<text text-anchor="middle" x="937" y="-446.4" font-family="Times,serif" font-size="14.00">Carousel</text>
</g>
<!-- Account&#45;&gt;Carousel -->
<g id="edge28" class="edge"><title>Account&#45;&gt;Carousel</title>
<path fill="none" stroke="#8ae5c3" d="M899.478,-541.333C907.259,-523.016 917.854,-498.072 925.802,-479.363"/>
<ellipse fill="none" stroke="#8ae5c3" cx="897.854" cy="-545.156" rx="4.00002" ry="4.00002"/>
<polygon fill="#8ae5c3" stroke="#8ae5c3" points="925.889,-479.158 933.94,-471.713 927.844,-474.556 929.799,-469.954 929.799,-469.954 929.799,-469.954 927.844,-474.556 925.657,-468.194 925.889,-479.158 925.889,-479.158"/>
</g>
<!-- Chart -->
<g id="node9" class="node"><title>Chart</title>
<ellipse fill="none" stroke="black" cx="503" cy="-452" rx="32.2368" ry="18"/>
<text text-anchor="middle" x="503" y="-446.4" font-family="Times,serif" font-size="14.00">Chart</text>
</g>
<!-- Account&#45;&gt;Chart -->
<g id="edge8" class="edge"><title>Account&#45;&gt;Chart</title>
<path fill="none" stroke="#6338cc" d="M867.664,-544.517C858.641,-536.729 847.551,-528.698 836,-524 763.574,-494.541 737.42,-522.534 661,-506 617.621,-496.615 569.498,-479.447 537.891,-467.193"/>
<ellipse fill="none" stroke="#6338cc" cx="870.876" cy="-547.414" rx="4.00002" ry="4.00002"/>
<polygon fill="#6338cc" stroke="#6338cc" points="537.545,-467.058 529.881,-459.215 532.891,-465.231 528.237,-463.404 528.237,-463.404 528.237,-463.404 532.891,-465.231 526.593,-467.593 537.545,-467.058 537.545,-467.058"/>
</g>
<!-- CustomerImport -->
<g id="node13" class="node"><title>CustomerImport</title>
<ellipse fill="none" stroke="black" cx="1075" cy="-452" rx="74.3094" ry="18"/>
<text text-anchor="middle" x="1075" y="-446.4" font-family="Times,serif" font-size="14.00">CustomerImport</text>
</g>
<!-- Account&#45;&gt;CustomerImport -->
<g id="edge26" class="edge"><title>Account&#45;&gt;CustomerImport</title>
<path fill="none" stroke="#d7993a" d="M919.421,-547.518C952.415,-527.474 1005.01,-495.519 1039.78,-474.4"/>
<ellipse fill="none" stroke="#d7993a" cx="915.976" cy="-549.612" rx="4.00002" ry="4.00002"/>
<polygon fill="#d7993a" stroke="#d7993a" points="1040.09,-474.206 1050.98,-472.86 1044.37,-471.61 1048.64,-469.014 1048.64,-469.014 1048.64,-469.014 1044.37,-471.61 1046.3,-465.168 1040.09,-474.206 1040.09,-474.206"/>
</g>
<!-- Event -->
<g id="node14" class="node"><title>Event</title>
<ellipse fill="none" stroke="black" cx="343" cy="-362" rx="33.3419" ry="18"/>
<text text-anchor="middle" x="343" y="-356.4" font-family="Times,serif" font-size="14.00">Event</text>
</g>
<!-- Account&#45;&gt;Event -->
<g id="edge10" class="edge"><title>Account&#45;&gt;Event</title>
<path fill="none" stroke="#a94c40" d="M867.73,-544.352C858.716,-536.541 847.615,-528.538 836,-524 741.367,-487.024 460.101,-534.983 382,-470 358.301,-450.282 349.003,-414.888 345.355,-390.23"/>
<ellipse fill="none" stroke="#a94c40" cx="870.94" cy="-547.266" rx="4.00002" ry="4.00002"/>
<polygon fill="#a94c40" stroke="#a94c40" points="345.326,-389.996 348.543,-379.512 344.702,-385.035 344.078,-380.074 344.078,-380.074 344.078,-380.074 344.702,-385.035 339.614,-380.635 345.326,-389.996 345.326,-389.996"/>
</g>
<!-- Gateway -->
<g id="node15" class="node"><title>Gateway</title>
<ellipse fill="none" stroke="black" cx="1213" cy="-452" rx="45.0328" ry="18"/>
<text text-anchor="middle" x="1213" y="-446.4" font-family="Times,serif" font-size="14.00">Gateway</text>
</g>
<!-- Account&#45;&gt;Gateway -->
<g id="edge32" class="edge"><title>Account&#45;&gt;Gateway</title>
<path fill="none" stroke="#753b81" d="M928.815,-552.114C990.148,-530.723 1107.23,-489.887 1170.28,-467.9"/>
<ellipse fill="none" stroke="#753b81" cx="925.028" cy="-553.435" rx="4.00001" ry="4.00001"/>
<polygon fill="#753b81" stroke="#753b81" points="1170.47,-467.832 1181.4,-468.788 1175.19,-466.186 1179.91,-464.539 1179.91,-464.539 1179.91,-464.539 1175.19,-466.186 1178.43,-460.29 1170.47,-467.832 1170.47,-467.832"/>
</g>
<!-- Image -->
<g id="node16" class="node"><title>Image</title>
<ellipse fill="none" stroke="black" cx="998" cy="-272" rx="35.2475" ry="18"/>
<text text-anchor="middle" x="998" y="-266.4" font-family="Times,serif" font-size="14.00">Image</text>
</g>
<!-- Account&#45;&gt;Image -->
<g id="edge20" class="edge"><title>Account&#45;&gt;Image</title>
<path fill="none" stroke="#05178a" d="M881.654,-541.087C870.38,-497.607 853.78,-406.544 891,-344 906.802,-317.446 936.858,-298.834 961.101,-287.347"/>
<ellipse fill="none" stroke="#05178a" cx="882.712" cy="-545.018" rx="4.00001" ry="4.00001"/>
<polygon fill="#05178a" stroke="#05178a" points="961.287,-287.263 972.253,-287.248 965.844,-285.205 970.401,-283.147 970.401,-283.147 970.401,-283.147 965.844,-285.205 968.549,-279.046 961.287,-287.263 961.287,-287.263"/>
</g>
<!-- Order -->
<g id="node17" class="node"><title>Order</title>
<ellipse fill="none" stroke="black" cx="641" cy="-272" rx="33.3348" ry="18"/>
<text text-anchor="middle" x="641" y="-266.4" font-family="Times,serif" font-size="14.00">Order</text>
</g>
<!-- Account&#45;&gt;Order -->
<g id="edge14" class="edge"><title>Account&#45;&gt;Order</title>
<path fill="none" stroke="#fecfcb" d="M866.351,-544.868C857.425,-537.427 846.746,-529.545 836,-524 810.501,-510.843 796.538,-523.758 774,-506 704.127,-450.945 664.485,-348.354 648.857,-299.797"/>
<ellipse fill="none" stroke="#fecfcb" cx="869.483" cy="-547.56" rx="4.00002" ry="4.00002"/>
<polygon fill="#fecfcb" stroke="#fecfcb" points="648.785,-299.566 650.098,-288.679 647.294,-294.794 645.803,-290.021 645.803,-290.021 645.803,-290.021 647.294,-294.794 641.507,-291.364 648.785,-299.566 648.785,-299.566"/>
</g>
<!-- Page -->
<g id="node20" class="node"><title>Page</title>
<ellipse fill="none" stroke="black" cx="1235" cy="-362" rx="29.216" ry="18"/>
<text text-anchor="middle" x="1235" y="-356.4" font-family="Times,serif" font-size="14.00">Page</text>
</g>
<!-- Account&#45;&gt;Page -->
<g id="edge16" class="edge"><title>Account&#45;&gt;Page</title>
<path fill="none" stroke="#9fc647" d="M938.876,-560.819C1032.07,-549.999 1226.85,-521.621 1267,-470 1286,-445.572 1268.87,-410.011 1253.27,-386.696"/>
<ellipse fill="none" stroke="#9fc647" cx="934.697" cy="-561.296" rx="4.00001" ry="4.00001"/>
<polygon fill="#9fc647" stroke="#9fc647" points="1253.2,-386.59 1251.13,-375.821 1250.33,-382.499 1247.45,-378.408 1247.45,-378.408 1247.45,-378.408 1250.33,-382.499 1243.77,-380.995 1253.2,-386.59 1253.2,-386.59"/>
</g>
<!-- Sidebar -->
<g id="node25" class="node"><title>Sidebar</title>
<ellipse fill="none" stroke="black" cx="1355" cy="-452" rx="40.303" ry="18"/>
<text text-anchor="middle" x="1355" y="-446.4" font-family="Times,serif" font-size="14.00">Sidebar</text>
</g>
<!-- Account&#45;&gt;Sidebar -->
<g id="edge18" class="edge"><title>Account&#45;&gt;Sidebar</title>
<path fill="none" stroke="#f74712" d="M939.53,-562.495C1034.88,-555.252 1237.4,-536.696 1300,-506 1313.85,-499.207 1326.47,-487.642 1336.12,-477.045"/>
<ellipse fill="none" stroke="#f74712" cx="935.461" cy="-562.8" rx="4" ry="4"/>
<polygon fill="#f74712" stroke="#f74712" points="1336.35,-476.786 1346.29,-472.171 1339.62,-473.006 1342.89,-469.226 1342.89,-469.226 1342.89,-469.226 1339.62,-473.006 1339.49,-466.28 1336.35,-476.786 1336.35,-476.786"/>
</g>
<!-- Theme -->
<g id="node26" class="node"><title>Theme</title>
<ellipse fill="none" stroke="black" cx="1490" cy="-452" rx="37.2739" ry="18"/>
<text text-anchor="middle" x="1490" y="-446.4" font-family="Times,serif" font-size="14.00">Theme</text>
</g>
<!-- Account&#45;&gt;Theme -->
<g id="edge30" class="edge"><title>Account&#45;&gt;Theme</title>
<path fill="none" stroke="#6c9dac" d="M940.518,-564.757C1059.7,-561.184 1350.92,-548.266 1438,-506 1451.49,-499.451 1463.46,-487.908 1472.5,-477.263"/>
<ellipse fill="none" stroke="#6c9dac" cx="936.237" cy="-564.881" rx="4" ry="4"/>
<polygon fill="#6c9dac" stroke="#6c9dac" points="1472.56,-477.19 1482.33,-472.214 1475.69,-473.293 1478.83,-469.395 1478.83,-469.395 1478.83,-469.395 1475.69,-473.293 1475.32,-466.576 1472.56,-477.19 1472.56,-477.19"/>
</g>
<!-- Ticket -->
<g id="node27" class="node"><title>Ticket</title>
<ellipse fill="none" stroke="black" cx="395" cy="-18" rx="35.0524" ry="18"/>
<text text-anchor="middle" x="395" y="-12.4" font-family="Times,serif" font-size="14.00">Ticket</text>
</g>
<!-- Account&#45;&gt;Ticket -->
<g id="edge12" class="edge"><title>Account&#45;&gt;Ticket</title>
<path fill="none" stroke="#51778c" d="M867.627,-543.731C849.357,-522.281 826,-488.011 826,-453 826,-453 826,-453 826,-136 826,-56.6635 550.568,-29.4023 440.069,-21.6577"/>
<ellipse fill="none" stroke="#51778c" cx="870.462" cy="-546.959" rx="4.00002" ry="4.00002"/>
<polygon fill="#51778c" stroke="#51778c" points="439.883,-21.6452 430.21,-16.4784 434.894,-21.3066 429.905,-20.9681 429.905,-20.9681 429.905,-20.9681 434.894,-21.3066 429.601,-25.4578 439.883,-21.6452 439.883,-21.6452"/>
</g>
<!-- TicketTemplate -->
<g id="node29" class="node"><title>TicketTemplate</title>
<ellipse fill="none" stroke="black" cx="1617" cy="-452" rx="71.2351" ry="18"/>
<text text-anchor="middle" x="1617" y="-446.4" font-family="Times,serif" font-size="14.00">TicketTemplate</text>
</g>
<!-- Account&#45;&gt;TicketTemplate -->
<g id="edge24" class="edge"><title>Account&#45;&gt;TicketTemplate</title>
<path fill="none" stroke="#57b1e3" d="M940.423,-564.627C1041.9,-561.048 1274.59,-548.508 1465,-506 1502.16,-497.703 1542.83,-483.224 1572.74,-471.494"/>
<ellipse fill="none" stroke="#57b1e3" cx="936.177" cy="-564.772" rx="4" ry="4"/>
<polygon fill="#57b1e3" stroke="#57b1e3" points="1572.76,-471.486 1583.71,-471.976 1577.4,-469.64 1582.05,-467.794 1582.05,-467.794 1582.05,-467.794 1577.4,-469.64 1580.39,-463.612 1572.76,-471.486 1572.76,-471.486"/>
</g>
<!-- User -->
<g id="node30" class="node"><title>User</title>
<ellipse fill="none" stroke="black" cx="683" cy="-92" rx="28.9087" ry="18"/>
<text text-anchor="middle" x="683" y="-86.4" font-family="Times,serif" font-size="14.00">User</text>
</g>
<!-- Account&#45;&gt;User -->
<g id="edge4" class="edge"><title>Account&#45;&gt;User</title>
<path fill="none" stroke="#fa9c8f" d="M863.557,-545.614C854.856,-538.702 845.039,-530.969 836,-524 825.441,-515.859 820.345,-516.399 812,-506 795.816,-485.833 788,-478.858 788,-453 788,-453 788,-453 788,-226 788,-176.252 742.185,-134.195 711.082,-111.374"/>
<ellipse fill="none" stroke="#fa9c8f" cx="866.832" cy="-548.222" rx="4.00002" ry="4.00002"/>
<polygon fill="#fa9c8f" stroke="#fa9c8f" points="710.903,-111.247 705.355,-101.788 706.826,-108.352 702.75,-105.457 702.75,-105.457 702.75,-105.457 706.826,-108.352 700.144,-109.126 710.903,-111.247 710.903,-111.247"/>
</g>
<!-- Widget -->
<g id="node31" class="node"><title>Widget</title>
<ellipse fill="none" stroke="black" cx="1423" cy="-362" rx="39.1177" ry="18"/>
<text text-anchor="middle" x="1423" y="-356.4" font-family="Times,serif" font-size="14.00">Widget</text>
</g>
<!-- Account&#45;&gt;Widget -->
<g id="edge22" class="edge"><title>Account&#45;&gt;Widget</title>
<path fill="none" stroke="#e90e9d" d="M940.276,-563.863C1022.98,-559.335 1190.27,-545.681 1326,-506 1362.65,-495.286 1380.68,-500.231 1404,-470 1421.51,-447.303 1424.93,-413.857 1424.81,-390.416"/>
<ellipse fill="none" stroke="#e90e9d" cx="936.054" cy="-564.087" rx="4" ry="4"/>
<polygon fill="#e90e9d" stroke="#e90e9d" points="1424.81,-390.11 1429.03,-379.993 1424.67,-385.112 1424.54,-380.114 1424.54,-380.114 1424.54,-380.114 1424.67,-385.112 1420.04,-380.236 1424.81,-390.11 1424.81,-390.11"/>
</g>
<!-- Address -->
<g id="node4" class="node"><title>Address</title>
<ellipse fill="none" stroke="black" cx="641" cy="-182" rx="42.5278" ry="18"/>
<text text-anchor="middle" x="641" y="-176.4" font-family="Times,serif" font-size="14.00">Address</text>
</g>
<!-- Address&#45;&gt;User -->
<g id="edge34" class="edge"><title>Address&#45;&gt;User</title>
<path fill="none" stroke="#f68e94" d="M633.182,-155.842C631.704,-146.668 631.745,-136.474 636,-128 639.903,-120.226 646.442,-113.741 653.42,-108.551"/>
<ellipse fill="none" stroke="#f68e94" cx="634.06" cy="-159.99" rx="4.00001" ry="4.00001"/>
<ellipse fill="#f68e94" stroke="#f68e94" cx="657.149" cy="-106.032" rx="4.00002" ry="4.00002"/>
</g>
<!-- Area -->
<g id="node5" class="node"><title>Area</title>
<ellipse fill="none" stroke="black" cx="435" cy="-272" rx="29.2021" ry="18"/>
<text text-anchor="middle" x="435" y="-266.4" font-family="Times,serif" font-size="14.00">Area</text>
</g>
<!-- Area&#45;&gt;Ticket -->
<g id="edge36" class="edge"><title>Area&#45;&gt;Ticket</title>
<path fill="none" stroke="#fe07af" d="M403.491,-257.759C394.609,-252.381 386.01,-245.217 381,-236 342.372,-164.931 365.703,-133.429 381,-54 381.557,-51.1081 382.351,-48.1515 383.281,-45.2421"/>
<ellipse fill="none" stroke="#fe07af" cx="407.111" cy="-259.759" rx="4.00002" ry="4.00002"/>
<polygon fill="#fe07af" stroke="#fe07af" points="383.344,-45.0718 391.041,-37.2613 385.083,-40.3839 386.822,-35.6961 386.822,-35.6961 386.822,-35.6961 385.083,-40.3839 382.603,-34.1309 383.344,-45.0718 383.344,-45.0718"/>
</g>
<!-- Events -->
<g id="node52" class="node"><title>Events</title>
<ellipse fill="none" stroke="black" cx="141" cy="-182" rx="36.9811" ry="18"/>
<text text-anchor="middle" x="141" y="-176.4" font-family="Times,serif" font-size="14.00">Events</text>
</g>
<!-- Artist&#45;&gt;Events -->
<g id="edge38" class="edge"><title>Artist&#45;&gt;Events</title>
<path fill="none" stroke="#5a87b8" d="M134.37,-261.212C121.678,-255.92 108.867,-247.93 101.469,-236 94.5562,-224.853 101.69,-213.098 111.709,-203.498"/>
<ellipse fill="none" stroke="#5a87b8" cx="138.465" cy="-262.758" rx="4.00001" ry="4.00001"/>
<polygon fill="#5a87b8" stroke="#5a87b8" points="111.769,-203.446 122.287,-200.342 115.561,-200.187 119.354,-196.929 119.354,-196.929 119.354,-196.929 115.561,-200.187 116.421,-193.515 111.769,-203.446 111.769,-203.446"/>
<text text-anchor="middle" x="130.766" y="-221.4" font-family="Times,serif" font-size="14.00">headliners</text>
</g>
<!-- Artist&#45;&gt;Events -->
<g id="edge40" class="edge"><title>Artist&#45;&gt;Events</title>
<path fill="none" stroke="#56fc77" d="M167.163,-246.114C165.085,-237.116 162.353,-226.969 159,-218 157.851,-214.928 156.501,-211.777 155.064,-208.686"/>
<ellipse fill="none" stroke="#56fc77" cx="168.031" cy="-250.079" rx="4.00001" ry="4.00001"/>
<polygon fill="#56fc77" stroke="#56fc77" points="155.062,-208.681 154.643,-197.723 152.837,-204.203 150.613,-199.726 150.613,-199.726 150.613,-199.726 152.837,-204.203 146.583,-201.728 155.062,-208.681 155.062,-208.681"/>
<text text-anchor="middle" x="225.642" y="-221.4" font-family="Times,serif" font-size="14.00">secondary_headliners</text>
</g>
<!-- CarouselItem -->
<g id="node8" class="node"><title>CarouselItem</title>
<ellipse fill="none" stroke="black" cx="963" cy="-362" rx="63.0907" ry="18"/>
<text text-anchor="middle" x="963" y="-356.4" font-family="Times,serif" font-size="14.00">CarouselItem</text>
</g>
<!-- Carousel&#45;&gt;CarouselItem -->
<g id="edge42" class="edge"><title>Carousel&#45;&gt;CarouselItem</title>
<path fill="none" stroke="#abef8b" d="M944.299,-426.296C947.655,-414.937 951.644,-401.437 955.073,-389.829"/>
<ellipse fill="none" stroke="#abef8b" cx="943.146" cy="-430.197" rx="4.00001" ry="4.00001"/>
<polygon fill="#abef8b" stroke="#abef8b" points="955.08,-389.806 962.229,-381.491 956.497,-385.011 957.914,-380.215 957.914,-380.215 957.914,-380.215 956.497,-385.011 953.598,-378.94 955.08,-389.806 955.08,-389.806"/>
</g>
<!-- CarouselItem&#45;&gt;Image -->
<g id="edge44" class="edge"><title>CarouselItem&#45;&gt;Image</title>
<path fill="none" stroke="#630115" d="M972.846,-336.244C977.672,-324.111 983.464,-309.546 988.274,-297.454"/>
<ellipse fill="none" stroke="#630115" cx="971.227" cy="-340.316" rx="4.00001" ry="4.00001"/>
<ellipse fill="#630115" stroke="#630115" cx="989.794" cy="-293.632" rx="4.00001" ry="4.00001"/>
</g>
<!-- Chart&#45;&gt;Area -->
<g id="edge48" class="edge"><title>Chart&#45;&gt;Area</title>
<path fill="none" stroke="#962197" d="M501.368,-423.643C499.294,-401.474 494.6,-369.795 484,-344 476.902,-326.727 465.094,-309.437 454.848,-296.244"/>
<polygon fill="#962197" stroke="#962197" points="501.374,-423.728 497.705,-434.061 501.782,-428.711 502.19,-433.694 502.19,-433.694 502.19,-433.694 501.782,-428.711 506.675,-433.328 501.374,-423.728 501.374,-423.728"/>
<polygon fill="#962197" stroke="#962197" points="454.66,-296.01 451.917,-285.393 451.533,-292.109 448.406,-288.207 448.406,-288.207 448.406,-288.207 451.533,-292.109 444.895,-291.022 454.66,-296.01 454.66,-296.01"/>
</g>
<!-- Chart&#45;&gt;Event -->
<g id="edge50" class="edge"><title>Chart&#45;&gt;Event</title>
<path fill="none" stroke="#ab556a" d="M473.61,-434.836C444.996,-419.098 401.723,-395.298 372.926,-379.46"/>
<ellipse fill="none" stroke="#ab556a" cx="477.248" cy="-436.836" rx="4.00002" ry="4.00002"/>
<ellipse fill="#ab556a" stroke="#ab556a" cx="369.079" cy="-377.343" rx="4.00002" ry="4.00002"/>
</g>
<!-- Section -->
<g id="node24" class="node"><title>Section</title>
<ellipse fill="none" stroke="black" cx="435" cy="-362" rx="40.0039" ry="18"/>
<text text-anchor="middle" x="435" y="-356.4" font-family="Times,serif" font-size="14.00">Section</text>
</g>
<!-- Chart&#45;&gt;Section -->
<g id="edge46" class="edge"><title>Chart&#45;&gt;Section</title>
<path fill="none" stroke="#7b5b1a" d="M485.657,-428.556C475.889,-415.915 463.684,-400.121 453.702,-387.203"/>
<ellipse fill="none" stroke="#7b5b1a" cx="488.397" cy="-432.102" rx="4.00002" ry="4.00002"/>
<polygon fill="#7b5b1a" stroke="#7b5b1a" points="453.626,-387.105 451.073,-376.44 450.569,-383.148 447.512,-379.192 447.512,-379.192 447.512,-379.192 450.569,-383.148 443.951,-381.943 453.626,-387.105 453.626,-387.105"/>
</g>
<!-- Ckeditor::Asset -->
<g id="node10" class="node"><title>Ckeditor::Asset</title>
<ellipse fill="none" stroke="black" cx="1919" cy="-567" rx="71.4843" ry="18"/>
<text text-anchor="middle" x="1919" y="-561.4" font-family="Times,serif" font-size="14.00">Ckeditor::Asset</text>
</g>
<!-- Ckeditor::AttachmentFile -->
<g id="node11" class="node"><title>Ckeditor::AttachmentFile</title>
<ellipse fill="none" stroke="black" cx="1816" cy="-452" rx="109.906" ry="18"/>
<text text-anchor="middle" x="1816" y="-446.4" font-family="Times,serif" font-size="14.00">Ckeditor::AttachmentFile</text>
</g>
<!-- Ckeditor::Asset&#45;&gt;Ckeditor::AttachmentFile -->
<g id="edge52" class="edge"><title>Ckeditor::Asset&#45;&gt;Ckeditor::AttachmentFile</title>
<path fill="none" stroke="black" d="M1903.8,-549.326C1884.44,-528.085 1851.15,-491.562 1831.6,-470.112"/>
</g>
<!-- Ckeditor::Picture -->
<g id="node12" class="node"><title>Ckeditor::Picture</title>
<ellipse fill="none" stroke="black" cx="2022" cy="-452" rx="77.3258" ry="18"/>
<text text-anchor="middle" x="2022" y="-446.4" font-family="Times,serif" font-size="14.00">Ckeditor::Picture</text>
</g>
<!-- Ckeditor::Asset&#45;&gt;Ckeditor::Picture -->
<g id="edge54" class="edge"><title>Ckeditor::Asset&#45;&gt;Ckeditor::Picture</title>
<path fill="none" stroke="black" d="M1934.2,-549.326C1953.67,-527.962 1987.24,-491.139 2006.74,-469.742"/>
</g>
<!-- Event&#45;&gt;Artist -->
<g id="edge60" class="edge"><title>Event&#45;&gt;Artist</title>
<path fill="none" stroke="#0bddf6" d="M300.022,-357.864C271.536,-353.982 234.543,-345.317 207.345,-326 197.642,-319.108 189.851,-308.646 184.079,-298.832"/>
<polygon fill="#0bddf6" stroke="#0bddf6" points="300.171,-357.882 309.555,-363.556 305.135,-358.485 310.098,-359.089 310.098,-359.089 310.098,-359.089 305.135,-358.485 310.641,-354.621 300.171,-357.882 300.171,-357.882"/>
<polygon fill="#0bddf6" stroke="#0bddf6" points="183.928,-298.554 183.125,-287.617 181.548,-294.157 179.167,-289.76 179.167,-289.76 179.167,-289.76 181.548,-294.157 175.21,-291.902 183.928,-298.554 183.928,-298.554"/>
<text text-anchor="middle" x="252.328" y="-311.4" font-family="Times,serif" font-size="14.00">supporting_acts</text>
</g>
<!-- Event&#45;&gt;Order -->
<g id="edge58" class="edge"><title>Event&#45;&gt;Order</title>
<path fill="none" stroke="#21b708" d="M378.199,-346.74C380.827,-345.781 383.448,-344.857 386,-344 461.194,-318.745 550.916,-295.269 601.39,-282.654"/>
<polygon fill="#21b708" stroke="#21b708" points="378.114,-346.772 367.169,-346.099 373.437,-348.54 368.76,-350.308 368.76,-350.308 368.76,-350.308 373.437,-348.54 370.351,-354.517 378.114,-346.772 378.114,-346.772"/>
<polygon fill="#21b708" stroke="#21b708" points="601.541,-282.617 612.331,-284.572 606.393,-281.411 611.246,-280.204 611.246,-280.204 611.246,-280.204 606.393,-281.411 610.16,-275.837 601.541,-282.617 601.541,-282.617"/>
</g>
<!-- Event&#45;&gt;Ticket -->
<g id="edge56" class="edge"><title>Event&#45;&gt;Ticket</title>
<path fill="none" stroke="#cc3877" d="M341.033,-335.828C337.892,-284.939 334.858,-166.776 365,-74 368.378,-63.6038 373.727,-52.8938 378.979,-43.7186"/>
<ellipse fill="none" stroke="#cc3877" cx="341.308" cy="-339.976" rx="4" ry="4"/>
<polygon fill="#cc3877" stroke="#cc3877" points="378.987,-43.7044 387.984,-37.4341 381.555,-39.4139 384.122,-35.1234 384.122,-35.1234 384.122,-35.1234 381.555,-39.4139 380.261,-32.8127 378.987,-43.7044 378.987,-43.7044"/>
</g>
<!-- Category -->
<g id="node65" class="node"><title>Category</title>
<ellipse fill="none" stroke="black" cx="269" cy="-272" rx="46.1519" ry="18"/>
<text text-anchor="middle" x="269" y="-266.4" font-family="Times,serif" font-size="14.00">Category</text>
</g>
<!-- Event&#45;&gt;Category -->
<g id="edge62" class="edge"><title>Event&#45;&gt;Category</title>
<path fill="none" stroke="#6650f9" d="M325.324,-338.777C317.636,-329.227 308.467,-317.987 300,-308 296.965,-304.421 293.72,-300.673 290.515,-297.015"/>
<ellipse fill="none" stroke="#6650f9" cx="327.879" cy="-341.963" rx="4.00002" ry="4.00002"/>
<polygon fill="#6650f9" stroke="#6650f9" points="290.278,-296.748 287.029,-286.274 286.968,-293 283.657,-289.253 283.657,-289.253 283.657,-289.253 286.968,-293 280.285,-292.233 290.278,-296.748 290.278,-296.748"/>
</g>
<!-- ActsAsTaggableOn::Tagging -->
<g id="node67" class="node"><title>ActsAsTaggableOn::Tagging</title>
<ellipse fill="none" stroke="black" cx="977" cy="-182" rx="123.097" ry="18"/>
<text text-anchor="middle" x="977" y="-176.4" font-family="Times,serif" font-size="14.00">ActsAsTaggableOn::Tagging</text>
</g>
<!-- Image&#45;&gt;ActsAsTaggableOn::Tagging -->
<g id="edge64" class="edge"><title>Image&#45;&gt;ActsAsTaggableOn::Tagging</title>
<path fill="none" stroke="#d033b4" d="M963.585,-256.667C955.223,-251.448 947.324,-244.644 942.559,-236 937.232,-226.338 941.402,-216.089 948.431,-207.206"/>
<ellipse fill="none" stroke="#d033b4" cx="967.182" cy="-258.709" rx="4.00002" ry="4.00002"/>
<polygon fill="#d033b4" stroke="#d033b4" points="948.443,-207.193 958.504,-202.83 951.811,-203.496 955.178,-199.8 955.178,-199.8 955.178,-199.8 951.811,-203.496 951.851,-196.769 948.443,-207.193 948.443,-207.193"/>
<text text-anchor="middle" x="966.721" y="-221.4" font-family="Times,serif" font-size="14.00">taggings</text>
</g>
<!-- Image&#45;&gt;ActsAsTaggableOn::Tagging -->
<g id="edge68" class="edge"><title>Image&#45;&gt;ActsAsTaggableOn::Tagging</title>
<path fill="none" stroke="#f97582" d="M995.245,-245.583C994.005,-236.77 992.292,-226.876 990,-218 989.31,-215.327 988.489,-212.574 987.601,-209.843"/>
<ellipse fill="none" stroke="#f97582" cx="995.776" cy="-249.667" rx="4.00001" ry="4.00001"/>
<polygon fill="#f97582" stroke="#f97582" points="987.533,-209.649 988.441,-198.721 985.866,-204.935 984.199,-200.221 984.199,-200.221 984.199,-200.221 985.866,-204.935 979.956,-201.721 987.533,-209.649 987.533,-209.649"/>
<text text-anchor="middle" x="1029.77" y="-221.4" font-family="Times,serif" font-size="14.00">tag_taggings</text>
</g>
<!-- ActsAsTaggableOn::Tag -->
<g id="node69" class="node"><title>ActsAsTaggableOn::Tag</title>
<ellipse fill="none" stroke="black" cx="1225" cy="-182" rx="106.344" ry="18"/>
<text text-anchor="middle" x="1225" y="-176.4" font-family="Times,serif" font-size="14.00">ActsAsTaggableOn::Tag</text>
</g>
<!-- Image&#45;&gt;ActsAsTaggableOn::Tag -->
<g id="edge66" class="edge"><title>Image&#45;&gt;ActsAsTaggableOn::Tag</title>
<path fill="none" stroke="#fdfaf2" d="M1034.74,-256.757C1072.81,-242 1132.56,-218.837 1174.93,-202.41"/>
<polygon fill="#fdfaf2" stroke="#fdfaf2" points="1034.71,-256.771 1023.75,-256.189 1030.04,-258.578 1025.38,-260.385 1025.38,-260.385 1025.38,-260.385 1030.04,-258.578 1027.01,-264.581 1034.71,-256.771 1034.71,-256.771"/>
<polygon fill="#fdfaf2" stroke="#fdfaf2" points="1175.17,-202.316 1186.13,-202.897 1179.84,-200.508 1184.5,-198.701 1184.5,-198.701 1184.5,-198.701 1179.84,-200.508 1182.87,-194.505 1175.17,-202.316 1175.17,-202.316"/>
<text text-anchor="middle" x="1159.21" y="-221.4" font-family="Times,serif" font-size="14.00">base_tags</text>
</g>
<!-- Image&#45;&gt;ActsAsTaggableOn::Tag -->
<g id="edge70" class="edge"><title>Image&#45;&gt;ActsAsTaggableOn::Tag</title>
<path fill="none" stroke="#9f3c90" d="M1042.41,-266.958C1091.36,-261.807 1166.31,-251.647 1190,-236 1199.9,-229.46 1207.66,-219.054 1213.33,-209.187"/>
<polygon fill="#9f3c90" stroke="#9f3c90" points="1042.34,-266.966 1031.93,-263.505 1037.37,-267.474 1032.39,-267.982 1032.39,-267.982 1032.39,-267.982 1037.37,-267.474 1032.85,-272.458 1042.34,-266.966 1042.34,-266.966"/>
<polygon fill="#9f3c90" stroke="#9f3c90" points="1213.49,-208.892 1222.12,-202.126 1215.81,-204.464 1218.13,-200.036 1218.13,-200.036 1218.13,-200.036 1215.81,-204.464 1214.15,-197.946 1213.49,-208.892 1213.49,-208.892"/>
<text text-anchor="middle" x="1218.28" y="-221.4" font-family="Times,serif" font-size="14.00">tags</text>
</g>
<!-- Order&#45;&gt;Address -->
<g id="edge76" class="edge"><title>Order&#45;&gt;Address</title>
<path fill="none" stroke="#03b75f" d="M641,-245.462C641,-233.712 641,-219.816 641,-208.118"/>
<ellipse fill="none" stroke="#03b75f" cx="641" cy="-249.614" rx="4" ry="4"/>
<ellipse fill="#03b75f" stroke="#03b75f" cx="641" cy="-204.05" rx="4" ry="4"/>
<text text-anchor="middle" x="661.993" y="-221.4" font-family="Times,serif" font-size="14.00">address</text>
</g>
<!-- OrderTransaction -->
<g id="node19" class="node"><title>OrderTransaction</title>
<ellipse fill="none" stroke="black" cx="502" cy="-182" rx="78.2088" ry="18"/>
<text text-anchor="middle" x="502" y="-176.4" font-family="Times,serif" font-size="14.00">OrderTransaction</text>
</g>
<!-- Order&#45;&gt;OrderTransaction -->
<g id="edge74" class="edge"><title>Order&#45;&gt;OrderTransaction</title>
<path fill="none" stroke="#e8540d" d="M608.333,-256.57C596.056,-250.71 582.166,-243.545 570.131,-236 555.997,-227.14 541.273,-215.965 529.145,-206.163"/>
<ellipse fill="none" stroke="#e8540d" cx="612.115" cy="-258.344" rx="4.00002" ry="4.00002"/>
<polygon fill="#e8540d" stroke="#e8540d" points="528.931,-205.987 524.058,-196.163 525.067,-202.814 521.202,-199.641 521.202,-199.641 521.202,-199.641 525.067,-202.814 518.347,-203.119 528.931,-205.987 528.931,-205.987"/>
<text text-anchor="middle" x="604.435" y="-221.4" font-family="Times,serif" font-size="14.00">transactions</text>
</g>
<!-- Phone -->
<g id="node22" class="node"><title>Phone</title>
<ellipse fill="none" stroke="black" cx="683" cy="-18" rx="35.2688" ry="18"/>
<text text-anchor="middle" x="683" y="-12.4" font-family="Times,serif" font-size="14.00">Phone</text>
</g>
<!-- Order&#45;&gt;Phone -->
<g id="edge78" class="edge"><title>Order&#45;&gt;Phone</title>
<path fill="none" stroke="#dcdecf" d="M675.522,-257.872C686.141,-252.443 697.1,-245.22 705,-236 716.068,-223.082 714.788,-216.705 718,-200 728.575,-144.991 737.677,-127.476 721,-74 717.274,-62.0529 709.945,-50.4125 702.71,-40.9399"/>
<ellipse fill="none" stroke="#dcdecf" cx="671.874" cy="-259.618" rx="4.00002" ry="4.00002"/>
<ellipse fill="#dcdecf" stroke="#dcdecf" cx="700.012" cy="-37.5735" rx="4.00002" ry="4.00002"/>
</g>
<!-- Order&#45;&gt;Ticket -->
<g id="edge72" class="edge"><title>Order&#45;&gt;Ticket</title>
<path fill="none" stroke="#1779e8" d="M599.37,-270.89C547.249,-268.299 459.319,-255.345 414,-200 378.046,-156.091 383.191,-84.697 389.462,-46.0003"/>
<ellipse fill="none" stroke="#1779e8" cx="603.419" cy="-271.057" rx="4" ry="4"/>
<polygon fill="#1779e8" stroke="#1779e8" points="389.488,-45.8505 395.659,-36.7855 390.358,-40.9267 391.227,-36.0029 391.227,-36.0029 391.227,-36.0029 390.358,-40.9267 386.796,-35.2203 389.488,-45.8505 389.488,-45.8505"/>
</g>
<!-- OrderPurchase -->
<g id="node18" class="node"><title>OrderPurchase</title>
<polygon fill="none" stroke="black" points="2107.39,-585 2008.61,-585 2008.61,-549 2107.39,-549 2107.39,-585"/>
<text text-anchor="middle" x="2058" y="-561.4" font-family="Times,serif" font-size="14.00">OrderPurchase</text>
</g>
<!-- Page&#45;&gt;Page -->
<g id="edge80" class="edge"><title>Page&#45;&gt;Page</title>
<path fill="none" stroke="#2e8b82" d="M1269.88,-369.931C1276.95,-369.061 1282,-366.418 1282,-362 1282,-357.958 1277.77,-355.402 1271.64,-354.33"/>
<ellipse fill="none" stroke="#2e8b82" cx="1265.57" cy="-370.059" rx="4" ry="4"/>
<polygon fill="#2e8b82" stroke="#2e8b82" points="1271.56,-354.326 1261.8,-349.328 1266.57,-354.074 1261.57,-353.823 1261.57,-353.823 1261.57,-353.823 1266.57,-354.074 1261.35,-358.317 1271.56,-354.326 1271.56,-354.326"/>
<text text-anchor="middle" x="1304.93" y="-356.4" font-family="Times,serif" font-size="14.00">children</text>
</g>
<!-- PaymentMethod -->
<g id="node21" class="node"><title>PaymentMethod</title>
<polygon fill="none" stroke="black" points="2233.91,-585 2126.09,-585 2126.09,-549 2233.91,-549 2233.91,-585"/>
<text text-anchor="middle" x="2180" y="-561.4" font-family="Times,serif" font-size="14.00">PaymentMethod</text>
</g>
<!-- Phone&#45;&gt;User -->
<g id="edge82" class="edge"><title>Phone&#45;&gt;User</title>
<path fill="none" stroke="#b7e64d" d="M689.471,-44.1706C689.852,-51.3526 689.843,-59.1686 689.444,-66.3208"/>
<ellipse fill="none" stroke="#b7e64d" cx="689.155" cy="-40.0966" rx="4" ry="4"/>
<ellipse fill="#b7e64d" stroke="#b7e64d" cx="689.122" cy="-70.3137" rx="4" ry="4"/>
</g>
<!-- Price -->
<g id="node23" class="node"><title>Price</title>
<ellipse fill="none" stroke="black" cx="422" cy="-452" rx="30.32" ry="18"/>
<text text-anchor="middle" x="422" y="-446.4" font-family="Times,serif" font-size="14.00">Price</text>
</g>
<!-- Price&#45;&gt;Section -->
<g id="edge84" class="edge"><title>Price&#45;&gt;Section</title>
<path fill="none" stroke="#b4568d" d="M425.71,-425.888C427.447,-414.126 429.513,-400.142 431.255,-388.351"/>
<ellipse fill="none" stroke="#b4568d" cx="425.091" cy="-430.076" rx="4.00001" ry="4.00001"/>
<ellipse fill="#b4568d" stroke="#b4568d" cx="431.872" cy="-384.173" rx="4.00001" ry="4.00001"/>
</g>
<!-- Section&#45;&gt;Area -->
<g id="edge86" class="edge"><title>Section&#45;&gt;Area</title>
<path fill="none" stroke="#ac9cd0" d="M435,-335.462C435,-324.397 435,-311.428 435,-300.184"/>
<ellipse fill="none" stroke="#ac9cd0" cx="435" cy="-339.614" rx="4" ry="4"/>
<polygon fill="#ac9cd0" stroke="#ac9cd0" points="435,-300.05 439.5,-290.05 435,-295.05 435,-290.05 435,-290.05 435,-290.05 435,-295.05 430.5,-290.05 435,-300.05 435,-300.05"/>
</g>
<!-- Sidebar&#45;&gt;Page -->
<g id="edge92" class="edge"><title>Sidebar&#45;&gt;Page</title>
<path fill="none" stroke="#ef7626" d="M1334.78,-428.903C1324.87,-418.787 1312.42,-407.063 1300,-398 1289.83,-390.579 1277.9,-383.7 1267.05,-378.039"/>
<ellipse fill="none" stroke="#ef7626" cx="1337.82" cy="-432.072" rx="4.00002" ry="4.00002"/>
<polygon fill="#ef7626" stroke="#ef7626" points="1266.79,-377.909 1259.9,-369.38 1262.33,-375.652 1257.86,-373.396 1257.86,-373.396 1257.86,-373.396 1262.33,-375.652 1255.83,-377.412 1266.79,-377.909 1266.79,-377.909"/>
</g>
<!-- Sidebar&#45;&gt;Widget -->
<g id="edge90" class="edge"><title>Sidebar&#45;&gt;Widget</title>
<path fill="none" stroke="#83ae65" d="M1373.6,-426.93C1383.09,-414.644 1394.62,-399.73 1404.15,-387.397"/>
<polygon fill="#83ae65" stroke="#83ae65" points="1373.59,-426.947 1363.91,-432.108 1370.53,-430.903 1367.47,-434.859 1367.47,-434.859 1367.47,-434.859 1370.53,-430.903 1371.03,-437.611 1373.59,-426.947 1373.59,-426.947"/>
<polygon fill="#83ae65" stroke="#83ae65" points="1404.26,-387.249 1413.94,-382.088 1407.32,-383.293 1410.38,-379.336 1410.38,-379.336 1410.38,-379.336 1407.32,-383.293 1406.82,-376.585 1404.26,-387.249 1404.26,-387.249"/>
</g>
<!-- WidgetPlacement -->
<g id="node32" class="node"><title>WidgetPlacement</title>
<ellipse fill="none" stroke="black" cx="1379" cy="-272" rx="78.9508" ry="18"/>
<text text-anchor="middle" x="1379" y="-266.4" font-family="Times,serif" font-size="14.00">WidgetPlacement</text>
</g>
<!-- Sidebar&#45;&gt;WidgetPlacement -->
<g id="edge88" class="edge"><title>Sidebar&#45;&gt;WidgetPlacement</title>
<path fill="none" stroke="#c8e829" d="M1358.41,-425.699C1362.89,-392.469 1370.73,-334.346 1375.33,-300.198"/>
<ellipse fill="none" stroke="#c8e829" cx="1357.84" cy="-429.968" rx="4.00001" ry="4.00001"/>
<polygon fill="#c8e829" stroke="#c8e829" points="1375.37,-299.926 1381.17,-290.617 1376.04,-294.971 1376.71,-290.016 1376.71,-290.016 1376.71,-290.016 1376.04,-294.971 1372.25,-289.414 1375.37,-299.926 1375.37,-299.926"/>
</g>
<!-- Version -->
<g id="node84" class="node"><title>Version</title>
<ellipse fill="none" stroke="black" cx="1521" cy="-362" rx="40.31" ry="18"/>
<text text-anchor="middle" x="1521" y="-356.4" font-family="Times,serif" font-size="14.00">Version</text>
</g>
<!-- Theme&#45;&gt;Version -->
<g id="edge94" class="edge"><title>Theme&#45;&gt;Version</title>
<path fill="none" stroke="#be114a" d="M1498.72,-426.244C1502.75,-414.804 1507.54,-401.203 1511.65,-389.55"/>
<ellipse fill="none" stroke="#be114a" cx="1497.31" cy="-430.26" rx="4.00001" ry="4.00001"/>
<polygon fill="#be114a" stroke="#be114a" points="1511.72,-389.347 1519.29,-381.41 1513.38,-384.631 1515.04,-379.915 1515.04,-379.915 1515.04,-379.915 1513.38,-384.631 1510.8,-378.42 1511.72,-389.347 1511.72,-389.347"/>
<text text-anchor="middle" x="1532.33" y="-401.4" font-family="Times,serif" font-size="14.00">versions</text>
</g>
<!-- TicketLock -->
<g id="node28" class="node"><title>TicketLock</title>
<polygon fill="none" stroke="black" points="2332.03,-585 2251.97,-585 2251.97,-549 2332.03,-549 2332.03,-585"/>
<text text-anchor="middle" x="2292" y="-561.4" font-family="Times,serif" font-size="14.00">TicketLock</text>
</g>
<!-- User&#45;&gt;Address -->
<g id="edge98" class="edge"><title>User&#45;&gt;Address</title>
<path fill="none" stroke="#102b69" d="M664.363,-114.566C661.27,-118.831 658.323,-123.413 656.014,-128 651.667,-136.633 648.413,-146.709 646.065,-155.744"/>
<ellipse fill="none" stroke="#102b69" cx="666.838" cy="-111.343" rx="4.00002" ry="4.00002"/>
<ellipse fill="#102b69" stroke="#102b69" cx="645.094" cy="-159.789" rx="4.00001" ry="4.00001"/>
<text text-anchor="middle" x="677.993" y="-131.4" font-family="Times,serif" font-size="14.00">address</text>
</g>
<!-- User&#45;&gt;Order -->
<g id="edge96" class="edge"><title>User&#45;&gt;Order</title>
<path fill="none" stroke="#e57689" d="M694.751,-116.942C696.092,-120.572 697.247,-124.331 698,-128 707.711,-175.309 710.725,-194.513 686,-236 682.391,-242.055 677.308,-247.45 671.849,-252.083"/>
<ellipse fill="none" stroke="#e57689" cx="693.123" cy="-112.986" rx="4.00001" ry="4.00001"/>
<polygon fill="#e57689" stroke="#e57689" points="671.651,-252.235 660.976,-254.742 667.681,-255.275 663.712,-258.315 663.712,-258.315 663.712,-258.315 667.681,-255.275 666.448,-261.888 671.651,-252.235 671.651,-252.235"/>
</g>
<!-- User&#45;&gt;Phone -->
<g id="edge100" class="edge"><title>User&#45;&gt;Phone</title>
<path fill="none" stroke="#d6c3d2" d="M676.556,-66.3208C676.157,-59.1686 676.148,-51.3526 676.529,-44.1706"/>
<ellipse fill="none" stroke="#d6c3d2" cx="676.878" cy="-70.3137" rx="4" ry="4"/>
<ellipse fill="#d6c3d2" stroke="#d6c3d2" cx="676.845" cy="-40.0966" rx="4" ry="4"/>
</g>
<!-- User&#45;&gt;Ticket -->
<g id="edge102" class="edge"><title>User&#45;&gt;Ticket</title>
<path fill="none" stroke="#e04d41" d="M646.716,-81.929C592.875,-68.4687 492.139,-43.2848 435.802,-29.2006"/>
<polygon fill="#e04d41" stroke="#e04d41" points="646.72,-81.93 655.33,-88.7211 651.571,-83.1428 656.422,-84.3555 656.422,-84.3555 656.422,-84.3555 651.571,-83.1428 657.513,-79.9898 646.72,-81.93 646.72,-81.93"/>
<polygon fill="#e04d41" stroke="#e04d41" points="435.522,-29.1307 426.912,-22.3396 430.672,-27.918 425.821,-26.7053 425.821,-26.7053 425.821,-26.7053 430.672,-27.918 424.73,-31.0709 435.522,-29.1307 435.522,-29.1307"/>
</g>
<!-- Widget&#45;&gt;WidgetPlacement -->
<g id="edge104" class="edge"><title>Widget&#45;&gt;WidgetPlacement</title>
<path fill="none" stroke="#5abdf3" d="M1410.83,-336.654C1404.96,-324.929 1397.93,-310.86 1391.97,-298.934"/>
<ellipse fill="none" stroke="#5abdf3" cx="1412.73" cy="-340.455" rx="4.00002" ry="4.00002"/>
<polygon fill="#5abdf3" stroke="#5abdf3" points="1391.93,-298.859 1391.48,-287.903 1389.69,-294.387 1387.46,-289.915 1387.46,-289.915 1387.46,-289.915 1389.69,-294.387 1383.43,-291.928 1391.93,-298.859 1391.93,-298.859"/>
</g>
</g>
</svg>
