<?xml version="1.0" encoding="UTF-8" standalone="no"?>
<!DOCTYPE svg PUBLIC "-//W3C//DTD SVG 1.1//EN"
 "http://www.w3.org/Graphics/SVG/1.1/DTD/svg11.dtd">
<!-- Generated by graphviz version 2.28.0 (20120503.1651)
 -->
<!-- Title: models_diagram Pages: 1 -->
<svg width="1614pt" height="406pt"
 viewBox="0.00 0.00 1614.00 406.00" xmlns="http://www.w3.org/2000/svg" xmlns:xlink="http://www.w3.org/1999/xlink">
<g id="graph1" class="graph" transform="scale(1 1) rotate(0) translate(4 402)">
<title>models_diagram</title>
<polygon fill="white" stroke="white" points="-4,5 -4,-402 1611,-402 1611,5 -4,5"/>
<!-- _diagram_info -->
<g id="node1" class="node"><title>_diagram_info</title>
<text text-anchor="start" x="154.312" y="-381" font-family="Times,serif" font-size="13.00">Models diagram</text>
<text text-anchor="start" x="154.312" y="-365.4" font-family="Times,serif" font-size="13.00">Date: Sep 23 2012 &#45; 10:39</text>
<text text-anchor="start" x="154.312" y="-349.8" font-family="Times,serif" font-size="13.00">Migration version: 20120923143637</text>
<text text-anchor="start" x="154.312" y="-334.2" font-family="Times,serif" font-size="13.00">Generated by RailRoady 1.1.0</text>
<text text-anchor="start" x="154.312" y="-318.6" font-family="Times,serif" font-size="13.00">http://railroady.prestonlee.com</text>
</g>
<!-- Account -->
<g id="node2" class="node"><title>Account</title>
<ellipse fill="none" stroke="black" cx="415" cy="-355" rx="43.1305" ry="18"/>
<text text-anchor="middle" x="415" y="-349.4" font-family="Times,serif" font-size="14.00">Account</text>
</g>
<!-- Artist -->
<g id="node5" class="node"><title>Artist</title>
<ellipse fill="none" stroke="black" cx="712" cy="-256" rx="33.0501" ry="18"/>
<text text-anchor="middle" x="712" y="-250.4" font-family="Times,serif" font-size="14.00">Artist</text>
</g>
<!-- Account&#45;&gt;Artist -->
<g id="edge4" class="edge"><title>Account&#45;&gt;Artist</title>
<path fill="none" stroke="#4dc70b" d="M457.796,-341.722C508.741,-326.842 596.206,-300.462 670,-274 672.249,-273.193 674.556,-272.339 676.875,-271.459"/>
<ellipse fill="none" stroke="#4dc70b" cx="453.782" cy="-342.891" rx="4.00001" ry="4.00001"/>
<polygon fill="#4dc70b" stroke="#4dc70b" points="677.044,-271.393 687.996,-271.952 681.702,-269.576 686.361,-267.759 686.361,-267.759 686.361,-267.759 681.702,-269.576 684.725,-263.567 677.044,-271.393 677.044,-271.393"/>
</g>
<!-- Chart -->
<g id="node6" class="node"><title>Chart</title>
<ellipse fill="none" stroke="black" cx="317" cy="-256" rx="32.2368" ry="18"/>
<text text-anchor="middle" x="317" y="-250.4" font-family="Times,serif" font-size="14.00">Chart</text>
</g>
<!-- Account&#45;&gt;Chart -->
<g id="edge6" class="edge"><title>Account&#45;&gt;Chart</title>
<path fill="none" stroke="#a97b33" d="M392.853,-332.079C376.96,-316.348 355.614,-295.22 339.616,-279.385"/>
<ellipse fill="none" stroke="#a97b33" cx="395.974" cy="-335.169" rx="4.00002" ry="4.00002"/>
<polygon fill="#a97b33" stroke="#a97b33" points="339.346,-279.118 335.404,-268.885 335.792,-275.6 332.239,-272.083 332.239,-272.083 332.239,-272.083 335.792,-275.6 329.073,-275.281 339.346,-279.118 339.346,-279.118"/>
</g>
<!-- CustomerImport -->
<g id="node11" class="node"><title>CustomerImport</title>
<ellipse fill="none" stroke="black" cx="74" cy="-256" rx="74.3094" ry="18"/>
<text text-anchor="middle" x="74" y="-250.4" font-family="Times,serif" font-size="14.00">CustomerImport</text>
</g>
<!-- Account&#45;&gt;CustomerImport -->
<g id="edge18" class="edge"><title>Account&#45;&gt;CustomerImport</title>
<path fill="none" stroke="#7bed9f" d="M393.693,-332.444C384.675,-324.645 373.58,-316.627 362,-312 279.535,-279.047 249.216,-315.29 163,-294 146.609,-289.952 129.313,-283.348 114.371,-276.83"/>
<ellipse fill="none" stroke="#7bed9f" cx="396.904" cy="-335.348" rx="4.00002" ry="4.00002"/>
<polygon fill="#7bed9f" stroke="#7bed9f" points="114.048,-276.685 106.77,-268.483 109.487,-274.637 104.926,-272.588 104.926,-272.588 104.926,-272.588 109.487,-274.637 103.082,-276.693 114.048,-276.685 114.048,-276.685"/>
</g>
<!-- Event -->
<g id="node12" class="node"><title>Event</title>
<ellipse fill="none" stroke="black" cx="377" cy="-166" rx="33.3419" ry="18"/>
<text text-anchor="middle" x="377" y="-160.4" font-family="Times,serif" font-size="14.00">Event</text>
</g>
<!-- Account&#45;&gt;Event -->
<g id="edge8" class="edge"><title>Account&#45;&gt;Event</title>
<path fill="none" stroke="#b8b71c" d="M408.957,-329.171C406.397,-318.386 403.447,-305.593 401,-294 393.783,-259.805 386.464,-220.209 381.839,-194.442"/>
<ellipse fill="none" stroke="#b8b71c" cx="409.893" cy="-333.083" rx="4.00001" ry="4.00001"/>
<polygon fill="#b8b71c" stroke="#b8b71c" points="381.786,-194.146 384.459,-183.511 380.908,-189.224 380.029,-184.301 380.029,-184.301 380.029,-184.301 380.908,-189.224 375.599,-185.092 381.786,-194.146 381.786,-194.146"/>
</g>
<!-- Order -->
<g id="node13" class="node"><title>Order</title>
<ellipse fill="none" stroke="black" cx="502" cy="-166" rx="33.3348" ry="18"/>
<text text-anchor="middle" x="502" y="-160.4" font-family="Times,serif" font-size="14.00">Order</text>
</g>
<!-- Account&#45;&gt;Order -->
<g id="edge12" class="edge"><title>Account&#45;&gt;Order</title>
<path fill="none" stroke="#bbd68a" d="M414.884,-328.853C415.719,-304.43 419.566,-266.908 434,-238 443.778,-218.416 460.826,-200.635 475.405,-187.765"/>
<ellipse fill="none" stroke="#bbd68a" cx="414.792" cy="-332.911" rx="4" ry="4"/>
<polygon fill="#bbd68a" stroke="#bbd68a" points="475.573,-187.622 486.105,-184.567 479.381,-184.381 483.188,-181.141 483.188,-181.141 483.188,-181.141 479.381,-184.381 480.272,-177.714 475.573,-187.622 475.573,-187.622"/>
</g>
<!-- Page -->
<g id="node14" class="node"><title>Page</title>
<ellipse fill="none" stroke="black" cx="793" cy="-256" rx="29.216" ry="18"/>
<text text-anchor="middle" x="793" y="-250.4" font-family="Times,serif" font-size="14.00">Page</text>
</g>
<!-- Account&#45;&gt;Page -->
<g id="edge14" class="edge"><title>Account&#45;&gt;Page</title>
<path fill="none" stroke="#a47cf5" d="M462.449,-345.593C528.693,-333.229 652.211,-307.891 754,-274 756.247,-273.252 758.543,-272.425 760.84,-271.549"/>
<ellipse fill="none" stroke="#a47cf5" cx="458.203" cy="-346.379" rx="4.00001" ry="4.00001"/>
<polygon fill="#a47cf5" stroke="#a47cf5" points="760.904,-271.524 771.862,-271.935 765.537,-269.644 770.17,-267.765 770.17,-267.765 770.17,-267.765 765.537,-269.644 768.479,-263.595 760.904,-271.524 760.904,-271.524"/>
</g>
<!-- Ticket -->
<g id="node20" class="node"><title>Ticket</title>
<ellipse fill="none" stroke="black" cx="377" cy="-18" rx="35.0524" ry="18"/>
<text text-anchor="middle" x="377" y="-12.4" font-family="Times,serif" font-size="14.00">Ticket</text>
</g>
<!-- Account&#45;&gt;Ticket -->
<g id="edge10" class="edge"><title>Account&#45;&gt;Ticket</title>
<path fill="none" stroke="#d20f84" d="M392.517,-332.534C383.61,-325.055 372.901,-317.233 362,-312 284.671,-274.876 177,-342.779 177,-257 177,-257 177,-257 177,-91 177,-58.0143 274.527,-35.9873 333.373,-25.6989"/>
<ellipse fill="none" stroke="#d20f84" cx="395.642" cy="-335.253" rx="4.00002" ry="4.00002"/>
<polygon fill="#d20f84" stroke="#d20f84" points="333.666,-25.6491 344.279,-28.4091 338.595,-24.8109 343.524,-23.9728 343.524,-23.9728 343.524,-23.9728 338.595,-24.8109 342.77,-19.5365 333.666,-25.6491 333.666,-25.6491"/>
</g>
<!-- TicketTemplate -->
<g id="node22" class="node"><title>TicketTemplate</title>
<ellipse fill="none" stroke="black" cx="514" cy="-256" rx="71.2351" ry="18"/>
<text text-anchor="middle" x="514" y="-250.4" font-family="Times,serif" font-size="14.00">TicketTemplate</text>
</g>
<!-- Account&#45;&gt;TicketTemplate -->
<g id="edge16" class="edge"><title>Account&#45;&gt;TicketTemplate</title>
<path fill="none" stroke="#9c0096" d="M437.187,-332.262C452.728,-317.034 473.499,-296.683 489.522,-280.983"/>
<ellipse fill="none" stroke="#9c0096" cx="434.205" cy="-335.183" rx="4.00002" ry="4.00002"/>
<polygon fill="#9c0096" stroke="#9c0096" points="489.821,-280.691 500.113,-276.906 493.392,-277.191 496.964,-273.692 496.964,-273.692 496.964,-273.692 493.392,-277.191 493.814,-270.478 489.821,-280.691 489.821,-280.691"/>
</g>
<!-- User -->
<g id="node23" class="node"><title>User</title>
<ellipse fill="none" stroke="black" cx="632" cy="-256" rx="28.9087" ry="18"/>
<text text-anchor="middle" x="632" y="-250.4" font-family="Times,serif" font-size="14.00">User</text>
</g>
<!-- Account&#45;&gt;User -->
<g id="edge2" class="edge"><title>Account&#45;&gt;User</title>
<path fill="none" stroke="#95c9f9" d="M450.827,-337.985C492.237,-319.475 559.786,-289.28 599.657,-271.457"/>
<ellipse fill="none" stroke="#95c9f9" cx="447.021" cy="-339.687" rx="4.00002" ry="4.00002"/>
<polygon fill="#95c9f9" stroke="#95c9f9" points="599.796,-271.396 610.761,-271.423 604.36,-269.355 608.925,-267.315 608.925,-267.315 608.925,-267.315 604.36,-269.355 607.089,-263.206 599.796,-271.396 599.796,-271.396"/>
</g>
<!-- Address -->
<g id="node3" class="node"><title>Address</title>
<ellipse fill="none" stroke="black" cx="599" cy="-166" rx="42.5278" ry="18"/>
<text text-anchor="middle" x="599" y="-160.4" font-family="Times,serif" font-size="14.00">Address</text>
</g>
<!-- Address&#45;&gt;User -->
<g id="edge20" class="edge"><title>Address&#45;&gt;User</title>
<path fill="none" stroke="#0170fd" d="M614.064,-190.946C619.434,-202.98 624.93,-217.558 628.709,-229.766"/>
<ellipse fill="none" stroke="#0170fd" cx="612.262" cy="-187.082" rx="4.00002" ry="4.00002"/>
<ellipse fill="#0170fd" stroke="#0170fd" cx="629.87" cy="-233.772" rx="4.00001" ry="4.00001"/>
</g>
<!-- Area -->
<g id="node4" class="node"><title>Area</title>
<ellipse fill="none" stroke="black" cx="311" cy="-92" rx="29.2021" ry="18"/>
<text text-anchor="middle" x="311" y="-86.4" font-family="Times,serif" font-size="14.00">Area</text>
</g>
<!-- Area&#45;&gt;Ticket -->
<g id="edge22" class="edge"><title>Area&#45;&gt;Ticket</title>
<path fill="none" stroke="#2d992e" d="M330.459,-69.7715C338.414,-61.0943 347.638,-51.0318 355.766,-42.1648"/>
<ellipse fill="none" stroke="#2d992e" cx="327.7" cy="-72.782" rx="4.00002" ry="4.00002"/>
<polygon fill="#2d992e" stroke="#2d992e" points="355.81,-42.1166 365.884,-37.7859 359.188,-38.4309 362.567,-34.7451 362.567,-34.7451 362.567,-34.7451 359.188,-38.4309 359.25,-31.7043 355.81,-42.1166 355.81,-42.1166"/>
</g>
<!-- Events -->
<g id="node38" class="node"><title>Events</title>
<ellipse fill="none" stroke="black" cx="786" cy="-166" rx="36.9811" ry="18"/>
<text text-anchor="middle" x="786" y="-160.4" font-family="Times,serif" font-size="14.00">Events</text>
</g>
<!-- Artist&#45;&gt;Events -->
<g id="edge24" class="edge"><title>Artist&#45;&gt;Events</title>
<path fill="none" stroke="#7bbe59" d="M706.261,-229.997C705.444,-220.574 706.279,-210.17 711.469,-202 715.848,-195.105 731.17,-187.391 746.793,-180.963"/>
<ellipse fill="none" stroke="#7bbe59" cx="706.8" cy="-233.981" rx="4.00001" ry="4.00001"/>
<polygon fill="#7bbe59" stroke="#7bbe59" points="747.162,-180.818 758.116,-181.332 751.813,-178.982 756.463,-177.146 756.463,-177.146 756.463,-177.146 751.813,-178.982 754.811,-172.961 747.162,-180.818 747.162,-180.818"/>
<text text-anchor="middle" x="740.766" y="-205.4" font-family="Times,serif" font-size="14.00">headliners</text>
</g>
<!-- Artist&#45;&gt;Events -->
<g id="edge26" class="edge"><title>Artist&#45;&gt;Events</title>
<path fill="none" stroke="#e0895d" d="M744.461,-240.439C753.441,-235.101 762.496,-228.29 769,-220 774.83,-212.568 778.687,-203.085 781.227,-194.2"/>
<ellipse fill="none" stroke="#e0895d" cx="740.821" cy="-242.462" rx="4.00002" ry="4.00002"/>
<polygon fill="#e0895d" stroke="#e0895d" points="781.294,-193.923 788.017,-185.261 782.468,-189.063 783.643,-184.203 783.643,-184.203 783.643,-184.203 782.468,-189.063 779.269,-183.146 781.294,-193.923 781.294,-193.923"/>
<text text-anchor="middle" x="839.642" y="-205.4" font-family="Times,serif" font-size="14.00">secondary_headliners</text>
</g>
<!-- Chart&#45;&gt;Event -->
<g id="edge30" class="edge"><title>Chart&#45;&gt;Event</title>
<path fill="none" stroke="#efe1b4" d="M332.589,-232.137C341.455,-219.133 352.523,-202.9 361.392,-189.892"/>
<ellipse fill="none" stroke="#efe1b4" cx="330.258" cy="-235.555" rx="4.00002" ry="4.00002"/>
<ellipse fill="#efe1b4" stroke="#efe1b4" cx="363.811" cy="-186.343" rx="4.00002" ry="4.00002"/>
</g>
<!-- Section -->
<g id="node18" class="node"><title>Section</title>
<ellipse fill="none" stroke="black" cx="285" cy="-166" rx="40.0039" ry="18"/>
<text text-anchor="middle" x="285" y="-160.4" font-family="Times,serif" font-size="14.00">Section</text>
</g>
<!-- Chart&#45;&gt;Section -->
<g id="edge28" class="edge"><title>Chart&#45;&gt;Section</title>
<path fill="none" stroke="#182b37" d="M307.998,-230.244C303.838,-218.804 298.892,-205.203 294.655,-193.55"/>
<ellipse fill="none" stroke="#182b37" cx="309.463" cy="-234.274" rx="4.00001" ry="4.00001"/>
<polygon fill="#182b37" stroke="#182b37" points="294.568,-193.313 295.38,-182.377 292.86,-188.614 291.151,-183.915 291.151,-183.915 291.151,-183.915 292.86,-188.614 286.922,-185.453 294.568,-193.313 294.568,-193.313"/>
</g>
<!-- Checkin -->
<g id="node7" class="node"><title>Checkin</title>
<ellipse fill="none" stroke="black" cx="1089" cy="-355" rx="43.3283" ry="18"/>
<text text-anchor="middle" x="1089" y="-349.4" font-family="Times,serif" font-size="14.00">Checkin</text>
</g>
<!-- Ckeditor::Asset -->
<g id="node8" class="node"><title>Ckeditor::Asset</title>
<ellipse fill="none" stroke="black" cx="1310" cy="-355" rx="71.4843" ry="18"/>
<text text-anchor="middle" x="1310" y="-349.4" font-family="Times,serif" font-size="14.00">Ckeditor::Asset</text>
</g>
<!-- Ckeditor::AttachmentFile -->
<g id="node9" class="node"><title>Ckeditor::AttachmentFile</title>
<ellipse fill="none" stroke="black" cx="1148" cy="-256" rx="109.906" ry="18"/>
<text text-anchor="middle" x="1148" y="-250.4" font-family="Times,serif" font-size="14.00">Ckeditor::AttachmentFile</text>
</g>
<!-- Ckeditor::Asset&#45;&gt;Ckeditor::AttachmentFile -->
<g id="edge32" class="edge"><title>Ckeditor::Asset&#45;&gt;Ckeditor::AttachmentFile</title>
<path fill="none" stroke="black" d="M1283.61,-338.199C1253.85,-320.376 1205.66,-291.526 1175.46,-273.443"/>
</g>
<!-- Ckeditor::Picture -->
<g id="node10" class="node"><title>Ckeditor::Picture</title>
<ellipse fill="none" stroke="black" cx="1354" cy="-256" rx="77.3258" ry="18"/>
<text text-anchor="middle" x="1354" y="-250.4" font-family="Times,serif" font-size="14.00">Ckeditor::Picture</text>
</g>
<!-- Ckeditor::Asset&#45;&gt;Ckeditor::Picture -->
<g id="edge34" class="edge"><title>Ckeditor::Asset&#45;&gt;Ckeditor::Picture</title>
<path fill="none" stroke="black" d="M1317.66,-337.104C1325.69,-319.409 1338.23,-291.772 1346.28,-274.028"/>
</g>
<!-- Event&#45;&gt;Ticket -->
<g id="edge36" class="edge"><title>Event&#45;&gt;Ticket</title>
<path fill="none" stroke="#19f4b3" d="M377,-139.8C377,-113.827 377,-73.4489 377,-46.6216"/>
<ellipse fill="none" stroke="#19f4b3" cx="377" cy="-143.966" rx="4" ry="4"/>
<polygon fill="#19f4b3" stroke="#19f4b3" points="377,-46.3779 381.5,-36.3778 377,-41.3779 377,-36.3779 377,-36.3779 377,-36.3779 377,-41.3779 372.5,-36.3779 377,-46.3779 377,-46.3779"/>
</g>
<!-- Order&#45;&gt;Ticket -->
<g id="edge38" class="edge"><title>Order&#45;&gt;Ticket</title>
<path fill="none" stroke="#f90b34" d="M496.731,-139.956C490.387,-115.302 477.522,-77.9604 454,-54 443.818,-43.6284 430,-36.0449 416.878,-30.6439"/>
<ellipse fill="none" stroke="#f90b34" cx="497.693" cy="-143.906" rx="4.00001" ry="4.00001"/>
<polygon fill="#f90b34" stroke="#f90b34" points="416.858,-30.6364 409.106,-22.881 412.184,-28.8623 407.509,-27.0882 407.509,-27.0882 407.509,-27.0882 412.184,-28.8623 405.912,-31.2954 416.858,-30.6364 416.858,-30.6364"/>
</g>
<!-- Page&#45;&gt;Page -->
<g id="edge40" class="edge"><title>Page&#45;&gt;Page</title>
<path fill="none" stroke="#7236b4" d="M828.911,-262.373C835.432,-261.561 840,-259.437 840,-256 840,-252.862 836.192,-250.819 830.566,-249.869"/>
<ellipse fill="none" stroke="#7236b4" cx="824.514" cy="-262.557" rx="4" ry="4"/>
<polygon fill="#7236b4" stroke="#7236b4" points="830.5,-249.865 820.782,-244.784 825.509,-249.571 820.518,-249.276 820.518,-249.276 820.518,-249.276 825.509,-249.571 820.253,-253.769 830.5,-249.865 830.5,-249.865"/>
<text text-anchor="middle" x="862.935" y="-250.4" font-family="Times,serif" font-size="14.00">children</text>
</g>
<!-- PaymentMethod -->
<g id="node15" class="node"><title>PaymentMethod</title>
<polygon fill="none" stroke="black" points="1507.91,-373 1400.09,-373 1400.09,-337 1507.91,-337 1507.91,-373"/>
<text text-anchor="middle" x="1454" y="-349.4" font-family="Times,serif" font-size="14.00">PaymentMethod</text>
</g>
<!-- Phone -->
<g id="node16" class="node"><title>Phone</title>
<ellipse fill="none" stroke="black" cx="695" cy="-166" rx="35.2688" ry="18"/>
<text text-anchor="middle" x="695" y="-160.4" font-family="Times,serif" font-size="14.00">Phone</text>
</g>
<!-- Phone&#45;&gt;User -->
<g id="edge42" class="edge"><title>Phone&#45;&gt;User</title>
<path fill="none" stroke="#462403" d="M683.838,-191.105C675.112,-204.626 663.071,-221.322 652.681,-234.256"/>
<ellipse fill="none" stroke="#462403" cx="686.189" cy="-187.353" rx="4.00002" ry="4.00002"/>
<ellipse fill="#462403" stroke="#462403" cx="650.111" cy="-237.38" rx="4.00002" ry="4.00002"/>
</g>
<!-- Price -->
<g id="node17" class="node"><title>Price</title>
<ellipse fill="none" stroke="black" cx="236" cy="-256" rx="30.32" ry="18"/>
<text text-anchor="middle" x="236" y="-250.4" font-family="Times,serif" font-size="14.00">Price</text>
</g>
<!-- Price&#45;&gt;Section -->
<g id="edge44" class="edge"><title>Price&#45;&gt;Section</title>
<path fill="none" stroke="#d4bf60" d="M249.119,-231.438C256.118,-218.87 264.709,-203.441 271.73,-190.832"/>
<ellipse fill="none" stroke="#d4bf60" cx="247.162" cy="-234.953" rx="4.00002" ry="4.00002"/>
<ellipse fill="#d4bf60" stroke="#d4bf60" cx="273.712" cy="-187.272" rx="4.00002" ry="4.00002"/>
</g>
<!-- Section&#45;&gt;Area -->
<g id="edge46" class="edge"><title>Section&#45;&gt;Area</title>
<path fill="none" stroke="#69784c" d="M293.933,-140.262C296.359,-133.545 298.995,-126.245 301.453,-119.438"/>
<ellipse fill="none" stroke="#69784c" cx="292.52" cy="-144.175" rx="4.00001" ry="4.00001"/>
<polygon fill="#69784c" stroke="#69784c" points="301.486,-119.346 309.115,-111.469 303.184,-114.643 304.883,-109.941 304.883,-109.941 304.883,-109.941 303.184,-114.643 300.65,-108.412 301.486,-119.346 301.486,-119.346"/>
</g>
<!-- Sidebar -->
<g id="node19" class="node"><title>Sidebar</title>
<ellipse fill="none" stroke="black" cx="943" cy="-355" rx="40.303" ry="18"/>
<text text-anchor="middle" x="943" y="-349.4" font-family="Times,serif" font-size="14.00">Sidebar</text>
</g>
<!-- Sidebar&#45;&gt;Page -->
<g id="edge52" class="edge"><title>Sidebar&#45;&gt;Page</title>
<path fill="none" stroke="#5bf52f" d="M914.03,-335.266C887.287,-317.972 847.813,-292.445 821.288,-275.293"/>
<ellipse fill="none" stroke="#5bf52f" cx="917.508" cy="-337.515" rx="4.00002" ry="4.00002"/>
<polygon fill="#5bf52f" stroke="#5bf52f" points="821.224,-275.252 815.271,-266.043 817.026,-272.537 812.827,-269.821 812.827,-269.821 812.827,-269.821 817.026,-272.537 810.383,-273.6 821.224,-275.252 821.224,-275.252"/>
</g>
<!-- Widget -->
<g id="node24" class="node"><title>Widget</title>
<ellipse fill="none" stroke="black" cx="943" cy="-256" rx="39.1177" ry="18"/>
<text text-anchor="middle" x="943" y="-250.4" font-family="Times,serif" font-size="14.00">Widget</text>
</g>
<!-- Sidebar&#45;&gt;Widget -->
<g id="edge50" class="edge"><title>Sidebar&#45;&gt;Widget</title>
<path fill="none" stroke="#430a61" d="M943,-326.327C943,-313.208 943,-297.579 943,-284.484"/>
<polygon fill="#430a61" stroke="#430a61" points="943,-326.658 938.5,-336.658 943,-331.658 943,-336.658 943,-336.658 943,-336.658 943,-331.658 947.5,-336.658 943,-326.658 943,-326.658"/>
<polygon fill="#430a61" stroke="#430a61" points="943,-284.192 947.5,-274.191 943,-279.192 943,-274.192 943,-274.192 943,-274.192 943,-279.192 938.5,-274.192 943,-284.192 943,-284.192"/>
</g>
<!-- WidgetPlacement -->
<g id="node25" class="node"><title>WidgetPlacement</title>
<ellipse fill="none" stroke="black" cx="977" cy="-166" rx="78.9508" ry="18"/>
<text text-anchor="middle" x="977" y="-160.4" font-family="Times,serif" font-size="14.00">WidgetPlacement</text>
</g>
<!-- Sidebar&#45;&gt;WidgetPlacement -->
<g id="edge48" class="edge"><title>Sidebar&#45;&gt;WidgetPlacement</title>
<path fill="none" stroke="#54be5c" d="M961.265,-331.202C972.247,-315.984 985.189,-294.981 991,-274 998.426,-247.191 992.527,-215.485 986.263,-193.581"/>
<ellipse fill="none" stroke="#54be5c" cx="958.775" cy="-334.555" rx="4.00002" ry="4.00002"/>
<polygon fill="#54be5c" stroke="#54be5c" points="986.248,-193.529 987.613,-182.649 984.779,-188.75 983.311,-183.97 983.311,-183.97 983.311,-183.97 984.779,-188.75 979.009,-185.291 986.248,-193.529 986.248,-193.529"/>
</g>
<!-- TicketLock -->
<g id="node21" class="node"><title>TicketLock</title>
<polygon fill="none" stroke="black" points="1606.03,-373 1525.97,-373 1525.97,-337 1606.03,-337 1606.03,-373"/>
<text text-anchor="middle" x="1566" y="-349.4" font-family="Times,serif" font-size="14.00">TicketLock</text>
</g>
<!-- User&#45;&gt;Address -->
<g id="edge56" class="edge"><title>User&#45;&gt;Address</title>
<path fill="none" stroke="#529a09" d="M617.302,-231.868C612.033,-220.165 606.603,-205.898 602.758,-193.728"/>
<ellipse fill="none" stroke="#529a09" cx="619.081" cy="-235.648" rx="4.00002" ry="4.00002"/>
<polygon fill="#529a09" stroke="#529a09" points="602.749,-193.697 604.258,-182.835 601.344,-188.898 599.94,-184.099 599.94,-184.099 599.94,-184.099 601.344,-188.898 595.621,-185.364 602.749,-193.697 602.749,-193.697"/>
</g>
<!-- User&#45;&gt;Order -->
<g id="edge54" class="edge"><title>User&#45;&gt;Order</title>
<path fill="none" stroke="#570da4" d="M606.167,-237.513C584.385,-222.769 553.248,-201.691 530.695,-186.425"/>
<ellipse fill="none" stroke="#570da4" cx="609.784" cy="-239.962" rx="4.00002" ry="4.00002"/>
<polygon fill="#570da4" stroke="#570da4" points="530.491,-186.286 524.733,-176.954 526.35,-183.483 522.21,-180.681 522.21,-180.681 522.21,-180.681 526.35,-183.483 519.687,-184.407 530.491,-186.286 530.491,-186.286"/>
</g>
<!-- User&#45;&gt;Phone -->
<g id="edge58" class="edge"><title>User&#45;&gt;Phone</title>
<path fill="none" stroke="#f810ea" d="M642.964,-231.202C651.211,-218.394 662.49,-202.668 672.531,-189.986"/>
<ellipse fill="none" stroke="#f810ea" cx="640.811" cy="-234.642" rx="4.00002" ry="4.00002"/>
<polygon fill="#f810ea" stroke="#f810ea" points="672.594,-189.908 682.397,-184.993 675.751,-186.031 678.907,-182.153 678.907,-182.153 678.907,-182.153 675.751,-186.031 675.417,-179.312 672.594,-189.908 672.594,-189.908"/>
</g>
<!-- User&#45;&gt;Ticket -->
<g id="edge60" class="edge"><title>User&#45;&gt;Ticket</title>
<path fill="none" stroke="#bd92d5" d="M599.647,-240.421C597.74,-239.594 595.847,-238.782 594,-238 534.494,-212.8 506.501,-227.814 459,-184 447.906,-173.767 408.604,-88.9472 388.714,-45.0746"/>
<polygon fill="#bd92d5" stroke="#bd92d5" points="600.003,-240.578 607.346,-248.722 604.58,-242.59 609.157,-244.603 609.157,-244.603 609.157,-244.603 604.58,-242.59 610.969,-240.483 600.003,-240.578 600.003,-240.578"/>
<polygon fill="#bd92d5" stroke="#bd92d5" points="388.673,-44.9854 388.655,-34.0195 386.614,-40.4292 384.554,-35.873 384.554,-35.873 384.554,-35.873 386.614,-40.4292 380.454,-37.7265 388.673,-44.9854 388.673,-44.9854"/>
</g>
<!-- Widget&#45;&gt;WidgetPlacement -->
<g id="edge62" class="edge"><title>Widget&#45;&gt;WidgetPlacement</title>
<path fill="none" stroke="#b11179" d="M952.545,-230.296C956.934,-218.937 962.149,-205.437 966.634,-193.829"/>
<ellipse fill="none" stroke="#b11179" cx="950.997" cy="-234.302" rx="4.00001" ry="4.00001"/>
<polygon fill="#b11179" stroke="#b11179" points="966.745,-193.543 974.546,-185.837 968.547,-188.879 970.349,-184.215 970.349,-184.215 970.349,-184.215 968.547,-188.879 966.151,-182.594 966.745,-193.543 966.745,-193.543"/>
</g>
</g>
</svg>
