<?xml version="1.0" encoding="utf-8"?>
<!-- Generator: Adobe Illustrator 15.0.0, SVG Export Plug-In . SVG Version: 6.00 Build 0)  -->
<!DOCTYPE svg PUBLIC "-//W3C//DTD SVG 1.1//EN" "http://www.w3.org/Graphics/SVG/1.1/DTD/svg11.dtd">
<svg version="1.1" id="Layer_1" xmlns="http://www.w3.org/2000/svg" xmlns:xlink="http://www.w3.org/1999/xlink" x="0px" y="0px"
	 width="398.417px" height="639.46px" viewBox="0 0 398.417 639.46" enable-background="new 0 0 398.417 639.46"
	 xml:space="preserve">
<g id="Background">
	<g id="Layer_4">
		<rect fill="#231F20" width="398.417" height="639.46"/>
	</g>
	<polyline fill="#444444" points="68.558,464.742 28.888,464.908 28.888,272.03 98.1,272.03 147.402,320.289 147.402,452.796 
		81.233,452.796 68.558,464.742 	"/>
	<rect x="148.79" y="124.347" fill="#666666" width="21.88" height="60.053"/>
	<rect x="211.402" y="124.347" fill="#666666" width="21.881" height="60.053"/>
	<rect x="273.607" y="124.347" fill="#666666" width="21.879" height="60.053"/>
	<rect x="333.738" y="124.347" fill="#666666" width="21.879" height="60.053"/>
	<rect x="52.821" y="281.931" fill="#020202" width="21.88" height="74.566"/>
	<rect x="53.159" y="362.718" fill="#020202" width="21.88" height="74.566"/>
	<rect x="108.909" y="418.351" fill="#020202" width="21.88" height="14.369"/>
	<polygon fill="#020202" points="129.068,375.167 107.188,375.167 107.188,300.599 129.068,321.826 	"/>
	<rect x="211.402" y="198.992" fill="#666666" width="21.881" height="60.052"/>
	<rect x="273.607" y="198.992" fill="#666666" width="21.879" height="60.052"/>
	<rect x="333.738" y="198.992" fill="#666666" width="21.879" height="60.052"/>
	<rect x="124.93" y="14.771" fill="#444444" width="257.19" height="102.983"/>
	<rect x="82.066" y="478.117" fill="#444444" width="87.286" height="139.807"/>
	<path fill="#F3F4F5" d="M68.558,464.742"/>
	<polygon fill="#444444" points="28.888,467.019 68.558,467.019 79.94,478.402 79.573,617.923 28.888,617.923 	"/>
	<g>
		<rect x="226.559" y="64.016" fill="none" width="43.378" height="11.404"/>
		<text transform="matrix(1 0 0 1 228.0952 74.2349)" fill="#FFFFFF" font-family="'GothamBook'" font-size="14">Stage</text>
	</g>
	<rect x="147.472" y="199.992" fill="#666666" width="21.88" height="60.053"/>
	<rect x="285.97" y="439.359" fill="#444444" width="95.943" height="71.514"/>
	<rect x="305.035" y="510.39" fill="#444444" width="77.086" height="107.533"/>
	<g>
		<rect x="306.632" y="485.8" fill="none" width="61.785" height="39.074"/>
		<text transform="matrix(1 0 0 1 315.2495 496.02)" fill="#FFFFFF" font-family="'GothamBook'" font-size="14">Sound </text>
		<text transform="matrix(1 0 0 1 316.2866 512.8198)" fill="#FFFFFF" font-family="'GothamBook'" font-size="14">Booth</text>
	</g>
	<circle fill="#562D2D" cx="261.18" cy="302.339" r="4.469"/>
	<circle fill="#562D2D" cx="277.078" cy="302.339" r="4.47"/>
	<circle fill="#562D2D" cx="292.974" cy="302.339" r="4.469"/>
	<circle fill="#562D2D" cx="329.029" cy="302.339" r="4.47"/>
	<circle fill="#562D2D" cx="344.925" cy="302.339" r="4.47"/>
	<circle fill="#562D2D" cx="360.822" cy="302.339" r="4.47"/>
	<circle fill="#562D2D" cx="260.916" cy="322.892" r="4.47"/>
	<circle fill="#562D2D" cx="276.812" cy="322.892" r="4.47"/>
	<circle fill="#562D2D" cx="292.708" cy="322.892" r="4.469"/>
	<circle fill="#562D2D" cx="328.763" cy="322.892" r="4.469"/>
	<circle fill="#562D2D" cx="344.66" cy="322.892" r="4.469"/>
	<circle fill="#562D2D" cx="360.558" cy="322.892" r="4.47"/>
	<circle fill="#562D2D" cx="276.679" cy="342.987" r="4.47"/>
	<circle fill="#562D2D" cx="292.576" cy="342.987" r="4.469"/>
	<circle fill="#562D2D" cx="328.632" cy="342.987" r="4.47"/>
	<circle fill="#562D2D" cx="344.529" cy="342.987" r="4.47"/>
	<circle fill="#562D2D" cx="360.425" cy="342.987" r="4.469"/>
	<circle fill="#562D2D" cx="276.416" cy="363.541" r="4.469"/>
	<circle fill="#562D2D" cx="292.312" cy="363.541" r="4.469"/>
	<circle fill="#562D2D" cx="328.367" cy="363.541" r="4.47"/>
	<circle fill="#562D2D" cx="344.263" cy="363.541" r="4.47"/>
	<circle fill="#562D2D" cx="360.16" cy="363.541" r="4.469"/>
	<circle fill="#562D2D" cx="276.679" cy="383.075" r="4.47"/>
	<circle fill="#562D2D" cx="292.576" cy="383.075" r="4.469"/>
	<circle fill="#562D2D" cx="328.632" cy="383.075" r="4.47"/>
	<circle fill="#562D2D" cx="344.529" cy="383.075" r="4.47"/>
	<circle fill="#562D2D" cx="360.425" cy="383.075" r="4.469"/>
	<circle fill="#562D2D" cx="276.416" cy="403.628" r="4.469"/>
	<circle fill="#562D2D" cx="292.312" cy="403.628" r="4.469"/>
	<circle fill="#562D2D" cx="328.367" cy="403.629" r="4.47"/>
	<circle fill="#562D2D" cx="344.263" cy="403.629" r="4.47"/>
	<circle fill="#562D2D" cx="360.16" cy="403.628" r="4.469"/>
	<circle fill="#562D2D" cx="276.416" cy="422.98" r="4.469"/>
	<circle fill="#562D2D" cx="292.312" cy="422.98" r="4.469"/>
	<circle fill="#562D2D" cx="328.367" cy="422.98" r="4.471"/>
	<circle fill="#562D2D" cx="344.263" cy="422.98" r="4.471"/>
	<circle fill="#562D2D" cx="360.16" cy="422.98" r="4.469"/>
	<rect x="50.822" y="202.926" fill="#666666" width="21.879" height="60.053"/>
	<g>
		<rect x="88.562" y="488.025" fill="none" width="72.736" height="10.414"/>
		<text transform="matrix(1 0 0 1 94.3262 498.2437)" fill="#FFFFFF" font-family="'GothamBook'" font-size="14">Bar Area</text>
	</g>
	<g>
		<rect x="8.333" y="444.435" fill="none" width="72.735" height="10.416"/>
		<text transform="matrix(1 0 0 1 32.7383 454.6558)" fill="#FFFFFF" font-family="'GothamBook'" font-size="14">VIP</text>
	</g>
	<rect x="43.966" y="156.57" fill="none" width="72.735" height="10.415"/>
	<text transform="matrix(1 0 0 1 59.5078 165.3296)" fill="#231F20" font-family="'GothamBook'" font-size="12">Seated</text>
</g>
<g id="Sections">
	<g id="VIP">
		<circle fill="#FFE600" cx="43.324" cy="285.4" r="4.469"/>
		<circle fill="#FFE600" cx="43.324" cy="301.789" r="4.469"/>
		<circle fill="#FFE600" cx="43.324" cy="319.362" r="4.469"/>
		<circle fill="#FFE600" cx="43.324" cy="336.515" r="4.469"/>
		<circle fill="#FFE600" cx="81.317" cy="285.4" r="4.469"/>
		<circle fill="#FFE600" cx="81.317" cy="301.789" r="4.469"/>
		<circle fill="#FFE600" cx="81.317" cy="319.362" r="4.469"/>
		<circle fill="#FFE600" cx="81.317" cy="336.515" r="4.469"/>
		<circle fill="#FFE600" cx="43.324" cy="351.029" r="4.469"/>
		<circle fill="#FFE600" cx="81.317" cy="351.029" r="4.469"/>
		<circle fill="#FFE600" cx="43.662" cy="366.188" r="4.47"/>
		<circle fill="#FFE600" cx="43.662" cy="382.576" r="4.469"/>
		<circle fill="#FFE600" cx="43.662" cy="400.148" r="4.469"/>
		<circle fill="#FFE600" cx="43.662" cy="417.303" r="4.47"/>
		<circle fill="#FFE600" cx="81.655" cy="366.188" r="4.47"/>
		<circle fill="#FFE600" cx="81.655" cy="382.576" r="4.469"/>
		<circle fill="#FFE600" cx="81.655" cy="400.148" r="4.469"/>
		<circle fill="#FFE600" cx="81.655" cy="417.303" r="4.47"/>
		<circle fill="#FFE600" cx="43.662" cy="431.816" r="4.469"/>
		<circle fill="#FFE600" cx="81.655" cy="431.816" r="4.469"/>
		<circle fill="#FFE600" cx="99.411" cy="427.251" r="4.469"/>
		<circle fill="#FFE600" cx="137.404" cy="427.251" r="4.469"/>
		<circle fill="#FFE600" cx="97.691" cy="304.07" r="4.469"/>
		<circle fill="#FFE600" cx="97.691" cy="320.457" r="4.469"/>
		<circle fill="#FFE600" cx="97.691" cy="338.03" r="4.469"/>
		<circle fill="#FFE600" cx="97.691" cy="355.184" r="4.469"/>
		<circle fill="#FFE600" cx="135.684" cy="325.295" r="4.469"/>
		<circle fill="#FFE600" cx="135.684" cy="341.486" r="4.469"/>
		<circle fill="#FFE600" cx="135.684" cy="355.184" r="4.469"/>
		<circle fill="#FFE600" cx="97.691" cy="369.698" r="4.469"/>
		<circle fill="#FFE600" cx="135.684" cy="369.698" r="4.469"/>
	</g>
	<g id="Bar">
		<circle fill="#BBFF00" cx="93.619" cy="467.402" r="4.469"/>
		<circle fill="#BBFF00" cx="114.516" cy="467.402" r="4.469"/>
		<circle fill="#BBFF00" cx="135.412" cy="467.402" r="4.469"/>
		<circle fill="#BBFF00" cx="152.927" cy="467.402" r="4.469"/>
	</g>
	<g id="Seating">
		<circle fill="#FF8B00" cx="139.293" cy="127.816" r="4.469"/>
		<circle fill="#FF8B00" cx="139.293" cy="144.204" r="4.469"/>
		<circle fill="#FF8B00" cx="139.293" cy="161.777" r="4.469"/>
		<circle fill="#FF8B00" cx="139.293" cy="178.93" r="4.469"/>
		<circle fill="#FF8B00" cx="177.286" cy="127.816" r="4.469"/>
		<circle fill="#FF8B00" cx="177.286" cy="144.204" r="4.469"/>
		<circle fill="#FF8B00" cx="177.286" cy="161.777" r="4.469"/>
		<circle fill="#FF8B00" cx="177.286" cy="178.93" r="4.469"/>
		<circle fill="#FF8B00" cx="201.905" cy="127.816" r="4.469"/>
		<circle fill="#FF8B00" cx="201.905" cy="144.204" r="4.469"/>
		<circle fill="#FF8B00" cx="201.905" cy="161.777" r="4.469"/>
		<circle fill="#FF8B00" cx="201.905" cy="178.93" r="4.469"/>
		<circle fill="#FF8B00" cx="239.898" cy="127.816" r="4.47"/>
		<circle fill="#FF8B00" cx="239.898" cy="144.204" r="4.47"/>
		<circle fill="#FF8B00" cx="239.898" cy="161.777" r="4.47"/>
		<circle fill="#FF8B00" cx="239.898" cy="178.93" r="4.47"/>
		<circle fill="#FF8B00" cx="264.109" cy="127.816" r="4.47"/>
		<circle fill="#FF8B00" cx="264.109" cy="144.204" r="4.47"/>
		<circle fill="#FF8B00" cx="264.109" cy="161.777" r="4.47"/>
		<circle fill="#FF8B00" cx="264.109" cy="178.93" r="4.47"/>
		<circle fill="#FF8B00" cx="302.102" cy="127.816" r="4.47"/>
		<circle fill="#FF8B00" cx="302.102" cy="144.204" r="4.47"/>
		<circle fill="#FF8B00" cx="302.102" cy="161.777" r="4.47"/>
		<circle fill="#FF8B00" cx="302.102" cy="178.93" r="4.47"/>
		<circle fill="#FF8B00" cx="324.24" cy="127.816" r="4.47"/>
		<circle fill="#FF8B00" cx="324.24" cy="144.204" r="4.47"/>
		<circle fill="#FF8B00" cx="324.24" cy="161.777" r="4.47"/>
		<circle fill="#FF8B00" cx="324.24" cy="178.93" r="4.47"/>
		<circle fill="#FF8B00" cx="139.293" cy="202.461" r="4.469"/>
		<circle fill="#FF8B00" cx="139.293" cy="218.849" r="4.469"/>
		<circle fill="#FF8B00" cx="139.293" cy="236.422" r="4.469"/>
		<circle fill="#FF8B00" cx="139.293" cy="253.576" r="4.469"/>
		<circle fill="#FF8B00" cx="177.286" cy="202.461" r="4.469"/>
		<circle fill="#FF8B00" cx="177.286" cy="218.849" r="4.469"/>
		<circle fill="#FF8B00" cx="177.286" cy="236.422" r="4.469"/>
		<circle fill="#FF8B00" cx="201.905" cy="202.461" r="4.469"/>
		<circle fill="#FF8B00" cx="201.905" cy="218.849" r="4.469"/>
		<circle fill="#FF8B00" cx="201.905" cy="236.422" r="4.469"/>
		<circle fill="#FF8B00" cx="201.905" cy="253.576" r="4.469"/>
		<circle fill="#FF8B00" cx="239.898" cy="202.461" r="4.47"/>
		<circle fill="#FF8B00" cx="239.898" cy="218.849" r="4.47"/>
		<circle fill="#FF8B00" cx="239.898" cy="236.422" r="4.47"/>
		<circle fill="#FF8B00" cx="239.898" cy="253.576" r="4.47"/>
		<circle fill="#FF8B00" cx="264.109" cy="202.461" r="4.47"/>
		<circle fill="#FF8B00" cx="264.109" cy="218.849" r="4.47"/>
		<circle fill="#FF8B00" cx="264.109" cy="236.422" r="4.47"/>
		<circle fill="#FF8B00" cx="264.109" cy="253.576" r="4.47"/>
		<circle fill="#FF8B00" cx="302.102" cy="202.461" r="4.47"/>
		<circle fill="#FF8B00" cx="302.102" cy="218.849" r="4.47"/>
		<circle fill="#FF8B00" cx="302.102" cy="236.422" r="4.47"/>
		<circle fill="#FF8B00" cx="302.102" cy="253.576" r="4.47"/>
		<circle fill="#FF8B00" cx="324.24" cy="202.461" r="4.47"/>
		<circle fill="#FF8B00" cx="324.24" cy="218.849" r="4.47"/>
		<circle fill="#FF8B00" cx="324.24" cy="236.422" r="4.47"/>
		<circle fill="#FF8B00" cx="324.24" cy="253.576" r="4.47"/>
		<circle fill="#FF8B00" cx="366.24" cy="127.816" r="4.47"/>
		<circle fill="#FF8B00" cx="366.24" cy="144.204" r="4.47"/>
		<circle fill="#FF8B00" cx="366.24" cy="161.777" r="4.47"/>
		<circle fill="#FF8B00" cx="366.24" cy="178.93" r="4.47"/>
		<circle fill="#FF8B00" cx="366.24" cy="202.461" r="4.47"/>
		<circle fill="#FF8B00" cx="366.24" cy="218.849" r="4.47"/>
		<circle fill="#FF8B00" cx="366.24" cy="236.422" r="4.47"/>
		<circle fill="#FF8B00" cx="366.24" cy="253.576" r="4.47"/>
		<circle fill="#FF8B00" cx="81.436" cy="252.907" r="4.469"/>
		<circle fill="#FF8B00" cx="42.34" cy="203.792" r="4.469"/>
		<circle fill="#FF8B00" cx="42.34" cy="220.18" r="4.469"/>
		<circle fill="#FF8B00" cx="42.34" cy="237.753" r="4.469"/>
		<circle fill="#FF8B00" cx="42.34" cy="254.907" r="4.469"/>
		<circle fill="#FF8B00" cx="80.333" cy="203.792" r="4.469"/>
		<circle fill="#FF8B00" cx="80.333" cy="220.18" r="4.469"/>
		<circle fill="#FF8B00" cx="80.333" cy="237.753" r="4.469"/>
		<circle fill="#FF8B00" cx="177.389" cy="253.576" r="4.469"/>
	</g>
	<g id="GA">
		<polygon fill="#FF0043" points="211.724,280.362 211.373,317.775 227.472,317.775 227.472,612.923 272.267,612.923 
			272.267,429.181 373.638,429.181 373.638,280.362 		"/>
	</g>
</g>
<g id="Foreground">
	<text transform="matrix(1 0 0 1 281.0005 356.7163)" fill="#FFFFFF" font-family="'GothamBook'" font-size="14">General </text>
	<text transform="matrix(1 0 0 1 271.4956 373.5171)" fill="#FFFFFF" font-family="'GothamBook'" font-size="14">Admission</text>
</g>
</svg>
